<svg width="745" height="191" viewBox="0 0 745 191" fill="none" xmlns="http://www.w3.org/2000/svg">
<path d="M18.776 19.52C18.776 18.112 18.296 17.008 17.336 16.208C16.408 15.408 15.112 15.008 13.448 15.008C11.912 15.008 10.616 15.36 9.56 16.064C8.504 16.736 7.912 17.616 7.784 18.704H3.848C3.944 16.656 4.888 14.96 6.68 13.616C8.504 12.272 10.76 11.6 13.448 11.6C16.264 11.6 18.52 12.336 20.216 13.808C21.944 15.248 22.808 17.168 22.808 19.568V28.736C22.808 32.768 23.128 35.856 23.768 38H19.928C19.544 36.944 19.256 35.568 19.064 33.872H18.872C17.304 36.944 14.728 38.48 11.144 38.48C8.712 38.48 6.728 37.76 5.192 36.32C3.656 34.848 2.888 32.944 2.888 30.608C2.888 25.936 6.504 23.264 13.736 22.592L16.136 22.352C17.896 22.16 18.776 21.216 18.776 19.52ZM18.776 24.32C18.264 24.704 17.496 24.976 16.472 25.136L14.168 25.376C11.64 25.696 9.8 26.272 8.648 27.104C7.496 27.904 6.92 29.04 6.92 30.512C6.92 31.92 7.368 33.056 8.264 33.92C9.16 34.752 10.36 35.168 11.864 35.168C13.784 35.168 15.416 34.48 16.76 33.104C18.104 31.696 18.776 29.968 18.776 27.92V24.32ZM31.9573 38V2.48H35.9893V16.448H36.1813C37.8133 13.216 40.3413 11.6 43.7653 11.6C46.8053 11.6 49.3173 12.864 51.3013 15.392C53.2853 17.92 54.2773 21.136 54.2773 25.04C54.2773 28.944 53.2853 32.16 51.3013 34.688C49.3493 37.216 46.8533 38.48 43.8133 38.48C40.2293 38.48 37.6053 36.704 35.9413 33.152H35.7493V38H31.9573ZM37.9093 32.096C39.2533 33.92 40.9813 34.832 43.0933 34.832C45.2053 34.832 46.9173 33.936 48.2293 32.144C49.5413 30.32 50.1973 27.952 50.1973 25.04C50.1973 22.128 49.5413 19.776 48.2293 17.984C46.9173 16.16 45.2053 15.248 43.0933 15.248C40.9813 15.248 39.2533 16.16 37.9093 17.984C36.5653 19.808 35.8933 22.16 35.8933 25.04C35.8933 27.92 36.5653 30.272 37.9093 32.096ZM77.7785 31.376H81.7625C81.3465 33.488 80.2265 35.2 78.4025 36.512C76.6105 37.824 74.5145 38.48 72.1145 38.48C68.7225 38.48 65.9065 37.2 63.6665 34.64C61.4585 32.08 60.3545 28.864 60.3545 24.992C60.3545 21.12 61.4425 17.92 63.6185 15.392C65.8265 12.864 68.6105 11.6 71.9705 11.6C74.4025 11.6 76.4985 12.256 78.2585 13.568C80.0185 14.88 81.0745 16.592 81.4265 18.704H77.4905C77.1385 17.616 76.4665 16.768 75.4745 16.16C74.4825 15.52 73.3145 15.2 71.9705 15.2C69.6665 15.2 67.8265 16.096 66.4505 17.888C65.0745 19.68 64.3865 22.032 64.3865 24.944C64.3865 27.92 65.0905 30.32 66.4985 32.144C67.9385 33.968 69.8265 34.88 72.1625 34.88C73.5385 34.88 74.7385 34.576 75.7625 33.968C76.7865 33.328 77.4585 32.464 77.7785 31.376ZM106.464 38C106.336 36.944 106.208 35.392 106.08 33.344H105.84C104.176 36.768 101.616 38.48 98.1598 38.48C95.1198 38.48 92.6078 37.216 90.6238 34.688C88.6398 32.128 87.6478 28.912 87.6478 25.04C87.6478 21.168 88.6398 17.968 90.6238 15.44C92.6398 12.88 95.1518 11.6 98.1598 11.6C101.52 11.6 104.032 13.2 105.696 16.4H105.936V2.48H109.968V29.36C109.968 31.6 110.08 34.48 110.304 38H106.464ZM98.9758 34.832C101.056 34.832 102.752 33.92 104.064 32.096C105.376 30.272 106.032 27.92 106.032 25.04C106.032 22.128 105.376 19.776 104.064 17.984C102.784 16.16 101.104 15.248 99.0238 15.248C96.9118 15.248 95.1678 16.176 93.7918 18.032C92.4158 19.856 91.7278 22.192 91.7278 25.04C91.7278 27.888 92.3998 30.24 93.7438 32.096C95.1198 33.92 96.8638 34.832 98.9758 34.832ZM121.757 25.808C121.917 28.592 122.669 30.816 124.013 32.48C125.389 34.112 127.181 34.928 129.389 34.928C130.733 34.928 131.901 34.608 132.893 33.968C133.917 33.328 134.621 32.464 135.005 31.376H138.845C138.365 33.52 137.245 35.248 135.485 36.56C133.725 37.84 131.661 38.48 129.293 38.48C125.933 38.48 123.165 37.216 120.989 34.688C118.845 32.128 117.773 28.864 117.773 24.896C117.773 20.992 118.797 17.808 120.845 15.344C122.925 12.848 125.565 11.6 128.765 11.6C131.869 11.6 134.397 12.784 136.349 15.152C138.333 17.488 139.325 20.528 139.325 24.272V25.808H121.757ZM128.765 15.104C126.973 15.104 125.469 15.792 124.253 17.168C123.037 18.512 122.253 20.336 121.901 22.64H135.341C135.245 20.368 134.589 18.544 133.373 17.168C132.157 15.792 130.621 15.104 128.765 15.104ZM154.09 38V15.68H146.794V12.08H154.09V11.168C154.09 8.16 154.81 5.888 156.25 4.352C157.69 2.784 159.802 2 162.586 2C164.538 2 166.202 2.368 167.578 3.104V6.464C166.17 5.76 164.73 5.408 163.258 5.408C159.834 5.408 158.122 7.328 158.122 11.168V12.08H167.098V15.68H158.122V38H154.09ZM176.68 20.288C176.68 17.76 177.528 15.68 179.224 14.048C180.952 12.416 183.144 11.6 185.799 11.6C186.984 11.6 188.056 11.76 189.016 12.08H197.464V15.44H193.576V15.488C194.504 16.928 194.968 18.528 194.968 20.288C194.968 22.816 194.104 24.928 192.376 26.624C190.648 28.288 188.456 29.12 185.799 29.12C184.52 29.12 183.304 28.896 182.152 28.448C181 29.024 180.424 29.824 180.424 30.848C180.424 31.456 180.632 31.968 181.048 32.384C181.496 32.8 182.04 33.008 182.68 33.008H189.16C191.784 33.008 193.88 33.616 195.448 34.832C197.016 36.048 197.8 37.68 197.8 39.728C197.8 42.192 196.696 44.192 194.488 45.728C192.28 47.296 189.432 48.08 185.944 48.08C182.712 48.08 180.056 47.392 177.976 46.016C175.928 44.672 174.904 42.928 174.904 40.784C174.904 39.568 175.256 38.464 175.96 37.472C176.696 36.48 177.688 35.712 178.936 35.168V34.976C177.592 34.112 176.92 32.864 176.92 31.232C176.92 29.344 177.832 27.92 179.656 26.96C177.672 25.296 176.68 23.072 176.68 20.288ZM182.776 36.8C181.592 36.8 180.6 37.152 179.8 37.856C179 38.528 178.6 39.376 178.6 40.4C178.6 41.68 179.272 42.72 180.616 43.52C181.992 44.32 183.8 44.72 186.04 44.72C188.376 44.72 190.248 44.288 191.656 43.424C193.064 42.592 193.768 41.488 193.768 40.112C193.768 39.088 193.336 38.288 192.472 37.712C191.608 37.104 190.408 36.8 188.872 36.8H182.776ZM185.799 25.712C187.368 25.712 188.632 25.232 189.592 24.272C190.552 23.28 191.032 22 191.032 20.432C191.032 18.864 190.552 17.6 189.592 16.64C188.632 15.648 187.368 15.152 185.799 15.152C184.264 15.152 183.016 15.648 182.056 16.64C181.096 17.6 180.616 18.864 180.616 20.432C180.616 22 181.096 23.28 182.056 24.272C183.016 25.232 184.264 25.712 185.799 25.712ZM205.605 38V2.48H209.637V15.776H209.829C211.333 12.992 213.669 11.6 216.837 11.6C219.205 11.6 221.109 12.416 222.549 14.048C224.021 15.68 224.757 17.824 224.757 20.48V38H220.725V20.816C220.725 19.056 220.277 17.648 219.381 16.592C218.485 15.536 217.301 15.008 215.829 15.008C214.037 15.008 212.549 15.76 211.365 17.264C210.213 18.768 209.637 20.688 209.637 23.024V38H205.605ZM234.434 38V34.4H242.21V15.68H234.674V12.08H246.242V34.4H254.018V38H234.434ZM240.146 3.728C240.146 2.768 240.498 1.952 241.202 1.28C241.906 0.575997 242.738 0.223997 243.698 0.223997C244.69 0.223997 245.522 0.559998 246.194 1.232C246.898 1.904 247.25 2.736 247.25 3.728C247.25 4.72 246.898 5.568 246.194 6.272C245.522 6.944 244.69 7.28 243.698 7.28C242.738 7.28 241.906 6.944 241.202 6.272C240.498 5.568 240.146 4.72 240.146 3.728ZM277.519 38.912C277.519 41.92 276.799 44.192 275.359 45.728C273.919 47.296 271.807 48.08 269.023 48.08C267.071 48.08 265.407 47.712 264.031 46.976V43.616C265.439 44.32 266.879 44.672 268.351 44.672C271.775 44.672 273.487 42.752 273.487 38.912V15.68H264.271V12.08H277.519V38.912ZM271.471 3.728C271.471 2.768 271.823 1.952 272.527 1.28C273.231 0.575997 274.063 0.223997 275.023 0.223997C276.015 0.223997 276.847 0.559998 277.519 1.232C278.223 1.904 278.575 2.736 278.575 3.728C278.575 4.72 278.223 5.568 277.519 6.272C276.847 6.944 276.015 7.28 275.023 7.28C274.063 7.28 273.231 6.944 272.527 6.272C271.823 5.568 271.471 4.72 271.471 3.728ZM291.373 38V2.48H295.405V25.136L307.405 12.08H312.541L302.749 22.592L313.357 38H308.557L300.013 25.568L295.405 30.512V38H291.373ZM330.474 29.312C330.474 33.152 332.186 35.072 335.61 35.072C337.082 35.072 338.522 34.72 339.93 34.016V37.376C338.554 38.112 336.89 38.48 334.938 38.48C332.154 38.48 330.042 37.712 328.602 36.176C327.162 34.608 326.442 32.32 326.442 29.312V6.08H318.714V2.48H330.474V29.312ZM346.343 38V12.08H349.991V14.864H350.183C350.503 13.872 351.095 13.088 351.959 12.512C352.823 11.904 353.815 11.6 354.935 11.6C356.119 11.6 357.127 11.936 357.959 12.608C358.823 13.28 359.431 14.208 359.783 15.392H359.975C360.903 12.864 362.695 11.6 365.351 11.6C367.207 11.6 368.679 12.224 369.767 13.472C370.855 14.72 371.399 16.416 371.399 18.56V38H367.463V19.088C367.463 17.808 367.191 16.8 366.647 16.064C366.135 15.328 365.415 14.96 364.487 14.96C363.431 14.96 362.551 15.424 361.847 16.352C361.175 17.28 360.839 18.48 360.839 19.952V38H356.903V19.088C356.903 17.808 356.647 16.8 356.135 16.064C355.623 15.328 354.903 14.96 353.975 14.96C352.887 14.96 351.991 15.44 351.287 16.4C350.615 17.36 350.279 18.576 350.279 20.048V38H346.343ZM378.292 38V12.08H382.084V16.016H382.276C383.748 13.072 386.148 11.6 389.476 11.6C391.876 11.6 393.796 12.416 395.236 14.048C396.708 15.68 397.444 17.824 397.444 20.48V38H393.412V20.816C393.412 19.024 392.964 17.616 392.068 16.592C391.204 15.536 390.036 15.008 388.564 15.008C386.74 15.008 385.236 15.76 384.052 17.264C382.9 18.768 382.324 20.688 382.324 23.024V38H378.292ZM424.45 34.688C422.306 37.216 419.602 38.48 416.338 38.48C413.074 38.48 410.37 37.216 408.226 34.688C406.082 32.16 405.01 28.944 405.01 25.04C405.01 21.136 406.082 17.92 408.226 15.392C410.37 12.864 413.074 11.6 416.338 11.6C419.602 11.6 422.306 12.864 424.45 15.392C426.594 17.92 427.666 21.136 427.666 25.04C427.666 28.944 426.594 32.16 424.45 34.688ZM411.106 32.096C412.45 33.92 414.194 34.832 416.338 34.832C418.482 34.832 420.226 33.92 421.57 32.096C422.914 30.272 423.586 27.92 423.586 25.04C423.586 22.16 422.914 19.808 421.57 17.984C420.226 16.16 418.482 15.248 416.338 15.248C414.194 15.248 412.45 16.16 411.106 17.984C409.762 19.808 409.09 22.16 409.09 25.04C409.09 27.92 409.762 30.272 411.106 32.096ZM434.895 12.08H438.687V16.928H438.927C440.527 13.376 443.135 11.6 446.751 11.6C449.791 11.6 452.287 12.864 454.239 15.392C456.223 17.92 457.215 21.136 457.215 25.04C457.215 28.944 456.223 32.16 454.239 34.688C452.255 37.216 449.743 38.48 446.703 38.48C443.343 38.48 440.831 36.896 439.167 33.728H438.927V47.6H434.895V12.08ZM451.167 17.984C449.855 16.16 448.143 15.248 446.031 15.248C443.919 15.248 442.191 16.16 440.847 17.984C439.503 19.808 438.831 22.16 438.831 25.04C438.831 27.92 439.503 30.272 440.847 32.096C442.191 33.92 443.919 34.832 446.031 34.832C448.143 34.832 449.855 33.936 451.167 32.144C452.479 30.32 453.135 27.952 453.135 25.04C453.135 22.128 452.479 19.776 451.167 17.984ZM480.332 12.08H484.124V47.6H480.092V33.728H479.852C478.188 36.896 475.676 38.48 472.316 38.48C469.276 38.48 466.764 37.216 464.78 34.688C462.796 32.16 461.804 28.944 461.804 25.04C461.804 21.136 462.78 17.92 464.732 15.392C466.716 12.864 469.228 11.6 472.268 11.6C475.884 11.6 478.492 13.376 480.092 16.928H480.332V12.08ZM478.172 17.984C476.828 16.16 475.1 15.248 472.988 15.248C470.876 15.248 469.164 16.16 467.852 17.984C466.54 19.776 465.884 22.128 465.884 25.04C465.884 27.952 466.54 30.32 467.852 32.144C469.164 33.936 470.876 34.832 472.988 34.832C475.1 34.832 476.828 33.92 478.172 32.096C479.516 30.272 480.188 27.92 480.188 25.04C480.188 22.16 479.516 19.808 478.172 17.984ZM498.697 38H494.665V12.08H498.457V16.256H498.649C500.185 13.248 502.601 11.744 505.897 11.744C507.945 11.744 509.641 12.384 510.985 13.664C512.329 14.912 513.129 16.592 513.385 18.704H509.257C509.033 17.648 508.521 16.816 507.721 16.208C506.921 15.6 505.961 15.296 504.841 15.296C503.049 15.296 501.577 16.048 500.425 17.552C499.273 19.024 498.697 20.928 498.697 23.264V38ZM521.719 31.376H525.655C525.815 32.464 526.471 33.376 527.623 34.112C528.807 34.816 530.183 35.168 531.751 35.168C533.383 35.168 534.695 34.768 535.687 33.968C536.711 33.136 537.223 32.064 537.223 30.752C537.223 29.696 536.839 28.88 536.071 28.304C535.303 27.728 534.039 27.296 532.279 27.008L531.079 26.864C528.199 26.416 526.071 25.616 524.695 24.464C523.351 23.28 522.679 21.68 522.679 19.664C522.679 17.296 523.511 15.36 525.175 13.856C526.839 12.352 528.983 11.6 531.607 11.6C534.135 11.6 536.279 12.272 538.039 13.616C539.831 14.96 540.791 16.656 540.919 18.704H537.127C536.967 17.648 536.375 16.784 535.351 16.112C534.327 15.408 533.095 15.056 531.655 15.056C530.151 15.056 528.935 15.44 528.007 16.208C527.079 16.976 526.615 17.984 526.615 19.232C526.615 20.288 526.983 21.12 527.719 21.728C528.487 22.304 529.703 22.72 531.367 22.976L532.519 23.168C535.495 23.584 537.687 24.384 539.095 25.568C540.503 26.752 541.207 28.368 541.207 30.416C541.207 32.848 540.311 34.832 538.519 36.368C536.727 37.904 534.407 38.672 531.559 38.672C528.839 38.672 526.535 37.984 524.647 36.608C522.791 35.2 521.815 33.456 521.719 31.376ZM560.58 29.312C560.58 33.152 562.292 35.072 565.716 35.072C567.188 35.072 568.628 34.72 570.036 34.016V37.376C568.66 38.112 566.996 38.48 565.044 38.48C562.26 38.48 560.148 37.712 558.708 36.176C557.268 34.608 556.548 32.32 556.548 29.312V15.68H549.252V12.08H556.548V4.592L560.58 3.92V12.08H569.556V15.68H560.58V29.312ZM598.337 29.36C598.337 31.6 598.449 34.48 598.673 38H594.833C594.641 36.24 594.529 34.976 594.497 34.208H594.305C592.769 37.056 590.385 38.48 587.153 38.48C584.753 38.48 582.817 37.664 581.345 36.032C579.905 34.4 579.185 32.256 579.185 29.6V12.08H583.217V29.264C583.217 31.056 583.649 32.48 584.513 33.536C585.409 34.56 586.593 35.072 588.065 35.072C589.889 35.072 591.377 34.32 592.529 32.816C593.713 31.312 594.305 29.392 594.305 27.056V12.08H598.337V29.36ZM615.262 38L606.91 12.08H610.99L617.854 33.776H618.046L624.718 12.08H628.702L620.542 38H615.262ZM636.556 38L632.956 12.08H636.7L639.436 33.536H639.628L644.62 14.96H648.556L653.548 33.632H653.74L656.476 12.08H660.22L656.62 38H651.58L646.684 19.616H646.492L641.596 38H636.556ZM663.993 38L672.633 24.656L664.713 12.08H669.417L675.369 21.728L681.369 12.08H685.929L678.009 24.56L686.745 38H682.041L675.321 27.44L668.601 38H663.993ZM692.918 43.904C693.942 44.192 694.918 44.336 695.846 44.336C697.318 44.336 698.502 43.936 699.398 43.136C700.326 42.336 701.158 40.976 701.894 39.056L702.278 38.048L692.822 12.08H696.998L704.198 32.528H704.39L711.542 12.08H715.622L705.494 40.16C704.534 42.848 703.334 44.8 701.894 46.016C700.454 47.232 698.614 47.84 696.374 47.84C695.254 47.84 694.102 47.664 692.918 47.312V43.904ZM722.947 38V34.784L737.395 15.584H723.427V12.08H742.291V15.296L727.843 34.496H743.107V38H722.947ZM4.424 86H0.344L10.568 52.4H16.232L26.456 86H22.28L19.4 76.544H7.304L4.424 86ZM8.408 72.848H18.296L13.448 56.816H13.256L8.408 72.848ZM32.1013 86V52.4H43.4293C46.1173 52.4 48.3253 53.216 50.0533 54.848C51.8133 56.448 52.6933 58.496 52.6933 60.992C52.6933 62.624 52.2933 64.096 51.4933 65.408C50.6933 66.688 49.6053 67.664 48.2293 68.336V68.528C49.9573 69.168 51.3013 70.208 52.2613 71.648C53.2533 73.088 53.7493 74.784 53.7493 76.736C53.7493 79.424 52.8373 81.648 51.0133 83.408C49.1893 85.136 46.8693 86 44.0533 86H32.1013ZM36.2773 66.704H43.6213C45.0933 66.704 46.2773 66.208 47.1733 65.216C48.1013 64.192 48.5653 62.896 48.5653 61.328C48.5653 59.76 48.1013 58.512 47.1733 57.584C46.2773 56.624 45.0933 56.144 43.6213 56.144H36.2773V66.704ZM36.2773 82.256H44.1973C45.7653 82.256 47.0453 81.712 48.0373 80.624C49.0293 79.536 49.5253 78.112 49.5253 76.352C49.5253 74.592 49.0293 73.168 48.0373 72.08C47.0453 70.992 45.7653 70.448 44.1973 70.448H36.2773V82.256ZM78.9305 77.456H82.9145C82.5625 80.08 81.3785 82.24 79.3625 83.936C77.3465 85.632 74.9625 86.48 72.2105 86.48C68.4025 86.48 65.2985 84.88 62.8985 81.68C60.5305 78.48 59.3465 74.32 59.3465 69.2C59.3465 64.08 60.5305 59.92 62.8985 56.72C65.2665 53.52 68.3385 51.92 72.1145 51.92C74.8025 51.92 77.1225 52.72 79.0745 54.32C81.0265 55.92 82.2105 57.968 82.6265 60.464H78.5945C78.2745 59.056 77.5225 57.92 76.3385 57.056C75.1865 56.192 73.8265 55.76 72.2585 55.76C69.6345 55.76 67.5225 56.992 65.9225 59.456C64.3545 61.888 63.5705 65.152 63.5705 69.248C63.5705 73.344 64.3545 76.608 65.9225 79.04C67.5225 81.44 69.6505 82.64 72.3065 82.64C73.9705 82.64 75.4105 82.176 76.6265 81.248C77.8425 80.288 78.6105 79.024 78.9305 77.456ZM89.1838 86V52.4H98.7358C102.8 52.4 106.08 53.952 108.576 57.056C111.104 60.16 112.368 64.208 112.368 69.2C112.368 74.192 111.104 78.24 108.576 81.344C106.08 84.448 102.8 86 98.7358 86H89.1838ZM93.3598 82.256H98.7358C101.584 82.256 103.856 81.072 105.552 78.704C107.28 76.336 108.144 73.168 108.144 69.2C108.144 65.232 107.28 62.064 105.552 59.696C103.856 57.328 101.584 56.144 98.7358 56.144H93.3598V82.256ZM119.549 86V52.4H139.517V56.144H123.725V66.704H137.405V70.448H123.725V82.256H139.517V86H119.549ZM148.474 86V52.4H168.442V56.144H152.698V67.328H166.33V71.072H152.698V86H148.474ZM185.944 71.648V67.904H197.512V86H193.72V80.912H193.576C192.712 82.672 191.544 84.048 190.072 85.04C188.632 86 187.016 86.48 185.224 86.48C181.896 86.48 179.144 84.88 176.968 81.68C174.792 78.48 173.704 74.384 173.704 69.392C173.704 64.208 174.888 60 177.256 56.768C179.656 53.536 182.76 51.92 186.568 51.92C189.288 51.92 191.64 52.72 193.624 54.32C195.608 55.92 196.824 57.968 197.272 60.464H193.192C192.84 59.056 192.072 57.92 190.888 57.056C189.704 56.192 188.312 55.76 186.712 55.76C184.024 55.76 181.88 56.992 180.28 59.456C178.68 61.888 177.88 65.168 177.88 69.296C177.88 73.296 178.616 76.544 180.088 79.04C181.592 81.504 183.544 82.736 185.944 82.736C188.152 82.736 189.96 81.712 191.368 79.664C192.776 77.584 193.48 74.912 193.48 71.648H185.944ZM203.637 86V52.4H207.813V66.704H221.925V52.4H226.101V86H221.925V70.544H207.813V86H203.637ZM233.954 86V82.256H241.586V56.144H234.05V52.4H253.25V56.144H245.762V82.256H253.346V86H233.954ZM260.815 77.456H264.703C264.799 79.024 265.455 80.304 266.671 81.296C267.887 82.256 269.423 82.736 271.279 82.736C273.199 82.736 274.751 82.208 275.935 81.152C277.119 80.064 277.711 78.672 277.711 76.976V56.144H264.607V52.4H281.887V77.024C281.887 79.776 280.895 82.048 278.911 83.84C276.927 85.6 274.399 86.48 271.327 86.48C268.351 86.48 265.855 85.632 263.839 83.936C261.855 82.24 260.847 80.08 260.815 77.456ZM294.445 52.4V69.44L309.565 52.4H314.701L302.269 66.512L315.325 86H310.477L299.484 69.68L294.445 75.344V86H290.269V52.4H294.445ZM321.546 86V52.4H325.722V82.256H341.034V86H321.546ZM350.327 57.296V86H346.391V52.4H352.391L358.679 73.664H358.871L365.159 52.4H371.159V86H367.223V57.296H367.031L360.647 78.704H356.903L350.519 57.296H350.327ZM395.092 79.904V52.4H398.98V86H393.604L380.212 56.72H380.02V86H376.132V52.4H382.276L394.9 79.904H395.092ZM425.458 81.68C423.09 84.88 420.05 86.48 416.338 86.48C412.626 86.48 409.586 84.88 407.218 81.68C404.85 78.448 403.666 74.288 403.666 69.2C403.666 64.112 404.85 59.968 407.218 56.768C409.586 53.536 412.626 51.92 416.338 51.92C420.05 51.92 423.09 53.536 425.458 56.768C427.826 59.968 429.01 64.112 429.01 69.2C429.01 74.288 427.826 78.448 425.458 81.68ZM410.146 78.992C411.714 81.424 413.778 82.64 416.338 82.64C418.898 82.64 420.946 81.424 422.482 78.992C424.05 76.528 424.834 73.264 424.834 69.2C424.834 65.136 424.05 61.888 422.482 59.456C420.946 56.992 418.898 55.76 416.338 55.76C413.778 55.76 411.714 56.992 410.146 59.456C408.61 61.888 407.842 65.136 407.842 69.2C407.842 73.264 408.61 76.528 410.146 78.992ZM435.279 86V52.4H447.567C450.447 52.4 452.799 53.312 454.623 55.136C456.447 56.928 457.359 59.248 457.359 62.096C457.359 64.944 456.447 67.28 454.623 69.104C452.799 70.896 450.447 71.792 447.567 71.792H439.455V86H435.279ZM439.455 68.048H447.807C449.471 68.048 450.799 67.504 451.791 66.416C452.815 65.328 453.327 63.888 453.327 62.096C453.327 60.304 452.815 58.864 451.791 57.776C450.799 56.688 449.471 56.144 447.807 56.144H439.455V68.048ZM486.284 89.072L481.004 83.84C478.956 85.6 476.588 86.48 473.9 86.48C470.188 86.48 467.148 84.88 464.78 81.68C462.412 78.448 461.228 74.288 461.228 69.2C461.228 64.112 462.412 59.968 464.78 56.768C467.148 53.536 470.188 51.92 473.9 51.92C477.612 51.92 480.652 53.536 483.02 56.768C485.388 59.968 486.572 64.112 486.572 69.2C486.572 74.224 485.42 78.336 483.116 81.536L488.492 86.864L486.284 89.072ZM473.9 82.64C475.564 82.64 477.02 82.112 478.268 81.056L472.124 74.912L474.332 72.704L480.284 78.656C481.692 76.256 482.396 73.104 482.396 69.2C482.396 65.136 481.612 61.888 480.044 59.456C478.508 56.992 476.46 55.76 473.9 55.76C471.34 55.76 469.276 56.992 467.708 59.456C466.172 61.888 465.404 65.136 465.404 69.2C465.404 73.264 466.172 76.528 467.708 78.992C469.276 81.424 471.34 82.64 473.9 82.64ZM496.921 67.376H505.129C506.697 67.376 507.961 66.864 508.921 65.84C509.913 64.816 510.409 63.456 510.409 61.76C510.409 60.064 509.913 58.704 508.921 57.68C507.961 56.656 506.697 56.144 505.129 56.144H496.921V67.376ZM492.745 86V52.4H504.889C507.705 52.4 509.993 53.28 511.753 55.04C513.545 56.768 514.441 59.008 514.441 61.76C514.441 64.032 513.817 65.968 512.569 67.568C511.353 69.168 509.705 70.24 507.625 70.784L515.401 86H510.841L503.209 71.12H496.921V86H492.745ZM520.183 77.456H524.118C524.279 79.056 525.047 80.368 526.423 81.392C527.799 82.416 529.495 82.928 531.511 82.928C533.623 82.928 535.335 82.368 536.647 81.248C537.959 80.128 538.615 78.672 538.615 76.88C538.615 73.872 536.487 71.92 532.231 71.024L530.263 70.64C524.151 69.424 521.095 66.368 521.095 61.472C521.095 58.656 522.055 56.368 523.975 54.608C525.895 52.816 528.391 51.92 531.463 51.92C534.439 51.92 536.951 52.736 538.999 54.368C541.047 55.968 542.151 58 542.311 60.464H538.375C538.183 59.056 537.447 57.904 536.167 57.008C534.887 56.08 533.351 55.616 531.559 55.616C529.639 55.616 528.087 56.128 526.903 57.152C525.751 58.176 525.175 59.536 525.175 61.232C525.175 64.112 527.063 65.936 530.839 66.704L532.807 67.088C539.431 68.432 542.743 71.632 542.743 76.688C542.743 79.632 541.703 82.032 539.623 83.888C537.575 85.744 534.903 86.672 531.607 86.672C528.407 86.672 525.719 85.808 523.543 84.08C521.399 82.32 520.279 80.112 520.183 77.456ZM558.18 86V56.144H548.052V52.4H572.436V56.144H562.356V86H558.18ZM600.257 52.4V75.44C600.257 78.672 599.201 81.328 597.089 83.408C595.009 85.456 592.321 86.48 589.025 86.48C585.729 86.48 583.025 85.456 580.913 83.408C578.833 81.328 577.793 78.672 577.793 75.44V52.4H581.969V75.44C581.969 77.584 582.625 79.328 583.937 80.672C585.249 81.984 586.945 82.64 589.025 82.64C591.137 82.64 592.833 81.984 594.113 80.672C595.425 79.328 596.081 77.584 596.081 75.44V52.4H600.257ZM615.022 86L604.654 52.4H608.926L617.758 81.344H617.95L626.782 52.4H630.958L620.59 86H615.022ZM635.548 86L631.995 52.4H635.836L638.572 80.528H638.764L644.812 57.488H648.364L654.412 80.528H654.604L657.388 52.4H661.18L657.628 86H652.492L646.684 63.824H646.492L640.684 86H635.548ZM661.497 86L672.777 68.528L662.265 52.4H667.017L675.369 65.12L683.721 52.4H688.377L677.913 68.48L689.241 86H684.489L675.321 71.936L666.153 86H661.497ZM702.086 86V71.888L690.758 52.4H695.414L704.198 67.712L713.03 52.4H717.542L706.214 71.888V86H702.086ZM721.219 86V82.544L738.787 56.144H721.699V52.4H743.827V55.856L726.259 82.256H744.643V86H721.219ZM3.032 134V130.352H11.768V109.76L3.224 109.712V106.544C6.616 106.544 8.952 106.128 10.232 105.296C11.512 104.464 12.312 102.832 12.632 100.4H15.944V130.352H24.728V134H3.032ZM31.8133 134V132.368C31.8133 130.48 32.4693 128.544 33.7812 126.56C35.1253 124.576 37.3493 122.208 40.4532 119.456C43.0453 117.152 44.8853 115.232 45.9733 113.696C47.0613 112.128 47.6053 110.608 47.6053 109.136C47.6053 107.472 47.0453 106.144 45.9253 105.152C44.8373 104.128 43.3973 103.616 41.6053 103.616C39.9093 103.616 38.4693 104.08 37.2853 105.008C36.1013 105.904 35.4453 107.056 35.3173 108.464H31.2853C31.3493 106.032 32.3733 104 34.3573 102.368C36.3733 100.736 38.8373 99.92 41.7493 99.92C44.6933 99.92 47.0933 100.768 48.9493 102.464C50.8373 104.16 51.7812 106.336 51.7812 108.992C51.7812 111.04 51.1253 113.072 49.8133 115.088C48.5013 117.104 46.3253 119.44 43.2853 122.096C39.4773 125.424 37.2213 128.176 36.5173 130.352H53.2213V134H31.8133ZM64.6745 108.464H60.6905C60.6905 106 61.6185 103.968 63.4745 102.368C65.3625 100.736 67.7305 99.92 70.5785 99.92C73.4905 99.92 75.8905 100.768 77.7785 102.464C79.6985 104.128 80.6585 106.24 80.6585 108.8C80.6585 112.256 79.0265 114.624 75.7625 115.904V116.096C77.6825 116.736 79.1865 117.792 80.2745 119.264C81.3625 120.704 81.9065 122.432 81.9065 124.448C81.9065 127.36 80.8505 129.76 78.7385 131.648C76.6585 133.536 74.0025 134.48 70.7705 134.48C67.6665 134.48 65.0745 133.616 62.9945 131.888C60.9145 130.16 59.8745 128.016 59.8745 125.456H63.9065C63.9705 126.992 64.6425 128.272 65.9225 129.296C67.2345 130.32 68.8505 130.832 70.7705 130.832C72.8505 130.832 74.5465 130.24 75.8585 129.056C77.2025 127.84 77.8745 126.288 77.8745 124.4C77.8745 122.576 77.2345 121.088 75.9545 119.936C74.7065 118.752 73.0905 118.16 71.1065 118.16H68.1305V114.368H70.9145C72.6105 114.368 74.0025 113.888 75.0905 112.928C76.1785 111.936 76.7225 110.672 76.7225 109.136C76.7225 107.536 76.1465 106.208 74.9945 105.152C73.8425 104.096 72.3865 103.568 70.6265 103.568C68.9625 103.568 67.5545 104.032 66.4025 104.96C65.2825 105.888 64.7065 107.056 64.6745 108.464ZM87.2638 126.08V122.048L100.8 100.4H106.56V122.336H112.512V126.08H106.56V134H102.528V126.08H87.2638ZM102.336 104.096L91.0558 122.336H102.528V104.096H102.336ZM121.805 125.456C121.997 127.024 122.701 128.32 123.917 129.344C125.165 130.336 126.653 130.832 128.381 130.832C130.429 130.832 132.109 130.144 133.421 128.768C134.765 127.392 135.437 125.632 135.437 123.488C135.437 121.344 134.781 119.6 133.469 118.256C132.189 116.88 130.525 116.192 128.477 116.192C125.757 116.192 123.789 117.264 122.573 119.408L118.925 118.736L120.893 100.4H137.933V104.048H124.445L123.245 114.848L123.437 114.896C125.005 113.424 127.021 112.688 129.485 112.688C132.397 112.688 134.813 113.712 136.733 115.76C138.653 117.776 139.613 120.336 139.613 123.44C139.613 126.64 138.557 129.28 136.445 131.36C134.365 133.44 131.709 134.48 128.477 134.48C125.565 134.48 123.117 133.648 121.133 131.984C119.149 130.288 118.045 128.112 117.821 125.456H121.805ZM158.17 103.568C155.61 103.568 153.578 104.832 152.074 107.36C150.57 109.856 149.802 113.248 149.77 117.536H150.01C151.834 114.24 154.698 112.592 158.602 112.592C161.546 112.592 163.978 113.616 165.898 115.664C167.85 117.68 168.826 120.256 168.826 123.392C168.826 126.624 167.786 129.28 165.706 131.36C163.626 133.44 161.002 134.48 157.834 134.48C154.122 134.48 151.178 132.976 149.002 129.968C146.826 126.96 145.738 122.848 145.738 117.632C145.738 112.288 146.858 108 149.098 104.768C151.338 101.536 154.362 99.92 158.17 99.92C160.858 99.92 163.13 100.72 164.986 102.32C166.874 103.92 167.946 105.968 168.202 108.464H164.41C164.058 106.96 163.306 105.776 162.154 104.912C161.034 104.016 159.706 103.568 158.17 103.568ZM151.018 123.632C151.018 125.68 151.674 127.392 152.986 128.768C154.298 130.144 155.93 130.832 157.882 130.832C159.866 130.832 161.514 130.144 162.826 128.768C164.138 127.36 164.794 125.584 164.794 123.44C164.794 121.328 164.154 119.584 162.874 118.208C161.626 116.832 160.026 116.144 158.074 116.144C156.09 116.144 154.41 116.864 153.034 118.304C151.69 119.744 151.018 121.52 151.018 123.632ZM181.912 134C181.912 122.896 185.432 112.944 192.472 104.144H174.616V100.4H196.84V103.856C193.128 108.624 190.424 113.392 188.728 118.16C187.032 122.896 186.152 128.176 186.088 134H181.912ZM222.789 131.696C220.645 133.552 218.005 134.48 214.869 134.48C211.733 134.48 209.093 133.552 206.949 131.696C204.805 129.808 203.733 127.488 203.733 124.736C203.733 122.816 204.293 121.104 205.413 119.6C206.565 118.064 208.085 116.944 209.973 116.24V116.048C208.437 115.376 207.205 114.4 206.277 113.12C205.381 111.808 204.933 110.336 204.933 108.704C204.933 106.208 205.877 104.128 207.765 102.464C209.685 100.768 212.053 99.92 214.869 99.92C217.685 99.92 220.037 100.768 221.925 102.464C223.845 104.128 224.805 106.208 224.805 108.704C224.805 110.336 224.357 111.808 223.461 113.12C222.565 114.4 221.349 115.376 219.813 116.048V116.24C221.701 116.976 223.205 118.096 224.325 119.6C225.445 121.104 226.005 122.816 226.005 124.736C226.005 127.488 224.933 129.808 222.789 131.696ZM218.997 105.104C217.909 104.048 216.533 103.52 214.869 103.52C213.205 103.52 211.813 104.048 210.693 105.104C209.605 106.128 209.061 107.424 209.061 108.992C209.061 110.56 209.605 111.872 210.693 112.928C211.813 113.952 213.205 114.464 214.869 114.464C216.533 114.464 217.909 113.952 218.997 112.928C220.117 111.872 220.677 110.56 220.677 108.992C220.677 107.424 220.117 106.128 218.997 105.104ZM219.813 119.936C218.501 118.752 216.853 118.16 214.869 118.16C212.885 118.16 211.237 118.752 209.925 119.936C208.613 121.12 207.957 122.624 207.957 124.448C207.957 126.272 208.613 127.792 209.925 129.008C211.237 130.224 212.885 130.832 214.869 130.832C216.853 130.832 218.501 130.224 219.813 129.008C221.125 127.792 221.781 126.272 221.781 124.448C221.781 122.624 221.125 121.12 219.813 119.936ZM242.786 130.832C245.346 130.832 247.378 129.584 248.882 127.088C250.386 124.56 251.154 121.152 251.186 116.864H250.946C249.122 120.16 246.258 121.808 242.354 121.808C239.41 121.808 236.962 120.8 235.01 118.784C233.09 116.736 232.13 114.144 232.13 111.008C232.13 107.776 233.17 105.12 235.25 103.04C237.33 100.96 239.954 99.92 243.122 99.92C246.834 99.92 249.778 101.424 251.954 104.432C254.13 107.44 255.218 111.552 255.218 116.768C255.218 122.112 254.098 126.4 251.858 129.632C249.618 132.864 246.594 134.48 242.786 134.48C240.098 134.48 237.81 133.68 235.922 132.08C234.066 130.48 233.01 128.432 232.754 125.936H236.546C236.898 127.44 237.634 128.64 238.754 129.536C239.906 130.4 241.25 130.832 242.786 130.832ZM249.938 110.768C249.938 108.72 249.282 107.008 247.97 105.632C246.658 104.256 245.026 103.568 243.074 103.568C241.09 103.568 239.442 104.272 238.13 105.68C236.818 107.056 236.162 108.816 236.162 110.96C236.162 113.072 236.786 114.816 238.034 116.192C239.314 117.568 240.93 118.256 242.882 118.256C244.866 118.256 246.53 117.536 247.874 116.096C249.25 114.656 249.938 112.88 249.938 110.768ZM280.831 129.92C278.815 132.96 276.015 134.48 272.431 134.48C268.847 134.48 266.047 132.96 264.031 129.92C262.015 126.848 261.007 122.608 261.007 117.2C261.007 111.792 262.015 107.568 264.031 104.528C266.047 101.456 268.847 99.92 272.431 99.92C276.015 99.92 278.815 101.456 280.831 104.528C282.847 107.568 283.855 111.792 283.855 117.2C283.855 122.608 282.847 126.848 280.831 129.92ZM265.471 122.72L278.479 108.32C277.199 105.152 275.183 103.568 272.431 103.568C270.063 103.568 268.239 104.752 266.959 107.12C265.679 109.488 265.039 112.848 265.039 117.2C265.039 119.312 265.183 121.152 265.471 122.72ZM272.431 130.832C274.799 130.832 276.623 129.648 277.903 127.28C279.183 124.912 279.823 121.552 279.823 117.2C279.823 115.088 279.679 113.248 279.391 111.68L266.383 126.08C267.663 129.248 269.679 130.832 272.431 130.832ZM293.437 141.584L299.053 128.192H304.861L297.277 141.584H293.437ZM327.354 133.328C326.65 132.592 326.298 131.712 326.298 130.688C326.298 129.664 326.65 128.8 327.354 128.096C328.09 127.36 328.97 126.992 329.994 126.992C331.018 126.992 331.882 127.36 332.586 128.096C333.322 128.8 333.69 129.664 333.69 130.688C333.69 131.712 333.322 132.592 332.586 133.328C331.882 134.032 331.018 134.384 329.994 134.384C328.97 134.384 328.09 134.032 327.354 133.328ZM350.999 141.584L356.615 128.192H362.423L354.839 141.584H350.999ZM355.079 111.392C355.079 110.368 355.431 109.504 356.135 108.8C356.871 108.064 357.751 107.696 358.775 107.696C359.799 107.696 360.663 108.064 361.367 108.8C362.103 109.504 362.471 110.368 362.471 111.392C362.471 112.416 362.103 113.296 361.367 114.032C360.663 114.736 359.799 115.088 358.775 115.088C357.751 115.088 356.871 114.72 356.135 113.984C355.431 113.248 355.079 112.384 355.079 111.392ZM384.916 133.328C384.212 132.592 383.86 131.712 383.86 130.688C383.86 129.664 384.212 128.8 384.916 128.096C385.652 127.36 386.532 126.992 387.556 126.992C388.58 126.992 389.444 127.36 390.148 128.096C390.884 128.8 391.252 129.664 391.252 130.688C391.252 131.712 390.884 132.592 390.148 133.328C389.444 134.032 388.58 134.384 387.556 134.384C386.532 134.384 385.652 134.032 384.916 133.328ZM383.86 111.392C383.86 110.368 384.212 109.504 384.916 108.8C385.652 108.064 386.532 107.696 387.556 107.696C388.58 107.696 389.444 108.064 390.148 108.8C390.884 109.504 391.252 110.368 391.252 111.392C391.252 112.416 390.884 113.296 390.148 114.032C389.444 114.736 388.58 115.088 387.556 115.088C386.532 115.088 385.652 114.72 384.916 113.984C384.212 113.248 383.86 112.384 383.86 111.392ZM414.658 122.864L413.986 100.4H418.69L418.018 122.864H414.658ZM413.698 133.328C412.994 132.592 412.642 131.712 412.642 130.688C412.642 129.664 412.994 128.8 413.698 128.096C414.434 127.36 415.314 126.992 416.338 126.992C417.362 126.992 418.226 127.36 418.93 128.096C419.666 128.8 420.034 129.664 420.034 130.688C420.034 131.712 419.666 132.592 418.93 133.328C418.226 134.032 417.362 134.384 416.338 134.384C415.314 134.384 414.434 134.032 413.698 133.328ZM443.151 122.864C443.151 121.232 443.407 119.776 443.919 118.496C444.431 117.216 445.055 116.192 445.791 115.424C446.527 114.624 447.263 113.888 447.999 113.216C448.735 112.544 449.359 111.808 449.871 111.008C450.383 110.208 450.639 109.344 450.639 108.416C450.639 107.04 450.143 105.888 449.151 104.96C448.159 104.032 446.863 103.568 445.263 103.568C443.631 103.568 442.255 104.048 441.135 105.008C440.047 105.936 439.455 107.088 439.359 108.464H435.375C435.375 106.128 436.303 104.128 438.159 102.464C440.015 100.768 442.383 99.92 445.263 99.92C448.079 99.92 450.367 100.736 452.127 102.368C453.887 103.968 454.767 105.92 454.767 108.224C454.767 109.44 454.479 110.56 453.903 111.584C453.359 112.608 452.687 113.504 451.887 114.272C451.119 115.008 450.335 115.76 449.535 116.528C448.767 117.296 448.095 118.224 447.519 119.312C446.975 120.4 446.703 121.584 446.703 122.864H443.151ZM442.479 133.328C441.775 132.592 441.423 131.712 441.423 130.688C441.423 129.664 441.775 128.8 442.479 128.096C443.215 127.36 444.095 126.992 445.119 126.992C446.143 126.992 447.007 127.36 447.711 128.096C448.447 128.8 448.815 129.664 448.815 130.688C448.815 131.712 448.447 132.592 447.711 133.328C447.007 134.032 446.143 134.384 445.119 134.384C444.095 134.384 443.215 134.032 442.479 133.328ZM476.972 127.76C474.988 127.76 473.356 126.96 472.076 125.36C470.796 123.728 470.156 121.68 470.156 119.216C470.156 116.528 470.908 114.272 472.412 112.448C473.916 110.592 475.756 109.664 477.932 109.664C480.332 109.664 482.108 110.752 483.26 112.928H483.404C483.5 110.56 482.86 108.656 481.484 107.216C480.14 105.744 478.3 105.008 475.964 105.008C472.668 105.008 469.9 106.4 467.66 109.184C465.452 111.968 464.348 115.408 464.348 119.504C464.348 123.504 465.42 126.784 467.564 129.344C469.74 131.904 472.524 133.184 475.916 133.184C478.892 133.184 481.244 132.288 482.972 130.496L485.18 132.704C482.812 135.168 479.692 136.4 475.82 136.4C471.468 136.4 467.884 134.832 465.068 131.696C462.284 128.528 460.892 124.48 460.892 119.552C460.892 114.496 462.332 110.288 465.212 106.928C468.092 103.536 471.676 101.84 475.964 101.84C479.356 101.84 482.028 102.928 483.98 105.104C485.964 107.28 486.86 110.144 486.668 113.696L485.948 127.472H482.444L482.588 124.784H482.396C481.02 126.768 479.212 127.76 476.972 127.76ZM478.076 124.544C479.42 124.544 480.556 123.952 481.484 122.768C482.412 121.552 482.876 120.096 482.876 118.4C482.876 116.8 482.476 115.488 481.676 114.464C480.908 113.44 479.916 112.928 478.7 112.928C477.356 112.928 476.204 113.536 475.244 114.752C474.316 115.968 473.852 117.424 473.852 119.12C473.852 120.688 474.252 121.984 475.052 123.008C475.852 124.032 476.86 124.544 478.076 124.544ZM493.561 134L494.905 124.256H489.721V120.848H495.385L496.393 113.552H490.777V110.144H496.873L498.265 100.4H501.769L500.425 110.144H506.953L508.297 100.4H511.801L510.457 110.144H515.641V113.552H509.977L508.969 120.848H514.585V124.256H508.489L507.097 134H503.593L504.937 124.256H498.409L497.065 134H493.561ZM498.889 120.848H505.417L506.473 113.552H499.945L498.889 120.848ZM520.279 125.552H523.927C524.055 127.024 524.695 128.272 525.847 129.296C526.999 130.288 528.455 130.896 530.215 131.12V118.496C524.199 117.248 521.191 114.208 521.191 109.376C521.191 106.784 522.007 104.64 523.639 102.944C525.303 101.216 527.495 100.224 530.215 99.968V94.16H533.287V100.016C535.783 100.368 537.863 101.312 539.527 102.848C541.223 104.384 542.135 106.224 542.263 108.368H538.567C538.407 107.152 537.847 106.112 536.887 105.248C535.927 104.352 534.727 103.776 533.287 103.52V115.328C539.527 116.736 542.647 119.888 542.647 124.784C542.647 127.44 541.783 129.664 540.055 131.456C538.359 133.216 536.103 134.256 533.287 134.576V140.24H530.215V134.624C527.367 134.368 525.015 133.392 523.159 131.696C521.303 130 520.343 127.952 520.279 125.552ZM538.855 124.928C538.855 122.08 536.999 120.144 533.287 119.12V131.024C534.983 130.736 536.327 130.048 537.319 128.96C538.343 127.84 538.855 126.496 538.855 124.928ZM525.031 109.136C525.031 111.952 526.759 113.792 530.215 114.656V103.424C528.615 103.68 527.351 104.32 526.423 105.344C525.495 106.368 525.031 107.632 525.031 109.136ZM568.884 134L565.236 129.824C562.292 133.056 559.06 134.672 555.54 134.672C553.044 134.672 550.98 133.888 549.348 132.32C547.716 130.72 546.9 128.704 546.9 126.272C546.9 122.528 548.98 119.136 553.14 116.096L552.564 115.424C550.164 112.672 548.964 110 548.964 107.408C548.964 105.232 549.7 103.44 551.172 102.032C552.676 100.624 554.596 99.92 556.932 99.92C559.268 99.92 561.188 100.624 562.692 102.032C564.196 103.44 564.948 105.216 564.948 107.36C564.948 110.592 563.188 113.44 559.668 115.904L558.708 116.576L564.996 123.728C566.116 121.68 566.996 119.472 567.636 117.104H571.668C570.676 120.752 569.316 123.952 567.588 126.704L574.02 134H568.884ZM555.876 131.024C558.34 131.024 560.644 129.696 562.788 127.04L555.54 118.832V118.88C552.5 121.024 550.98 123.408 550.98 126.032C550.98 127.504 551.428 128.704 552.324 129.632C553.252 130.56 554.436 131.024 555.876 131.024ZM553.044 107.6C553.044 109.264 553.892 111.088 555.588 113.072L556.26 113.84L557.556 112.928C559.86 111.232 561.012 109.408 561.012 107.456C561.012 106.336 560.644 105.408 559.908 104.672C559.172 103.904 558.212 103.52 557.028 103.52C555.844 103.52 554.884 103.904 554.148 104.672C553.412 105.44 553.044 106.416 553.044 107.6ZM576.305 134L597.617 100.4H601.745L580.385 134H576.305ZM586.817 112.832C585.569 114.24 583.969 114.944 582.017 114.944C580.065 114.944 578.449 114.24 577.169 112.832C575.921 111.392 575.297 109.584 575.297 107.408C575.297 105.232 575.921 103.44 577.169 102.032C578.449 100.624 580.065 99.92 582.017 99.92C583.969 99.92 585.569 100.624 586.817 102.032C588.097 103.44 588.737 105.232 588.737 107.408C588.737 109.584 588.097 111.392 586.817 112.832ZM579.665 110.528C580.241 111.296 581.025 111.68 582.017 111.68C583.009 111.68 583.777 111.296 584.321 110.528C584.897 109.76 585.185 108.72 585.185 107.408C585.185 106.128 584.897 105.104 584.321 104.336C583.777 103.568 583.009 103.184 582.017 103.184C581.025 103.184 580.241 103.568 579.665 104.336C579.121 105.104 578.849 106.128 578.849 107.408C578.849 108.72 579.121 109.76 579.665 110.528ZM600.833 132.368C599.585 133.776 597.985 134.48 596.033 134.48C594.081 134.48 592.465 133.776 591.185 132.368C589.937 130.928 589.313 129.12 589.313 126.944C589.313 124.768 589.937 122.976 591.185 121.568C592.465 120.16 594.081 119.456 596.033 119.456C597.985 119.456 599.585 120.16 600.833 121.568C602.113 122.976 602.753 124.768 602.753 126.944C602.753 129.12 602.113 130.928 600.833 132.368ZM593.681 130.064C594.257 130.832 595.041 131.216 596.033 131.216C597.025 131.216 597.793 130.832 598.337 130.064C598.913 129.296 599.201 128.256 599.201 126.944C599.201 125.664 598.913 124.64 598.337 123.872C597.793 123.104 597.025 122.72 596.033 122.72C595.041 122.72 594.257 123.104 593.681 123.872C593.137 124.64 592.865 125.664 592.865 126.944C592.865 128.256 593.137 129.296 593.681 130.064ZM620.494 108.272L610.798 96.56H616.798L624.814 108.272H620.494ZM634.876 123.2V121.568C634.876 119.328 635.484 117.52 636.7 116.144C637.948 114.768 639.58 114.08 641.596 114.08C642.716 114.08 643.708 114.304 644.572 114.752C645.468 115.2 646.188 115.744 646.732 116.384C647.276 117.024 647.788 117.68 648.268 118.352C648.748 118.992 649.276 119.536 649.852 119.984C650.46 120.432 651.1 120.656 651.772 120.656C653.564 120.656 654.508 119.264 654.604 116.48L654.652 115.04H658.3V116.672C658.3 118.912 657.676 120.72 656.427 122.096C655.212 123.472 653.596 124.16 651.58 124.16C650.204 124.16 648.988 123.824 647.932 123.152C646.908 122.448 646.124 121.696 645.58 120.896C645.036 120.064 644.396 119.312 643.66 118.64C642.924 117.936 642.156 117.584 641.356 117.584C639.596 117.584 638.668 118.976 638.572 121.76L638.523 123.2H634.876ZM664.953 115.856L673.065 100.4H677.673L685.785 115.856H681.657L675.369 104L669.081 115.856H664.953ZM705.926 117.536L714.566 114.752L715.67 118.112L707.03 120.944L712.358 128.288L709.526 130.4L704.15 123.056L698.774 130.4L695.942 128.288L701.27 120.944L692.63 118.112L693.734 114.752L702.374 117.536V108.464H705.926V117.536ZM17.624 190.16C14.552 187.248 12.168 183.776 10.472 179.744C8.776 175.712 7.928 171.504 7.928 167.12C7.928 162.736 8.776 158.528 10.472 154.496C12.168 150.464 14.552 146.992 17.624 144.08H22.328C15.512 150.64 12.104 158.32 12.104 167.12C12.104 175.92 15.512 183.6 22.328 190.16H17.624ZM37.9573 190.16H33.2533C40.0693 183.6 43.4773 175.92 43.4773 167.12C43.4773 158.32 40.0693 150.64 33.2533 144.08H37.9573C41.0293 146.992 43.4133 150.464 45.1093 154.496C46.8053 158.528 47.6533 162.736 47.6533 167.12C47.6533 171.504 46.8053 175.712 45.1093 179.744C43.4133 183.776 41.0293 187.248 37.9573 190.16ZM65.7305 190.16V144.08H79.9865V147.728H69.7625V186.512H79.9865V190.16H65.7305ZM104.976 144.08V190.16H90.7198V186.512H100.944V147.728H90.7198V144.08H104.976ZM124.925 167.024V167.216C126.589 167.536 127.917 168.512 128.909 170.144C129.933 171.744 130.381 173.648 130.253 175.856L130.013 181.328C129.917 182.992 130.301 184.272 131.165 185.168C132.061 186.064 133.357 186.512 135.053 186.512H138.461V190.16H134.909C131.901 190.16 129.613 189.36 128.045 187.76C126.477 186.16 125.773 183.92 125.933 181.04L126.221 175.712C126.317 173.664 125.837 172.048 124.781 170.864C123.725 169.648 122.253 169.04 120.365 169.04H117.869V165.2H120.365C122.253 165.2 123.725 164.608 124.781 163.424C125.837 162.208 126.317 160.576 126.221 158.528L125.933 153.2C125.773 150.32 126.477 148.08 128.045 146.48C129.613 144.88 131.901 144.08 134.909 144.08H138.269V147.728H135.053C133.357 147.728 132.061 148.176 131.165 149.072C130.301 149.968 129.917 151.248 130.013 152.912L130.253 158.384C130.381 160.592 129.933 162.512 128.909 164.144C127.917 165.744 126.589 166.704 124.925 167.024ZM160.906 167.216V167.024C159.242 166.704 157.898 165.744 156.874 164.144C155.882 162.512 155.45 160.592 155.578 158.384L155.818 152.912C155.914 151.248 155.514 149.968 154.618 149.072C153.754 148.176 152.474 147.728 150.778 147.728H147.562V144.08H150.922C153.93 144.08 156.218 144.88 157.786 146.48C159.354 148.08 160.058 150.32 159.898 153.2L159.61 158.528C159.514 160.576 159.994 162.208 161.05 163.424C162.106 164.608 163.578 165.2 165.466 165.2H167.962V169.04H165.466C163.578 169.04 162.106 169.648 161.05 170.864C159.994 172.048 159.514 173.664 159.61 175.712L159.898 181.04C160.058 183.92 159.354 186.16 157.786 187.76C156.218 189.36 153.93 190.16 150.922 190.16H147.37V186.512H150.778C152.474 186.512 153.754 186.064 154.618 185.168C155.514 184.272 155.914 182.992 155.818 181.328L155.578 175.856C155.45 173.648 155.882 171.744 156.874 170.144C157.898 168.512 159.242 167.536 160.906 167.216ZM175.048 187.856V184.208H197.128V187.856H175.048ZM204.597 173.504V169.952H225.141V173.504H204.597ZM204.597 164.288V160.736H225.141V164.288H204.597ZM234.338 168.944V165.296H252.962V168.944H234.338ZM270.463 178.352V168.944H261.199V165.296H270.463V155.888H274.447V165.296H283.663V168.944H274.447V178.352H270.463ZM291.037 169.376V164.864L310.429 154.928V159.056L294.925 167.024V167.216L310.429 175.184V179.312L291.037 169.376ZM340.17 164.864V169.376L320.778 179.312V175.184L336.282 167.216V167.024L320.778 159.056V154.928L340.17 164.864ZM347.159 190.16L366.407 144.08H370.439L351.191 190.16H347.159ZM379.972 144.08L399.22 190.16H395.188L375.94 144.08H379.972ZM414.466 190.16V144.08H418.21V190.16H414.466ZM443.439 159.44L442.575 144.56H447.663L446.799 159.44H443.439ZM467.468 159.44L466.604 144.56H471.692L470.828 159.44H467.468ZM476.972 159.44L476.108 144.56H481.196L480.332 159.44H476.972Z" fill="#111111"/>
</svg>
