<svg width="714" height="186" viewBox="0 0 714 186" fill="none" xmlns="http://www.w3.org/2000/svg">
<path d="M22.224 33H18.576C18.336 31.848 18.336 31.416 18.144 28.728C16.224 32.232 13.872 33.624 9.84 33.624C4.944 33.624 1.584 30.696 1.584 26.472C1.584 23.784 3.12 21.24 5.568 19.992C7.728 18.84 10.944 18.264 15.072 18.264C15.936 18.264 16.656 18.264 18.144 18.36V17.592C18.144 13.128 16.464 11.496 11.952 11.496C8.4 11.496 6.24 12.984 5.616 15.816L2.208 15.24C2.544 13.464 2.976 12.552 3.984 11.544C5.856 9.624 8.832 8.664 12.768 8.664C16.32 8.664 18.72 9.576 20.112 11.448C21.264 13.032 21.696 14.904 21.696 18.36V28.392C21.696 30.12 21.84 31.56 22.224 33ZM18.144 21.144C16.848 21.096 15.6 21.048 15.024 21.048C8.88 21.048 5.52 22.968 5.52 26.568C5.52 29.112 7.488 30.792 10.56 30.792C14.88 30.792 18.192 27.24 18.192 22.68C18.192 22.248 18.192 21.768 18.144 21.144ZM30.8783 33H29.1023V0.983997H32.7983V13.272C34.7183 10.008 36.6863 8.712 39.7583 8.712C45.4703 8.712 49.3583 13.704 49.3583 21.048C49.3583 28.44 45.3263 33.624 39.6143 33.624C36.3983 33.624 34.0943 32.184 32.2223 29.064L30.8783 33ZM32.7983 18.408V23.736C33.0383 25.944 33.3743 26.952 34.2383 28.152C35.3903 29.64 37.3583 30.6 39.2303 30.6C43.0223 30.6 45.4703 27.048 45.4703 21.528C45.4703 18.6 44.7503 15.72 43.5503 13.944C42.6383 12.6 40.9583 11.736 39.2303 11.736C37.5023 11.736 35.9663 12.504 34.6703 13.944C33.5663 15.24 33.1343 16.296 32.7983 18.408ZM68.8515 24.696L72.1635 25.272C71.5875 28.152 70.9155 29.544 69.3795 31.08C67.6995 32.808 65.6355 33.624 62.9955 33.624C56.9475 33.624 53.0115 28.728 53.0115 21.192C53.0115 13.704 57.0435 8.712 63.1875 8.712C68.0355 8.712 71.2035 11.592 72.1635 16.968L68.8515 17.592C68.5635 15.768 68.2275 14.904 67.6035 13.992C66.5475 12.552 64.9635 11.736 63.1395 11.736C59.2515 11.736 56.8515 15.336 56.8515 21.096C56.8515 27.048 59.1555 30.6 63.0915 30.6C66.0675 30.6 68.0835 28.584 68.8515 24.696ZM95.6749 0.983997V33H92.3149V28.968C90.3469 32.328 88.2349 33.672 84.8269 33.672C79.2589 33.672 75.3229 28.584 75.3229 21.384C75.3229 13.896 79.3069 8.712 85.0189 8.712C87.9949 8.712 89.8669 9.768 91.9789 12.552V0.983997H95.6749ZM91.9789 23.4V18.456C91.7869 16.248 91.4989 15.24 90.5869 14.088C89.4829 12.6 87.4669 11.64 85.5949 11.64C81.8029 11.64 79.3549 15.288 79.3549 20.904C79.3549 27.048 81.6109 30.648 85.4509 30.648C87.2269 30.648 88.9549 29.736 90.2509 28.248C91.4029 26.856 91.7869 25.752 91.9789 23.4ZM118.671 25.944L122.079 26.664C120.543 31.032 116.847 33.624 112.047 33.624C105.567 33.624 101.199 28.68 101.199 21.288C101.199 13.848 105.711 8.712 112.191 8.712C116.175 8.712 119.439 10.728 121.119 14.184C122.079 16.248 122.463 18.216 122.511 21.48H105.279C105.279 24.264 105.519 25.512 106.239 27C107.295 29.16 109.743 30.6 112.287 30.6C114.207 30.6 116.031 29.832 117.231 28.44C117.759 27.864 118.143 27.192 118.671 25.944ZM105.471 18.744H118.479C118.431 16.536 118.095 15.432 117.135 14.04C115.935 12.36 114.351 11.544 112.239 11.544C110.175 11.544 108.447 12.408 107.151 13.992C106.095 15.336 105.711 16.488 105.471 18.744ZM137.379 9.336V12.216H131.619V33H128.211V12.216H124.035V9.336H128.211C128.307 6.408 128.451 5.448 128.979 4.056C129.795 1.752 132.195 0.311997 135.267 0.311997C136.275 0.311997 137.139 0.407999 138.771 0.647999V3.624C137.763 3.336 137.283 3.288 136.563 3.288C134.115 3.288 132.579 4.056 132.051 5.544C131.619 6.552 131.619 6.744 131.619 9.336H137.379ZM160.992 5.64V8.568C157.824 8.52 156.816 9.144 156.48 11.256C157.968 12.984 158.736 14.904 158.736 16.968C158.736 21.576 154.944 24.84 149.664 24.84C149.04 24.84 148.512 24.792 148.032 24.696C147.264 24.552 146.688 24.456 146.496 24.456C145.248 24.456 144 25.56 144 26.712C144 27.48 144.384 28.056 145.2 28.44C146.016 28.824 146.976 28.92 151.344 29.064C156.24 29.208 157.824 29.448 159.312 30.456C160.992 31.512 161.904 33.192 161.904 35.16C161.904 39.624 157.872 41.928 150 41.928C142.944 41.928 139.2 39.768 139.2 35.688C139.2 33.384 140.304 31.944 142.8 30.984C141.072 29.736 140.496 28.776 140.496 27.144C140.496 25.224 141.36 24.12 143.76 22.968C141.552 21.048 140.688 19.272 140.688 16.68C140.688 12.072 144.528 8.616 149.712 8.616C151.488 8.616 153.024 8.952 154.56 9.72C154.8 8.328 155.232 7.416 156.048 6.648C156.864 5.832 157.824 5.592 160.032 5.592C160.32 5.592 160.512 5.592 160.992 5.64ZM149.808 11.544C146.688 11.544 144.48 13.704 144.48 16.824C144.48 19.944 146.592 22.008 149.76 22.008C152.832 22.008 155.04 19.896 155.04 16.92C155.04 13.848 152.832 11.544 149.808 11.544ZM145.344 32.04C143.376 33 142.752 33.816 142.752 35.304C142.752 36.072 143.088 36.888 143.616 37.32C144.912 38.424 147.504 39.096 150.288 39.096C152.208 39.096 154.272 38.76 155.904 38.232C157.536 37.704 158.4 36.648 158.4 35.304C158.4 34.248 157.872 33.528 156.768 33.048C155.616 32.52 155.184 32.472 151.056 32.376C148.656 32.328 146.448 32.184 145.344 32.04ZM183.85 33H180.154V18.648C180.154 16.2 180.058 15.336 179.674 14.376C179.05 12.792 177.37 11.736 175.546 11.736C173.914 11.736 172.138 12.6 170.938 13.992C169.546 15.576 168.97 17.448 168.97 20.232V33H165.274V0.983997H168.97V13.704C170.89 10.104 172.954 8.664 176.218 8.664C178.81 8.664 181.066 9.768 182.41 11.784C183.61 13.512 183.85 14.712 183.85 18.648V33ZM194.844 9.336V33H191.148V9.336H194.844ZM194.988 0.983997V5.064H191.004V0.983997H194.988ZM205.344 9.048V33.768C205.344 38.712 202.992 41.208 198.432 41.208C197.472 41.208 196.656 41.064 195.072 40.728V37.8C196.272 38.088 196.896 38.184 197.76 38.184C200.544 38.184 201.648 36.888 201.648 33.768V9.048H205.344ZM205.536 0.983997V5.064H201.36V0.983997H205.536ZM232.249 33H228.409L221.497 19.8L216.361 25.704V33H212.665V0.983997H216.361V21.48L227.353 9.336H231.289L223.897 17.688L232.249 33ZM239.986 33H236.29V0.983997H239.986V33ZM279.08 33H275.48V18.312C275.48 15.72 275.336 15.048 274.712 13.992C273.944 12.696 272.408 11.88 270.92 11.88C269.432 11.88 267.896 12.648 266.696 13.944C265.352 15.48 264.872 17.016 264.872 19.656V33H261.32V17.448C261.32 15.576 260.984 14.424 260.216 13.464C259.304 12.36 258.008 11.736 256.664 11.736C253.4 11.736 250.856 14.856 250.856 18.84V33H247.352V9.336H250.52V13.896C252.2 10.488 254.696 8.712 257.816 8.712C261.128 8.712 263.528 10.776 264.44 14.376C266.024 10.68 268.664 8.712 271.928 8.712C274.424 8.712 276.728 10.008 277.976 12.072C278.84 13.464 279.08 14.904 279.08 18.312V33ZM305.118 33H301.662V17.784C301.662 13.944 299.934 11.88 296.766 11.88C292.926 11.88 290.142 15.336 290.142 19.992V33H286.446V9.336H289.854V13.704C292.302 9.96 294.174 8.712 297.438 8.712C300.414 8.712 302.91 10.248 304.254 12.84C304.878 14.04 305.118 15.816 305.118 19.32V33ZM321.294 8.712C327.726 8.712 331.854 13.704 331.854 21.432C331.854 28.536 327.294 33.624 320.91 33.624C314.718 33.624 310.59 28.632 310.59 21.096C310.59 13.752 314.958 8.712 321.294 8.712ZM321.15 11.736C319.278 11.736 317.358 12.744 316.254 14.328C315.198 15.864 314.622 18.168 314.622 21.048C314.622 27.144 317.022 30.6 321.198 30.6C325.326 30.6 327.822 27.096 327.822 21.24C327.822 18.024 327.294 15.912 326.142 14.28C324.942 12.696 323.07 11.736 321.15 11.736ZM341.048 41.016H337.352V9.336H340.664V13.944C342.536 10.296 344.792 8.712 348.104 8.712C353.72 8.712 357.512 13.752 357.512 21.144C357.512 28.584 353.672 33.624 348.056 33.624C344.984 33.624 343.064 32.472 341.048 29.4V41.016ZM341.048 17.784V24.408C341.624 28.008 344.312 30.6 347.336 30.6C348.92 30.6 350.696 29.688 351.704 28.392C352.904 26.856 353.48 24.552 353.48 21.384C353.48 15.432 351.176 11.928 347.336 11.928C344.408 11.928 342.008 14.136 341.048 17.784ZM381.329 9V41.016H377.633V28.68C376.049 31.992 373.745 33.624 370.481 33.624C364.865 33.624 361.121 28.728 361.121 21.336C361.121 13.8 365.057 8.664 370.865 8.664C374.129 8.664 375.857 9.72 378.017 13.224L379.457 9H381.329ZM377.633 22.488V19.32C377.345 16.392 376.913 15.096 375.713 13.752C374.561 12.504 372.881 11.736 371.297 11.736C367.601 11.736 365.153 15.528 365.153 21.192C365.153 26.856 367.505 30.456 371.249 30.456C373.409 30.456 375.281 29.256 376.433 27.144C377.201 25.8 377.441 24.792 377.633 22.488ZM392.423 33H388.727V9.336H391.943V14.856C393.095 12.504 393.527 11.784 394.391 10.728C395.447 9.48 397.223 8.664 399.047 8.664C399.335 8.664 399.863 8.712 400.391 8.76V12.264C395.927 11.88 392.519 15.432 392.423 20.472V33ZM401.73 26.856L405.234 26.136C405.618 27.48 406.002 28.2 406.77 28.824C408.114 29.928 410.37 30.6 412.578 30.6C415.89 30.6 418.146 29.064 418.146 26.76C418.146 24.84 416.754 23.64 414.066 23.112L409.074 22.2C405.042 21.432 402.69 19.032 402.69 15.672C402.69 11.496 406.242 8.712 411.618 8.712C416.562 8.712 419.778 10.776 420.93 14.712L417.57 15.432C416.466 12.888 414.546 11.736 411.522 11.736C408.45 11.736 406.434 13.128 406.434 15.24C406.434 17.016 407.634 18.072 410.13 18.552L414.786 19.368C419.634 20.232 421.986 22.536 421.986 26.376C421.986 30.696 418.098 33.624 412.242 33.624C408.882 33.624 406.194 32.76 404.178 30.984C402.93 29.928 402.306 28.92 401.73 26.856ZM437.916 30.456V33.384C436.284 33.624 435.516 33.672 434.412 33.672C429.948 33.672 427.644 31.224 427.644 26.472V12.216H423.468V9.336H427.644L427.788 3.384L431.244 3.096V9.336H436.572V12.216H431.244V27.048C431.244 29.496 432.54 30.744 435.084 30.744C435.948 30.744 436.62 30.696 437.916 30.456ZM459.711 33H456.399V28.488C454.719 31.848 452.175 33.624 448.863 33.624C444.063 33.624 441.087 30.168 441.087 24.456V9.336H444.783V24.456C444.783 26.616 445.167 28.008 445.983 28.968C446.847 30.024 448.143 30.6 449.439 30.6C453.087 30.6 456.015 27.048 456.015 22.68V9.336H459.711V33ZM484.055 9.336L475.895 33H472.055L463.607 9.336H467.687L474.263 28.584L480.791 9.336H484.055ZM515.601 9.336L508.785 33H505.809L500.529 15.432L495.681 33H492.657L485.553 9.336H489.249L494.385 26.952L499.329 9.336H502.017L507.297 27.048L512.625 9.336H515.601ZM536.676 33H532.404L526.404 23.4L520.26 33H516.66L524.628 20.712L517.428 9.336H521.652L526.74 17.4L531.876 9.336H535.428L528.516 19.944L536.676 33ZM557.483 9.336L547.979 35.784C547.163 38.04 546.155 39.528 544.715 40.536C543.851 41.16 542.699 41.448 541.019 41.448C540.059 41.448 539.483 41.352 538.235 41.064V38.136C539.387 38.376 539.963 38.472 540.683 38.472C542.363 38.472 543.562 37.848 544.427 36.456C544.907 35.688 545.339 34.68 546.011 32.568L537.803 9.336H541.547L547.883 27.144L554.363 9.336H557.483ZM576.492 30.168V33H559.068V30.168L571.644 12.216H560.028V9.336H576.492V11.352L563.484 30.168H576.492ZM25.536 81H21.408L18.192 71.64H6.336L3.504 81H0.144L10.512 48.984H15.12L25.536 81ZM17.328 68.616L12.432 53.256L7.488 68.616H17.328ZM29.9528 81V48.984H42.6248C45.3608 48.984 46.9928 49.416 48.6248 50.472C50.8328 51.96 52.0328 54.216 52.0328 56.808C52.0328 58.872 51.1688 60.936 49.7768 62.232C48.9128 63 48.0968 63.432 46.3688 64.008C48.5288 64.632 49.3928 65.064 50.4488 66.072C52.1288 67.752 52.9928 69.72 52.9928 72.12C52.9928 75.336 51.5528 77.976 48.9608 79.56C47.2808 80.568 45.4088 81 42.5768 81H29.9528ZM33.8408 77.496H42.4328C46.5128 77.496 48.9608 75.432 48.9608 71.928C48.9608 70.296 48.3368 68.664 47.2808 67.56C46.0808 66.264 44.5448 65.736 41.8568 65.736H33.8408V77.496ZM33.8408 62.712H40.8008C43.4408 62.712 44.9288 62.376 46.0808 61.512C47.2808 60.6 48.0488 58.968 48.0488 57.24C48.0488 54.072 45.7928 52.248 41.8088 52.248H33.8408V62.712ZM78.1215 70.248L81.7695 71.064C80.9055 74.376 80.1375 76.008 78.5535 77.88C76.4895 80.328 73.5615 81.624 69.9615 81.624C66.3135 81.624 63.3375 80.28 61.1775 77.736C58.4415 74.472 56.9535 69.864 56.9535 64.68C56.9535 54.792 62.1855 48.36 70.2495 48.36C76.2495 48.36 80.0895 51.768 81.7695 58.632L78.0255 59.352C76.4415 54.024 74.1375 51.768 70.2015 51.768C64.6335 51.768 61.3215 56.76 61.3215 65.112C61.3215 73.08 64.7295 78.216 70.0575 78.216C72.3615 78.216 74.6655 77.064 75.9615 75.288C76.9215 73.944 77.4015 72.84 78.1215 70.248ZM86.7653 81V48.984H97.4693C101.501 48.984 104.429 50.088 106.973 52.488C110.093 55.464 111.821 59.832 111.821 64.872C111.821 74.136 106.301 81 98.8133 81H86.7653ZM90.7493 77.592H97.2773C100.157 77.592 102.701 76.632 104.285 74.952C106.445 72.696 107.741 68.856 107.741 64.872C107.741 60.984 106.541 57.528 104.381 55.128C102.653 53.256 100.397 52.344 97.2293 52.344H90.7493V77.592ZM138.344 77.496V81H117.656V48.984H137.912V52.488H121.64V62.712H134.552V65.976H121.64V77.496H138.344ZM147.14 81H143.156V48.984H162.74V52.488H147.14V62.616H160.1V65.832H147.14V81ZM190.54 64.872V81.432H188.044L186.988 77.4C184.684 80.424 182.092 81.672 178.06 81.672C174.268 81.672 171.34 80.328 168.94 77.592C166.252 74.472 164.86 70.296 164.86 65.352C164.86 55.176 170.428 48.36 178.732 48.36C182.38 48.36 185.26 49.608 187.42 52.056C188.764 53.592 189.436 54.888 190.204 57.624L186.412 58.536C185.836 56.328 185.356 55.368 184.348 54.264C182.86 52.68 180.7 51.768 178.348 51.768C175.324 51.768 172.732 53.304 171.34 55.896C169.996 58.296 169.228 61.656 169.228 65.208C169.228 68.712 169.996 71.976 171.292 74.28C172.78 76.824 175.564 78.408 178.588 78.408C183.292 78.408 186.46 75.048 186.46 69.96C186.46 69.48 186.46 68.904 186.412 68.232H178.54V64.872H190.54ZM220.426 81H216.442V65.736H201.562V81H197.578V48.984H201.562V62.232H216.442V48.984H220.426V81ZM232.031 81H228.047V48.984H232.031V81ZM250.319 48.984V71.208C250.319 78.312 247.247 81.624 240.671 81.624C239.087 81.624 238.031 81.48 236.062 81V77.736C237.935 78.072 238.895 78.168 240.335 78.168C242.783 78.168 244.415 77.592 245.327 76.344C246.191 75.24 246.335 74.424 246.335 71.208V48.984H250.319ZM283.014 81H278.598L269.046 63.336L261.702 72.456V81H257.718V48.984H261.702V67.56L276.198 48.984H280.518L271.83 60.216L283.014 81ZM306.254 77.496V81H287.39V48.984H291.47V77.496H306.254ZM341.457 81H337.569V53.064L327.201 81H324.465L314.001 53.064V81H310.593V48.984H316.545L326.145 74.568L335.601 48.984H341.457V81ZM372.646 81H368.758L352.198 53.112L352.246 55.224C352.294 56.28 352.294 57 352.294 57.24V81H349.078V48.984H354.07L369.574 75.096L369.526 72.888C369.478 71.688 369.478 70.872 369.478 70.536V48.984H372.646V81ZM391.715 48.36C399.587 48.36 404.819 54.984 404.819 64.968C404.819 69.768 403.283 74.376 400.547 77.592C398.243 80.328 395.363 81.624 391.619 81.624C387.827 81.624 384.755 80.232 382.499 77.496C379.955 74.328 378.563 70.056 378.563 65.064C378.563 55.176 383.939 48.36 391.715 48.36ZM391.667 51.624C386.243 51.624 382.739 56.952 382.739 65.112C382.739 73.08 386.291 78.36 391.715 78.36C397.091 78.36 400.643 73.032 400.643 64.92C400.643 56.616 397.283 51.624 391.667 51.624ZM414.702 81H410.718V48.984H422.046C424.926 48.984 427.23 49.656 428.91 51C431.022 52.632 432.414 55.608 432.414 58.536C432.414 64.056 428.286 67.992 422.478 67.992H414.702V81ZM414.702 64.68H422.046C425.838 64.68 428.334 62.232 428.334 58.536C428.334 54.888 425.886 52.344 422.334 52.344H414.702V64.68ZM460.232 84.936V88.152C458.696 88.536 457.927 88.68 456.776 88.68C454.568 88.68 452.456 88.056 451.208 87C449.864 85.848 449.288 84.36 449.048 81.528C445.544 81.288 443.672 80.664 441.56 79.08C437.72 76.2 435.704 71.352 435.704 65.112C435.704 55.08 441.032 48.36 449 48.36C456.968 48.36 462.296 54.936 462.296 64.824C462.296 70.152 460.807 74.568 457.88 77.688C456.296 79.464 454.952 80.232 452.312 81V81.768C452.312 82.632 452.552 83.304 453.032 83.928C453.752 84.888 454.712 85.224 456.68 85.224C458.072 85.224 458.84 85.176 460.232 84.936ZM449.048 51.864C446.168 51.864 443.768 53.064 442.376 55.128C440.888 57.384 439.976 61.224 439.976 65.256C439.976 73.32 443.24 78.168 448.712 78.168C454.52 78.168 457.976 73.32 457.976 65.112C457.976 56.616 454.76 51.864 449.048 51.864ZM491.18 81H486.956L481.052 67.128H471.884V81H468.14V48.984H480.716C486.716 48.984 490.844 52.632 490.844 57.96C490.844 60.072 489.98 62.376 488.636 63.864C487.676 64.968 486.764 65.496 484.892 66.168L491.18 81ZM471.884 63.864H480.236C482.54 63.864 484.028 63.336 485.228 62.088C486.284 60.984 486.86 59.496 486.86 57.864C486.86 54.552 484.508 52.488 480.716 52.488H471.884V63.864ZM493.839 72.456L497.439 71.688C498.927 76.104 501.999 78.216 506.895 78.216C511.695 78.216 514.575 76.008 514.575 72.36C514.575 69.912 512.799 68.088 509.679 67.32L503.295 65.688C500.655 65.064 499.263 64.392 498.015 63.288C496.335 61.704 495.423 59.592 495.423 57.096C495.423 51.864 499.743 48.36 506.223 48.36C511.935 48.36 515.871 51.048 517.647 56.232L514.047 57.24C513.615 55.56 513.087 54.696 512.031 53.784C510.447 52.392 508.287 51.624 506.079 51.624C502.191 51.624 499.311 53.832 499.311 56.856C499.311 59.4 500.799 60.792 504.543 61.704L510.495 63.144C515.967 64.44 518.751 67.416 518.751 71.976C518.751 77.832 514.095 81.624 506.895 81.624C502.863 81.624 499.935 80.616 497.535 78.456C495.855 76.872 494.991 75.48 493.839 72.456ZM533.57 81H529.586V52.488H520.418V48.984H542.738V52.488H533.57V81ZM565.458 48.984H568.77V69.912C568.77 73.56 568.146 75.816 566.61 77.832C564.738 80.328 561.666 81.624 557.634 81.624C553.41 81.624 550.434 80.376 548.658 77.832C547.314 75.864 546.738 73.56 546.738 69.912V48.984H550.722V69.912C550.722 72.888 551.106 74.568 552.018 75.768C553.122 77.208 555.474 78.12 557.97 78.12C560.466 78.12 562.626 77.256 563.874 75.768C565.026 74.424 565.458 72.744 565.458 69.912V48.984ZM598.022 48.984L587.222 81H583.382L572.582 48.984H576.758L585.686 75.384L594.518 48.984H598.022ZM636.523 48.984L628.843 81H624.811L617.851 56.184L611.323 81H607.243L599.131 48.984H603.259L609.691 74.904L616.507 48.984H619.723L627.067 74.904L633.019 48.984H636.523ZM660.973 48.984L651.997 63.624L662.269 81H657.757L649.645 67.368L641.293 81H637.549L647.821 64.44L638.653 48.984H643.117L650.173 60.84L657.325 48.984H660.973ZM688.662 48.984L677.958 67.512V81H673.974V67.512L663.27 48.984H667.974L676.47 63.72L685.014 48.984H688.662ZM713.012 77.592V81H690.452V77.592L707.828 52.488H691.268V49.224H712.484V51.864L694.916 77.592H713.012ZM26.832 126.024V129H4.416V126.024H14.016V101.304C10.992 104.424 8.496 106.392 5.232 108.216V104.184C9.456 101.976 12.48 99.528 14.976 96.36H17.856V126.024H26.832ZM53.3719 125.688V129H30.6679V125.688C37.6759 120.456 37.6759 120.456 41.2279 117.48C47.4679 112.248 49.2919 109.704 49.2919 106.056C49.2919 102.36 46.1719 99.528 42.0919 99.528C39.6439 99.528 37.3879 100.68 35.9479 102.6C34.9879 103.848 34.6039 104.904 34.4119 106.872L30.6679 105.72C31.3879 102.84 32.0599 101.448 33.4999 99.912C35.5639 97.608 38.6359 96.36 42.1399 96.36C48.5239 96.36 53.2759 100.488 53.2759 106.008C53.2759 110.472 51.0679 113.688 44.1559 119.304C41.4199 121.56 38.9239 123.432 35.7079 125.688H53.3719ZM65.6558 113.976V110.76H69.3038C74.0558 110.76 76.7438 108.744 76.7438 105.144C76.7438 101.832 74.0078 99.528 70.0718 99.528C67.8638 99.528 65.7518 100.344 64.3598 101.736C63.5918 102.504 63.1598 103.176 62.5838 104.712L58.9358 103.704C59.9918 101.256 60.8558 100.056 62.5358 98.76C64.6478 97.176 67.3358 96.36 70.4078 96.36C76.4558 96.36 80.8238 99.96 80.8238 104.856C80.8238 108.552 78.5198 111.288 74.6798 112.152C79.3358 113.016 82.0718 115.944 82.0718 120.12C82.0718 125.784 77.1278 129.624 69.9278 129.624C66.5198 129.624 63.8318 128.76 61.4798 126.984C59.6078 125.544 58.7438 124.344 57.7838 121.848L61.5278 120.6C62.1998 122.568 62.7758 123.624 63.7838 124.488C65.1278 125.688 67.4318 126.36 70.0718 126.36C72.7598 126.36 74.8238 125.688 76.0718 124.44C77.2718 123.288 77.8958 121.8 77.8958 120.216C77.8958 116.328 74.6798 113.976 69.3038 113.976H65.6558ZM105.684 129H101.796V121.368H86.0036V118.68L100.644 96.312H105.684V118.2H110.868V121.368H105.684V129ZM101.796 118.2V103.08C101.796 101.736 101.796 101.112 101.892 99.528C101.076 101.016 100.74 101.592 100.164 102.552L90.1796 118.2H101.796ZM136.16 96.984L135.824 100.44H120.08L119.408 110.808C122.192 108.216 124.208 107.304 127.232 107.304C133.472 107.304 138.272 112.104 138.272 118.392C138.272 124.872 133.088 129.624 126.08 129.624C122.672 129.624 119.696 128.52 117.44 126.36C116.048 125.064 115.424 124.056 114.752 122.088L118.16 120.888C119.743 124.68 122.24 126.456 126.08 126.456C131.072 126.456 134.384 123.192 134.384 118.344C134.384 113.832 131.264 110.616 126.848 110.616C123.728 110.616 121.376 111.96 119.312 114.984L116.144 114.312L117.2 96.984H136.16ZM166.587 103.56L162.987 104.52C161.595 101.16 159.531 99.672 156.219 99.672C152.667 99.672 149.979 101.592 148.491 105.192C147.483 107.544 147.051 110.184 147.003 114.504C147.963 112.44 148.635 111.576 149.931 110.472C151.803 108.888 154.203 108.024 156.699 108.024C162.507 108.024 167.067 112.68 167.067 118.584C167.067 124.824 162.123 129.624 155.691 129.624C148.107 129.624 143.307 123.48 143.307 113.736C143.307 108.456 144.699 103.608 147.147 100.44C149.307 97.704 152.331 96.36 156.267 96.36C161.451 96.36 164.811 98.712 166.587 103.56ZM156.027 111.24C151.611 111.24 147.915 114.792 147.915 119.016C147.915 123.144 151.323 126.408 155.643 126.408C159.963 126.408 163.371 123.096 163.371 118.92C163.371 114.6 160.155 111.24 156.027 111.24ZM182.519 129H178.391V128.088C178.391 123.576 179.783 117.528 182.039 112.44C183.815 108.408 186.935 103.512 189.719 100.488H172.343L172.775 96.984H193.895V99.384C191.591 102.072 189.335 105.528 187.367 109.224C184.391 114.84 182.519 122.088 182.519 127.944V129ZM206.515 112.392C202.435 110.616 200.467 108.12 200.467 104.664C200.467 99.72 204.931 96.36 211.507 96.36C217.987 96.36 222.211 99.576 222.211 104.52C222.211 107.88 220.099 110.376 216.019 111.816C218.611 113.064 219.283 113.448 220.435 114.264C222.403 115.704 223.603 118.104 223.603 120.6C223.603 125.976 218.659 129.624 211.363 129.624C204.067 129.624 198.931 125.928 198.931 120.696C198.931 117.096 201.427 114.36 206.515 112.392ZM211.363 110.376C216.595 109.032 218.707 107.256 218.707 104.328C218.707 101.304 215.971 99.384 211.651 99.384C207.331 99.384 204.499 101.352 204.499 104.328C204.499 107.064 207.139 109.368 211.363 110.376ZM210.931 114.072C205.507 115.368 202.867 117.624 202.867 120.888C202.867 124.344 206.179 126.6 211.267 126.6C216.355 126.6 219.667 124.392 219.667 121.08C219.667 117.912 216.979 115.752 210.931 114.072ZM228.111 123.144L231.327 121.992C232.671 125.016 234.831 126.456 237.999 126.456C243.903 126.456 247.167 121.464 247.311 112.152C244.959 116.136 242.079 117.912 237.855 117.912C231.855 117.912 227.343 113.352 227.343 107.352C227.343 101.064 232.191 96.36 238.575 96.36C241.983 96.36 245.055 97.56 247.023 99.624C249.567 102.264 251.055 106.92 251.055 112.248C251.055 117 249.951 121.272 247.887 124.536C245.871 127.752 242.175 129.672 237.999 129.672C235.311 129.672 232.911 128.904 231.087 127.512C229.647 126.36 228.975 125.352 228.111 123.144ZM238.863 99.672C234.303 99.672 231.231 102.744 231.231 107.304C231.231 111.576 234.399 114.696 238.767 114.696C242.991 114.696 246.495 111.24 246.495 107.064C246.495 102.792 243.279 99.672 238.863 99.672ZM267.515 96.36C271.883 96.36 275.195 98.424 277.307 102.456C278.891 105.576 279.755 109.272 279.755 113.16C279.755 116.76 278.795 120.744 277.163 123.72C275.147 127.464 271.691 129.624 267.659 129.624C260.507 129.624 255.515 122.76 255.515 112.92C255.515 108.984 256.331 105.384 257.867 102.456C259.979 98.424 263.291 96.36 267.515 96.36ZM267.515 99.48C262.475 99.48 259.595 104.376 259.595 112.824C259.595 121.416 262.619 126.504 267.707 126.504C270.827 126.504 273.035 124.776 274.331 121.464C275.195 119.208 275.627 116.568 275.627 113.688C275.627 110.136 275.051 106.68 273.995 104.184C272.699 101.112 270.443 99.48 267.515 99.48ZM289.842 123.672V128.472L286.338 135H284.322L287.106 129H284.706V123.672H289.842ZM301.749 123.768V129H296.517V123.768H301.749ZM315.763 105.336V110.52H310.627V105.336H315.763ZM315.763 123.672V128.472L312.211 135H310.291L313.027 129H310.627V123.672H315.763ZM329.031 123.72V129H323.799V123.72H329.031ZM329.031 105.336V110.568H323.799V105.336H329.031ZM342.537 129H337.641V124.056H342.537V129ZM341.001 121.032H339.033L337.305 96.984H342.825L341.001 121.032ZM359.236 124.392V129H354.484V124.392H359.236ZM358.42 121.032H355.06V120.024C355.06 116.664 355.108 116.136 355.636 114.696C356.068 113.784 356.74 113.016 357.604 112.536C358.612 111.96 359.62 111.384 360.676 110.808C362.884 109.56 364.084 107.592 364.084 105.336C364.084 102.024 361.348 99.624 357.604 99.624C355.444 99.624 353.332 100.536 352.132 102.024C351.268 103.176 350.836 104.232 350.308 106.536L346.804 105.816C347.38 102.744 348.1 101.208 349.732 99.48C351.7 97.368 354.292 96.36 357.7 96.36C363.988 96.36 368.212 100.056 368.212 105.48C368.212 109.032 366.34 111.624 362.212 113.832C358.564 115.848 358.372 116.088 358.42 118.92V119.88V121.032ZM396.142 104.568L394.846 115.512C394.75 116.28 394.702 117.144 394.702 117.624C394.702 118.728 395.23 119.256 396.286 119.256C398.734 119.256 401.038 115.224 401.038 110.952C401.038 104.136 395.902 99.24 388.702 99.24C381.022 99.24 375.118 105.24 375.118 112.968C375.118 117.96 377.614 122.472 381.742 124.872C383.806 126.024 386.35 126.648 389.326 126.648C392.83 126.648 395.566 126.024 398.83 124.488C399.166 124.344 399.214 124.296 399.838 124.056L400.846 126.888C396.814 128.856 393.55 129.624 389.374 129.624C385.822 129.624 382.606 128.856 380.014 127.368C375.07 124.488 371.998 119.016 371.998 112.968C371.998 103.608 379.294 96.36 388.702 96.36C397.342 96.36 403.918 102.552 403.918 110.712C403.918 116.952 400.222 122.28 395.854 122.28C393.982 122.28 392.734 121.32 392.062 119.448C390.382 121.608 388.99 122.376 386.782 122.376C382.558 122.376 379.438 118.632 379.438 113.64C379.438 108.264 382.99 104.184 387.694 104.184C389.95 104.184 391.39 104.952 392.734 106.92L393.022 104.568H396.142ZM388.03 107.304C385.198 107.304 383.086 110.088 383.086 113.784C383.086 116.952 384.718 119.256 387.022 119.256C389.71 119.256 392.11 116.04 392.11 112.392C392.11 109.416 390.43 107.304 388.03 107.304ZM432.484 106.392L431.956 109.272H427.06L425.86 115.944H430.756L430.276 118.824H425.332L423.556 129H420.484L422.308 118.824H415.492L413.668 129H410.644L412.468 118.824H407.332L407.86 115.944H412.948L414.148 109.272H409.012L409.54 106.392H414.676L416.308 96.984H419.38L417.7 106.392H424.468L426.148 96.984H429.172L427.492 106.392H432.484ZM423.94 109.272H417.22L416.02 115.944H422.788L423.94 109.272ZM449.136 132.504H446.304V127.992C441.024 127.416 437.712 124.968 436.272 120.648L439.44 119.4C440.592 122.616 443.04 124.536 446.304 124.776V113.88C443.328 113.112 442.272 112.728 440.88 111.912C438.816 110.712 437.568 108.36 437.568 105.768C437.568 102.84 439.104 100.248 441.696 98.904C443.04 98.232 444.096 97.896 446.304 97.56V93.672H449.136V97.56C453.84 97.992 456.72 99.96 458.208 103.704L455.04 104.76C454.224 102.264 452.112 100.824 449.136 100.632V110.664C452.16 111.336 453.216 111.672 454.704 112.44C457.2 113.736 458.832 116.52 458.832 119.4C458.832 122.328 457.104 125.208 454.512 126.6C453.024 127.368 451.824 127.656 449.136 127.992V132.504ZM449.136 114.552V124.776C452.976 124.536 455.232 122.664 455.232 119.688C455.232 118.104 454.416 116.616 453.072 115.8C452.016 115.128 451.152 114.888 449.136 114.552ZM446.304 110.232V100.632C442.896 101.016 440.976 102.696 440.976 105.336C440.976 107.976 442.656 109.512 446.304 110.232ZM492.428 125.64V129C490.604 129.288 489.98 129.336 488.924 129.336C486.859 129.336 486.236 129 483.596 126.456C480.572 128.856 478.46 129.624 475.148 129.624C468.908 129.624 464.252 125.592 464.252 120.12C464.252 115.656 467.228 112.152 472.556 110.328C470.396 107.16 469.484 105.048 469.484 103.08C469.484 99.192 472.508 96.36 476.684 96.36C481.052 96.36 484.076 99.144 484.076 103.176C484.076 106.776 482.252 109.032 477.356 111.48L484.076 121.704C486.38 118.776 487.676 115.752 488.444 111.48L491.852 112.2C491.228 115.992 488.492 121.608 485.948 124.2C487.196 125.496 488.012 125.832 489.5 125.832C490.124 125.832 490.7 125.784 492.428 125.64ZM481.772 124.056L474.092 112.728C469.676 114.744 468.236 116.52 468.236 119.928C468.236 121.656 468.668 123.096 469.532 124.152C470.732 125.64 473.084 126.6 475.484 126.6C478.076 126.6 479.66 125.976 481.772 124.056ZM475.724 109.176C476.348 108.84 476.876 108.504 477.164 108.36C479.996 106.728 481.052 105.384 481.052 103.416C481.052 101.112 479.228 99.336 476.828 99.336C474.572 99.336 472.892 100.872 472.892 102.888C472.892 104.424 473.324 105.384 475.724 109.176ZM502.507 96.648C506.491 96.648 509.179 100.008 509.179 105.048C509.179 109.848 506.443 113.304 502.603 113.304C498.715 113.304 495.979 109.896 495.979 104.952C495.979 99.96 498.571 96.648 502.507 96.648ZM502.507 98.472C499.915 98.472 498.475 100.776 498.475 104.856C498.475 109.032 500.011 111.432 502.651 111.432C505.099 111.432 506.635 109.128 506.635 105.288C506.635 101.016 505.099 98.472 502.507 98.472ZM503.323 129H500.347L519.739 96.984H522.667L503.323 129ZM520.411 112.68C524.395 112.68 527.035 116.04 527.035 121.08C527.035 125.88 524.299 129.336 520.459 129.336C516.571 129.336 513.883 125.928 513.883 120.984C513.883 115.992 516.475 112.68 520.411 112.68ZM520.363 114.504C517.819 114.504 516.331 116.808 516.331 120.888C516.331 125.064 517.867 127.464 520.507 127.464C523.003 127.464 524.539 125.16 524.539 121.32C524.539 117 523.003 114.504 520.363 114.504ZM533.166 97.224L534.606 94.392L543.87 99.768L542.91 101.64L533.166 97.224ZM557.406 116.664L555.294 115.272C557.166 111.288 559.038 109.704 561.87 109.704C563.214 109.704 564.942 110.232 567.246 111.336C569.502 112.392 570.798 112.824 571.902 112.824C573.678 112.824 574.782 112.008 576.222 109.608L578.382 110.904C577.374 112.824 576.654 113.832 575.694 114.744C574.734 115.656 573.054 116.328 571.758 116.328C570.27 116.328 568.926 115.896 565.806 114.408C564.174 113.64 562.59 113.16 561.582 113.16C559.998 113.16 558.846 114.12 557.406 116.664ZM603.77 111.528H599.882L592.922 99.72L586.01 111.528H582.122L590.57 96.888H595.322L603.77 111.528ZM618.074 105.816L617.162 96.984H620.81L619.898 105.816L628.202 102.168L629.306 105.528L620.234 107.352L626.234 113.928L623.306 115.992L618.986 108.408L614.666 115.992L611.738 113.928L617.738 107.352L608.666 105.528L609.77 102.168L618.074 105.816ZM11.856 185.016H9.408C4.8 178.968 2.496 172.296 2.496 165C2.496 157.944 4.8 151.272 9.36 144.984H11.808C7.776 151.272 5.904 157.512 5.904 164.808C5.904 172.104 7.776 178.44 11.856 185.016ZM15.9893 144.984H18.4373C23.0453 151.032 25.3493 157.704 25.3493 165C25.3493 172.056 23.0453 178.728 18.4853 185.016H16.0373C20.0693 178.728 21.9413 172.488 21.9413 165.192C21.9413 157.896 20.0693 151.56 15.9893 144.984ZM39.9398 185.016H31.6358V144.984H39.9398V147.384H34.8518V182.472H39.9398V185.016ZM43.8743 144.984H52.1783V185.016H43.8743V182.616H48.9622V147.528H43.8743V144.984ZM64.7048 151.656V159.768C64.7048 162.696 63.9848 163.944 61.7288 165.048C63.9368 166.104 64.7048 167.544 64.7048 170.424V178.2C64.7048 181.608 65.5688 182.472 69.1208 182.52V185.016H68.1128C63.3128 185.016 61.4888 183.144 61.4888 178.152V170.472C61.4888 167.832 60.7688 166.632 58.7528 166.104V163.8C60.7208 163.272 61.4888 162.072 61.4888 159.576V151.272C61.4888 146.856 63.4568 144.984 68.1128 144.984H69.1208V147.48C65.6648 147.528 64.7048 148.44 64.7048 151.656ZM76.6729 178.344V170.232C76.6729 167.304 77.3929 166.056 79.6489 164.952C77.4409 163.896 76.6729 162.456 76.6729 159.576V151.8C76.6729 148.392 75.8089 147.528 72.2569 147.48V144.984H73.2649C78.0649 144.984 79.8889 146.856 79.8889 151.848V159.528C79.8889 162.168 80.6089 163.368 82.6249 163.896V166.2C80.6569 166.728 79.8889 167.928 79.8889 170.424V178.728C79.8889 183.144 77.9209 185.016 73.2649 185.016H72.2569V182.52C75.7129 182.472 76.6729 181.56 76.6729 178.344ZM85.3594 180.168H109.359V183.384H85.3594V180.168ZM112.239 155.208H134.655V158.424H112.239V155.208ZM112.239 162.792H134.655V166.008H112.239V162.792ZM148.859 163.56V166.44H138.251V163.56H148.859ZM152.411 159.336H161.867V149.496H165.371V159.336H174.827V162.6H165.371V172.44H161.867V162.6H152.411V159.336ZM201.703 149.832V153.384L184.759 161.16L201.703 168.888V172.488L180.919 162.696V159.576L201.703 149.832ZM210.051 172.488V168.888L226.995 161.16L210.051 153.384V149.832L230.835 159.576V162.696L210.051 172.488ZM234.911 185.016H231.791L251.087 144.984H254.255L234.911 185.016ZM276.724 185.016L257.428 144.984H260.548L279.892 185.016H276.724ZM287.865 144.984H291.465V185.016H287.865V144.984ZM307.161 157.368H304.857L304.137 144.984H307.881L307.161 157.368ZM315.833 157.368H313.529L312.809 144.984H316.553L315.833 157.368ZM322.312 157.368H319.961L319.289 144.984H323.033L322.312 157.368Z" fill="#111111"/>
</svg>
