<svg width="863" height="192" viewBox="0 0 863 192" fill="none" xmlns="http://www.w3.org/2000/svg">
<path d="M19.056 36C18.768 34.656 18.624 33.072 18.624 31.92C17.568 34.752 14.256 36.528 10.224 36.528C6 36.528 2.4 34.08 2.4 29.616C2.4 24.96 5.856 22.944 10.752 22.368L18.528 21.36V19.968C18.528 16.128 16.176 14.496 12.864 14.496C9.648 14.496 7.632 16.176 7.344 18.96H3.504C3.984 14.064 7.824 11.28 12.96 11.28C18.816 11.28 22.464 14.064 22.464 19.872V30.96C22.464 32.736 22.56 34.416 23.04 36H19.056ZM11.04 33.504C14.784 33.504 18.528 31.152 18.528 26.496V24.336L11.952 25.056C8.928 25.488 6.432 26.256 6.432 29.52C6.432 31.776 8.016 33.504 11.04 33.504ZM34.5964 31.776V36H30.7564V0.671997H34.7404V16.128C35.8444 13.68 38.5804 11.28 42.7564 11.28C48.9004 11.28 53.5084 16.272 53.5084 23.952C53.5084 31.584 48.9004 36.576 42.7564 36.576C38.7724 36.576 35.7964 34.224 34.5964 31.776ZM34.5484 23.568V24.24C34.5484 29.712 37.2364 33.456 41.9404 33.456C46.6924 33.456 49.4764 29.568 49.4764 23.952C49.4764 18.288 46.6924 14.4 41.9404 14.4C37.2364 14.4 34.5484 18.096 34.5484 23.568ZM58.5585 23.952C58.5585 16.224 63.2145 11.28 69.9345 11.28C75.3105 11.28 78.8625 14.352 79.6305 19.488H75.8385C75.1665 16.272 73.1985 14.496 69.9345 14.496C65.1825 14.496 62.4945 18.288 62.4945 23.952C62.4945 29.616 65.1825 33.36 69.9345 33.36C73.1985 33.36 75.1665 31.584 75.8385 28.368H79.6305C78.8625 33.552 75.3105 36.576 69.9345 36.576C63.2145 36.576 58.5585 31.68 58.5585 23.952ZM103.346 36V31.776C102.146 34.224 99.1695 36.576 95.1855 36.576C89.0415 36.576 84.4335 31.584 84.4335 23.952C84.4335 16.272 89.0415 11.28 95.1855 11.28C99.3615 11.28 102.098 13.68 103.202 16.128V0.671997H107.186V36H103.346ZM103.394 24.24V23.568C103.394 18.096 100.706 14.4 96.0015 14.4C91.2495 14.4 88.4655 18.288 88.4655 23.952C88.4655 29.568 91.2495 33.456 96.0015 33.456C100.706 33.456 103.394 29.712 103.394 24.24ZM135.565 28.896C134.461 34.032 130.285 36.576 125.581 36.576C118.765 36.576 113.965 31.824 113.965 24.048C113.965 16.176 118.909 11.28 125.341 11.28C132.493 11.28 135.709 16.992 135.709 23.184V24.768H117.853C118.045 30.336 120.973 33.408 125.581 33.408C128.845 33.408 130.813 31.824 131.821 28.896H135.565ZM125.341 14.496C121.549 14.496 118.669 16.944 117.997 21.888H131.821C131.725 17.712 129.661 14.496 125.341 14.496ZM143.084 14.88H139.58V11.856H143.084V7.344C143.084 2.832 145.964 0.527999 150.092 0.527999C150.956 0.527999 152.06 0.623998 152.78 0.767999V3.936C152.156 3.84 151.196 3.792 150.332 3.792C148.604 3.792 147.02 4.656 147.02 7.392V11.856H152.204V14.88H147.02V36H143.084V14.88ZM174.262 34.464V30.912C173.158 33.264 170.47 35.568 166.246 35.568C160.054 35.568 155.542 30.912 155.542 23.376C155.542 16.128 160.054 11.28 166.246 11.28C170.47 11.28 173.254 13.776 174.406 16.08V11.856H178.294V34.176C178.294 41.856 173.302 45.12 166.87 45.12C161.062 45.12 157.126 42.768 156.166 38.064H160.198C161.014 41.088 163.558 42.048 166.822 42.048C171.574 42.048 174.262 39.504 174.262 34.464ZM174.55 23.952V22.8C174.55 17.808 171.43 14.4 166.966 14.4C162.262 14.4 159.478 18 159.478 23.376C159.478 28.704 162.262 32.4 166.966 32.4C171.43 32.4 174.55 28.944 174.55 23.952ZM190.834 16.272C191.986 13.2 194.866 11.28 198.562 11.28C203.986 11.28 207.202 14.688 207.202 20.448V36H203.218V21.312C203.218 16.848 201.25 14.544 197.458 14.544C193.762 14.544 190.834 16.896 190.834 22.704V36H186.85V0.671997H190.834V16.272ZM215.203 6.816V1.968H219.715V6.816H215.203ZM215.491 36V11.856H219.475V36H215.491ZM227.718 6.816V1.968H232.23V6.816H227.718ZM225.51 44.832C224.79 44.832 224.166 44.784 223.446 44.64V41.472C223.878 41.568 224.262 41.616 224.742 41.616C226.998 41.616 228.006 40.896 228.006 38.304V11.856H231.99V38.16C231.99 42.672 229.974 44.832 225.51 44.832ZM256.794 36L247.626 24.624L244.506 27.648V36H240.522V0.671997H244.506V23.424L256.41 11.856H261.162L250.506 22.08L261.594 36H256.794ZM271.272 36H267.288V0.671997H271.272V36ZM298.619 16.464C300.107 13.2 303.179 11.28 306.731 11.28C312.299 11.28 315.035 14.784 315.035 20.448V36H311.003V21.312C311.003 16.8 309.371 14.544 305.771 14.544C302.171 14.544 299.435 17.136 299.435 22.704V36H295.403V21.312C295.403 16.8 293.819 14.544 290.171 14.544C286.523 14.544 283.787 17.136 283.787 22.704V36H279.803V11.856H283.643V16.272C284.795 13.2 287.771 11.28 291.275 11.28C295.355 11.28 297.563 13.248 298.619 16.464ZM327.143 11.856V16.272C328.295 13.296 331.319 11.28 335.015 11.28C340.439 11.28 343.655 14.688 343.655 20.448V36H339.671V21.312C339.671 16.848 337.703 14.544 333.911 14.544C330.215 14.544 327.287 16.896 327.287 22.704V36H323.303V11.856H327.143ZM373.112 23.952C373.112 31.728 368.312 36.576 361.64 36.576C354.968 36.576 350.168 31.728 350.168 23.952C350.168 16.176 354.968 11.28 361.64 11.28C368.312 11.28 373.112 16.176 373.112 23.952ZM354.104 23.952C354.104 29.76 356.936 33.36 361.64 33.36C366.344 33.36 369.176 29.76 369.176 23.952C369.176 18.144 366.344 14.496 361.64 14.496C356.936 14.496 354.104 18.144 354.104 23.952ZM383.865 31.776V44.544H379.881V11.856H383.721V16.272C384.825 13.824 387.705 11.28 391.881 11.28C398.025 11.28 402.633 16.272 402.633 23.952C402.633 31.584 398.025 36.576 391.881 36.576C387.897 36.576 385.065 34.224 383.865 31.776ZM383.673 23.568V24.24C383.673 29.712 386.361 33.456 391.065 33.456C395.817 33.456 398.601 29.568 398.601 23.952C398.601 18.288 395.817 14.4 391.065 14.4C386.361 14.4 383.673 18.096 383.673 23.568ZM426.452 44.544V31.776C425.252 34.224 422.42 36.576 418.436 36.576C412.292 36.576 407.684 31.584 407.684 23.952C407.684 16.272 412.292 11.28 418.436 11.28C422.612 11.28 425.492 13.824 426.596 16.272V11.856H430.436V44.544H426.452ZM426.644 24.24V23.568C426.644 18.096 423.956 14.4 419.252 14.4C414.5 14.4 411.716 18.288 411.716 23.952C411.716 29.568 414.5 33.456 419.252 33.456C423.956 33.456 426.644 29.712 426.644 24.24ZM452.383 11.52V15.168C451.807 15.024 450.943 14.976 450.319 14.976C446.479 14.976 442.975 18 442.975 24.096V36H438.991V11.856H442.831V17.568C443.887 13.584 446.959 11.328 450.511 11.328C451.135 11.328 451.807 11.376 452.383 11.52ZM455.396 28.848H459.236C459.523 32.16 462.596 33.552 465.859 33.552C469.172 33.552 471.572 32.016 471.572 29.424C471.572 27.648 470.42 26.496 467.348 25.92L463.076 25.056C459.188 24.336 456.355 22.752 456.355 18.528C456.355 14.448 460.004 11.28 465.332 11.28C470.9 11.28 474.308 13.68 474.788 18.24H471.092C470.804 15.792 468.644 14.352 465.332 14.352C462.116 14.352 460.052 15.936 460.052 18.288C460.052 20.352 461.492 21.216 464.276 21.744L469.076 22.656C473.012 23.424 475.316 25.344 475.316 29.232C475.316 33.456 471.332 36.576 465.908 36.576C460.148 36.576 455.828 34.032 455.396 28.848ZM493.442 32.448V35.712C491.666 36.24 490.273 36.384 489.218 36.384C484.802 36.384 482.546 34.272 482.546 29.808V14.88H478.994V11.856H482.546V5.712H486.482V11.856H492.818V14.88H486.434V29.616C486.434 32.16 487.73 33.024 489.938 33.024C490.85 33.024 491.906 32.928 493.442 32.448ZM519.8 36H515.912V31.632C514.76 34.656 511.88 36.576 508.232 36.576C502.76 36.576 499.688 33.264 499.688 27.408V11.856H503.72V26.64C503.72 31.104 505.592 33.456 509.384 33.456C513.032 33.456 515.768 30.96 515.768 25.152V11.856H519.8V36ZM535.055 36L525.407 11.856H529.487L537.263 32.064H537.359L544.799 11.856H548.783L539.519 36H535.055ZM570.62 11.856L576.092 31.68H576.188L581.756 11.856H585.596L578.3 36H574.172L568.604 16.464H568.46L562.988 36H558.812L551.516 11.856H555.452L561.068 31.68H561.212L566.588 11.856H570.62ZM592.971 36H588.699L597.867 23.568L589.179 11.856H593.883L600.315 20.736L606.699 11.856H611.019L602.475 23.376L611.787 36H607.131L599.979 26.304L592.971 36ZM624.587 36.192L614.891 11.856H619.067L626.747 31.584H626.843L634.091 11.856H638.219L628.475 36.72C626.267 42.48 624.347 44.88 619.931 44.928C619.259 44.928 618.347 44.832 617.579 44.688V41.424C618.347 41.616 618.875 41.616 619.499 41.616C621.899 41.616 623.003 40.272 624.587 36.192ZM661.403 14.784L647.003 32.928H661.931V36H642.059V33.408L656.555 14.928H642.635V11.856H661.403V14.784ZM28.944 84L25.152 74.448H8.736L4.944 84H0.816L14.688 49.728H19.344L33.264 84H28.944ZM16.896 53.856L10.08 71.04H23.808L17.04 53.856H16.896ZM52.1261 84H38.5421V49.728H50.5901C58.2221 49.728 62.6381 52.896 62.6381 58.896C62.6381 62.064 60.2381 65.328 57.3101 66.192C61.5341 67.248 64.1741 70.368 64.1741 74.4C64.1741 80.688 59.7101 84 52.1261 84ZM42.6221 64.848H50.8301C55.9181 64.848 58.4621 62.688 58.4621 58.944C58.4621 55.152 55.9661 53.088 50.8781 53.088H42.6221V64.848ZM42.6221 68.064V80.64H51.9341C57.1661 80.64 60.0461 78.336 60.0461 74.4C60.0461 70.464 57.0701 68.064 51.8381 68.064H42.6221ZM73.2803 66.816C73.2803 75.36 77.3603 81.072 84.4163 81.072C90.1763 81.072 92.6723 77.856 93.4403 74.016H97.4723C96.3683 80.256 91.9043 84.576 84.4163 84.576C75.5843 84.576 69.0563 77.616 69.0563 66.816C69.0563 56.064 75.5843 49.152 84.4163 49.152C91.9043 49.152 96.3683 53.472 97.4723 59.712H93.4403C92.6723 55.872 90.1763 52.656 84.4163 52.656C77.3603 52.656 73.2803 58.272 73.2803 66.816ZM116.171 49.728C126.107 49.728 132.875 56.592 132.875 66.864C132.875 77.184 126.107 84 116.171 84H104.027V49.728H116.171ZM116.171 53.184H108.107V80.544H116.171C124.139 80.544 128.603 75.168 128.603 66.864C128.603 58.608 124.139 53.184 116.171 53.184ZM162.929 84H139.745V49.728H162.881V53.184H143.825V65.136H160.769V68.64H143.825V80.544H162.929V84ZM170.542 84V49.728H192.478V53.184H174.67V65.712H190.846V69.168H174.67V84H170.542ZM197.4 66.816C197.4 56.064 204.168 49.152 213.24 49.152C220.872 49.152 225.432 53.376 226.632 59.712H222.504C221.592 55.44 218.472 52.656 213.24 52.656C205.944 52.656 201.624 58.272 201.624 66.816C201.624 75.36 205.848 81.072 213.096 81.072C218.856 81.072 223.128 77.52 223.128 71.952V70.176H215.016V66.912H227.16V84H223.896L223.512 78.288C222.216 81.984 217.608 84.576 213.048 84.576C203.976 84.576 197.4 77.616 197.4 66.816ZM235.277 84V49.728H239.405V64.848H259.469V49.728H263.597V84H259.469V68.304H239.405V84H235.277ZM272.542 84V49.728H276.67V84H272.542ZM300.451 71.904V49.728H304.579V71.856C304.579 79.584 300.259 84.576 293.011 84.576C286.819 84.576 281.971 80.88 281.779 74.112H285.763C286.003 78.96 289.027 81.312 293.011 81.312C298.195 81.312 300.451 77.616 300.451 71.904ZM336.083 84L322.355 67.68L317.123 73.008V84H312.995V49.728H317.123V68.352L335.171 49.728H340.163L325.235 64.8L341.075 84H336.083ZM346.98 84V49.728H351.108V80.544H369.54V84H346.98ZM395.32 84H391.96L380.824 53.952H380.728V84H376.792V49.728H383.176L393.736 78.624H393.832L404.392 49.728H410.536V84H406.552V53.952H406.456L395.32 84ZM424.536 49.728L442.824 77.088H442.92V49.728H446.904V84H443.064L423.576 54.768H423.48V84H419.448V49.728H424.536ZM485.006 66.864C485.006 77.184 478.91 84.576 469.406 84.576C459.902 84.576 453.806 77.184 453.806 66.864C453.806 56.592 459.902 49.152 469.406 49.152C478.91 49.152 485.006 56.592 485.006 66.864ZM480.734 66.864C480.734 58.608 476.894 52.656 469.406 52.656C461.87 52.656 458.03 58.608 458.03 66.864C458.03 75.168 461.87 81.072 469.406 81.072C476.894 81.072 480.734 75.168 480.734 66.864ZM504.59 70.224H495.95V84H491.87V49.728H504.542C512.174 49.728 516.59 53.232 516.59 59.952C516.59 66.72 512.174 70.224 504.59 70.224ZM495.95 66.768H504.446C509.63 66.768 512.462 64.608 512.462 59.952C512.462 55.296 509.63 53.184 504.446 53.184H495.95V66.768ZM550.35 84.336L548.046 86.448L544.446 82.608C542.286 83.904 539.694 84.576 536.766 84.576C527.262 84.576 521.166 77.184 521.166 66.864C521.166 56.592 527.262 49.152 536.766 49.152C546.27 49.152 552.366 56.592 552.366 66.864C552.366 72.672 550.398 77.568 546.99 80.736L550.35 84.336ZM525.39 66.864C525.39 75.168 529.23 81.072 536.766 81.072C538.734 81.072 540.462 80.64 541.902 79.92L537.87 75.6L540.222 73.44L544.446 78C546.894 75.456 548.094 71.568 548.094 66.864C548.094 58.608 544.254 52.656 536.766 52.656C529.23 52.656 525.39 58.608 525.39 66.864ZM563.31 84H559.23V49.728H572.43C580.11 49.728 584.478 53.328 584.478 59.904C584.478 65.472 580.59 68.592 576.558 69.504L585.966 84H581.31L572.43 70.128H563.31V84ZM563.31 66.672H572.19C577.374 66.672 580.302 64.368 580.302 59.904C580.302 55.584 577.374 53.184 572.19 53.184H563.31V66.672ZM590.115 73.872H594.099C594.627 79.392 599.139 81.264 604.227 81.264C609.123 81.264 612.723 78.912 612.723 74.784C612.723 71.904 611.139 70.032 606.483 69.168L599.955 67.872C595.347 67.008 591.219 64.896 591.219 58.992C591.219 53.376 596.067 49.152 603.171 49.152C610.515 49.152 615.363 52.32 616.035 58.512H612.051C611.475 54.672 608.115 52.464 603.219 52.464C598.227 52.464 595.251 55.248 595.251 58.848C595.251 62.256 597.171 63.456 601.347 64.272L608.067 65.664C613.347 66.72 616.707 69.168 616.707 74.592C616.707 80.448 611.523 84.576 604.275 84.576C596.835 84.576 590.595 81.36 590.115 73.872ZM632.688 84V53.184H619.92V49.728H649.632V53.184H636.816V84H632.688ZM683.243 70.032C683.243 79.392 678.203 84.576 669.371 84.576C660.635 84.576 655.499 79.392 655.499 69.936V49.728H659.627V70.272C659.627 77.568 663.371 81.072 669.371 81.072C675.419 81.072 679.115 77.568 679.115 70.272V49.728H683.243V70.032ZM701.874 84L688.05 49.728H692.37L704.274 79.776H704.37L716.274 49.728H720.498L706.578 84H701.874ZM752.417 84L744.689 55.2H744.593L736.817 84H732.161L722.513 49.728H726.881L734.753 78.864H734.849L742.577 49.728H746.945L754.721 78.864H754.817L762.641 49.728H766.769L757.121 84H752.417ZM796.033 84L784.561 68.88L773.233 84H768.769L782.353 66L770.065 49.728H774.913L784.753 62.88L794.593 49.728H799.057L786.961 65.712L800.833 84H796.033ZM819.516 84H815.388V69.792L802.332 49.728H806.892L817.596 66.096H817.692L828.06 49.728H832.62L819.516 69.792V84ZM862.527 52.992L841.215 80.544H862.671V84H835.935V81.072L857.343 53.184H836.655V49.728H862.527V52.992ZM1.2 105.552V102.768C7.056 102.768 9.168 101.136 9.984 97.584H12.528V132H8.4V105.552H1.2ZM42.6353 107.136C42.6353 113.568 37.3073 116.448 32.1713 119.76C27.9953 122.544 23.8672 125.424 23.8672 128.544H42.9713V132H19.4513V130.128C19.4513 124.032 25.3553 119.76 30.4433 116.592C35.0033 113.664 38.6993 111.12 38.6993 107.136C38.6993 103.872 36.8273 100.608 31.7393 100.608C27.0353 100.608 24.2993 104.16 24.0113 108.288H20.1233C20.4593 102.24 24.5872 97.152 31.7873 97.152C38.9873 97.152 42.6353 102.048 42.6353 107.136ZM71.544 122.688C71.544 128.016 67.272 132.576 59.592 132.576C52.248 132.576 47.496 128.448 47.016 121.968H51.048C51.336 126.24 54.36 129.216 59.592 129.216C64.584 129.216 67.656 126.672 67.656 122.544C67.656 118.56 64.68 116.304 60.168 116.304H56.424V112.944H60.024C63.624 112.944 66.744 111.36 66.744 106.944C66.744 103.44 64.44 100.512 59.736 100.512C54.84 100.512 52.104 103.92 51.864 108H47.976C48.36 102.048 52.344 97.152 59.736 97.152C67.08 97.152 70.728 101.808 70.728 106.896C70.728 111.12 67.944 114.048 64.584 114.528C68.664 115.152 71.544 118.416 71.544 122.688ZM96.9563 97.728V119.28H104.3V122.592H96.9563V132H92.9243V122.592H75.9323V119.232L92.3003 97.728H96.9563ZM92.9243 102L79.9163 119.28H92.9243V102ZM120.627 112.56C117.027 112.56 114.627 114.336 113.331 116.4H109.635L111.555 97.728H130.851V101.232H114.531L113.379 112.56C114.819 110.736 117.795 109.2 120.963 109.2C128.115 109.2 132.579 114.384 132.579 120.864C132.579 127.392 128.115 132.576 120.627 132.576C113.715 132.576 108.771 128.448 108.243 121.824H112.323C112.659 126.192 115.827 129.216 120.675 129.216C126.051 129.216 128.595 125.232 128.595 120.864C128.595 116.496 126.051 112.56 120.627 112.56ZM151.08 100.608C144.744 100.608 141.432 107.184 141.432 116.064C142.536 112.512 145.896 109.104 151.128 109.104C157.896 109.104 162.456 114.096 162.456 120.672C162.456 127.584 157.752 132.576 150.6 132.576C143.016 132.576 137.592 125.952 137.592 115.44C137.592 104.592 143.256 97.152 151.128 97.152C157.224 97.152 161.352 100.752 162.12 106.512H158.328C157.512 102.624 155.16 100.608 151.08 100.608ZM150.6 129.216C155.496 129.216 158.568 125.616 158.568 120.816C158.568 115.968 155.496 112.464 150.6 112.464C145.8 112.464 142.536 115.968 142.536 120.816C142.536 125.616 145.8 129.216 150.6 129.216ZM185.88 101.232H166.296V97.728H190.392V100.656C182.232 110.544 179.352 120.336 179.208 132H174.888C175.032 119.856 179.4 109.488 185.88 101.232ZM207.5 97.152C213.932 97.152 218.828 100.704 218.828 106.608C218.828 110.496 216.572 113.28 213.164 114.624C216.812 115.296 220.364 118.608 220.364 122.64C220.364 128.544 215.372 132.576 207.5 132.576C199.724 132.576 194.684 128.544 194.684 122.64C194.684 118.608 198.236 115.296 201.884 114.624C198.523 113.28 196.22 110.496 196.22 106.608C196.22 100.704 201.116 97.152 207.5 97.152ZM207.5 112.848C211.628 112.848 215.036 110.832 215.036 106.608C215.036 102.432 211.628 100.416 207.5 100.416C203.42 100.416 200.012 102.432 200.012 106.608C200.012 110.832 203.42 112.848 207.5 112.848ZM207.5 129.264C212.972 129.264 216.236 126.672 216.236 122.64C216.236 118.656 212.972 116.16 207.5 116.16C202.124 116.16 198.812 118.656 198.812 122.64C198.812 126.672 202.124 129.264 207.5 129.264ZM236.811 129.12C243.147 129.12 246.459 122.544 246.459 113.664C245.355 117.216 241.995 120.624 236.763 120.624C229.995 120.624 225.435 115.632 225.435 109.056C225.435 102.144 230.139 97.152 237.291 97.152C244.875 97.152 250.299 103.776 250.299 114.288C250.299 125.136 244.635 132.576 236.763 132.576C230.667 132.576 226.539 128.976 225.771 123.216H229.563C230.379 127.104 232.731 129.12 236.811 129.12ZM237.291 100.512C232.395 100.512 229.323 104.112 229.323 108.912C229.323 113.76 232.395 117.264 237.291 117.264C242.091 117.264 245.355 113.76 245.355 108.912C245.355 104.112 242.091 100.512 237.291 100.512ZM255.483 114.864C255.483 104.592 260.811 97.152 269.115 97.152C277.467 97.152 282.747 104.592 282.747 114.864C282.747 125.136 277.467 132.576 269.115 132.576C260.811 132.576 255.483 125.136 255.483 114.864ZM259.707 114.864C259.707 123.264 262.875 129.024 269.115 129.024C275.403 129.024 278.571 123.264 278.571 114.864C278.571 106.464 275.403 100.704 269.115 100.704C262.875 100.704 259.707 106.464 259.707 114.864ZM288.018 131.952V126.768H293.25V132.816C293.25 136.8 290.85 139.536 286.482 139.536V137.088C288.93 137.088 290.322 135.984 290.322 132.816V131.952H288.018ZM302.736 132V126.768H307.968V132H302.736ZM321.487 126.96C321.199 128.08 320.831 129.296 320.383 130.608C319.935 131.92 319.439 133.216 318.895 134.496C318.383 135.808 317.871 137.04 317.359 138.192H314.191C314.415 137.296 314.639 136.336 314.863 135.312C315.119 134.288 315.359 133.248 315.583 132.192C315.807 131.168 315.999 130.16 316.159 129.168C316.351 128.176 316.511 127.264 316.639 126.432H321.151L321.487 126.96ZM316.063 108.864C316.063 107.648 316.351 106.8 316.927 106.32C317.503 105.84 318.191 105.6 318.991 105.6C319.823 105.6 320.527 105.84 321.103 106.32C321.711 106.8 322.015 107.648 322.015 108.864C322.015 110.016 321.711 110.848 321.103 111.36C320.527 111.872 319.823 112.128 318.991 112.128C318.191 112.128 317.503 111.872 316.927 111.36C316.351 110.848 316.063 110.016 316.063 108.864ZM329.003 129.408C329.003 128.224 329.291 127.392 329.867 126.912C330.443 126.432 331.131 126.192 331.931 126.192C332.763 126.192 333.467 126.432 334.043 126.912C334.651 127.392 334.955 128.224 334.955 129.408C334.955 130.56 334.651 131.392 334.043 131.904C333.467 132.416 332.763 132.672 331.931 132.672C331.131 132.672 330.443 132.416 329.867 131.904C329.291 131.392 329.003 130.56 329.003 129.408ZM329.003 108.864C329.003 107.648 329.291 106.8 329.867 106.32C330.443 105.84 331.131 105.6 331.931 105.6C332.763 105.6 333.467 105.84 334.043 106.32C334.651 106.8 334.955 107.648 334.955 108.864C334.955 110.016 334.651 110.848 334.043 111.36C333.467 111.872 332.763 112.128 331.931 112.128C331.131 112.128 330.443 111.872 329.867 111.36C329.291 110.848 329.003 110.016 329.003 108.864ZM346.215 122.352H343.479L342.279 97.728H347.415L346.215 122.352ZM341.847 129.408C341.847 128.224 342.135 127.392 342.711 126.912C343.287 126.432 343.991 126.192 344.823 126.192C345.623 126.192 346.311 126.432 346.887 126.912C347.495 127.392 347.799 128.224 347.799 129.408C347.799 130.56 347.495 131.392 346.887 131.904C346.311 132.416 345.623 132.672 344.823 132.672C343.991 132.672 343.287 132.416 342.711 131.904C342.135 131.392 341.847 130.56 341.847 129.408ZM358.001 121.056C358.001 119.84 358.113 118.8 358.337 117.936C358.593 117.04 359.009 116.192 359.585 115.392C360.193 114.592 361.009 113.76 362.033 112.896C363.281 111.84 364.241 110.96 364.913 110.256C365.617 109.552 366.113 108.864 366.401 108.192C366.689 107.52 366.833 106.704 366.833 105.744C366.833 104.208 366.337 103.024 365.345 102.192C364.353 101.36 362.913 100.944 361.025 100.944C359.457 100.944 358.065 101.152 356.849 101.568C355.633 101.952 354.465 102.416 353.345 102.96L351.857 99.6C353.137 98.928 354.545 98.368 356.081 97.92C357.649 97.472 359.393 97.248 361.313 97.248C364.353 97.248 366.705 98 368.369 99.504C370.033 101.008 370.865 103.056 370.865 105.648C370.865 107.088 370.625 108.32 370.145 109.344C369.697 110.336 369.041 111.264 368.177 112.128C367.345 112.96 366.353 113.856 365.201 114.816C364.145 115.712 363.329 116.496 362.753 117.168C362.209 117.84 361.841 118.512 361.649 119.184C361.457 119.824 361.361 120.608 361.361 121.536V122.352H358.001V121.056ZM356.897 129.408C356.897 128.224 357.169 127.392 357.713 126.912C358.289 126.432 359.009 126.192 359.873 126.192C360.673 126.192 361.361 126.432 361.937 126.912C362.513 127.392 362.801 128.224 362.801 129.408C362.801 130.56 362.513 131.392 361.937 131.904C361.361 132.416 360.673 132.672 359.873 132.672C359.009 132.672 358.289 132.416 357.713 131.904C357.169 131.392 356.897 130.56 356.897 129.408ZM412.462 114.864C412.462 116.336 412.286 117.776 411.934 119.184C411.614 120.592 411.102 121.872 410.398 123.024C409.694 124.144 408.83 125.056 407.806 125.76C406.782 126.432 405.566 126.768 404.158 126.768C402.686 126.768 401.518 126.352 400.654 125.52C399.822 124.656 399.31 123.68 399.118 122.592H398.878C398.302 123.776 397.454 124.768 396.334 125.568C395.214 126.368 393.806 126.768 392.11 126.768C389.678 126.768 387.79 125.952 386.446 124.32C385.134 122.688 384.478 120.528 384.478 117.84C384.478 115.728 384.894 113.872 385.726 112.272C386.558 110.64 387.726 109.36 389.23 108.432C390.766 107.504 392.574 107.04 394.654 107.04C396.062 107.04 397.438 107.168 398.782 107.424C400.158 107.648 401.23 107.904 401.998 108.192L401.518 117.936C401.486 118.512 401.47 118.928 401.47 119.184C401.47 119.408 401.47 119.568 401.47 119.664C401.47 121.328 401.758 122.432 402.334 122.976C402.942 123.52 403.646 123.792 404.446 123.792C405.438 123.792 406.27 123.392 406.942 122.592C407.646 121.76 408.174 120.672 408.526 119.328C408.91 117.952 409.102 116.448 409.102 114.816C409.102 111.84 408.494 109.328 407.278 107.28C406.094 105.2 404.446 103.616 402.334 102.528C400.254 101.44 397.886 100.896 395.23 100.896C392.51 100.896 390.094 101.328 387.982 102.192C385.87 103.056 384.094 104.272 382.654 105.84C381.246 107.408 380.174 109.264 379.438 111.408C378.702 113.52 378.334 115.856 378.334 118.416C378.334 121.552 378.894 124.224 380.014 126.432C381.134 128.608 382.766 130.272 384.91 131.424C387.086 132.544 389.742 133.104 392.878 133.104C394.83 133.104 396.686 132.88 398.446 132.432C400.238 132.016 401.822 131.552 403.198 131.04V134.304C401.822 134.88 400.27 135.344 398.542 135.696C396.846 136.08 394.958 136.272 392.878 136.272C389.102 136.272 385.87 135.568 383.182 134.16C380.494 132.752 378.43 130.736 376.99 128.112C375.582 125.456 374.878 122.272 374.878 118.56C374.878 115.584 375.342 112.832 376.27 110.304C377.198 107.744 378.542 105.536 380.302 103.68C382.062 101.792 384.19 100.336 386.686 99.312C389.214 98.256 392.062 97.728 395.23 97.728C397.726 97.728 400.014 98.128 402.094 98.928C404.206 99.696 406.03 100.832 407.566 102.336C409.134 103.808 410.334 105.6 411.166 107.712C412.03 109.824 412.462 112.208 412.462 114.864ZM388.222 117.936C388.222 119.984 388.622 121.472 389.422 122.4C390.254 123.328 391.358 123.792 392.734 123.792C394.526 123.792 395.806 123.12 396.574 121.776C397.374 120.432 397.838 118.688 397.966 116.544L398.254 110.544C397.838 110.416 397.31 110.304 396.67 110.208C396.03 110.112 395.374 110.064 394.702 110.064C393.134 110.064 391.87 110.448 390.91 111.216C389.95 111.984 389.262 112.976 388.846 114.192C388.43 115.376 388.222 116.624 388.222 117.936ZM438.306 111.072L436.818 118.752H443.394V121.968H436.194L434.226 132H430.818L432.786 121.968H425.922L424.05 132H420.69L422.514 121.968H416.466V118.752H423.138L424.674 111.072H418.242V107.904H425.25L427.17 97.728H430.626L428.706 107.904H435.618L437.538 97.728H440.85L438.93 107.904H445.026V111.072H438.306ZM426.546 118.752H433.41L434.898 111.072H428.034L426.546 118.752ZM458.441 129.648C456.681 129.616 454.969 129.472 453.305 129.216C451.641 128.928 450.297 128.544 449.273 128.064V123.984C450.361 124.496 451.753 124.944 453.449 125.328C455.145 125.712 456.809 125.92 458.441 125.952V116.256C456.873 115.808 455.497 115.328 454.313 114.816C453.161 114.272 452.217 113.664 451.481 112.992C450.745 112.32 450.185 111.552 449.801 110.688C449.449 109.792 449.273 108.768 449.273 107.616C449.273 106.048 449.641 104.704 450.377 103.584C451.145 102.464 452.217 101.584 453.593 100.944C454.969 100.272 456.585 99.888 458.441 99.792V95.568H461.513V99.744C463.209 99.776 464.745 99.968 466.121 100.32C467.529 100.64 468.809 101.04 469.961 101.52L468.665 105.072C467.641 104.656 466.505 104.304 465.257 104.016C464.041 103.696 462.793 103.488 461.513 103.392V113.04C463.625 113.648 465.385 114.304 466.793 115.008C468.201 115.68 469.257 116.528 469.961 117.552C470.697 118.544 471.065 119.84 471.065 121.44C471.065 123.68 470.233 125.504 468.569 126.912C466.905 128.288 464.553 129.136 461.513 129.456V134.784H458.441V129.648ZM461.513 125.712C463.401 125.52 464.777 125.088 465.641 124.416C466.505 123.712 466.937 122.816 466.937 121.728C466.937 120.928 466.777 120.272 466.457 119.76C466.137 119.216 465.577 118.752 464.777 118.368C464.009 117.984 462.921 117.616 461.513 117.264V125.712ZM458.441 103.488C457.289 103.552 456.345 103.76 455.609 104.112C454.873 104.432 454.313 104.864 453.929 105.408C453.577 105.952 453.401 106.576 453.401 107.28C453.401 108.112 453.545 108.832 453.833 109.44C454.153 110.016 454.681 110.512 455.417 110.928C456.153 111.312 457.161 111.664 458.441 111.984V103.488ZM488.358 97.2C490.086 97.2 491.558 97.504 492.774 98.112C494.022 98.688 494.982 99.52 495.654 100.608C496.326 101.696 496.662 103.024 496.662 104.592C496.662 106.608 496.006 108.32 494.694 109.728C493.414 111.136 491.782 112.416 489.798 113.568L499.062 122.496C499.894 121.504 500.566 120.368 501.078 119.088C501.622 117.776 502.07 116.368 502.422 114.864H506.694C506.182 116.912 505.542 118.816 504.774 120.576C504.006 122.336 503.014 123.872 501.798 125.184L508.806 132H503.094L498.918 127.968C498.15 128.64 497.35 129.264 496.518 129.84C495.718 130.384 494.838 130.848 493.878 131.232C492.918 131.616 491.878 131.92 490.758 132.144C489.67 132.368 488.454 132.48 487.11 132.48C484.902 132.48 482.982 132.128 481.35 131.424C479.75 130.688 478.502 129.616 477.606 128.208C476.742 126.8 476.31 125.088 476.31 123.072C476.31 121.44 476.598 120.032 477.174 118.848C477.782 117.664 478.646 116.608 479.766 115.68C480.886 114.752 482.198 113.856 483.702 112.992C483.03 112.224 482.374 111.424 481.734 110.592C481.094 109.76 480.566 108.864 480.15 107.904C479.734 106.912 479.526 105.84 479.526 104.688C479.526 103.12 479.878 101.776 480.582 100.656C481.286 99.536 482.294 98.688 483.606 98.112C484.95 97.504 486.534 97.2 488.358 97.2ZM486.246 115.632C485.094 116.304 484.102 116.992 483.27 117.696C482.47 118.368 481.846 119.12 481.398 119.952C480.95 120.784 480.726 121.776 480.726 122.928C480.726 124.688 481.318 126.096 482.502 127.152C483.686 128.208 485.27 128.736 487.254 128.736C489.302 128.736 491.062 128.4 492.534 127.728C494.006 127.056 495.238 126.256 496.23 125.328L486.246 115.632ZM488.214 100.656C486.87 100.656 485.766 101.008 484.902 101.712C484.07 102.416 483.654 103.392 483.654 104.64C483.654 105.792 483.958 106.864 484.566 107.856C485.174 108.816 486.054 109.888 487.206 111.072C489.094 109.984 490.438 108.96 491.238 108C492.07 107.008 492.486 105.872 492.486 104.592C492.486 103.44 492.102 102.496 491.334 101.76C490.566 101.024 489.526 100.656 488.214 100.656ZM518.282 97.248C520.65 97.248 522.442 98.192 523.658 100.08C524.874 101.936 525.482 104.56 525.482 107.952C525.482 111.344 524.89 114 523.706 115.92C522.554 117.808 520.746 118.752 518.282 118.752C516.778 118.752 515.498 118.32 514.442 117.456C513.386 116.592 512.586 115.36 512.042 113.76C511.53 112.128 511.274 110.192 511.274 107.952C511.274 104.56 511.834 101.936 512.954 100.08C514.074 98.192 515.85 97.248 518.282 97.248ZM518.282 100.224C517.066 100.224 516.17 100.88 515.594 102.192C515.05 103.472 514.778 105.392 514.778 107.952C514.778 110.512 515.05 112.448 515.594 113.76C516.17 115.072 517.066 115.728 518.282 115.728C519.53 115.728 520.458 115.088 521.066 113.808C521.674 112.496 521.978 110.544 521.978 107.952C521.978 105.392 521.674 103.472 521.066 102.192C520.458 100.88 519.53 100.224 518.282 100.224ZM540.218 97.728L521.21 132H517.514L536.522 97.728H540.218ZM539.258 110.976C540.826 110.976 542.138 111.408 543.194 112.272C544.25 113.104 545.05 114.32 545.594 115.92C546.17 117.488 546.458 119.408 546.458 121.68C546.458 125.072 545.866 127.728 544.682 129.648C543.53 131.536 541.722 132.48 539.258 132.48C537.754 132.48 536.474 132.048 535.418 131.184C534.362 130.32 533.562 129.088 533.018 127.488C532.506 125.856 532.25 123.92 532.25 121.68C532.25 118.288 532.81 115.664 533.93 113.808C535.05 111.92 536.826 110.976 539.258 110.976ZM539.258 114C538.042 114 537.146 114.64 536.57 115.92C536.026 117.2 535.754 119.12 535.754 121.68C535.754 124.272 536.026 126.224 536.57 127.536C537.146 128.816 538.042 129.456 539.258 129.456C540.506 129.456 541.434 128.816 542.042 127.536C542.65 126.256 542.954 124.304 542.954 121.68C542.954 119.12 542.65 117.2 542.042 115.92C541.434 114.64 540.506 114 539.258 114ZM555.773 95.232C556.125 95.936 556.557 96.736 557.069 97.632C557.613 98.496 558.173 99.344 558.749 100.176C559.357 101.008 559.901 101.728 560.381 102.336V102.912H557.549C557.005 102.464 556.397 101.936 555.725 101.328C555.053 100.688 554.381 100.032 553.709 99.36C553.069 98.656 552.477 97.984 551.933 97.344C551.421 96.704 551.021 96.16 550.733 95.712V95.232H555.773ZM575.225 116.688C574.073 116.176 573.113 115.84 572.345 115.68C571.609 115.488 570.889 115.392 570.185 115.392C569.289 115.392 568.345 115.664 567.353 116.208C566.361 116.752 565.481 117.424 564.713 118.224V114.48C565.481 113.648 566.345 113.024 567.305 112.608C568.265 112.16 569.321 111.936 570.473 111.936C571.401 111.936 572.313 112.032 573.209 112.224C574.137 112.416 575.337 112.832 576.809 113.472C577.961 113.984 578.905 114.336 579.641 114.528C580.409 114.688 581.129 114.768 581.801 114.768C582.729 114.768 583.689 114.496 584.681 113.952C585.673 113.408 586.553 112.736 587.321 111.936V115.632C586.553 116.464 585.689 117.104 584.729 117.552C583.769 118 582.713 118.224 581.561 118.224C580.665 118.224 579.737 118.128 578.777 117.936C577.849 117.712 576.665 117.296 575.225 116.688ZM591.605 119.184L601.781 97.488H604.181L615.413 119.184H611.669L603.029 101.952L595.349 119.184H591.605ZM632.706 95.52L631.746 104.736L640.962 102.144L641.634 106.56L632.802 107.28L638.514 114.864L634.386 117.12L630.306 108.72L626.61 117.12L622.338 114.864L627.954 107.28L619.218 106.56L619.89 102.144L629.01 104.736L628.002 95.52H632.706ZM1.92 166.848C1.92 164.224 2.16 161.664 2.64 159.168C3.152 156.672 3.936 154.288 4.992 152.016C6.048 149.744 7.376 147.648 8.976 145.728H12.96C11.488 147.712 10.24 149.856 9.216 152.16C8.224 154.464 7.472 156.848 6.96 159.312C6.448 161.776 6.192 164.272 6.192 166.8C6.192 169.264 6.448 171.712 6.96 174.144C7.472 176.576 8.224 178.912 9.216 181.152C10.208 183.424 11.44 185.568 12.912 187.584H8.976C7.376 185.696 6.048 183.632 4.992 181.392C3.936 179.184 3.152 176.848 2.64 174.384C2.16 171.92 1.92 169.408 1.92 166.848ZM26.8706 166.848C26.8706 169.408 26.6146 171.92 26.1026 174.384C25.6226 176.848 24.8546 179.184 23.7986 181.392C22.7746 183.632 21.4466 185.696 19.8146 187.584H15.8786C17.3506 185.568 18.5826 183.424 19.5746 181.152C20.5666 178.912 21.3186 176.576 21.8306 174.144C22.3426 171.712 22.5986 169.264 22.5986 166.8C22.5986 164.272 22.3426 161.776 21.8306 159.312C21.3186 156.848 20.5666 154.464 19.5746 152.16C18.5826 149.856 17.3346 147.712 15.8306 145.728H19.8146C21.4466 147.648 22.7746 149.744 23.7986 152.016C24.8546 154.288 25.6226 156.672 26.1026 159.168C26.6146 161.664 26.8706 164.224 26.8706 166.848ZM43.3733 187.584H32.6213V145.728H43.3733V149.184H36.7493V184.128H43.3733V187.584ZM45.7781 184.128H52.4021V149.184H45.7781V145.728H56.5301V187.584H45.7781V184.128ZM77.079 187.584C75.127 187.552 73.431 187.264 71.991 186.72C70.583 186.176 69.495 185.328 68.727 184.176C67.959 183.056 67.575 181.648 67.575 179.952V172.896C67.575 171.808 67.351 170.944 66.903 170.304C66.455 169.632 65.799 169.152 64.935 168.864C64.071 168.544 62.999 168.384 61.719 168.384V164.88C62.999 164.848 64.071 164.688 64.935 164.4C65.799 164.112 66.455 163.648 66.903 163.008C67.351 162.336 67.575 161.472 67.575 160.416V153.312C67.575 152.032 67.799 150.928 68.247 150C68.727 149.04 69.383 148.256 70.215 147.648C71.079 147.008 72.087 146.528 73.239 146.208C74.391 145.888 75.671 145.728 77.079 145.728V149.184C75.991 149.216 75.047 149.392 74.247 149.712C73.447 150.032 72.823 150.512 72.375 151.152C71.959 151.792 71.751 152.64 71.751 153.696V160.608C71.751 162.24 71.319 163.552 70.455 164.544C69.591 165.504 68.279 166.144 66.519 166.464V166.752C68.311 167.072 69.623 167.728 70.455 168.72C71.319 169.68 71.751 170.976 71.751 172.608V179.664C71.751 180.688 71.959 181.52 72.375 182.16C72.791 182.832 73.399 183.312 74.199 183.6C74.999 183.92 75.959 184.096 77.079 184.128V187.584ZM80.1454 184.128C81.2654 184.096 82.2094 183.92 82.9774 183.6C83.7774 183.28 84.3854 182.784 84.8014 182.112C85.2494 181.472 85.4734 180.64 85.4734 179.616V172.656C85.4734 171.024 85.9054 169.728 86.7694 168.768C87.6334 167.776 88.9454 167.12 90.7054 166.8V166.512C88.9454 166.192 87.6334 165.552 86.7694 164.592C85.9054 163.6 85.4734 162.288 85.4734 160.656V153.648C85.4734 152.592 85.2654 151.744 84.8494 151.104C84.4334 150.464 83.8254 149.984 83.0254 149.664C82.2574 149.344 81.2974 149.184 80.1454 149.184V145.728C81.6174 145.728 82.9294 145.888 84.0814 146.208C85.2654 146.528 86.2734 147.008 87.1054 147.648C87.9374 148.256 88.5614 149.04 88.9774 150C89.4254 150.96 89.6494 152.08 89.6494 153.36V160.368C89.6494 161.456 89.8734 162.336 90.3214 163.008C90.7694 163.648 91.4254 164.128 92.2894 164.448C93.1854 164.736 94.2574 164.88 95.5054 164.88V168.384C94.2574 168.384 93.1854 168.544 92.2894 168.864C91.4254 169.152 90.7694 169.616 90.3214 170.256C89.8734 170.896 89.6494 171.76 89.6494 172.848V180C89.6494 181.696 89.2494 183.104 88.4494 184.224C87.6494 185.344 86.5294 186.176 85.0894 186.72C83.6814 187.296 82.0334 187.584 80.1454 187.584V184.128ZM118.252 187.392H96.7477V184.32H118.252V187.392ZM120.86 160.032V156.624H142.844V160.032H120.86ZM120.86 169.584V166.176H142.844V169.584H120.86ZM149.817 168.288V164.784H163.113V168.288H149.817ZM182.705 161.376H192.257V164.784H182.705V174.672H179.249V164.784H169.697V161.376H179.249V151.44H182.705V161.376ZM219.774 174.432L197.166 164.496V162.096L219.774 150.816V154.56L201.678 163.104L219.774 170.688V174.432ZM224.634 170.688L242.73 163.152L224.634 154.56V150.816L247.242 162.096V164.496L224.634 174.432V170.688ZM267.079 145.728L254.311 180H250.183L262.951 145.728H267.079ZM272.171 145.728L284.987 180H280.811L268.043 145.728H272.171ZM296.894 143.52H300.398V191.568H296.894V143.52ZM319.539 145.728L318.579 158.112H315.939L314.979 145.728H319.539ZM330.321 145.728L329.361 158.112H326.721L325.761 145.728H330.321ZM339.105 145.728L338.145 158.112H335.505L334.545 145.728H339.105Z" fill="#111111"/>
</svg>
