<svg width="1000" height="200" viewBox="0 0 1000 200" fill="none" xmlns="http://www.w3.org/2000/svg">
<path d="M19.776 31.92V28.224C19.008 28.752 17.952 29.136 16.752 29.376L13.344 30C9.84 30.672 7.968 32.352 7.968 34.944C7.968 37.536 9.84 39.216 12.768 39.216C16.752 39.216 19.776 36.048 19.776 31.92ZM19.872 37.872C18.384 40.752 15.6 42.48 12.048 42.48C7.248 42.48 3.936 39.408 3.936 35.04C3.936 30.72 7.152 27.84 12.768 27.024L16.32 26.496C18.624 26.16 19.776 25.104 19.776 23.28C19.776 20.688 17.616 18.96 14.352 18.96C11.28 18.96 8.928 20.496 8.688 22.656H4.656C4.848 18.624 8.976 15.6 14.352 15.6C19.824 15.6 23.712 18.816 23.712 23.328V32.736C23.712 36.768 24.048 39.792 24.672 42H20.928C20.544 40.896 20.256 39.552 20.064 37.872H19.872ZM44.1413 38.928C48.3653 38.928 51.2933 34.896 51.2933 29.04C51.2933 23.184 48.3653 19.152 44.1413 19.152C39.8693 19.152 36.8453 23.232 36.8453 29.04C36.8453 34.848 39.8693 38.928 44.1413 38.928ZM36.7013 42H33.0053V6.48H36.9413V20.4H37.1813C38.7653 17.328 41.4053 15.6 44.7653 15.6C50.8613 15.6 55.2773 21.216 55.2773 29.04C55.2773 36.864 50.8613 42.48 44.7653 42.48C41.2133 42.48 38.5253 40.56 36.9413 37.152H36.7013V42ZM78.7305 35.376H82.7625C81.8985 39.6 77.9145 42.48 73.1145 42.48C66.2985 42.48 61.4025 36.72 61.4025 28.992C61.4025 21.216 66.2505 15.6 72.9705 15.6C77.8185 15.6 81.7065 18.48 82.4265 22.656H78.4425C77.7705 20.496 75.6105 19.152 72.9225 19.152C68.3625 19.152 65.3385 23.088 65.3385 28.944C65.3385 34.896 68.4585 38.928 73.1145 38.928C75.8025 38.928 78.0105 37.584 78.7305 35.376ZM100.024 38.928C104.2 38.928 107.08 34.896 107.08 29.04C107.08 23.184 104.2 19.152 100.024 19.152C95.7518 19.152 92.6797 23.328 92.6797 29.04C92.6797 34.752 95.7518 38.928 100.024 38.928ZM107.128 37.344H106.888C105.304 40.608 102.616 42.48 99.1598 42.48C93.1118 42.48 88.6478 36.816 88.6478 29.04C88.6478 21.264 93.1118 15.6 99.1598 15.6C102.52 15.6 105.16 17.328 106.744 20.448H106.984V6.48H110.968V33.36C110.968 35.808 111.064 38.976 111.304 42H107.512C107.32 40.368 107.176 38.88 107.128 37.344ZM123.333 26.688H136.917C136.629 22.128 133.941 19.056 130.245 19.056C126.597 19.056 123.957 22.032 123.333 26.688ZM140.805 28.32V29.856H123.189C123.525 35.376 126.453 38.976 130.725 38.976C133.413 38.976 135.765 37.488 136.389 35.376H140.277C139.413 39.552 135.477 42.48 130.677 42.48C124.005 42.48 119.253 36.816 119.253 28.848C119.253 21.072 123.813 15.6 130.197 15.6C136.437 15.6 140.805 20.784 140.805 28.32ZM155.138 42V19.632H147.794V16.08H155.138V15.12C155.138 9.168 158.018 6 163.586 6C165.506 6 167.186 6.384 168.578 7.104V10.416C167.138 9.696 165.65 9.312 164.114 9.312C160.754 9.312 159.074 11.232 159.074 15.12V16.08H168.098V19.632H159.074V42H155.138ZM186.608 29.76C189.68 29.76 191.84 27.552 191.84 24.432C191.84 21.264 189.68 19.104 186.608 19.104C183.488 19.104 181.328 21.264 181.328 24.432C181.328 27.552 183.488 29.76 186.608 29.76ZM189.68 40.752H183.536C181.136 40.752 179.312 42.384 179.312 44.448C179.312 47.04 182.336 48.768 186.799 48.768C191.456 48.768 194.576 46.944 194.576 44.16C194.576 42 192.752 40.752 189.68 40.752ZM179.888 39.12C178.544 38.304 177.728 36.96 177.728 35.28C177.728 33.456 178.784 31.92 180.512 31.008C178.64 29.424 177.488 27.072 177.488 24.288C177.488 19.248 181.28 15.6 186.608 15.6C187.712 15.6 188.768 15.744 189.776 16.08H198.224V19.392H194.24C195.2 20.736 195.728 22.416 195.728 24.288C195.728 29.376 191.84 33.12 186.608 33.12C185.264 33.12 184.016 32.88 182.912 32.448C181.856 32.928 181.184 33.792 181.184 34.896C181.184 36.144 182.096 37.056 183.44 37.056H189.92C195.152 37.056 198.512 39.648 198.512 43.728C198.512 48.624 193.616 52.08 186.752 52.08C180.272 52.08 175.712 49.056 175.712 44.832C175.712 42.288 177.344 40.176 179.888 39.12ZM211.069 42H207.133V6.48H211.069V19.824H211.261C212.701 17.136 215.149 15.6 218.317 15.6C223.021 15.6 226.237 19.152 226.237 24.48V42H222.253V24.816C222.253 21.264 220.333 18.96 217.309 18.96C213.709 18.96 211.069 22.368 211.069 27.024V42ZM236.058 42V38.448H243.882V19.632H236.298V16.08H247.818V38.448H255.642V42H236.058ZM241.722 7.728C241.722 5.808 243.306 4.224 245.226 4.224C247.194 4.224 248.73 5.808 248.73 7.728C248.73 9.696 247.194 11.232 245.226 11.232C243.306 11.232 241.722 9.696 241.722 7.728ZM277.991 42.96C277.991 48.912 275.111 52.08 269.543 52.08C267.623 52.08 265.895 51.696 264.551 50.976V47.664C265.991 48.384 267.431 48.768 268.967 48.768C272.375 48.768 274.055 46.848 274.055 42.96V19.632H264.791V16.08H277.991V42.96ZM272.039 7.728C272.039 5.808 273.623 4.224 275.543 4.224C277.511 4.224 279.047 5.808 279.047 7.728C279.047 9.696 277.511 11.232 275.543 11.232C273.623 11.232 272.039 9.696 272.039 7.728ZM314.357 42H309.653L301.013 29.472L296.357 34.512V42H292.421V6.48H296.357V29.28L308.453 16.08H313.493L303.701 26.64L314.357 42ZM330.466 33.312C330.466 37.248 332.146 39.12 335.602 39.12C337.042 39.12 338.482 38.784 339.922 38.064V41.376C338.578 42.096 336.85 42.48 334.93 42.48C329.41 42.48 326.482 39.312 326.482 33.312V10.032H318.946V6.48H330.466V33.312ZM351.039 42H347.151V16.08H350.703V18.864H350.895C351.615 16.848 353.343 15.6 355.503 15.6C357.807 15.6 359.631 17.04 360.255 19.44H360.447C361.407 16.944 363.231 15.6 365.775 15.6C369.423 15.6 371.631 18.288 371.631 22.56V42H367.791V23.088C367.791 20.496 366.687 18.912 364.863 18.912C362.799 18.912 361.359 20.976 361.359 23.952V42H357.471V23.088C357.471 20.448 356.415 18.912 354.639 18.912C352.527 18.912 351.039 21.024 351.039 24.048V42ZM384.236 42H380.3V16.08H383.996V20.064H384.188C385.58 17.232 388.124 15.6 391.388 15.6C396.188 15.6 399.404 19.152 399.404 24.48V42H395.42V24.816C395.42 21.216 393.5 18.96 390.524 18.96C386.828 18.96 384.236 22.32 384.236 27.024V42ZM417.338 42.48C410.762 42.48 406.058 36.816 406.058 29.04C406.058 21.264 410.762 15.6 417.338 15.6C423.914 15.6 428.666 21.264 428.666 29.04C428.666 36.816 423.914 42.48 417.338 42.48ZM417.338 38.88C421.658 38.88 424.634 34.848 424.634 29.04C424.634 23.232 421.658 19.2 417.338 19.2C413.018 19.2 410.042 23.232 410.042 29.04C410.042 34.848 413.018 38.88 417.338 38.88ZM447.079 19.152C442.807 19.152 439.783 23.232 439.783 29.04C439.783 34.848 442.807 38.928 447.079 38.928C451.303 38.928 454.231 34.896 454.231 29.04C454.231 23.184 451.303 19.152 447.079 19.152ZM435.943 51.6V16.08H439.639V20.928H439.831C441.415 17.52 444.151 15.6 447.703 15.6C453.799 15.6 458.215 21.216 458.215 29.04C458.215 36.864 453.799 42.48 447.703 42.48C444.343 42.48 441.703 40.752 440.119 37.68H439.879V51.6H435.943ZM474.42 19.152C470.196 19.152 467.268 23.184 467.268 29.04C467.268 34.896 470.196 38.928 474.42 38.928C478.692 38.928 481.716 34.848 481.716 29.04C481.716 23.232 478.692 19.152 474.42 19.152ZM485.556 16.08V51.6H481.62V37.68H481.38C479.796 40.752 477.156 42.48 473.796 42.48C467.7 42.48 463.284 36.864 463.284 29.04C463.284 21.216 467.7 15.6 473.796 15.6C477.348 15.6 480.084 17.52 481.668 20.928H481.86V16.08H485.556ZM499.889 27.264V42H495.953V16.08H499.649V20.256H499.841C501.281 17.424 503.873 15.744 507.089 15.744C511.169 15.744 514.145 18.432 514.625 22.656H510.449C509.969 20.544 508.289 19.2 506.033 19.2C502.433 19.2 499.889 22.56 499.889 27.264ZM522.767 35.376H526.655C526.991 37.584 529.583 39.216 532.751 39.216C536.015 39.216 538.271 37.44 538.271 34.752C538.271 32.64 536.831 31.536 533.279 30.96L532.127 30.816C526.319 29.952 523.679 27.696 523.679 23.616C523.679 18.864 527.327 15.6 532.607 15.6C537.647 15.6 541.631 18.624 541.919 22.656H538.127C537.791 20.544 535.487 19.008 532.607 19.008C529.631 19.008 527.615 20.688 527.615 23.28C527.615 25.392 529.007 26.496 532.367 27.024L533.567 27.168C539.471 28.08 542.207 30.336 542.207 34.416C542.207 39.264 538.271 42.672 532.559 42.672C527.135 42.672 522.911 39.552 522.767 35.376ZM561.532 33.312C561.532 37.248 563.212 39.12 566.668 39.12C568.108 39.12 569.596 38.784 571.036 38.064V41.376C569.644 42.096 567.964 42.48 566.044 42.48C560.476 42.48 557.596 39.312 557.596 33.312V19.632H550.252V16.08H557.596V8.592L561.532 7.92V16.08H570.556V19.632H561.532V33.312ZM598.809 16.08V33.36C598.809 35.808 598.953 38.976 599.145 42H595.401C595.209 40.656 595.113 39.408 595.065 38.16H594.873C593.433 40.896 590.937 42.48 587.673 42.48C582.873 42.48 579.705 38.928 579.705 33.6V16.08H583.689V33.264C583.689 36.864 585.561 39.12 588.585 39.12C592.281 39.12 594.873 35.76 594.873 31.056V16.08H598.809ZM615.35 42L606.95 16.08H610.982L617.894 37.824H618.086L624.806 16.08H628.742L620.534 42H615.35ZM637.556 42L633.956 16.08H637.652L640.436 37.632H640.628L645.668 18.96H649.508L654.596 37.68H654.788L657.572 16.08H661.22L657.62 42H652.676L647.684 23.568H647.492L642.548 42H637.556ZM665.953 42L674.641 28.656L666.721 16.08H671.329L677.329 25.776L683.377 16.08H687.841L679.921 28.56L688.705 42H684.049L677.281 31.392L670.513 42H665.953ZM693.918 51.312V47.952C694.974 48.24 695.886 48.432 696.894 48.432C699.87 48.432 701.454 46.992 702.894 43.104L703.278 42.048L693.822 16.08H697.95L705.198 36.672H705.39L712.59 16.08H716.574L706.446 44.208C704.574 49.488 701.79 51.84 697.422 51.84C696.27 51.84 695.214 51.696 693.918 51.312ZM723.947 42V38.832L738.443 19.536H724.427V16.08H743.291V19.248L728.747 38.544H744.107V42H723.947ZM14.256 60.192L9.408 76.416H19.296L14.448 60.192H14.256ZM11.472 56.4H17.328L27.456 90H23.328L20.352 80.064H8.352L5.376 90H1.344L11.472 56.4ZM37.2293 74.4V86.352H45.2453C48.4133 86.352 50.6213 83.904 50.6213 80.4C50.6213 76.848 48.4133 74.4 45.2453 74.4H37.2293ZM37.2293 60.048V70.752H44.6693C47.5973 70.752 49.6133 68.496 49.6133 65.28C49.6133 62.16 47.6453 60.048 44.6693 60.048H37.2293ZM45.0533 90H33.1013V56.4H44.4293C49.8053 56.4 53.6453 60 53.6453 64.992C53.6453 68.4 51.8693 71.088 49.0373 72.432C52.5413 73.68 54.7493 76.752 54.7493 80.736C54.7493 86.112 50.6693 90 45.0533 90ZM79.8825 81.456H83.9145C83.1945 86.736 78.6825 90.48 73.1625 90.48C65.5785 90.48 60.3945 83.424 60.3945 73.2C60.3945 62.976 65.5785 55.92 73.1625 55.92C78.4905 55.92 82.8105 59.424 83.5785 64.416H79.5465C78.8745 61.584 76.3305 59.664 73.2105 59.664C67.9305 59.664 64.5225 65.04 64.5225 73.248C64.5225 81.456 67.9305 86.736 73.2105 86.736C76.5225 86.736 79.2105 84.624 79.8825 81.456ZM90.2318 90V56.4H99.7358C107.848 56.4 113.368 63.216 113.368 73.2C113.368 83.184 107.848 90 99.7358 90H90.2318ZM94.3118 86.352H99.7358C105.496 86.352 109.24 81.168 109.24 73.2C109.24 65.232 105.496 60.048 99.7358 60.048H94.3118V86.352ZM120.645 90V56.4H140.613V60.048H124.773V70.752H138.453V74.4H124.773V86.352H140.613V90H120.645ZM150.002 90V56.4H169.97V60.048H154.082V71.376H167.81V75.024H154.082V90H150.002ZM194.528 75.6H186.944V71.952H198.512V90H194.768V84.96H194.528C192.8 88.416 189.872 90.48 186.272 90.48C179.552 90.48 174.704 83.328 174.704 73.392C174.704 63.024 179.936 55.92 187.568 55.92C192.992 55.92 197.408 59.472 198.272 64.416H194.192C193.472 61.584 190.832 59.664 187.664 59.664C182.288 59.664 178.832 65.04 178.832 73.296C178.832 81.36 182.096 86.832 186.944 86.832C191.408 86.832 194.528 82.224 194.528 75.6ZM204.637 90V56.4H208.765V70.752H222.973V56.4H227.101V90H222.973V74.496H208.765V90H204.637ZM234.666 90V86.352H242.586V60.048H234.762V56.4H254.586V60.048H246.714V86.352H254.682V90H234.666ZM261.863 81.456H265.799C266.039 84.672 268.679 86.832 272.279 86.832C276.215 86.832 278.759 84.24 278.759 80.208V60.048H265.655V56.4H282.887V80.448C282.887 86.448 278.567 90.48 272.279 90.48C266.231 90.48 261.863 86.736 261.863 81.456ZM316.325 90H311.573L300.533 73.056L295.397 78.72V90H291.317V56.4H295.397V73.152L310.661 56.4H315.701L303.365 69.984L316.325 90ZM321.586 90V56.4H325.714V86.352H341.074V90H321.586ZM346.479 90V56.4H351.951L358.719 77.28H358.911L365.679 56.4H371.199V90H367.311V67.776C367.311 65.712 367.311 63.84 367.503 61.632L367.311 61.584L360.591 82.272H357.039L350.319 61.584L350.127 61.632C350.319 63.84 350.319 65.712 350.319 67.776V90H346.479ZM397.1 77.856V56.4H400.94V90H395.852L381.932 60.672L381.74 60.72C381.884 62.4 381.932 63.888 381.932 66.864V90H378.14V56.4H383.9L397.1 84.048L397.292 84C397.148 82.32 397.1 80.88 397.1 77.856ZM418.298 90.48C410.858 90.48 405.626 83.376 405.626 73.2C405.626 63.024 410.858 55.92 418.298 55.92C425.738 55.92 430.97 63.024 430.97 73.2C430.97 83.376 425.738 90.48 418.298 90.48ZM418.298 86.736C423.482 86.736 426.842 81.36 426.842 73.2C426.842 65.04 423.482 59.664 418.298 59.664C413.114 59.664 409.754 65.04 409.754 73.2C409.754 81.36 413.114 86.736 418.298 86.736ZM440.695 60.048V72.048H449.095C452.455 72.048 454.663 69.648 454.663 66.048C454.663 62.448 452.455 60.048 449.095 60.048H440.695ZM440.695 90H436.567V56.4H448.855C454.615 56.4 458.647 60.384 458.647 66.048C458.647 71.712 454.615 75.696 448.855 75.696H440.695V90ZM474.9 86.736C476.58 86.736 478.068 86.16 479.316 85.104L473.172 78.912L475.332 76.752L481.284 82.704C482.676 80.4 483.444 77.088 483.444 73.2C483.444 65.04 480.084 59.664 474.9 59.664C469.716 59.664 466.356 65.04 466.356 73.2C466.356 81.36 469.716 86.736 474.9 86.736ZM474.9 90.48C467.46 90.48 462.228 83.376 462.228 73.2C462.228 63.024 467.46 55.92 474.9 55.92C482.34 55.92 487.572 63.024 487.572 73.2C487.572 78.24 486.276 82.512 484.116 85.536L489.492 90.912L487.284 93.072L482.052 87.84C480.084 89.52 477.636 90.48 474.9 90.48ZM497.873 60.048V71.376H506.129C509.345 71.376 511.457 69.12 511.457 65.712C511.457 62.352 509.345 60.048 506.129 60.048H497.873ZM497.873 90H493.745V56.4H505.889C511.505 56.4 515.441 60.24 515.441 65.712C515.441 70.32 512.753 73.728 508.577 74.736L516.401 90H511.889L504.257 75.072H497.873V90ZM521.183 81.456H525.167C525.503 84.72 528.575 87.024 532.607 87.024C536.783 87.024 539.663 84.528 539.663 80.928C539.663 77.808 537.551 75.888 533.231 75.024L531.311 74.592C525.215 73.392 522.143 70.32 522.143 65.472C522.143 59.808 526.319 55.92 532.463 55.92C538.367 55.92 543.023 59.52 543.311 64.416H539.327C538.943 61.584 536.063 59.568 532.463 59.568C528.671 59.568 526.175 61.824 526.175 65.232C526.175 68.16 528.047 69.936 531.839 70.752L533.807 71.136C540.383 72.48 543.695 75.648 543.695 80.688C543.695 86.592 539.183 90.672 532.607 90.672C526.223 90.672 521.375 86.784 521.183 81.456ZM559.18 90V60.048H549.052V56.4H573.436V60.048H563.308V90H559.18ZM601.257 56.4V79.44C601.257 85.92 596.601 90.48 590.025 90.48C583.449 90.48 578.793 85.92 578.793 79.44V56.4H582.921V79.44C582.921 83.808 585.753 86.736 590.025 86.736C594.297 86.736 597.129 83.808 597.129 79.44V56.4H601.257ZM615.11 90L604.694 56.4H608.918L617.798 85.44H617.99L626.87 56.4H630.998L620.582 90H615.11ZM636.548 90L632.995 56.4H636.74L639.572 84.624H639.764L645.859 61.488H649.364L655.412 84.624H655.604L658.436 56.4H662.18L658.628 90H653.54L647.684 67.68H647.492L641.636 90H636.548ZM663.457 90L674.785 72.528L664.225 56.4H668.929L677.329 69.216L685.729 56.4H690.337L679.825 72.48L691.201 90H686.497L677.281 75.84L668.065 90H663.457ZM703.086 90V75.888L691.758 56.4H696.318L705.198 71.76L714.126 56.4H718.542L707.214 75.888V90H703.086ZM722.219 90V86.592L739.883 60.048H722.699V56.4H744.827V59.808L727.211 86.352H745.643V90H722.219ZM4.032 138V134.4H13.008V113.568L4.464 113.52V110.352C11.28 110.352 13.056 109.248 14.016 104.4H17.136V134.4H25.728V138H4.032ZM54.1733 138H32.7173V134.064L44.5253 120.816C47.3573 117.648 48.6533 115.296 48.6533 112.992C48.6533 109.824 46.2053 107.568 42.6533 107.568C39.3413 107.568 36.7013 109.584 36.4133 112.416H32.2853C32.4773 107.568 36.8933 103.92 42.6053 103.92C48.4613 103.92 52.7333 107.712 52.7333 112.656C52.7333 115.776 51.0533 119.088 47.5013 123.072L37.4213 134.4H54.1733V138ZM65.5785 112.416H61.7385C61.7385 107.472 65.8665 103.92 71.5785 103.92C77.4345 103.92 81.6585 107.664 81.6585 112.848C81.6585 116.304 79.7865 118.848 76.6665 120C80.5545 121.248 82.9065 124.272 82.9065 128.448C82.9065 134.256 78.2505 138.48 71.7225 138.48C65.5305 138.48 60.8745 134.64 60.8745 129.456H64.8105C64.9545 132.576 67.8825 134.88 71.7705 134.88C75.9465 134.88 78.9705 132.192 78.9705 128.448C78.9705 124.752 76.1385 122.112 72.1545 122.112H69.1785V118.368H71.8665C75.2745 118.368 77.7225 116.208 77.7225 113.04C77.7225 109.824 75.1305 107.52 71.5785 107.52C68.2185 107.52 65.6745 109.584 65.5785 112.416ZM103.768 108.048L103.576 108L92.0078 126.384H103.576V114.192C103.576 112.128 103.576 110.256 103.768 108.048ZM103.576 130.032H88.2638V126.048L102.04 104.4H107.512V126.384H113.512V130.032H107.512V138H103.576V130.032ZM118.821 129.456H122.853C123.237 132.672 125.973 134.88 129.429 134.88C133.557 134.88 136.485 131.808 136.485 127.488C136.485 123.216 133.557 120.144 129.429 120.144C126.837 120.144 124.629 121.344 123.525 123.408L119.925 122.736L121.893 104.4H138.933V108H125.397L124.197 118.896C125.733 117.456 127.941 116.688 130.341 116.688C136.245 116.688 140.613 121.248 140.613 127.44C140.613 133.824 135.957 138.48 129.477 138.48C123.669 138.48 119.253 134.784 118.821 129.456ZM158.354 134.88C162.29 134.88 165.266 131.76 165.266 127.632C165.266 123.552 162.29 120.432 158.354 120.432C154.466 120.432 151.442 123.552 151.442 127.68C151.442 131.76 154.418 134.88 158.354 134.88ZM164.114 104.208L153.746 118.704C155.522 117.552 157.298 117.024 159.266 117.024C164.978 117.024 169.394 121.584 169.394 127.536C169.394 133.728 164.594 138.48 158.258 138.48C151.874 138.48 147.266 133.728 147.266 127.152C147.266 123.312 148.85 119.136 151.874 114.864L159.41 104.208H164.114ZM180.704 138L193.52 108.048H175.855V104.4H197.84V107.808L184.928 138H180.704ZM215.869 122.112C211.885 122.112 208.909 124.8 208.909 128.448C208.909 132.096 211.885 134.88 215.869 134.88C219.853 134.88 222.829 132.096 222.829 128.448C222.829 124.8 219.853 122.112 215.869 122.112ZM215.869 107.472C212.509 107.472 210.013 109.824 210.013 112.992C210.013 116.16 212.509 118.512 215.869 118.512C219.229 118.512 221.725 116.16 221.725 112.992C221.725 109.824 219.229 107.472 215.869 107.472ZM215.869 138.48C209.581 138.48 204.733 134.256 204.733 128.784C204.733 124.8 207.325 121.536 211.213 120.144C208.045 118.848 205.981 116.112 205.981 112.704C205.981 107.712 210.253 103.92 215.869 103.92C221.485 103.92 225.757 107.712 225.757 112.704C225.757 116.112 223.693 118.848 220.525 120.144C224.413 121.536 227.005 124.8 227.005 128.784C227.005 134.256 222.157 138.48 215.869 138.48ZM244.602 107.328C240.666 107.328 237.69 110.448 237.69 114.576C237.69 118.656 240.666 121.776 244.602 121.776C248.49 121.776 251.514 118.656 251.514 114.528C251.514 110.448 248.538 107.328 244.602 107.328ZM238.89 138L249.21 123.504C247.434 124.656 245.658 125.184 243.69 125.184C237.978 125.184 233.562 120.624 233.562 114.672C233.562 108.48 238.362 103.728 244.746 103.728C251.082 103.728 255.69 108.48 255.69 115.056C255.69 118.896 254.106 123.072 251.13 127.344L243.546 138H238.89ZM273.431 138.48C266.279 138.48 262.055 132.048 262.055 121.2C262.055 110.352 266.279 103.92 273.431 103.92C280.583 103.92 284.855 110.352 284.855 121.2C284.855 132.048 280.583 138.48 273.431 138.48ZM266.759 128.16L278.855 110.928C277.559 108.672 275.735 107.52 273.431 107.52C268.679 107.52 265.991 112.464 265.991 121.2C265.991 123.888 266.231 126.192 266.759 128.16ZM273.431 134.88C278.183 134.88 280.871 129.936 280.871 121.2C280.871 118.368 280.631 116.064 280.103 114.192L268.007 131.424C269.303 133.728 271.127 134.88 273.431 134.88ZM294.485 145.584L300.101 132.24H305.813L298.277 145.584H294.485ZM327.346 134.736C327.346 132.72 328.978 131.088 330.994 131.088C333.01 131.088 334.642 132.72 334.642 134.736C334.642 136.752 333.01 138.384 330.994 138.384C328.978 138.384 327.346 136.752 327.346 134.736ZM352.047 145.584L357.663 132.24H363.375L355.839 145.584H352.047ZM356.127 115.152C356.127 113.136 357.759 111.504 359.775 111.504C361.791 111.504 363.423 113.136 363.423 115.152C363.423 117.168 361.791 118.8 359.775 118.8C357.759 118.8 356.127 117.168 356.127 115.152ZM384.908 134.736C384.908 132.72 386.54 131.088 388.556 131.088C390.572 131.088 392.204 132.72 392.204 134.736C392.204 136.752 390.572 138.384 388.556 138.384C386.54 138.384 384.908 136.752 384.908 134.736ZM384.908 115.344C384.908 113.328 386.54 111.696 388.556 111.696C390.572 111.696 392.204 113.328 392.204 115.344C392.204 117.36 390.572 118.992 388.556 118.992C386.54 118.992 384.908 117.36 384.908 115.344ZM413.69 134.736C413.69 132.72 415.322 131.088 417.338 131.088C419.354 131.088 420.986 132.72 420.986 134.736C420.986 136.752 419.354 138.384 417.338 138.384C415.322 138.384 413.69 136.752 413.69 134.736ZM415.706 126.912L415.034 104.4H419.642L418.97 126.912H415.706ZM442.471 134.736C442.471 132.72 444.103 131.088 446.119 131.088C448.135 131.088 449.767 132.72 449.767 134.736C449.767 136.752 448.135 138.384 446.119 138.384C444.103 138.384 442.471 136.752 442.471 134.736ZM447.703 126.912H444.151C444.151 118.08 451.687 117.504 451.687 112.416C451.687 109.728 449.623 107.472 446.311 107.472C442.999 107.472 440.599 109.728 440.407 112.416H436.375C436.375 107.904 440.407 103.92 446.263 103.92C452.023 103.92 455.767 107.712 455.767 112.224C455.767 118.896 447.703 119.856 447.703 126.912ZM479.076 126.672C481.764 126.672 483.924 123.888 483.924 120.432C483.924 117.264 482.148 114.96 479.7 114.96C476.964 114.96 474.804 117.744 474.804 121.2C474.804 124.32 476.628 126.672 479.076 126.672ZM483.492 129.504L483.636 126.816H483.444C482.148 128.688 480.228 129.84 478.02 129.84C474.036 129.84 471.156 126.24 471.156 121.296C471.156 115.92 474.564 111.744 478.98 111.744C481.332 111.744 483.156 112.944 484.26 115.008H484.452C484.644 110.16 481.716 106.992 477.012 106.992C470.388 106.992 465.348 113.328 465.348 121.584C465.348 129.6 470.148 135.312 476.916 135.312C479.748 135.312 482.388 134.304 484.02 132.624L486.18 134.784C483.876 137.184 480.564 138.48 476.82 138.48C468.132 138.48 461.892 131.472 461.892 121.632C461.892 111.552 468.372 103.92 476.964 103.92C483.732 103.92 488.004 108.672 487.62 115.776L486.9 129.504H483.492ZM507.473 117.504H500.897L499.889 124.896H506.465L507.473 117.504ZM497.441 117.504H491.777V114.192H497.921L499.265 104.4H502.769L501.377 114.192H507.953L509.345 104.4H512.801L511.409 114.192H516.641V117.504H510.977L509.921 124.896H515.585V128.208H509.441L508.097 138H504.641L505.985 128.208H499.409L498.065 138H494.561L495.953 128.208H490.721V124.896H496.385L497.441 117.504ZM534.287 123.12V135.12C537.647 134.496 539.903 132.144 539.903 128.976C539.903 126.048 538.031 124.128 534.287 123.12ZM531.215 118.704V107.376C528.047 107.856 525.983 110.016 525.983 113.136C525.983 116.016 527.759 117.84 531.215 118.704ZM534.287 144.24H531.215V138.624C525.551 138.096 521.423 134.448 521.279 129.552H524.975C525.263 132.528 527.759 134.736 531.215 135.168V122.448C525.263 121.2 522.239 118.128 522.239 113.328C522.239 108.144 525.839 104.448 531.215 103.968V98.16H534.287V104.016C539.231 104.688 542.927 108 543.215 112.368H539.519C539.183 109.92 537.071 108.048 534.287 107.472V119.376C540.479 120.768 543.647 123.936 543.647 128.784C543.647 134.112 539.903 137.952 534.287 138.576V144.24ZM563.884 131.04L556.588 122.784L556.54 122.832C553.516 124.992 551.932 127.44 551.932 130.08C551.932 133.008 553.948 135.12 556.876 135.12C559.324 135.12 561.772 133.632 563.884 131.04ZM556.588 117.072L557.26 117.84L558.556 116.928C560.86 115.296 562.06 113.424 562.06 111.456C562.06 109.152 560.38 107.472 558.028 107.472C555.676 107.472 553.996 109.2 553.996 111.552C553.996 113.328 554.908 115.152 556.588 117.072ZM575.02 138H569.98L566.236 133.776C563.452 136.896 560.092 138.672 556.54 138.672C551.548 138.672 547.948 135.12 547.948 130.32C547.948 126.576 550.108 123.024 554.188 120.048L553.612 119.376C551.26 116.736 550.012 114 550.012 111.408C550.012 107.088 553.324 103.92 557.98 103.92C562.588 103.92 565.9 107.04 565.9 111.312C565.9 114.48 564.076 117.408 560.668 119.856L559.66 120.576L566.044 127.776C567.052 125.856 567.964 123.6 568.684 121.104H572.62C571.66 124.8 570.268 128.016 568.588 130.704L575.02 138ZM577.305 138L598.665 104.4H602.697L581.385 138H577.305ZM583.017 118.944C579.129 118.944 576.297 115.776 576.297 111.408C576.297 107.088 579.129 103.92 583.017 103.92C586.857 103.92 589.689 107.088 589.689 111.408C589.689 115.776 586.857 118.944 583.017 118.944ZM583.017 115.728C585.033 115.728 586.233 114 586.233 111.408C586.233 108.864 585.033 107.136 583.017 107.136C581.001 107.136 579.801 108.864 579.801 111.408C579.801 114 581.001 115.728 583.017 115.728ZM597.081 138.48C593.193 138.48 590.361 135.312 590.361 130.944C590.361 126.624 593.193 123.456 597.081 123.456C600.921 123.456 603.753 126.624 603.753 130.944C603.753 135.312 600.921 138.48 597.081 138.48ZM597.033 135.264C599.049 135.264 600.249 133.536 600.249 130.944C600.249 128.4 599.049 126.672 597.033 126.672C595.017 126.672 593.817 128.4 593.817 130.944C593.817 133.536 595.017 135.264 597.033 135.264ZM621.494 112.176L611.894 100.56H617.798L625.766 112.176H621.494ZM635.924 126.672V125.088C635.924 120.576 638.564 117.648 642.596 117.648C648.644 117.648 649.028 124.176 652.82 124.176C654.548 124.176 655.556 122.784 655.652 120.048L655.7 118.608H659.252V120.192C659.252 124.704 656.612 127.632 652.58 127.632C646.58 127.632 646.1 121.056 642.356 121.056C640.58 121.056 639.62 122.496 639.572 125.232L639.523 126.672H635.924ZM670.081 119.808H666.001L674.113 104.4H678.625L686.737 119.808H682.657L676.369 107.904L670.081 119.808ZM696.99 131.856L702.318 124.464L693.63 121.632L694.734 118.32L703.422 121.152V112.032H706.878V121.152L715.566 118.32L716.67 121.632L707.982 124.464L713.31 131.856L710.526 133.872L705.15 126.528L699.774 133.872L696.99 131.856ZM23.28 193.68H18.672C12.528 187.824 8.976 179.376 8.976 170.64C8.976 161.904 12.528 153.456 18.672 147.6H23.28C16.656 153.984 13.104 162.048 13.104 170.64C13.104 179.232 16.656 187.296 23.28 193.68ZM38.9093 193.68H34.3013C40.9253 187.296 44.4773 179.232 44.4773 170.64C44.4773 162.048 40.9253 153.984 34.3013 147.6H38.9093C45.0533 153.456 48.6053 161.904 48.6053 170.64C48.6053 179.376 45.0533 187.824 38.9093 193.68ZM66.7785 193.68V147.6H80.9865V151.2H70.7145V190.08H80.9865V193.68H66.7785ZM105.928 147.6V193.68H91.7198V190.08H101.992V151.2H91.7198V147.6H105.928ZM119.157 172.512V168.768H121.365C125.205 168.768 127.461 166.176 127.269 162.048L126.981 156.72C126.693 150.96 129.957 147.6 135.909 147.6H139.269V151.2H136.053C132.645 151.2 130.821 153.072 130.965 156.432L131.253 161.952C131.445 166.368 129.189 170.016 125.781 170.64C129.189 171.264 131.445 174.912 131.253 179.328L130.965 184.848C130.821 188.208 132.597 190.08 136.053 190.08H139.413V193.68H135.909C129.957 193.68 126.693 190.32 126.981 184.56L127.269 179.232C127.461 175.104 125.205 172.512 121.365 172.512H119.157ZM168.674 168.768V172.512H166.466C162.626 172.512 160.37 175.104 160.562 179.232L160.85 184.56C161.138 190.32 157.874 193.68 151.922 193.68H148.418V190.08H151.778C155.234 190.08 157.01 188.208 156.866 184.848L156.578 179.328C156.386 174.912 158.642 171.264 162.05 170.64C158.642 170.016 156.386 166.368 156.578 161.952L156.866 156.432C157.01 153.072 155.186 151.2 151.778 151.2H148.562V147.6H151.922C157.874 147.6 161.138 150.96 160.85 156.72L160.562 162.048C160.37 166.176 162.626 168.768 166.466 168.768H168.674ZM176.048 191.808V188.208H198.128V191.808H176.048ZM205.597 175.536V172.08H226.141V175.536H205.597ZM205.597 166.32V162.816H226.141V166.32H205.597ZM235.338 170.928V167.472H253.962V170.928H235.338ZM271.511 180.432V170.976H262.199V167.376H271.511V157.968H275.399V167.376H284.663V170.976H275.399V180.432H271.511ZM311.381 181.344L292.085 171.408V166.992L311.381 157.056V161.136L295.733 169.2L311.381 177.264V181.344ZM341.122 171.408L321.826 181.344V177.264L337.474 169.2L321.826 161.136V157.056L341.122 166.992V171.408ZM348.159 192.24L367.455 146.16H371.439L352.143 192.24H348.159ZM380.876 146.16L400.172 192.24H396.236L376.892 146.16H380.876ZM415.514 192.24V146.16H419.162V192.24H415.514ZM444.487 163.392L443.623 148.56H448.615L447.751 163.392H444.487ZM468.516 163.392L467.652 148.56H472.644L471.78 163.392H468.516ZM478.02 163.392L477.156 148.56H482.148L481.284 163.392H478.02Z" fill="#111111"/>
</svg>
