<svg width="1000" height="200" viewBox="0 0 1000 200" fill="none" xmlns="http://www.w3.org/2000/svg">
<path d="M23.5077 36.3385C23.5077 37.3723 23.68 38.1272 24.0246 38.6031C24.3692 39.079 24.9026 39.4318 25.6246 39.6615L24.6154 42.5662C23.4995 42.4185 22.5231 42.0656 21.6862 41.5077C20.8492 40.9333 20.2421 40.0718 19.8646 38.9231C18.9292 40.121 17.7641 41.0318 16.3692 41.6554C14.9744 42.2626 13.4318 42.5662 11.7415 42.5662C9.14872 42.5662 7.10564 41.8359 5.61231 40.3754C4.11897 38.9149 3.37231 36.9785 3.37231 34.5662C3.37231 31.8913 4.41436 29.84 6.49846 28.4123C8.58256 26.9846 11.5938 26.2708 15.5323 26.2708H19.3477V24.1046C19.3477 22.2338 18.7979 20.9128 17.6985 20.1415C16.6154 19.3538 15.1056 18.96 13.1692 18.96C12.3159 18.96 11.3149 19.0667 10.1662 19.28C9.01744 19.4769 7.77026 19.8133 6.42462 20.2892L5.34154 17.1631C6.93333 16.5723 8.42667 16.1538 9.82154 15.9077C11.2164 15.6615 12.5456 15.5385 13.8092 15.5385C17.0421 15.5385 19.4626 16.2933 21.0708 17.8031C22.6954 19.2964 23.5077 21.3313 23.5077 23.9077V36.3385ZM12.8 39.4154C14.08 39.4154 15.3026 39.0954 16.4677 38.4554C17.6328 37.799 18.5928 36.8964 19.3477 35.7477V29.0769H15.6062C12.7508 29.0769 10.7323 29.5692 9.55077 30.5538C8.38564 31.5385 7.80308 32.8595 7.80308 34.5169C7.80308 36.1251 8.21333 37.3477 9.03385 38.1846C9.87077 39.0051 11.1262 39.4154 12.8 39.4154ZM38.6143 19.4523C39.5661 18.2051 40.6574 17.2451 41.8882 16.5723C43.1354 15.8831 44.5056 15.5385 45.9989 15.5385C48.3128 15.5385 50.1836 16.0964 51.6112 17.2123C53.0389 18.3282 54.081 19.9036 54.7374 21.9385C55.3938 23.9569 55.722 26.32 55.722 29.0277C55.722 31.6369 55.3282 33.9672 54.5405 36.0185C53.7528 38.0533 52.5959 39.6533 51.0697 40.8185C49.56 41.9836 47.6892 42.5662 45.4574 42.5662C42.4543 42.5662 40.0995 41.4831 38.3928 39.3169L38.0974 42H34.4789V5.64308L38.6143 5.12615V19.4523ZM44.4728 39.2185C46.6389 39.2185 48.3046 38.3815 49.4697 36.7077C50.6348 35.0338 51.2174 32.4656 51.2174 29.0031C51.2174 26.7385 50.9877 24.8595 50.5282 23.3662C50.0687 21.8564 49.3795 20.7323 48.4605 19.9938C47.5579 19.239 46.442 18.8615 45.1128 18.8615C43.6687 18.8615 42.3969 19.2964 41.2974 20.1662C40.2143 21.0195 39.32 21.9713 38.6143 23.0215V35.8708C39.2871 36.8882 40.1323 37.7005 41.1497 38.3077C42.1836 38.9149 43.2912 39.2185 44.4728 39.2185ZM75.7271 38.9969C77.0235 38.9969 78.2297 38.7836 79.3456 38.3569C80.4779 37.9303 81.5199 37.3887 82.4717 36.7323L84.4902 39.44C83.3579 40.4082 81.9958 41.1713 80.404 41.7292C78.8122 42.2872 77.2533 42.5662 75.7271 42.5662C73.1507 42.5662 70.9517 42.0164 69.1302 40.9169C67.3251 39.801 65.9466 38.2421 64.9948 36.24C64.043 34.2215 63.5671 31.8585 63.5671 29.1508C63.5671 26.5579 64.043 24.2359 64.9948 22.1846C65.963 20.1169 67.3497 18.4923 69.1548 17.3108C70.9763 16.1292 73.1835 15.5385 75.7763 15.5385C77.4338 15.5385 78.9846 15.7928 80.4287 16.3015C81.8892 16.7938 83.2266 17.5405 84.441 18.5415L82.4225 21.2985C81.323 20.5272 80.2153 19.9528 79.0994 19.5754C77.9999 19.1815 76.8758 18.9846 75.7271 18.9846C73.4953 18.9846 71.6574 19.8215 70.2133 21.4954C68.7692 23.1692 68.0471 25.721 68.0471 29.1508C68.0471 31.4482 68.3753 33.3272 69.0317 34.7877C69.7046 36.2318 70.6153 37.2985 71.764 37.9877C72.9292 38.6605 74.2502 38.9969 75.7271 38.9969ZM109.049 5.12615L113.185 5.64308V42H109.566L109.172 38.5785C108.204 39.9569 107.088 40.9662 105.825 41.6062C104.577 42.2462 103.24 42.5662 101.812 42.5662C99.564 42.5662 97.7096 42 96.2491 40.8677C94.7886 39.7354 93.7055 38.16 92.9999 36.1415C92.2943 34.1067 91.9414 31.7518 91.9414 29.0769C91.9414 26.4841 92.3435 24.1703 93.1476 22.1354C93.9517 20.0841 95.1086 18.4759 96.6184 17.3108C98.1445 16.1292 99.9743 15.5385 102.108 15.5385C103.601 15.5385 104.914 15.801 106.046 16.3262C107.178 16.8349 108.179 17.5897 109.049 18.5908V5.12615ZM103.191 18.8615C101.025 18.8615 99.3589 19.7067 98.1937 21.3969C97.0286 23.0872 96.4461 25.6472 96.4461 29.0769C96.4461 31.3087 96.684 33.1795 97.1599 34.6892C97.6358 36.199 98.3332 37.3313 99.2522 38.0862C100.188 38.841 101.328 39.2185 102.674 39.2185C104.151 39.2185 105.406 38.8 106.44 37.9631C107.49 37.1262 108.36 36.1826 109.049 35.1323V22.1846C108.343 21.1344 107.49 20.3221 106.489 19.7477C105.488 19.1569 104.389 18.8615 103.191 18.8615ZM126.322 30.5046C126.404 32.5067 126.79 34.1477 127.479 35.4277C128.168 36.6913 129.079 37.6267 130.211 38.2338C131.343 38.8246 132.574 39.12 133.903 39.12C135.233 39.12 136.431 38.9231 137.497 38.5292C138.58 38.1354 139.688 37.5528 140.82 36.7815L142.765 39.5138C141.551 40.4656 140.164 41.2123 138.605 41.7538C137.062 42.2954 135.479 42.5662 133.854 42.5662C131.343 42.5662 129.202 42 127.43 40.8677C125.657 39.7354 124.303 38.16 123.368 36.1415C122.449 34.1067 121.99 31.7518 121.99 29.0769C121.99 26.4513 122.457 24.121 123.393 22.0862C124.328 20.0513 125.641 18.4513 127.331 17.2862C129.021 16.121 131.015 15.5385 133.313 15.5385C135.495 15.5385 137.374 16.0554 138.95 17.0892C140.525 18.1067 141.731 19.5672 142.568 21.4708C143.421 23.3579 143.848 25.6144 143.848 28.24C143.848 28.6831 143.84 29.1015 143.823 29.4954C143.807 29.8728 143.782 30.2092 143.75 30.5046H126.322ZM133.362 18.9354C131.442 18.9354 129.834 19.6164 128.537 20.9785C127.257 22.3405 126.527 24.4492 126.347 27.3046H139.86C139.811 24.5313 139.204 22.4472 138.039 21.0523C136.874 19.641 135.315 18.9354 133.362 18.9354ZM167.915 5.12615C169.31 5.12615 170.573 5.24923 171.705 5.49539C172.838 5.74154 173.913 6.08615 174.93 6.52923L173.601 9.60616C172.764 9.24513 171.878 8.97436 170.942 8.79385C170.007 8.61333 169.039 8.52308 168.038 8.52308C166.233 8.52308 164.871 8.8759 163.952 9.58154C163.049 10.2872 162.598 11.3703 162.598 12.8308V18.0985H171.385L170.942 21.3477H162.598V42H158.462V21.3477H152.284V18.0985H158.462V12.9292C158.462 11.321 158.873 9.93436 159.693 8.76923C160.53 7.6041 161.662 6.70974 163.09 6.08615C164.518 5.44615 166.126 5.12615 167.915 5.12615ZM203.206 13.3231L204.486 17.2123C203.386 17.5569 202.213 17.7703 200.966 17.8523C199.719 17.9344 198.365 17.9754 196.904 17.9754C198.398 18.6646 199.522 19.559 200.277 20.6585C201.032 21.7415 201.409 23.0215 201.409 24.4985C201.409 26.2051 201.023 27.7231 200.252 29.0523C199.481 30.3815 198.365 31.4236 196.904 32.1785C195.46 32.9333 193.713 33.3108 191.661 33.3108C190.792 33.3108 190.061 33.2697 189.471 33.1877C188.896 33.1056 188.338 32.9826 187.797 32.8185C187.403 33.081 187.075 33.4421 186.812 33.9015C186.566 34.361 186.443 34.8369 186.443 35.3292C186.443 35.9528 186.689 36.4697 187.181 36.88C187.674 37.2903 188.584 37.4954 189.914 37.4954H194.591C196.33 37.4954 197.889 37.8072 199.267 38.4308C200.662 39.0544 201.754 39.8913 202.541 40.9415C203.345 41.9918 203.748 43.1897 203.748 44.5354C203.748 47.079 202.664 49.0318 200.498 50.3938C198.349 51.7559 195.304 52.4369 191.366 52.4369C188.609 52.4369 186.435 52.1497 184.843 51.5754C183.251 51.0174 182.111 50.1559 181.421 48.9908C180.749 47.8421 180.412 46.3897 180.412 44.6338H184.154C184.154 45.6349 184.351 46.4636 184.744 47.12C185.138 47.7764 185.852 48.2605 186.886 48.5723C187.92 48.9005 189.405 49.0646 191.341 49.0646C193.245 49.0646 194.796 48.9005 195.994 48.5723C197.208 48.2605 198.102 47.7846 198.677 47.1446C199.267 46.521 199.563 45.7415 199.563 44.8062C199.563 43.5754 199.005 42.6482 197.889 42.0246C196.773 41.401 195.378 41.0892 193.704 41.0892H189.077C186.845 41.0892 185.196 40.5969 184.129 39.6123C183.079 38.6277 182.554 37.4954 182.554 36.2154C182.554 35.3785 182.792 34.5662 183.267 33.7785C183.76 32.9908 184.474 32.2933 185.409 31.6862C183.916 30.8985 182.816 29.9221 182.111 28.7569C181.405 27.5918 181.052 26.1805 181.052 24.5231C181.052 22.7672 181.487 21.2164 182.357 19.8708C183.226 18.5087 184.441 17.4421 186 16.6708C187.559 15.8995 189.356 15.5138 191.391 15.5138C193.573 15.4974 195.345 15.4072 196.707 15.2431C198.07 15.0626 199.235 14.8082 200.203 14.48C201.187 14.1518 202.189 13.7662 203.206 13.3231ZM191.391 18.5415C189.306 18.5415 187.764 19.1077 186.763 20.24C185.778 21.3559 185.286 22.7836 185.286 24.5231C185.286 26.279 185.795 27.7231 186.812 28.8554C187.83 29.9877 189.389 30.5538 191.489 30.5538C193.327 30.5538 194.722 30.0205 195.674 28.9538C196.642 27.8872 197.126 26.4021 197.126 24.4985C197.126 22.5456 196.642 21.0687 195.674 20.0677C194.722 19.0503 193.294 18.5415 191.391 18.5415ZM215.802 5.24923V19.6246C216.819 18.2626 218.066 17.2451 219.543 16.5723C221.037 15.8831 222.546 15.5385 224.073 15.5385C226.6 15.5385 228.446 16.2113 229.611 17.5569C230.776 18.9026 231.359 20.7733 231.359 23.1692V42H227.223V23.2677C227.223 21.7087 226.862 20.5764 226.14 19.8708C225.418 19.1487 224.286 18.7877 222.743 18.7877C221.759 18.7877 220.823 19.0092 219.937 19.4523C219.051 19.8954 218.255 20.4451 217.55 21.1015C216.844 21.7579 216.261 22.4308 215.802 23.12V42H211.666V5.69231L215.802 5.24923ZM254.318 16.08V38.7262H261.628V42H242.182V38.7262H250.182V19.3538H242.428V16.08H254.318ZM251.019 3.94462C251.938 3.94462 252.668 4.22359 253.21 4.78154C253.768 5.33949 254.047 6.02051 254.047 6.82462C254.047 7.66154 253.768 8.36718 253.21 8.94154C252.668 9.49949 251.938 9.77846 251.019 9.77846C250.149 9.77846 249.436 9.49949 248.878 8.94154C248.32 8.36718 248.041 7.66154 248.041 6.82462C248.041 6.02051 248.32 5.33949 248.878 4.78154C249.436 4.22359 250.149 3.94462 251.019 3.94462ZM287.689 16.08V37.84C287.689 40.7282 287.041 43.1405 285.744 45.0769C284.448 47.0297 282.569 48.5969 280.107 49.7785C277.646 50.96 274.667 51.8462 271.172 52.4369L270.483 49.2369C273.043 48.8103 275.307 48.1703 277.277 47.3169C279.246 46.4636 280.78 45.2903 281.88 43.7969C282.996 42.32 283.554 40.4246 283.554 38.1108V19.3538H272.772V16.08H287.689ZM283.824 3.94462C284.743 3.94462 285.482 4.22359 286.04 4.78154C286.598 5.33949 286.877 6.02051 286.877 6.82462C286.877 7.66154 286.598 8.36718 286.04 8.94154C285.482 9.49949 284.743 9.77846 283.824 9.77846C282.938 9.77846 282.224 9.49949 281.683 8.94154C281.141 8.36718 280.87 7.66154 280.87 6.82462C280.87 6.02051 281.141 5.33949 281.683 4.78154C282.224 4.22359 282.938 3.94462 283.824 3.94462ZM321.971 16.08L310.303 27.7477L323.325 42H317.885L305.134 27.8462L316.605 16.08H321.971ZM304.666 5.12615V42H300.531V5.64308L304.666 5.12615ZM339.884 5.64308V35.6C339.884 36.88 340.278 37.7908 341.065 38.3323C341.869 38.8574 342.903 39.12 344.167 39.12C344.955 39.12 345.701 39.0379 346.407 38.8738C347.112 38.7097 347.818 38.4882 348.524 38.2092L349.631 41.2369C348.926 41.5815 348.048 41.8851 346.998 42.1477C345.964 42.4267 344.79 42.5662 343.478 42.5662C341.18 42.5662 339.318 41.9344 337.89 40.6708C336.462 39.3908 335.748 37.6267 335.748 35.3785V8.91692H327.798V5.64308H339.884ZM376.406 15.5385C377.243 15.5385 378.039 15.719 378.793 16.08C379.565 16.441 380.197 17.1385 380.689 18.1723C381.181 19.2062 381.427 20.7159 381.427 22.7015V42H377.587V23.3662C377.587 21.7415 377.489 20.5682 377.292 19.8462C377.095 19.1241 376.529 18.7631 375.593 18.7631C374.822 18.7631 374.051 19.0092 373.28 19.5015C372.525 19.9774 371.786 20.7651 371.064 21.8646V42H367.2V23.3662C367.2 21.7415 367.101 20.5682 366.904 19.8462C366.707 19.1241 366.141 18.7631 365.206 18.7631C364.402 18.7631 363.622 19.0092 362.867 19.5015C362.129 19.9774 361.399 20.7651 360.677 21.8646V42H356.861V16.08H360.11L360.357 19.0831C361.062 18.0821 361.85 17.2451 362.72 16.5723C363.606 15.8831 364.697 15.5385 365.993 15.5385C366.978 15.5385 367.905 15.7764 368.775 16.2523C369.645 16.7118 370.285 17.6144 370.695 18.96C371.401 17.9426 372.197 17.1221 373.083 16.4985C373.969 15.8585 375.077 15.5385 376.406 15.5385ZM388.854 42V16.08H392.374L392.694 19.6738C393.744 18.3446 395.057 17.3272 396.632 16.6215C398.224 15.8995 399.767 15.5385 401.26 15.5385C403.804 15.5385 405.65 16.2113 406.799 17.5569C407.964 18.9026 408.546 20.7733 408.546 23.1692V42H404.411V26.2215C404.411 24.4492 404.312 23.0215 404.115 21.9385C403.919 20.839 403.508 20.0431 402.885 19.5508C402.261 19.0421 401.293 18.7877 399.98 18.7877C398.963 18.7877 398.003 19.0092 397.1 19.4523C396.214 19.8954 395.418 20.4533 394.712 21.1262C394.023 21.7826 393.449 22.4472 392.989 23.12V42H388.854ZM428.256 15.5385C430.701 15.5385 432.744 16.0964 434.385 17.2123C436.043 18.3118 437.282 19.8708 438.102 21.8892C438.939 23.9077 439.357 26.2872 439.357 29.0277C439.357 31.6697 438.931 34.0082 438.077 36.0431C437.224 38.0779 435.969 39.6779 434.311 40.8431C432.67 41.9918 430.635 42.5662 428.207 42.5662C425.778 42.5662 423.735 42.0082 422.077 40.8923C420.42 39.7764 419.165 38.2092 418.311 36.1908C417.474 34.1559 417.056 31.7846 417.056 29.0769C417.056 26.4021 417.483 24.0472 418.336 22.0123C419.189 19.9774 420.445 18.3938 422.102 17.2615C423.776 16.1128 425.827 15.5385 428.256 15.5385ZM428.256 18.9108C426.024 18.9108 424.334 19.7395 423.185 21.3969C422.053 23.0379 421.487 25.5979 421.487 29.0769C421.487 32.4903 422.045 35.0256 423.161 36.6831C424.293 38.3405 425.975 39.1692 428.207 39.1692C430.439 39.1692 432.112 38.3405 433.228 36.6831C434.361 35.0256 434.927 32.4738 434.927 29.0277C434.927 25.5815 434.369 23.0379 433.253 21.3969C432.137 19.7395 430.471 18.9108 428.256 18.9108ZM459.51 15.5385C461.808 15.5385 463.637 16.0964 465 17.2123C466.378 18.3282 467.371 19.9036 467.978 21.9385C468.585 23.9569 468.889 26.32 468.889 29.0277C468.889 31.6369 468.52 33.9672 467.781 36.0185C467.059 38.0533 465.96 39.6533 464.483 40.8185C463.006 41.9836 461.143 42.5662 458.895 42.5662C456.056 42.5662 453.775 41.5651 452.052 39.5631V51.92L447.916 52.4369V16.08H451.436L451.781 19.6985C452.733 18.3692 453.865 17.3436 455.178 16.6215C456.507 15.8995 457.951 15.5385 459.51 15.5385ZM458.526 18.8615C457.098 18.8615 455.834 19.2964 454.735 20.1662C453.652 21.0195 452.757 21.9713 452.052 23.0215V35.8708C452.725 36.8718 453.57 37.6677 454.587 38.2585C455.621 38.8328 456.753 39.12 457.984 39.12C460.134 39.12 461.75 38.2995 462.833 36.6585C463.916 35.0174 464.458 32.4656 464.458 29.0031C464.458 26.7385 464.245 24.8595 463.818 23.3662C463.391 21.8564 462.743 20.7323 461.873 19.9938C461.004 19.239 459.888 18.8615 458.526 18.8615ZM485.989 15.5385C487.548 15.5385 488.918 15.8256 490.1 16.4C491.298 16.9744 492.34 17.8113 493.226 18.9108L493.571 16.08H497.091V52.4369L492.955 51.92V38.7262C492.02 40.0554 490.921 41.0318 489.657 41.6554C488.41 42.2626 487.081 42.5662 485.669 42.5662C483.355 42.5662 481.493 42.0082 480.082 40.8923C478.687 39.7764 477.677 38.2092 477.054 36.1908C476.43 34.1559 476.118 31.7846 476.118 29.0769C476.118 26.4841 476.488 24.1703 477.226 22.1354C477.981 20.0841 479.097 18.4759 480.574 17.3108C482.051 16.1292 483.856 15.5385 485.989 15.5385ZM487.023 18.8615C484.873 18.8615 483.257 19.7067 482.174 21.3969C481.091 23.0872 480.549 25.6472 480.549 29.0769C480.549 31.3087 480.771 33.1713 481.214 34.6646C481.657 36.1579 482.313 37.2738 483.183 38.0123C484.069 38.7508 485.185 39.12 486.531 39.12C487.975 39.12 489.23 38.7179 490.297 37.9138C491.364 37.1097 492.25 36.1826 492.955 35.1323V22.1846C492.283 21.1344 491.429 20.3221 490.395 19.7477C489.378 19.1569 488.254 18.8615 487.023 18.8615ZM507.225 42V38.8246H511.262V19.2554H507.225V16.08H514.413L515.176 22.2092C516.177 20.0759 517.391 18.4267 518.819 17.2615C520.247 16.0964 522.134 15.5138 524.48 15.5138C525.203 15.5138 525.843 15.5713 526.4 15.6862C526.975 15.7846 527.557 15.9159 528.148 16.08L526.942 19.7723C526.4 19.6246 525.908 19.5179 525.465 19.4523C525.022 19.3703 524.513 19.3292 523.939 19.3292C521.953 19.3292 520.247 20.0349 518.819 21.4462C517.391 22.8574 516.251 24.9908 515.397 27.8462V38.8246H520.665V42H507.225ZM524.16 24.8431V19.2062L524.579 16.08H528.148L527.557 24.8431H524.16ZM545.322 39.1446C547.308 39.1446 548.875 38.7754 550.024 38.0369C551.189 37.2821 551.772 36.281 551.772 35.0338C551.772 34.2462 551.624 33.5651 551.329 32.9908C551.05 32.4164 550.467 31.8995 549.581 31.44C548.695 30.9805 547.333 30.521 545.495 30.0615C543.706 29.6185 542.147 29.1097 540.818 28.5354C539.505 27.9446 538.479 27.1815 537.741 26.2462C537.019 25.3108 536.658 24.0964 536.658 22.6031C536.658 21.1426 537.068 19.8872 537.889 18.8369C538.726 17.7703 539.882 16.958 541.359 16.4C542.836 15.8256 544.551 15.5385 546.504 15.5385C548.588 15.5385 550.401 15.8174 551.944 16.3754C553.503 16.9169 554.824 17.5897 555.907 18.3938L554.086 21.2C553.101 20.5272 552.018 19.9774 550.836 19.5508C549.655 19.1077 548.227 18.8862 546.553 18.8862C544.518 18.8862 543.074 19.2062 542.221 19.8462C541.368 20.4697 540.941 21.2821 540.941 22.2831C540.941 23.0379 541.146 23.6697 541.556 24.1785C541.983 24.6708 542.697 25.1221 543.698 25.5323C544.699 25.9262 546.077 26.361 547.833 26.8369C549.524 27.28 550.992 27.8133 552.239 28.4369C553.503 29.0605 554.488 29.881 555.193 30.8985C555.899 31.9159 556.252 33.2287 556.252 34.8369C556.252 36.6749 555.727 38.1682 554.676 39.3169C553.626 40.4492 552.264 41.2779 550.59 41.8031C548.933 42.3118 547.177 42.5662 545.322 42.5662C542.976 42.5662 540.974 42.2297 539.316 41.5569C537.675 40.8677 536.297 40.039 535.181 39.0708L537.544 36.3385C538.561 37.1754 539.727 37.8564 541.039 38.3815C542.369 38.8903 543.796 39.1446 545.322 39.1446ZM586.62 40.6954C585.734 41.2862 584.659 41.7456 583.395 42.0738C582.132 42.4021 580.893 42.5662 579.678 42.5662C576.889 42.5662 574.739 41.8359 573.229 40.3754C571.719 38.9149 570.965 37.0359 570.965 34.7385V19.28H565.008V16.08H570.965V10.1969L575.1 9.70462V16.08H584.06L583.568 19.28H575.1V34.6892C575.1 36.1333 575.477 37.2328 576.232 37.9877C577.003 38.7426 578.275 39.12 580.048 39.12C581.016 39.12 581.91 39.0051 582.731 38.7754C583.551 38.5456 584.314 38.2503 585.02 37.8892L586.62 40.6954ZM599.708 16.08V34.4431C599.708 36.1497 600.061 37.3805 600.767 38.1354C601.472 38.8903 602.572 39.2677 604.065 39.2677C605.493 39.2677 606.838 38.8656 608.102 38.0615C609.382 37.241 610.375 36.2728 611.08 35.1569V16.08H615.216V42H611.696L611.351 38.5046C610.334 39.8174 609.078 40.8267 607.585 41.5323C606.092 42.2215 604.582 42.5662 603.056 42.5662C600.545 42.5662 598.666 41.9015 597.419 40.5723C596.188 39.2267 595.573 37.3477 595.573 34.9354V16.08H599.708ZM646.716 16.08L637.289 42H632.489L623.135 16.08H627.516L635.024 38.2338L642.433 16.08H646.716ZM673.835 42H667.977L664.629 22.9723L660.986 42H655.275L650.549 16.08H654.783L658.081 39.44L662.217 19.3785H667.115L671.029 39.44L674.327 16.08H678.364L673.835 42ZM686.677 42H681.951L691.526 28.3138L683.133 16.08H688.031L694.037 25.7292L700.117 16.08H704.843L696.474 28.1415L706.025 42H700.954L693.865 30.8738L686.677 42ZM735.261 16.08L726.153 42.1723C725.546 43.9282 724.775 45.5364 723.839 46.9969C722.92 48.4574 721.714 49.6636 720.221 50.6154C718.744 51.5836 716.865 52.1826 714.584 52.4123L713.944 49.1138C715.733 48.8185 717.144 48.3672 718.178 47.76C719.212 47.1528 720.024 46.3733 720.615 45.4215C721.222 44.4697 721.755 43.3292 722.215 42H720.836L711.778 16.08H716.208L723.642 38.8492L730.978 16.08H735.261ZM748.398 38.48H762.823L762.281 42H743.327V38.8738L757.703 19.6738H744.46V16.08H762.675V19.28L748.398 38.48ZM21.3415 81.36H7.92615L5.21846 90H1.00923L12.0369 56.1046H17.5015L28.5292 90H24.0492L21.3415 81.36ZM9.03385 77.8154H20.2338L14.6708 59.6985L9.03385 77.8154ZM51.5866 80.4738C51.5866 78.7672 51.2502 77.4544 50.5774 76.5354C49.921 75.6 49.043 74.9518 47.9436 74.5908C46.8441 74.2297 45.6379 74.0492 44.3251 74.0492H38.5405V86.48H44.1282C44.9651 86.48 45.8184 86.3979 46.6882 86.2338C47.5579 86.0697 48.362 85.7744 49.1005 85.3477C49.8554 84.921 50.4543 84.3221 50.8974 83.5508C51.3569 82.7631 51.5866 81.7374 51.5866 80.4738ZM50.2328 64.8677C50.2328 62.9477 49.6338 61.5856 48.4359 60.7815C47.2543 59.961 45.6379 59.5508 43.5866 59.5508H38.5405V70.5292H44.0051C46.0071 70.5292 47.5415 70.0862 48.6082 69.2C49.6912 68.2974 50.2328 66.8533 50.2328 64.8677ZM56.0913 80.3262C56.0913 82.1641 55.722 83.7067 54.9836 84.9538C54.2615 86.201 53.2851 87.1938 52.0543 87.9323C50.84 88.6708 49.4779 89.2041 47.9682 89.5323C46.4748 89.8441 44.9487 90 43.3897 90H34.282V56.1046H42.6266C44.12 56.1046 45.5723 56.2441 46.9836 56.5231C48.4112 56.7856 49.6912 57.2451 50.8236 57.9015C51.9723 58.5415 52.8912 59.4113 53.5805 60.5108C54.2697 61.6103 54.6143 62.9887 54.6143 64.6462C54.6143 66.1067 54.3107 67.3456 53.7036 68.3631C53.1128 69.3641 52.3333 70.1682 51.3651 70.7754C50.4133 71.3826 49.3959 71.8092 48.3128 72.0554C49.5764 72.2523 50.7989 72.6379 51.9805 73.2123C53.1784 73.7703 54.163 74.6236 54.9343 75.7723C55.7056 76.9046 56.0913 78.4226 56.0913 80.3262ZM76.6871 55.5631C78.9025 55.5631 80.7569 55.8421 82.2502 56.4C83.7435 56.9579 85.163 57.7785 86.5087 58.8615L84.121 61.6431C83.0543 60.7405 81.922 60.1005 80.724 59.7231C79.5425 59.3292 78.3035 59.1323 77.0071 59.1323C75.1528 59.1323 73.4379 59.5754 71.8625 60.4615C70.2871 61.3313 69.0153 62.7836 68.0471 64.8185C67.0953 66.8369 66.6194 69.5774 66.6194 73.04C66.6194 76.4041 67.0707 79.1036 67.9733 81.1385C68.8922 83.1733 70.1312 84.6421 71.6902 85.5446C73.2492 86.4472 74.9887 86.8985 76.9087 86.8985C78.8122 86.8985 80.3712 86.6113 81.5856 86.0369C82.8163 85.4626 83.883 84.8062 84.7856 84.0677L87.001 86.8738C85.9671 87.8749 84.6215 88.7446 82.964 89.4831C81.3066 90.2051 79.2717 90.5662 76.8594 90.5662C74.1189 90.5662 71.6328 89.8933 69.401 88.5477C67.1856 87.2021 65.4297 85.2328 64.1333 82.64C62.8369 80.0308 62.1887 76.8308 62.1887 73.04C62.1887 69.2328 62.8451 66.0328 64.1579 63.44C65.4871 60.8472 67.2512 58.8862 69.4502 57.5569C71.6656 56.2277 74.0779 55.5631 76.6871 55.5631ZM111.24 72.8923C111.24 69.9385 110.928 67.5754 110.305 65.8031C109.681 64.0308 108.86 62.7015 107.843 61.8154C106.826 60.9292 105.71 60.3385 104.495 60.0431C103.297 59.7477 102.116 59.6 100.951 59.6H96.963V86.5785H101C102.214 86.5785 103.42 86.3897 104.618 86.0123C105.833 85.6185 106.94 84.9292 107.941 83.9446C108.942 82.9436 109.738 81.5569 110.329 79.7846C110.936 77.9959 111.24 75.6985 111.24 72.8923ZM115.794 72.8923C115.794 75.7149 115.49 78.1272 114.883 80.1292C114.292 82.1149 113.48 83.7559 112.446 85.0523C111.412 86.3487 110.231 87.3579 108.901 88.08C107.589 88.7856 106.202 89.2862 104.741 89.5815C103.297 89.8605 101.878 90 100.483 90H92.7045V56.1046H99.9414C101.927 56.1046 103.855 56.3262 105.726 56.7692C107.613 57.2123 109.312 58.0328 110.821 59.2308C112.348 60.4123 113.554 62.1026 114.44 64.3015C115.342 66.5005 115.794 69.3641 115.794 72.8923ZM128.587 59.6V71.0215H141.14V74.5415H128.587V86.5785H143.996V90H124.303V56.1046H143.553L143.06 59.6H128.587ZM158.709 59.6V71.4646H172.001V74.9108H158.709V90H154.475V56.1046H174.438L173.921 59.6H158.709ZM192.621 90.5662C189.946 90.5662 187.616 89.9179 185.631 88.6215C183.661 87.3251 182.135 85.3805 181.052 82.7877C179.969 80.1949 179.427 76.9456 179.427 73.04C179.427 70.119 179.813 67.5672 180.584 65.3846C181.372 63.2021 182.431 61.3805 183.76 59.92C185.105 58.4595 186.623 57.3682 188.314 56.6462C190.02 55.9241 191.784 55.5631 193.606 55.5631C195.821 55.5631 197.659 55.8831 199.12 56.5231C200.58 57.1467 201.975 58.0656 203.304 59.28L200.72 61.9631C199.686 60.9949 198.595 60.281 197.446 59.8215C196.314 59.3621 195.042 59.1323 193.631 59.1323C192.4 59.1323 191.21 59.3703 190.061 59.8462C188.913 60.3221 187.879 61.1015 186.96 62.1846C186.057 63.2513 185.335 64.6708 184.794 66.4431C184.269 68.2154 184.006 70.4144 184.006 73.04C184.006 76.3056 184.342 78.9641 185.015 81.0154C185.704 83.0667 186.714 84.5764 188.043 85.5446C189.389 86.4964 191.046 86.9723 193.015 86.9723C194.197 86.9723 195.313 86.8328 196.363 86.5538C197.43 86.2749 198.463 85.8728 199.464 85.3477V75.0092H192.794L192.277 71.4646H203.698V87.6123C202.172 88.4328 200.547 89.1303 198.824 89.7046C197.101 90.279 195.034 90.5662 192.621 90.5662ZM227.888 90V73.9262H215.088V90H210.83V56.1046H215.088V70.4308H227.888V56.1046H232.146V90H227.888ZM260.718 56.1046V59.5262H253.185V86.5785H260.718V90H241.321V86.5785H248.853V59.5262H241.321V56.1046H260.718ZM290.224 56.1046V78.7508C290.224 80.1621 290.036 81.5733 289.658 82.9846C289.297 84.3795 288.674 85.6513 287.787 86.8C286.918 87.9323 285.736 88.8431 284.243 89.5323C282.749 90.2215 280.887 90.5662 278.655 90.5662C276.998 90.5662 275.365 90.3036 273.757 89.7785C272.165 89.2533 270.696 88.4903 269.35 87.4892L271.246 84.6585C272.723 85.5774 274.068 86.201 275.283 86.5292C276.497 86.841 277.605 86.9969 278.606 86.9969C280.969 86.9969 282.782 86.2421 284.046 84.7323C285.326 83.2226 285.966 81.1467 285.966 78.5046V59.6H275.923V56.1046H290.224ZM304.74 90H300.482V56.1046H304.74V90ZM304.986 71.9077L318.328 56.1046H323.251L310.008 71.6369L324.186 90H318.869L304.986 71.9077ZM331.515 90V56.1046H335.798V86.1846H351.256L350.764 90H331.515ZM380.492 56.1046L382.412 90H378.301L377.243 72.3015C377.193 71.1036 377.144 69.8892 377.095 68.6585C377.046 67.4277 377.013 66.2462 376.997 65.1138C376.98 63.9815 376.972 62.9723 376.972 62.0862C376.972 61.2 376.972 60.5108 376.972 60.0185L371.261 83.92H366.978L360.849 60.0185C360.865 60.4944 360.882 61.2 360.898 62.1354C360.914 63.0544 360.923 64.0964 360.923 65.2615C360.939 66.4267 360.931 67.6246 360.898 68.8554C360.882 70.0697 360.849 71.2021 360.8 72.2523L359.889 90H355.877L357.797 56.1046H363.753L369.243 79.3169L374.486 56.1046H380.492ZM403.352 90L391.414 60.1908C391.43 60.5682 391.463 61.2 391.512 62.0862C391.578 62.9559 391.644 63.9979 391.709 65.2123C391.791 66.4103 391.857 67.6821 391.906 69.0277C391.955 70.3733 391.98 71.7026 391.98 73.0154V90H388.017V56.1046H393.802L405.937 86.0369C405.921 85.561 405.863 84.6913 405.765 83.4277C405.666 82.1477 405.576 80.6051 405.494 78.8C405.412 76.9949 405.371 75.0831 405.371 73.0646V56.1046H409.334V90H403.352ZM440.687 73.0892C440.687 76.5026 440.219 79.5303 439.284 82.1723C438.365 84.7979 436.978 86.8574 435.124 88.3508C433.269 89.8277 430.964 90.5662 428.207 90.5662C425.466 90.5662 423.161 89.8441 421.29 88.4C419.435 86.9395 418.041 84.9046 417.105 82.2954C416.186 79.6862 415.727 76.6338 415.727 73.1385C415.727 69.7087 416.186 66.6728 417.105 64.0308C418.041 61.3887 419.435 59.321 421.29 57.8277C423.161 56.3179 425.466 55.5631 428.207 55.5631C430.964 55.5631 433.269 56.2933 435.124 57.7538C436.978 59.2144 438.365 61.2574 439.284 63.8831C440.219 66.5087 440.687 69.5774 440.687 73.0892ZM436.207 73.0892C436.207 68.5764 435.583 65.1221 434.336 62.7262C433.105 60.3303 431.062 59.1323 428.207 59.1323C425.351 59.1323 423.3 60.3385 422.053 62.7508C420.822 65.1631 420.207 68.6256 420.207 73.1385C420.207 77.6513 420.847 81.0892 422.127 83.4523C423.407 85.799 425.433 86.9723 428.207 86.9723C431.062 86.9723 433.105 85.7908 434.336 83.4277C435.583 81.0482 436.207 77.6021 436.207 73.0892ZM465.812 66.5662C465.812 64.8103 465.467 63.4236 464.778 62.4062C464.089 61.3723 463.145 60.6338 461.947 60.1908C460.749 59.7313 459.379 59.5015 457.836 59.5015H452.938V73.9754H457.664C459.256 73.9754 460.659 73.7621 461.873 73.3354C463.088 72.8923 464.048 72.1374 464.753 71.0708C465.459 69.9877 465.812 68.4862 465.812 66.5662ZM470.39 66.5169C470.39 69.159 469.824 71.2759 468.692 72.8677C467.576 74.4595 466.033 75.6164 464.064 76.3385C462.095 77.0605 459.83 77.4215 457.27 77.4215H452.938V90H448.655V56.1046H457.32C461.356 56.1046 464.54 56.958 466.87 58.6646C469.217 60.3549 470.39 62.9723 470.39 66.5169ZM499.749 73.0892C499.749 75.4851 499.528 77.6841 499.085 79.6862C498.642 81.6882 497.903 83.4523 496.869 84.9785C495.852 86.5046 494.473 87.7436 492.734 88.6954C494.326 89.0072 495.679 89.4749 496.795 90.0985C497.928 90.7221 498.879 91.5672 499.651 92.6338C500.438 93.7169 501.111 95.0872 501.669 96.7446L497.165 98.5169C496.492 96.7774 495.721 95.3087 494.851 94.1108C493.997 92.9128 492.923 92.0021 491.626 91.3785C490.346 90.7713 488.73 90.4677 486.777 90.4677C484.184 90.4677 481.985 89.7538 480.18 88.3262C478.391 86.8821 477.037 84.8636 476.118 82.2708C475.199 79.6779 474.74 76.6338 474.74 73.1385C474.74 69.7087 475.208 66.6728 476.143 64.0308C477.095 61.3887 478.498 59.321 480.352 57.8277C482.207 56.3179 484.504 55.5631 487.245 55.5631C490.002 55.5631 492.307 56.2933 494.162 57.7538C496.016 59.2144 497.411 61.2574 498.346 63.8831C499.282 66.5087 499.749 69.5774 499.749 73.0892ZM495.318 73.0892C495.318 68.56 494.687 65.1056 493.423 62.7262C492.176 60.3303 490.116 59.1323 487.245 59.1323C484.389 59.1323 482.33 60.3385 481.066 62.7508C479.803 65.1467 479.171 68.6092 479.171 73.1385C479.171 77.6513 479.819 81.0892 481.115 83.4523C482.428 85.799 484.471 86.9723 487.245 86.9723C490.1 86.9723 492.159 85.7908 493.423 83.4277C494.687 81.0482 495.318 77.6021 495.318 73.0892ZM528.493 65.6062C528.493 67.2964 528.124 68.7733 527.385 70.0369C526.663 71.3005 525.678 72.3426 524.431 73.1631C523.184 73.9836 521.781 74.5826 520.222 74.96L530.265 90H525.145L515.89 75.4523H511.311V90H507.028V56.1046H515.742C519.927 56.1046 523.094 56.9087 525.244 58.5169C527.41 60.1087 528.493 62.4718 528.493 65.6062ZM523.914 65.6062C523.914 63.4236 523.291 61.8646 522.044 60.9292C520.796 59.9774 518.86 59.5015 516.234 59.5015H511.311V72.1046H516.234C518.663 72.1046 520.55 71.6123 521.896 70.6277C523.242 69.6267 523.914 67.9528 523.914 65.6062ZM557.975 80.6215C557.975 82.5579 557.491 84.281 556.522 85.7908C555.554 87.2841 554.151 88.4574 552.313 89.3108C550.475 90.1477 548.235 90.5662 545.593 90.5662C543.115 90.5662 540.867 90.1887 538.849 89.4338C536.847 88.679 535.132 87.6123 533.704 86.2338L536.239 83.3785C537.421 84.4779 538.775 85.3559 540.301 86.0123C541.827 86.6523 543.616 86.9723 545.667 86.9723C547.046 86.9723 548.334 86.7508 549.532 86.3077C550.73 85.8482 551.698 85.159 552.436 84.24C553.175 83.3046 553.544 82.1231 553.544 80.6954C553.544 79.5959 553.331 78.6605 552.904 77.8892C552.477 77.1179 551.722 76.4369 550.639 75.8462C549.556 75.239 548.047 74.6482 546.11 74.0738C543.878 73.4174 541.942 72.679 540.301 71.8585C538.676 71.0215 537.413 69.9959 536.51 68.7815C535.624 67.5672 535.181 66.0656 535.181 64.2769C535.181 62.5867 535.649 61.0851 536.584 59.7723C537.519 58.4595 538.808 57.4338 540.449 56.6954C542.106 55.9405 544.01 55.5631 546.159 55.5631C548.506 55.5631 550.541 55.8995 552.264 56.5723C554.004 57.2287 555.579 58.1805 556.99 59.4277L554.479 62.2092C553.265 61.1262 551.96 60.3467 550.566 59.8708C549.171 59.3785 547.751 59.1323 546.307 59.1323C545.076 59.1323 543.944 59.321 542.91 59.6985C541.893 60.0595 541.072 60.6092 540.449 61.3477C539.841 62.0697 539.538 62.9969 539.538 64.1292C539.538 65.0974 539.8 65.9344 540.326 66.64C540.851 67.3456 541.737 67.9938 542.984 68.5846C544.231 69.159 545.93 69.7662 548.079 70.4062C549.835 70.9149 551.46 71.5549 552.953 72.3262C554.463 73.081 555.677 74.1149 556.596 75.4277C557.515 76.7241 557.975 78.4554 557.975 80.6215ZM577.906 59.7723V90H573.648V59.7723H563.063V56.1046H588.638L588.195 59.7723H577.906ZM616.594 56.1046V79.0215C616.594 81.3026 616.127 83.3128 615.191 85.0523C614.272 86.7918 612.968 88.1456 611.277 89.1138C609.603 90.0821 607.626 90.5662 605.345 90.5662C603.015 90.5662 601.013 90.0821 599.339 89.1138C597.681 88.1292 596.41 86.7672 595.523 85.0277C594.637 83.2882 594.194 81.2862 594.194 79.0215V56.1046H598.428V79.1692C598.428 81.7456 599.027 83.6738 600.225 84.9538C601.439 86.2338 603.146 86.8738 605.345 86.8738C607.56 86.8738 609.267 86.2338 610.465 84.9538C611.679 83.6738 612.287 81.7456 612.287 79.1692V56.1046H616.594ZM635.024 85.1508L644.181 56.1046H648.489L637.141 90H632.71L621.362 56.1046H625.965L635.024 85.1508ZM679.004 56.1046L673.835 90H668.223L664.334 64.4246L660.42 90H654.684L649.909 56.1046H654.192L657.811 85.2985L661.872 60.0431H667.115L670.98 85.2985L675.041 56.1046H679.004ZM681.656 56.1046H686.554L693.988 69.1262L701.446 56.1046H706.074L696.45 71.7108L707.231 90H702.333L693.89 74.6892L685.348 90H680.745L691.379 71.9323L681.656 56.1046ZM725.685 76.9292V90H721.353V76.9785L709.907 56.1046H714.633L723.618 73.0892L732.701 56.1046H737.132L725.685 76.9292ZM746.503 86.3077H764.25L763.734 90H741.801V86.5292L759.721 59.7477H743.574V56.1046H764.3V59.6L746.503 86.3077ZM18.3877 104.105V137.015H14.2523V108.585L6.47385 113.311L4.67692 110.357L14.7692 104.105H18.3877ZM25.4769 134.628V138H5.90769V134.628H25.4769ZM42.7989 103.563C44.9323 103.563 46.7538 103.973 48.2636 104.794C49.7897 105.614 50.963 106.738 51.7836 108.166C52.6041 109.594 53.0143 111.21 53.0143 113.015C53.0143 114.574 52.7436 116.101 52.202 117.594C51.6605 119.071 50.7907 120.63 49.5928 122.271C48.4112 123.895 46.8523 125.701 44.9159 127.686C42.9959 129.672 40.6328 131.936 37.8266 134.48H53.802L53.2851 138H33.1251V134.628C35.6851 132.183 37.8595 130.041 39.6482 128.203C41.4533 126.365 42.9384 124.757 44.1036 123.378C45.2851 121.984 46.2041 120.72 46.8605 119.588C47.5333 118.455 48.001 117.381 48.2636 116.363C48.5261 115.329 48.6574 114.263 48.6574 113.163C48.6574 111.259 48.1159 109.758 47.0328 108.658C45.9661 107.559 44.4892 107.009 42.602 107.009C40.9282 107.009 39.5579 107.296 38.4912 107.871C37.4246 108.445 36.3579 109.364 35.2912 110.628L32.4359 108.412C33.7815 106.771 35.2748 105.557 36.9159 104.769C38.5569 103.965 40.5179 103.563 42.7989 103.563ZM72.281 103.563C74.4143 103.563 76.2522 103.949 77.7948 104.72C79.3538 105.475 80.5599 106.501 81.4133 107.797C82.2666 109.077 82.6933 110.488 82.6933 112.031C82.6933 113.393 82.3897 114.632 81.7825 115.748C81.1753 116.864 80.3712 117.783 79.3702 118.505C78.3692 119.227 77.2697 119.703 76.0717 119.932C77.401 120.031 78.6481 120.408 79.8133 121.065C80.9784 121.705 81.9302 122.624 82.6687 123.822C83.4071 125.003 83.7763 126.472 83.7763 128.228C83.7763 130.181 83.284 131.945 82.2994 133.52C81.3148 135.079 79.9363 136.31 78.164 137.212C76.4081 138.115 74.3569 138.566 72.0102 138.566C70.123 138.566 68.2358 138.205 66.3487 137.483C64.4779 136.761 62.8943 135.612 61.5979 134.037L64.3794 131.772C65.3476 132.905 66.4963 133.75 67.8256 134.308C69.1712 134.866 70.5333 135.145 71.9117 135.145C74.2748 135.145 76.121 134.529 77.4502 133.298C78.7794 132.051 79.444 130.361 79.444 128.228C79.444 126.619 79.1322 125.348 78.5087 124.412C77.9015 123.477 77.0728 122.812 76.0225 122.418C74.9722 122.008 73.7743 121.803 72.4287 121.803H69.5733L70.0902 118.529H72.084C73.1835 118.529 74.2174 118.324 75.1856 117.914C76.1702 117.487 76.9743 116.831 77.5979 115.945C78.2215 115.058 78.5333 113.951 78.5333 112.622C78.5333 110.751 77.9097 109.323 76.6625 108.338C75.4153 107.354 73.9056 106.862 72.1333 106.862C70.6563 106.862 69.3681 107.124 68.2687 107.649C67.1692 108.158 66.0615 108.937 64.9456 109.988L62.6563 107.452C64.1004 106.09 65.6348 105.106 67.2594 104.498C68.884 103.875 70.5579 103.563 72.281 103.563ZM102.083 103.563L105.529 105.015L96.5199 126.455H114.612V129.754H92.1384V126.751L102.083 103.563ZM110.231 116.831V138H106.243L106.218 127.243L106.785 116.831H110.231ZM142.1 104.105L141.485 107.403H128.094V118.086C129.128 117.528 130.104 117.151 131.023 116.954C131.959 116.741 132.935 116.634 133.953 116.634C135.791 116.634 137.407 117.052 138.802 117.889C140.197 118.71 141.28 119.916 142.051 121.508C142.822 123.099 143.208 125.019 143.208 127.268C143.208 129.516 142.732 131.493 141.78 133.2C140.845 134.907 139.524 136.228 137.817 137.163C136.111 138.098 134.084 138.566 131.737 138.566C129.702 138.566 127.881 138.205 126.273 137.483C124.681 136.761 123.229 135.76 121.916 134.48L124.476 132.018C125.51 133.069 126.617 133.856 127.799 134.382C128.997 134.89 130.326 135.145 131.787 135.145C134.018 135.145 135.758 134.472 137.005 133.126C138.252 131.764 138.876 129.77 138.876 127.145C138.876 125.323 138.605 123.887 138.063 122.837C137.522 121.787 136.783 121.04 135.848 120.597C134.929 120.137 133.903 119.908 132.771 119.908C131.77 119.908 130.884 120.006 130.113 120.203C129.341 120.384 128.463 120.663 127.479 121.04H124.156V104.105H142.1ZM164.173 103.563C165.486 103.563 166.692 103.735 167.792 104.08C168.891 104.408 169.917 104.892 170.869 105.532L169.244 108.338C168.473 107.863 167.652 107.51 166.782 107.28C165.929 107.034 165.035 106.911 164.099 106.911C162.294 106.911 160.76 107.518 159.496 108.732C158.233 109.93 157.281 111.629 156.641 113.828C156.001 116.01 155.689 118.578 155.705 121.532L155.755 123.132C155.755 127.301 156.304 130.361 157.404 132.314C158.503 134.25 160.3 135.218 162.795 135.218C164.944 135.218 166.553 134.455 167.619 132.929C168.702 131.403 169.244 129.327 169.244 126.702C169.244 124.847 168.99 123.387 168.481 122.32C167.989 121.237 167.291 120.466 166.389 120.006C165.486 119.547 164.436 119.317 163.238 119.317C161.482 119.317 159.931 119.842 158.585 120.892C157.24 121.943 156.149 123.288 155.312 124.929L155.213 121.286C156.329 119.383 157.601 118.012 159.029 117.175C160.456 116.338 162.073 115.92 163.878 115.92C165.634 115.92 167.234 116.306 168.678 117.077C170.122 117.848 171.279 119.03 172.149 120.622C173.035 122.197 173.478 124.191 173.478 126.603C173.478 129.097 173.002 131.239 172.05 133.028C171.098 134.8 169.81 136.17 168.185 137.138C166.561 138.09 164.772 138.566 162.819 138.566C160.752 138.566 159.004 138.181 157.576 137.409C156.149 136.622 154.992 135.506 154.105 134.062C153.219 132.601 152.571 130.853 152.161 128.818C151.767 126.767 151.57 124.486 151.57 121.975C151.57 118.234 152.062 114.985 153.047 112.228C154.048 109.471 155.484 107.337 157.355 105.828C159.242 104.318 161.515 103.563 164.173 103.563ZM188.535 138.468L184.671 137.286L197.889 107.551H181.987V104.105H202.049V107.28L188.535 138.468ZM231.654 112.178C231.654 113.819 231.145 115.247 230.128 116.462C229.111 117.659 227.658 118.775 225.771 119.809C227.986 120.728 229.751 121.951 231.063 123.477C232.376 125.003 233.033 126.816 233.033 128.917C233.033 130.755 232.557 132.404 231.605 133.865C230.653 135.325 229.307 136.474 227.568 137.311C225.845 138.148 223.785 138.566 221.39 138.566C218.977 138.566 216.91 138.148 215.186 137.311C213.48 136.457 212.175 135.309 211.273 133.865C210.386 132.421 209.943 130.796 209.943 128.991C209.943 126.907 210.559 125.151 211.79 123.723C213.037 122.279 214.686 121.089 216.737 120.154C214.948 119.301 213.595 118.267 212.676 117.052C211.773 115.838 211.322 114.287 211.322 112.4C211.322 110.841 211.634 109.512 212.257 108.412C212.897 107.296 213.718 106.377 214.719 105.655C215.736 104.933 216.836 104.408 218.017 104.08C219.215 103.735 220.372 103.563 221.488 103.563C222.719 103.563 223.933 103.735 225.131 104.08C226.345 104.408 227.445 104.925 228.43 105.631C229.414 106.32 230.194 107.206 230.768 108.289C231.359 109.372 231.654 110.669 231.654 112.178ZM228.676 128.966C228.676 127.44 228.29 126.234 227.519 125.348C226.747 124.462 225.681 123.723 224.319 123.132C222.957 122.542 221.381 121.943 219.593 121.335C218.657 121.762 217.787 122.304 216.983 122.96C216.179 123.616 215.531 124.437 215.039 125.422C214.546 126.39 214.3 127.588 214.3 129.015C214.3 130.935 214.891 132.453 216.073 133.569C217.271 134.669 219.035 135.218 221.365 135.218C223.728 135.218 225.533 134.628 226.78 133.446C228.044 132.248 228.676 130.755 228.676 128.966ZM215.408 112.449C215.408 113.746 215.703 114.763 216.294 115.502C216.901 116.24 217.763 116.847 218.879 117.323C219.995 117.783 221.316 118.267 222.842 118.775C224.417 117.873 225.599 116.962 226.386 116.043C227.174 115.108 227.568 113.869 227.568 112.326C227.568 110.619 227.035 109.266 225.968 108.265C224.918 107.264 223.424 106.763 221.488 106.763C219.568 106.763 218.075 107.264 217.008 108.265C215.941 109.266 215.408 110.661 215.408 112.449ZM250.502 103.612C252.964 103.612 255.015 104.178 256.656 105.311C258.297 106.443 259.52 108.043 260.324 110.111C261.144 112.178 261.555 114.632 261.555 117.471C261.555 120.884 261.202 123.781 260.496 126.16C259.807 128.523 258.732 130.501 257.272 132.092C255.811 133.684 253.94 135.022 251.659 136.105C249.378 137.188 246.654 138.164 243.487 139.034L242.527 135.883C245.743 134.981 248.418 133.914 250.552 132.683C252.685 131.436 254.301 129.869 255.401 127.982C256.5 126.078 257.091 123.715 257.173 120.892L257.247 118.529C257.263 115.707 257.025 113.45 256.533 111.76C256.057 110.053 255.319 108.831 254.318 108.092C253.333 107.337 252.061 106.96 250.502 106.96C248.303 106.96 246.638 107.633 245.505 108.978C244.373 110.324 243.807 112.293 243.807 114.886C243.807 117.463 244.348 119.342 245.432 120.523C246.531 121.688 248.049 122.271 249.985 122.271C251.676 122.271 253.136 121.795 254.367 120.843C255.598 119.891 256.763 118.611 257.862 117.003L257.838 120.597C256.837 122.041 255.631 123.231 254.219 124.166C252.808 125.102 251.142 125.569 249.222 125.569C247.335 125.569 245.661 125.134 244.201 124.265C242.74 123.395 241.592 122.156 240.755 120.548C239.934 118.939 239.524 117.003 239.524 114.738C239.524 112.326 240.016 110.291 241.001 108.634C241.985 106.976 243.306 105.729 244.964 104.892C246.621 104.039 248.467 103.612 250.502 103.612ZM280.55 103.563C284.21 103.563 286.975 105.073 288.846 108.092C290.717 111.112 291.652 115.428 291.652 121.04C291.652 126.669 290.717 131.001 288.846 134.037C286.975 137.056 284.21 138.566 280.55 138.566C276.907 138.566 274.142 137.056 272.255 134.037C270.384 131.001 269.449 126.669 269.449 121.04C269.449 115.428 270.384 111.112 272.255 108.092C274.142 105.073 276.907 103.563 280.55 103.563ZM280.55 106.886C278.466 106.886 276.825 107.994 275.627 110.209C274.429 112.408 273.83 116.018 273.83 121.04C273.83 123.584 273.962 125.758 274.224 127.563C274.487 129.368 274.889 130.837 275.43 131.969C275.988 133.085 276.686 133.906 277.523 134.431C278.376 134.956 279.385 135.218 280.55 135.218C281.962 135.218 283.168 134.734 284.169 133.766C285.186 132.798 285.958 131.272 286.483 129.188C287.024 127.087 287.295 124.371 287.295 121.04C287.295 117.659 287.057 114.927 286.581 112.843C286.122 110.759 285.392 109.249 284.39 108.314C283.406 107.362 282.126 106.886 280.55 106.886ZM285.547 108.092L286.63 111.711L275.849 133.545L274.323 130.665L285.547 108.092ZM310.082 129.902C311.214 129.902 312.158 130.287 312.912 131.058C313.684 131.83 314.069 132.757 314.069 133.84C314.069 134.431 313.996 135.03 313.848 135.637C313.717 136.244 313.47 136.933 313.109 137.705L309.122 146.837H305.38L307.743 137.114C307.251 136.753 306.857 136.285 306.562 135.711C306.283 135.12 306.143 134.496 306.143 133.84C306.143 132.741 306.521 131.813 307.276 131.058C308.03 130.287 308.966 129.902 310.082 129.902ZM335.256 134.209C335.256 133.405 335.445 132.683 335.822 132.043C336.2 131.387 336.708 130.87 337.348 130.492C338.005 130.098 338.743 129.902 339.564 129.902C340.401 129.902 341.147 130.098 341.804 130.492C342.46 130.87 342.977 131.387 343.355 132.043C343.732 132.683 343.921 133.405 343.921 134.209C343.921 135.013 343.732 135.752 343.355 136.425C342.977 137.081 342.46 137.606 341.804 138C341.147 138.377 340.401 138.566 339.564 138.566C338.743 138.566 338.005 138.377 337.348 138C336.708 137.606 336.2 137.081 335.822 136.425C335.445 135.752 335.256 135.013 335.256 134.209ZM369.095 129.852C370.244 129.852 371.196 130.246 371.95 131.034C372.722 131.805 373.107 132.724 373.107 133.791C373.107 134.398 373.033 135.005 372.886 135.612C372.754 136.219 372.5 136.917 372.123 137.705L368.135 146.862H364.393L366.757 137.089C365.673 136.334 365.132 135.243 365.132 133.815C365.132 132.716 365.509 131.781 366.264 131.009C367.036 130.238 367.979 129.852 369.095 129.852ZM369.095 112.843C370.244 112.843 371.196 113.229 371.95 114C372.722 114.771 373.107 115.707 373.107 116.806C373.107 117.889 372.722 118.833 371.95 119.637C371.196 120.425 370.244 120.818 369.095 120.818C367.979 120.818 367.036 120.425 366.264 119.637C365.509 118.833 365.132 117.889 365.132 116.806C365.132 116.051 365.304 115.378 365.649 114.788C365.993 114.197 366.469 113.729 367.077 113.385C367.684 113.024 368.357 112.843 369.095 112.843ZM394.663 134.554C394.663 133.487 395.041 132.56 395.795 131.772C396.567 130.985 397.51 130.591 398.626 130.591C399.775 130.591 400.727 130.985 401.482 131.772C402.253 132.56 402.639 133.487 402.639 134.554C402.639 135.67 402.253 136.622 401.482 137.409C400.727 138.181 399.775 138.566 398.626 138.566C397.51 138.566 396.567 138.181 395.795 137.409C395.041 136.622 394.663 135.67 394.663 134.554ZM394.663 116.806C394.663 116.051 394.835 115.378 395.18 114.788C395.525 114.197 396.001 113.729 396.608 113.385C397.215 113.024 397.888 112.843 398.626 112.843C399.775 112.843 400.727 113.229 401.482 114C402.253 114.771 402.639 115.707 402.639 116.806C402.639 117.889 402.253 118.833 401.482 119.637C400.727 120.425 399.775 120.818 398.626 120.818C397.51 120.818 396.567 120.425 395.795 119.637C395.041 118.833 394.663 117.889 394.663 116.806ZM430.397 104.105L429.979 126.825H426.262L425.77 104.105H430.397ZM428.157 131.969C429.109 131.969 429.897 132.289 430.521 132.929C431.161 133.569 431.481 134.341 431.481 135.243C431.481 136.162 431.161 136.95 430.521 137.606C429.897 138.246 429.109 138.566 428.157 138.566C427.222 138.566 426.443 138.246 425.819 137.606C425.195 136.95 424.884 136.162 424.884 135.243C424.884 134.341 425.195 133.569 425.819 132.929C426.443 132.289 427.222 131.969 428.157 131.969ZM457.713 103.563C459.732 103.563 461.463 103.924 462.907 104.646C464.368 105.368 465.484 106.312 466.255 107.477C467.026 108.626 467.412 109.848 467.412 111.145C467.412 112.72 467.116 114.008 466.526 115.009C465.935 115.994 465.196 116.831 464.31 117.52C463.441 118.193 462.563 118.857 461.676 119.514C460.79 120.154 460.044 120.909 459.436 121.778C458.846 122.648 458.55 123.764 458.55 125.126V126.825H454.39V124.88C454.39 123.288 454.677 121.967 455.252 120.917C455.843 119.867 456.573 118.972 457.443 118.234C458.312 117.495 459.182 116.814 460.052 116.191C460.922 115.551 461.652 114.862 462.243 114.123C462.833 113.385 463.129 112.474 463.129 111.391C463.129 109.996 462.571 108.921 461.455 108.166C460.339 107.395 458.952 107.009 457.295 107.009C456.13 107.009 454.932 107.296 453.701 107.871C452.47 108.429 451.346 109.339 450.329 110.603L447.375 108.437C448.819 106.747 450.403 105.516 452.126 104.745C453.865 103.957 455.728 103.563 457.713 103.563ZM456.581 131.969C457.533 131.969 458.329 132.289 458.969 132.929C459.609 133.569 459.929 134.341 459.929 135.243C459.929 136.162 459.609 136.95 458.969 137.606C458.329 138.246 457.533 138.566 456.581 138.566C455.662 138.566 454.891 138.246 454.267 137.606C453.644 136.95 453.332 136.162 453.332 135.243C453.332 134.341 453.644 133.569 454.267 132.929C454.891 132.289 455.662 131.969 456.581 131.969ZM486.457 103.563C489.001 103.563 491.142 103.949 492.882 104.72C494.637 105.475 496.065 106.517 497.165 107.846C498.281 109.175 499.134 110.718 499.725 112.474C500.332 114.213 500.75 116.068 500.98 118.037C501.21 119.99 501.325 121.975 501.325 123.994C501.325 128.129 501.128 131.567 500.734 134.308C500.356 137.032 499.651 139.067 498.617 140.412C497.583 141.774 496.073 142.455 494.088 142.455C493.07 142.455 492.192 142.209 491.454 141.717C490.715 141.225 490.108 140.601 489.632 139.846C489.156 139.108 488.812 138.345 488.598 137.557C488.385 136.753 488.287 136.055 488.303 135.465H488.106C487.811 136.219 487.384 136.966 486.826 137.705C486.285 138.427 485.571 139.026 484.685 139.502C483.798 139.994 482.699 140.24 481.386 140.24C479.597 140.24 478.153 139.756 477.054 138.788C475.971 137.819 475.183 136.482 474.691 134.775C474.198 133.069 473.952 131.132 473.952 128.966C473.952 124.683 474.806 121.499 476.512 119.415C478.219 117.315 480.582 116.265 483.602 116.265C484.75 116.265 485.85 116.388 486.9 116.634C487.95 116.88 489.165 117.372 490.543 118.111V132.658C490.543 134.431 490.699 135.785 491.011 136.72C491.323 137.639 491.741 138.271 492.266 138.615C492.791 138.96 493.374 139.132 494.014 139.132C494.785 139.132 495.384 138.747 495.811 137.975C496.237 137.204 496.541 136.129 496.722 134.751C496.902 133.372 497.009 131.772 497.042 129.951C497.074 128.113 497.091 126.144 497.091 124.043C497.091 121.696 496.959 119.506 496.697 117.471C496.434 115.419 495.934 113.623 495.195 112.08C494.457 110.537 493.39 109.331 491.995 108.462C490.601 107.592 488.771 107.157 486.506 107.157C484.914 107.157 483.175 107.452 481.288 108.043C479.417 108.617 477.431 109.832 475.331 111.686L472.968 108.929C475.167 107.009 477.415 105.639 479.712 104.818C482.026 103.982 484.274 103.563 486.457 103.563ZM483.798 119.317C481.55 119.317 480.016 120.129 479.195 121.754C478.375 123.378 477.965 125.783 477.965 128.966C477.965 130.574 478.079 131.994 478.309 133.225C478.555 134.439 478.966 135.399 479.54 136.105C480.114 136.794 480.894 137.138 481.878 137.138C483.027 137.138 483.93 136.876 484.586 136.351C485.259 135.826 485.768 135.227 486.112 134.554C486.473 133.865 486.752 133.282 486.949 132.806V120.055C486.441 119.793 485.932 119.604 485.423 119.489C484.931 119.374 484.389 119.317 483.798 119.317ZM524.604 115.551L523.151 126.455H527.139V129.655H522.684L521.65 138H518.105L519.213 129.655H512.05L510.967 138H507.422L508.53 129.655H504.64V126.455H508.948L510.45 115.551H506.462V112.326H510.868L511.951 104.105H515.496L514.314 112.326H521.551L522.634 104.105H526.179L525.022 112.326H528.96V115.551H524.604ZM512.468 126.455H519.631L521.133 115.551H513.92L512.468 126.455ZM548.572 96.2277V103.637C550.541 103.85 552.289 104.326 553.815 105.065C555.341 105.803 556.613 106.648 557.63 107.6L555.095 110.209C554.143 109.323 553.126 108.617 552.042 108.092C550.959 107.551 549.802 107.206 548.572 107.058V118.283C550.229 118.825 551.772 119.522 553.199 120.375C554.644 121.229 555.809 122.32 556.695 123.649C557.581 124.978 558.024 126.652 558.024 128.671C558.024 130.23 557.671 131.698 556.966 133.077C556.26 134.439 555.201 135.596 553.79 136.548C552.395 137.483 550.656 138.09 548.572 138.369V145.532H545.249V138.517C542.918 138.369 540.892 137.828 539.169 136.892C537.462 135.957 536.059 134.956 534.959 133.889L537.421 131.157C538.455 132.207 539.612 133.085 540.892 133.791C542.188 134.48 543.64 134.89 545.249 135.022V121.385C542.377 120.433 540.153 119.21 538.578 117.717C537.019 116.207 536.239 114.312 536.239 112.031C536.239 110.702 536.568 109.438 537.224 108.24C537.897 107.026 538.898 106 540.227 105.163C541.573 104.326 543.247 103.817 545.249 103.637V96.2277H548.572ZM548.572 122.542V134.8C551.903 134.127 553.569 132.101 553.569 128.72C553.569 127.342 553.199 126.16 552.461 125.175C551.739 124.191 550.442 123.313 548.572 122.542ZM545.249 107.157C543.903 107.387 542.795 107.904 541.926 108.708C541.072 109.495 540.646 110.578 540.646 111.957C540.646 113.106 540.957 114.082 541.581 114.886C542.221 115.69 543.444 116.462 545.249 117.2V107.157ZM574.829 103.612C576.306 103.612 577.709 103.85 579.038 104.326C580.368 104.802 581.705 105.778 583.051 107.255L580.565 109.52C579.728 108.568 578.858 107.863 577.955 107.403C577.069 106.944 576.011 106.714 574.78 106.714C573.057 106.714 571.76 107.182 570.891 108.117C570.021 109.036 569.586 110.226 569.586 111.686C569.586 112.687 569.857 113.623 570.398 114.492C570.94 115.346 571.67 116.035 572.589 116.56C573.508 117.085 574.526 117.348 575.641 117.348H589.328V120.597H584.921V133.988C584.429 134.628 583.748 135.301 582.878 136.006C582.025 136.712 580.926 137.319 579.58 137.828C578.234 138.32 576.61 138.566 574.706 138.566C572.146 138.566 570.054 138.074 568.429 137.089C566.821 136.105 565.631 134.841 564.86 133.298C564.105 131.739 563.728 130.115 563.728 128.425C563.728 125.881 564.392 123.797 565.721 122.172C567.067 120.548 568.979 119.481 571.457 118.972V118.825C569.963 118.48 568.782 117.947 567.912 117.225C567.059 116.486 566.443 115.641 566.066 114.689C565.705 113.721 565.525 112.728 565.525 111.711C565.525 110.25 565.902 108.913 566.657 107.698C567.412 106.468 568.487 105.483 569.881 104.745C571.276 103.99 572.926 103.612 574.829 103.612ZM581.155 120.597H575.051C573.344 120.597 571.957 120.999 570.891 121.803C569.824 122.591 569.036 123.575 568.528 124.757C568.035 125.922 567.789 127.095 567.789 128.277C567.789 129.458 568.027 130.583 568.503 131.649C568.995 132.716 569.75 133.577 570.768 134.234C571.801 134.89 573.147 135.218 574.805 135.218C576.183 135.218 577.414 134.997 578.497 134.554C579.596 134.094 580.482 133.446 581.155 132.609V120.597ZM615.462 103.194L618.12 104.917L594.81 138.985L592.225 137.262L615.462 103.194ZM612.09 125.422C611.121 125.422 610.301 125.815 609.628 126.603C608.955 127.374 608.619 128.622 608.619 130.345C608.619 131.936 608.947 133.175 609.603 134.062C610.26 134.948 611.089 135.391 612.09 135.391C613.074 135.391 613.887 134.989 614.527 134.185C615.183 133.381 615.511 132.101 615.511 130.345C615.511 128.572 615.183 127.309 614.527 126.554C613.887 125.799 613.074 125.422 612.09 125.422ZM598.797 106.517C597.829 106.517 597.009 106.919 596.336 107.723C595.663 108.527 595.327 109.766 595.327 111.44C595.327 113.048 595.655 114.295 596.311 115.182C596.968 116.051 597.796 116.486 598.797 116.486C599.782 116.486 600.594 116.084 601.234 115.28C601.891 114.476 602.219 113.196 602.219 111.44C602.219 109.668 601.891 108.404 601.234 107.649C600.594 106.894 599.782 106.517 598.797 106.517ZM598.797 103.563C600.34 103.563 601.644 103.924 602.711 104.646C603.778 105.368 604.59 106.328 605.148 107.526C605.722 108.724 606.01 110.029 606.01 111.44C606.01 112.818 605.722 114.115 605.148 115.329C604.59 116.544 603.778 117.528 602.711 118.283C601.644 119.022 600.34 119.391 598.797 119.391C597.271 119.391 595.967 119.022 594.883 118.283C593.8 117.528 592.972 116.544 592.397 115.329C591.823 114.115 591.536 112.818 591.536 111.44C591.536 110.012 591.823 108.708 592.397 107.526C592.972 106.328 593.8 105.368 594.883 104.646C595.967 103.924 597.271 103.563 598.797 103.563ZM612.09 122.443C613.632 122.443 614.937 122.812 616.003 123.551C617.07 124.273 617.882 125.233 618.44 126.431C619.015 127.629 619.302 128.933 619.302 130.345C619.302 131.739 619.015 133.044 618.44 134.258C617.882 135.456 617.07 136.433 616.003 137.188C614.937 137.926 613.632 138.295 612.09 138.295C610.563 138.295 609.259 137.926 608.176 137.188C607.093 136.433 606.264 135.456 605.69 134.258C605.115 133.044 604.828 131.739 604.828 130.345C604.828 128.917 605.115 127.604 605.69 126.406C606.264 125.208 607.093 124.248 608.176 123.526C609.259 122.804 610.563 122.443 612.09 122.443ZM639.184 107.378L629.239 102.8L631.455 99.28L640.538 105.089L639.184 107.378ZM659.804 118.283C661.035 118.283 662.077 118.529 662.931 119.022C663.8 119.514 664.572 120.088 665.244 120.745C665.917 121.401 666.565 121.975 667.189 122.468C667.813 122.96 668.502 123.206 669.257 123.206C670.274 123.206 671.185 122.804 671.989 122C672.793 121.196 673.507 120.203 674.131 119.022L677.084 120.548C676.609 121.483 676.026 122.435 675.337 123.403C674.647 124.355 673.802 125.159 672.801 125.815C671.8 126.455 670.57 126.775 669.109 126.775C667.96 126.775 666.959 126.529 666.106 126.037C665.269 125.545 664.506 124.97 663.817 124.314C663.144 123.657 662.471 123.083 661.798 122.591C661.142 122.098 660.428 121.852 659.657 121.852C658.59 121.852 657.671 122.254 656.9 123.058C656.129 123.846 655.423 124.831 654.783 126.012L651.829 124.56C652.321 123.592 652.904 122.624 653.577 121.655C654.25 120.687 655.086 119.883 656.087 119.243C657.105 118.603 658.344 118.283 659.804 118.283ZM695.834 96.6708L705.139 112.055H700.634L693.939 100.388L687.268 112.055H682.837L692.142 96.6708H695.834ZM721.427 109.52H725.612L725.292 119.489L734.645 116.166L735.901 120.055L726.375 122.862L732.455 130.738L729.156 133.151L723.519 124.929L717.882 133.151L714.584 130.738L720.664 122.862L711.138 120.055L712.393 116.166L721.747 119.489L721.427 109.52ZM10.4615 168.769C10.4615 171.329 10.6831 173.627 11.1262 175.662C11.5692 177.68 12.2256 179.534 13.0954 181.225C13.9651 182.898 15.0564 184.49 16.3692 186C17.6985 187.526 19.241 189.069 20.9969 190.628L18.8308 192.892C16.1723 190.71 13.8913 188.478 11.9877 186.197C10.1005 183.916 8.6482 181.372 7.63077 178.566C6.62974 175.76 6.12923 172.494 6.12923 168.769C6.12923 165.028 6.62974 161.754 7.63077 158.948C8.6482 156.142 10.1005 153.598 11.9877 151.317C13.8913 149.036 16.1723 146.812 18.8308 144.646L20.9969 146.911C19.2246 148.486 17.6738 150.037 16.3446 151.563C15.0318 153.073 13.9405 154.665 13.0708 156.338C12.201 157.996 11.5446 159.842 11.1015 161.877C10.6749 163.895 10.4615 166.193 10.4615 168.769ZM48.6082 168.769C48.6082 166.193 48.3866 163.895 47.9436 161.877C47.5169 159.842 46.8687 157.996 45.9989 156.338C45.1292 154.665 44.0297 153.073 42.7005 151.563C41.3877 150.037 39.8451 148.486 38.0728 146.911L40.2389 144.646C42.9138 146.812 45.1948 149.036 47.082 151.317C48.9692 153.598 50.4133 156.142 51.4143 158.948C52.4318 161.754 52.9405 165.028 52.9405 168.769C52.9405 172.494 52.4318 175.76 51.4143 178.566C50.4133 181.372 48.9692 183.916 47.082 186.197C45.1948 188.478 42.9138 190.71 40.2389 192.892L38.0728 190.628C39.8287 189.069 41.363 187.526 42.6759 186C44.0051 184.49 45.1046 182.898 45.9743 181.225C46.8441 179.534 47.5005 177.68 47.9436 175.662C48.3866 173.627 48.6082 171.329 48.6082 168.769ZM68.121 191.686V145.852H80.4533V149.422H72.0348V188.166H80.4533V191.686H68.121ZM109.074 145.852V191.686H96.7414V188.191H105.16V149.422H96.7414V145.852H109.074ZM140.353 144.868V148.117C139.155 148.117 138.063 148.24 137.079 148.486C136.111 148.716 135.356 149.118 134.814 149.692C134.289 150.267 134.068 151.054 134.15 152.055L135.183 162.148C135.331 163.526 135.249 164.667 134.937 165.569C134.626 166.472 134.1 167.177 133.362 167.686C132.64 168.195 131.713 168.556 130.58 168.769C131.729 168.966 132.673 169.311 133.411 169.803C134.15 170.279 134.667 170.968 134.962 171.871C135.257 172.757 135.331 173.93 135.183 175.391L134.15 185.483C134.068 186.501 134.289 187.296 134.814 187.871C135.339 188.445 136.094 188.847 137.079 189.077C138.063 189.307 139.155 189.422 140.353 189.422V192.671C138.974 192.671 137.653 192.548 136.39 192.302C135.126 192.072 134.01 191.67 133.042 191.095C132.074 190.521 131.343 189.733 130.851 188.732C130.359 187.748 130.195 186.501 130.359 184.991L131.343 175.637C131.475 174.505 131.368 173.553 131.023 172.782C130.695 172.01 129.973 171.428 128.857 171.034C127.758 170.624 126.109 170.418 123.91 170.418V167.12C126.109 167.12 127.758 166.923 128.857 166.529C129.973 166.135 130.695 165.553 131.023 164.782C131.368 164.01 131.475 163.067 131.343 161.951L130.359 152.548C130.195 151.038 130.359 149.791 130.851 148.806C131.343 147.805 132.066 147.017 133.017 146.443C133.986 145.869 135.101 145.467 136.365 145.237C137.645 144.991 138.974 144.868 140.353 144.868ZM154.967 144.868C156.345 144.868 157.667 144.991 158.93 145.237C160.194 145.467 161.31 145.869 162.278 146.443C163.246 147.017 163.976 147.805 164.469 148.806C164.977 149.791 165.141 151.038 164.961 152.548L163.976 161.951C163.845 163.067 163.984 164.01 164.395 164.782C164.821 165.553 165.593 166.135 166.709 166.529C167.824 166.923 169.392 167.12 171.41 167.12V170.418C169.408 170.418 167.841 170.624 166.709 171.034C165.593 171.428 164.821 172.01 164.395 172.782C163.984 173.553 163.845 174.505 163.976 175.637L164.961 184.991C165.125 186.501 164.961 187.748 164.469 188.732C163.976 189.733 163.246 190.521 162.278 191.095C161.326 191.67 160.21 192.072 158.93 192.302C157.667 192.548 156.345 192.671 154.967 192.671V189.422C156.165 189.422 157.248 189.307 158.216 189.077C159.201 188.847 159.964 188.445 160.505 187.871C161.047 187.296 161.269 186.501 161.17 185.483L160.136 175.391C159.989 173.93 160.071 172.757 160.382 171.871C160.694 170.968 161.252 170.279 162.056 169.803C162.877 169.327 163.952 168.999 165.281 168.818C164.001 168.605 162.951 168.236 162.13 167.711C161.326 167.186 160.76 166.472 160.432 165.569C160.103 164.667 160.005 163.526 160.136 162.148L161.17 152.055C161.269 151.054 161.047 150.267 160.505 149.692C159.964 149.118 159.209 148.716 158.241 148.486C157.273 148.24 156.181 148.117 154.967 148.117V144.868ZM179.649 194.935V191.317H204.264V194.935H179.649ZM231.063 164.24V167.809H211.913V164.24H231.063ZM231.063 173.569V177.163H211.913V173.569H231.063ZM241.148 172.388V168.794H260.89V172.388H241.148ZM282.421 159.145V168.966H292.095V172.437H282.421V182.185H278.557V172.437H269.006V168.966H278.557V159.145H282.421ZM318.574 156.757L320.568 159.932L303.189 170.591L320.568 181.348L318.352 184.375L299.645 172.683V168.449L318.574 156.757ZM331.17 156.757L350.099 168.449V172.683L331.416 184.375L329.176 181.323L346.555 170.591L329.176 159.883L331.17 156.757ZM360.307 191.071L356.96 189.594L378.03 146.148L381.329 147.772L360.307 191.071ZM386.491 147.772L389.789 146.148L410.86 189.594L407.512 191.071L386.491 147.772ZM430.028 146.271V191.022H426.336V146.271H430.028ZM455.916 162.443L455.153 149.643H460.323L459.56 162.443H455.916ZM481.337 162.443L480.549 149.643H485.743L484.98 162.443H481.337ZM489.558 162.443L488.82 149.643H493.989L493.202 162.443H489.558Z" fill="#111111"/>
</svg>
