<svg width="1000" height="200" viewBox="0 0 1000 200" fill="none" xmlns="http://www.w3.org/2000/svg">
<path d="M19.776 31.92V28.224C19.008 28.752 17.952 29.136 16.752 29.376L13.344 30C9.84 30.672 7.968 32.352 7.968 34.944C7.968 37.536 9.84 39.216 12.768 39.216C16.704 39.216 19.776 36.048 19.776 31.92ZM19.872 37.872C18.384 40.752 15.6 42.48 12.048 42.48C7.248 42.48 3.936 39.36 3.936 34.992C3.936 30.72 7.152 27.84 12.768 27.024L16.32 26.496C18.624 26.16 19.776 25.104 19.776 23.28C19.776 20.688 17.568 18.96 14.304 18.96C11.28 18.96 8.976 20.496 8.688 22.656H4.656C4.896 18.624 8.976 15.6 14.304 15.6C19.824 15.6 23.712 18.816 23.712 23.328V32.736C23.712 36.768 24.048 39.792 24.672 42H20.928C20.544 40.896 20.256 39.552 20.064 37.872H19.872ZM44.0933 38.928C48.3653 38.928 51.2933 34.896 51.2933 29.04C51.2933 23.184 48.3653 19.152 44.0933 19.152C39.8213 19.152 36.8453 23.232 36.8453 29.04C36.8453 34.848 39.8213 38.928 44.0933 38.928ZM36.7013 42H33.0053V6.48H36.9413V20.4H37.1813C38.7653 17.328 41.4053 15.6 44.7653 15.6C50.8613 15.6 55.2773 21.264 55.2773 29.04C55.2773 36.816 50.8613 42.48 44.8133 42.48C41.2613 42.48 38.5253 40.56 36.9413 37.152H36.7013V42ZM78.7305 35.376H82.7625C81.8985 39.6 77.9145 42.48 73.1145 42.48C66.3465 42.48 61.4025 36.72 61.4025 28.992C61.4025 21.216 66.2505 15.6 72.9705 15.6C77.8185 15.6 81.7065 18.48 82.4265 22.656H78.4425C77.7225 20.496 75.5625 19.152 72.9225 19.152C68.3625 19.152 65.3385 23.136 65.3385 28.992C65.3385 34.896 68.4585 38.928 73.1625 38.928C75.8505 38.928 78.0585 37.584 78.7305 35.376ZM99.9758 38.928C104.2 38.928 107.08 34.848 107.08 29.04C107.08 23.184 104.2 19.152 100.024 19.152C95.7518 19.152 92.6797 23.328 92.6797 29.04C92.6797 34.752 95.7518 38.928 99.9758 38.928ZM107.128 37.344H106.888C105.304 40.608 102.616 42.48 99.1598 42.48C93.1118 42.48 88.6478 36.816 88.6478 29.04C88.6478 21.312 93.1118 15.6 99.1598 15.6C102.52 15.6 105.16 17.328 106.744 20.448H106.984V6.48H110.968V33.36C110.968 35.808 111.112 38.976 111.304 42H107.512C107.32 40.368 107.224 38.88 107.128 37.344ZM122.853 26.64H136.437C136.197 22.08 133.461 19.056 129.765 19.056C126.165 19.056 123.477 21.984 122.853 26.64ZM140.325 29.76H122.709C122.997 35.328 125.925 38.976 130.341 38.976C133.029 38.976 135.189 37.584 135.957 35.376H139.845C138.885 39.648 135.045 42.48 130.293 42.48C123.573 42.48 118.773 36.816 118.773 28.896C118.773 21.12 123.333 15.6 129.765 15.6C135.957 15.6 140.325 20.784 140.325 28.272V29.76ZM155.138 42V19.632H147.794V16.08H155.138V15.12C155.138 9.168 158.066 6 163.586 6C165.506 6 167.234 6.384 168.578 7.104V10.416C167.138 9.696 165.698 9.312 164.162 9.312C160.754 9.312 159.074 11.232 159.074 15.12V16.08H168.098V19.632H159.074V42H155.138ZM187.088 29.76C190.16 29.76 192.32 27.552 192.32 24.432C192.32 21.264 190.16 19.104 187.088 19.104C183.968 19.104 181.808 21.264 181.808 24.432C181.808 27.552 183.968 29.76 187.088 29.76ZM190.16 40.752H184.016C181.616 40.752 179.792 42.384 179.792 44.448C179.792 47.04 182.816 48.768 187.328 48.768C191.984 48.768 195.056 46.944 195.056 44.16C195.056 42 193.232 40.752 190.16 40.752ZM180.368 39.12C179.023 38.304 178.208 36.96 178.208 35.28C178.208 33.456 179.264 31.92 180.992 31.008C179.12 29.424 177.968 27.072 177.968 24.288C177.968 19.248 181.76 15.6 187.088 15.6C188.192 15.6 189.248 15.744 190.256 16.08H198.704V19.392H194.72C195.68 20.736 196.208 22.416 196.208 24.288C196.208 29.376 192.32 33.12 187.088 33.12C185.744 33.12 184.496 32.88 183.392 32.448C182.336 32.928 181.664 33.792 181.664 34.848C181.664 36.144 182.624 37.056 183.92 37.056H190.4C195.632 37.056 198.992 39.696 198.992 43.728C198.992 48.624 194.096 52.08 187.184 52.08C180.752 52.08 176.192 49.056 176.192 44.832C176.192 42.24 177.824 40.128 180.368 39.12ZM210.589 42H206.653V6.48H210.589V19.824H210.781C212.221 17.136 214.717 15.6 217.837 15.6C222.541 15.6 225.757 19.152 225.757 24.48V42H221.773V24.816C221.773 21.264 219.853 18.96 216.877 18.96C213.229 18.96 210.589 22.32 210.589 27.024V42ZM235.578 42V38.448H243.402V19.632H235.818V16.08H247.338V38.448H255.162V42H235.578ZM241.242 7.728C241.242 5.76 242.826 4.224 244.746 4.224C246.714 4.224 248.25 5.76 248.25 7.728C248.25 9.648 246.714 11.232 244.746 11.232C242.826 11.232 241.242 9.648 241.242 7.728ZM278.471 42.96C278.471 48.912 275.543 52.08 270.023 52.08C268.103 52.08 266.375 51.696 265.031 50.976V47.664C266.471 48.384 267.911 48.768 269.447 48.768C272.807 48.768 274.535 46.848 274.535 42.96V19.632H265.271V16.08H278.471V42.96ZM272.519 7.728C272.519 5.76 274.103 4.224 276.023 4.224C277.991 4.224 279.527 5.76 279.527 7.728C279.527 9.648 277.991 11.232 276.023 11.232C274.103 11.232 272.519 9.648 272.519 7.728ZM292.421 42V6.48H296.357V29.232L308.453 16.08H313.493L303.701 26.592L314.357 42H309.653L301.013 29.52L296.357 34.464V42H292.421ZM331.426 33.312C331.426 37.248 333.106 39.12 336.562 39.12C338.002 39.12 339.49 38.784 340.882 38.064V41.376C339.538 42.096 337.81 42.48 335.89 42.48C330.37 42.48 327.442 39.312 327.442 33.312V10.032H319.906V6.48H331.426V33.312ZM347.631 42V16.08H351.183V18.864H351.375C352.095 16.848 353.871 15.6 356.031 15.6C358.335 15.6 360.063 17.04 360.735 19.44H360.927C361.887 16.896 363.711 15.6 366.207 15.6C369.855 15.6 372.111 18.288 372.111 22.56V42H368.271V23.088C368.271 20.496 367.167 18.912 365.343 18.912C363.279 18.912 361.839 20.976 361.839 23.952V42H357.951V23.088C357.951 20.448 356.847 18.912 355.071 18.912C353.007 18.912 351.519 21.024 351.519 24.048V42H347.631ZM383.276 42H379.34V16.08H383.036V20.064H383.228C384.62 17.232 387.164 15.6 390.476 15.6C395.276 15.6 398.444 19.152 398.444 24.48V42H394.46V24.816C394.46 21.216 392.588 18.96 389.564 18.96C385.868 18.96 383.276 22.32 383.276 27.024V42ZM417.338 42.48C410.81 42.48 406.058 36.864 406.058 29.04C406.058 21.216 410.81 15.6 417.338 15.6C423.866 15.6 428.666 21.216 428.666 29.04C428.666 36.864 423.866 42.48 417.338 42.48ZM417.338 38.88C421.658 38.88 424.634 34.848 424.634 29.04C424.634 23.232 421.658 19.2 417.338 19.2C413.018 19.2 410.042 23.232 410.042 29.04C410.042 34.848 413.018 38.88 417.338 38.88ZM447.031 19.152C442.759 19.152 439.783 23.232 439.783 29.04C439.783 34.848 442.759 38.928 447.031 38.928C451.303 38.928 454.231 34.896 454.231 29.04C454.231 23.184 451.303 19.152 447.031 19.152ZM435.943 51.6V16.08H439.639V20.928H439.879C441.463 17.52 444.151 15.6 447.751 15.6C453.799 15.6 458.215 21.264 458.215 29.04C458.215 36.816 453.799 42.48 447.703 42.48C444.343 42.48 441.703 40.752 440.119 37.68H439.879V51.6H435.943ZM473.988 19.152C469.716 19.152 466.788 23.184 466.788 29.04C466.788 34.896 469.716 38.928 473.988 38.928C478.26 38.928 481.236 34.848 481.236 29.04C481.236 23.232 478.26 19.152 473.988 19.152ZM485.076 16.08V51.6H481.14V37.68H480.9C479.316 40.752 476.676 42.48 473.316 42.48C467.22 42.48 462.804 36.816 462.804 29.04C462.804 21.264 467.22 15.6 473.268 15.6C476.868 15.6 479.556 17.52 481.14 20.928H481.38V16.08H485.076ZM499.889 27.264V42H495.953V16.08H499.649V20.256H499.841C501.281 17.424 503.873 15.744 507.137 15.744C511.217 15.744 514.145 18.48 514.625 22.656H510.449C509.969 20.544 508.289 19.2 506.033 19.2C502.433 19.2 499.889 22.512 499.889 27.264ZM522.767 35.376H526.655C526.991 37.584 529.631 39.216 532.799 39.216C536.063 39.216 538.271 37.44 538.271 34.752C538.271 32.64 536.879 31.536 533.279 30.96L532.127 30.816C526.367 29.904 523.679 27.696 523.679 23.616C523.679 18.912 527.327 15.6 532.607 15.6C537.647 15.6 541.631 18.624 541.919 22.656H538.127C537.791 20.544 535.487 19.008 532.607 19.008C529.631 19.008 527.615 20.688 527.615 23.28C527.615 25.392 529.007 26.496 532.367 27.024L533.567 27.168C539.471 28.08 542.207 30.336 542.207 34.368C542.207 39.264 538.223 42.672 532.559 42.672C527.135 42.672 522.911 39.552 522.767 35.376ZM561.532 33.312C561.532 37.248 563.212 39.12 566.668 39.12C568.156 39.12 569.596 38.784 571.036 38.064V41.376C569.692 42.096 567.964 42.48 566.044 42.48C560.524 42.48 557.596 39.312 557.596 33.312V19.632H550.252V16.08H557.596V8.592L561.532 7.92V16.08H570.556V19.632H561.532V33.312ZM599.289 16.08V33.36C599.289 35.808 599.433 38.976 599.625 42H595.881C595.689 40.656 595.593 39.408 595.545 38.16H595.353C593.913 40.896 591.369 42.48 588.153 42.48C583.353 42.48 580.185 38.928 580.185 33.6V16.08H584.169V33.264C584.169 36.864 586.041 39.12 589.065 39.12C592.761 39.12 595.353 35.76 595.353 31.056V16.08H599.289ZM616.31 42L607.91 16.08H611.942L618.854 37.824H619.046L625.766 16.08H629.702L621.494 42H616.31ZM637.556 42L633.956 16.08H637.652L640.436 37.632H640.628L645.668 18.96H649.508L654.596 37.68H654.788L657.572 16.08H661.22L657.62 42H652.676L647.684 23.568H647.492L642.548 42H637.556ZM664.993 42L673.681 28.656L665.761 16.08H670.369L676.369 25.776L682.417 16.08H686.881L678.961 28.56L687.745 42H683.089L676.321 31.392L669.553 42H664.993ZM693.918 51.312V47.952C694.926 48.288 695.886 48.432 696.846 48.432C699.822 48.432 701.454 46.992 702.894 43.104L703.278 42.048L693.822 16.08H697.95L705.198 36.672H705.39L712.59 16.08H716.574L706.446 44.208C704.574 49.488 701.838 51.84 697.374 51.84C696.318 51.84 695.214 51.696 693.918 51.312ZM723.947 42V38.832L738.443 19.536H724.427V16.08H743.291V19.248L728.747 38.544H744.107V42H723.947ZM14.256 60.192L9.408 76.416H19.296L14.448 60.192H14.256ZM11.472 56.4H17.328L27.456 90H23.328L20.352 80.064H8.352L5.376 90H1.344L11.472 56.4ZM37.2293 74.4V86.352H45.2453C48.4133 86.352 50.6213 83.904 50.6213 80.4C50.6213 76.848 48.4133 74.4 45.2453 74.4H37.2293ZM37.2293 60.048V70.752H44.6693C47.5973 70.752 49.6133 68.496 49.6133 65.28C49.6133 62.16 47.6453 60.048 44.6693 60.048H37.2293ZM45.0533 90H33.1013V56.4H44.4293C49.8053 56.4 53.6453 60 53.6453 64.992C53.6453 68.4 51.8693 71.088 49.0373 72.432C52.5413 73.68 54.7493 76.752 54.7493 80.736C54.7493 86.112 50.6693 90 45.0533 90ZM79.8825 81.456H83.9145C83.1945 86.736 78.6825 90.48 73.1625 90.48C65.6265 90.48 60.3945 83.424 60.3945 73.2C60.3945 62.928 65.5785 55.92 73.1145 55.92C78.4905 55.92 82.8105 59.472 83.5785 64.416H79.5465C78.8745 61.584 76.3305 59.664 73.2105 59.664C67.9305 59.664 64.5225 65.04 64.5225 73.248C64.5225 81.456 67.9305 86.736 73.2105 86.736C76.5225 86.736 79.2105 84.624 79.8825 81.456ZM90.2318 90V56.4H99.7358C107.848 56.4 113.368 63.216 113.368 73.2C113.368 83.184 107.848 90 99.7358 90H90.2318ZM94.3118 86.352H99.7358C105.496 86.352 109.24 81.168 109.24 73.2C109.24 65.232 105.496 60.048 99.7358 60.048H94.3118V86.352ZM120.645 90V56.4H140.613V60.048H124.773V70.752H138.453V74.4H124.773V86.352H140.613V90H120.645ZM150.002 90V56.4H169.97V60.048H154.082V71.376H167.81V75.024H154.082V90H150.002ZM194.528 75.6H186.944V71.952H198.512V90H194.768V84.96H194.576C192.8 88.416 189.872 90.48 186.272 90.48C179.6 90.48 174.704 83.376 174.704 73.392C174.704 63.024 179.936 55.92 187.568 55.92C192.992 55.92 197.408 59.472 198.272 64.416H194.192C193.472 61.584 190.832 59.664 187.664 59.664C182.288 59.664 178.832 64.992 178.832 73.296C178.832 81.36 182.096 86.832 186.944 86.832C191.408 86.832 194.528 82.224 194.528 75.6ZM204.637 90V56.4H208.765V70.752H222.973V56.4H227.101V90H222.973V74.496H208.765V90H204.637ZM234.666 90V86.352H242.586V60.048H234.762V56.4H254.586V60.048H246.714V86.352H254.682V90H234.666ZM261.863 81.456H265.799C266.039 84.624 268.679 86.832 272.279 86.832C276.215 86.832 278.759 84.24 278.759 80.208V60.048H265.655V56.4H282.887V80.448C282.887 86.4 278.615 90.48 272.279 90.48C266.231 90.48 261.863 86.736 261.863 81.456ZM291.317 90V56.4H295.397V73.536L310.661 56.4H315.701L303.173 70.512L316.325 90H311.573L300.484 73.632L295.397 79.344V90H291.317ZM322.546 90V56.4H326.674V86.352H342.034V90H322.546ZM347.439 90V56.4H352.911L359.679 77.28H359.871L366.639 56.4H372.159V90H368.271V67.776C368.271 65.712 368.271 63.84 368.463 61.632L368.271 61.584L361.551 82.272H357.999L351.279 61.584L351.087 61.632C351.279 63.84 351.279 65.712 351.279 67.776V90H347.439ZM396.14 77.856V56.4H399.98V90H394.892L380.972 60.672L380.78 60.72C380.924 62.4 380.972 63.84 380.972 66.864V90H377.18V56.4H382.94L396.14 84.048L396.332 84C396.188 82.32 396.14 80.88 396.14 77.856ZM417.338 90.48C409.898 90.48 404.666 83.376 404.666 73.2C404.666 63.024 409.898 55.92 417.338 55.92C424.778 55.92 430.01 63.024 430.01 73.2C430.01 83.376 424.778 90.48 417.338 90.48ZM417.338 86.736C422.522 86.736 425.882 81.36 425.882 73.2C425.882 64.992 422.522 59.664 417.338 59.664C412.154 59.664 408.794 64.992 408.794 73.2C408.794 81.36 412.154 86.736 417.338 86.736ZM440.695 60.048V72.048H449.095C452.407 72.048 454.663 69.648 454.663 66.048C454.663 62.448 452.407 60.048 449.095 60.048H440.695ZM440.695 90H436.567V56.4H448.855C454.615 56.4 458.647 60.384 458.647 66.048C458.647 71.712 454.615 75.696 448.855 75.696H440.695V90ZM474.9 86.736C476.58 86.736 478.068 86.16 479.316 85.104L473.172 78.912L475.332 76.752L481.284 82.704C482.676 80.4 483.444 77.136 483.444 73.2C483.444 64.992 480.084 59.664 474.9 59.664C469.716 59.664 466.356 64.992 466.356 73.2C466.356 81.36 469.716 86.736 474.9 86.736ZM474.9 90.48C467.46 90.48 462.228 83.376 462.228 73.2C462.228 63.024 467.46 55.92 474.9 55.92C482.34 55.92 487.572 63.024 487.572 73.2C487.572 78.24 486.276 82.512 484.116 85.536L489.492 90.912L487.284 93.072L482.052 87.84C480.036 89.52 477.636 90.48 474.9 90.48ZM497.873 60.048V71.376H506.129C509.345 71.376 511.457 69.12 511.457 65.712C511.457 62.352 509.345 60.048 506.129 60.048H497.873ZM497.873 90H493.745V56.4H505.889C511.505 56.4 515.441 60.24 515.441 65.712C515.441 70.32 512.705 73.728 508.577 74.736L516.401 90H511.889L504.257 75.072H497.873V90ZM521.183 81.456H525.167C525.503 84.72 528.575 87.024 532.559 87.024C536.783 87.024 539.663 84.48 539.663 80.928C539.663 77.808 537.503 75.888 533.231 75.024L531.311 74.592C525.215 73.392 522.143 70.32 522.143 65.472C522.143 59.808 526.319 55.92 532.463 55.92C538.415 55.92 543.023 59.568 543.311 64.416H539.327C538.943 61.584 536.111 59.568 532.511 59.568C528.671 59.568 526.175 61.824 526.175 65.184C526.175 68.112 528.047 69.936 531.839 70.752L533.807 71.136C540.383 72.432 543.695 75.648 543.695 80.688C543.695 86.592 539.183 90.672 532.607 90.672C526.175 90.672 521.375 86.784 521.183 81.456ZM559.18 90V60.048H549.052V56.4H573.436V60.048H563.308V90H559.18ZM601.257 56.4V79.44C601.257 85.92 596.601 90.48 590.025 90.48C583.449 90.48 578.793 85.92 578.793 79.44V56.4H582.921V79.44C582.921 83.808 585.801 86.736 590.025 86.736C594.297 86.736 597.129 83.808 597.129 79.44V56.4H601.257ZM616.07 90L605.654 56.4H609.878L618.758 85.44H618.95L627.83 56.4H631.958L621.542 90H616.07ZM636.548 90L632.995 56.4H636.74L639.572 84.624H639.764L645.859 61.488H649.364L655.412 84.624H655.604L658.436 56.4H662.18L658.628 90H653.54L647.684 67.68H647.492L641.636 90H636.548ZM662.497 90L673.825 72.528L663.265 56.4H667.969L676.369 69.216L684.769 56.4H689.377L678.865 72.48L690.241 90H685.537L676.321 75.84L667.105 90H662.497ZM703.086 90V75.888L691.758 56.4H696.318L705.198 71.76L714.126 56.4H718.542L707.214 75.888V90H703.086ZM722.219 90V86.592L739.883 60.048H722.699V56.4H744.827V59.808L727.211 86.352H745.643V90H722.219ZM4.032 138V134.4H13.008V114.528L4.464 114.48V111.312C11.424 111.312 13.2 110.016 14.016 104.4H17.136V134.4H25.728V138H4.032ZM54.1733 138H32.8133V136.416C32.8133 132.624 35.2133 129.024 41.3573 123.6C46.6373 118.944 48.6533 116.064 48.6533 113.088C48.6533 109.776 46.2053 107.568 42.7013 107.568C39.3413 107.568 36.7013 109.584 36.4133 112.416H32.2853C32.4773 107.568 36.8933 103.92 42.7013 103.92C48.5573 103.92 52.7333 107.616 52.7333 112.992C52.7333 117.072 50.2853 120.816 44.1893 126.144C40.2533 129.6 38.1893 132.048 37.4213 134.4H54.1733V138ZM65.5785 112.416H61.7385C61.7385 107.52 65.9145 103.92 71.6265 103.92C77.4345 103.92 81.6585 107.664 81.6585 112.848C81.6585 116.304 79.7865 118.848 76.6665 120C80.5545 121.248 82.9065 124.272 82.9065 128.448C82.9065 134.256 78.2505 138.48 71.7705 138.48C65.5305 138.48 60.8745 134.592 60.8745 129.456H64.8105C64.9545 132.576 67.8825 134.88 71.7705 134.88C75.9945 134.88 78.9705 132.192 78.9705 128.4C78.9705 124.752 76.1385 122.112 72.1545 122.112H69.1785V118.368H71.8665C75.3225 118.368 77.7225 116.208 77.7225 113.088C77.7225 109.824 75.1305 107.52 71.5785 107.52C68.2185 107.52 65.6745 109.584 65.5785 112.416ZM103.768 108.048L103.576 108L92.0078 126.384H103.576V114.192C103.576 112.128 103.576 110.256 103.768 108.048ZM103.576 130.032H88.2638V126.048L102.04 104.4H107.512V126.384H113.512V130.032H107.512V138H103.576V130.032ZM122.853 129.456C123.237 132.672 125.973 134.88 129.429 134.88C133.557 134.88 136.485 131.808 136.485 127.488C136.485 123.216 133.557 120.144 129.429 120.144C126.885 120.144 124.677 121.344 123.525 123.408L119.925 122.736L121.893 104.4H138.933V108H125.397L124.197 118.896C125.733 117.456 127.941 116.688 130.341 116.688C136.293 116.688 140.613 121.296 140.613 127.488C140.613 133.872 135.957 138.48 129.525 138.48C123.717 138.48 119.301 134.736 118.821 129.456H122.853ZM151.826 127.584C151.826 131.76 154.802 134.88 158.834 134.88C162.866 134.88 165.842 131.712 165.842 127.44C165.842 123.168 162.962 120.096 158.978 120.096C154.946 120.096 151.826 123.36 151.826 127.584ZM150.722 121.536C152.498 118.512 155.714 116.592 159.602 116.592C165.554 116.592 169.826 121.056 169.826 127.344C169.826 133.872 165.17 138.48 158.642 138.48C151.154 138.48 146.738 132.48 146.738 122.016C146.738 111.072 151.586 103.92 159.074 103.92C164.45 103.92 168.77 107.568 169.202 112.416H165.362C164.738 109.536 162.194 107.52 159.026 107.52C153.938 107.52 150.866 112.752 150.722 121.536ZM182.96 138C182.96 126.72 186.416 116.976 193.52 108.048H175.616V104.4H197.84V107.808C190.4 117.312 187.184 126.336 187.088 138H182.96ZM215.869 122.112C211.885 122.112 208.909 124.8 208.909 128.448C208.909 132.096 211.885 134.88 215.869 134.88C219.853 134.88 222.829 132.096 222.829 128.448C222.829 124.8 219.853 122.112 215.869 122.112ZM215.869 107.472C212.557 107.472 210.013 109.824 210.013 112.992C210.013 116.16 212.509 118.512 215.869 118.512C219.229 118.512 221.725 116.16 221.725 112.992C221.725 109.824 219.181 107.472 215.869 107.472ZM215.869 138.48C209.581 138.48 204.733 134.208 204.733 128.784C204.733 124.8 207.325 121.536 211.213 120.144C208.045 118.848 205.981 116.112 205.981 112.656C205.981 107.712 210.253 103.92 215.869 103.92C221.485 103.92 225.757 107.712 225.757 112.656C225.757 116.112 223.693 118.848 220.525 120.144C224.413 121.536 227.005 124.8 227.005 128.784C227.005 134.208 222.157 138.48 215.869 138.48ZM251.13 114.816C251.13 110.64 248.154 107.52 244.122 107.52C240.09 107.52 237.114 110.64 237.114 114.96C237.114 119.184 239.994 122.304 243.978 122.304C248.01 122.304 251.13 119.04 251.13 114.816ZM252.234 120.864C250.458 123.888 247.242 125.808 243.354 125.808C237.402 125.808 233.13 121.344 233.13 115.056C233.13 108.528 237.786 103.92 244.362 103.92C251.802 103.92 256.218 109.92 256.218 120.384C256.218 131.328 251.37 138.48 243.882 138.48C238.506 138.48 234.234 134.832 233.802 129.936H237.594C238.218 132.864 240.762 134.88 243.93 134.88C249.018 134.88 252.09 129.648 252.234 120.864ZM273.431 138.48C266.279 138.48 262.055 132.048 262.055 121.2C262.055 110.352 266.279 103.92 273.431 103.92C280.583 103.92 284.855 110.352 284.855 121.2C284.855 132.048 280.583 138.48 273.431 138.48ZM266.471 126.816L279.527 112.32C278.279 109.2 276.215 107.52 273.431 107.52C268.679 107.52 265.991 112.464 265.991 121.2C265.991 123.312 266.135 125.184 266.471 126.816ZM273.431 134.88C278.183 134.88 280.871 129.936 280.871 121.2C280.871 119.088 280.727 117.216 280.391 115.584L267.335 130.08C268.583 133.2 270.695 134.88 273.431 134.88ZM294.485 145.584L300.101 132.24H305.813L298.277 145.584H294.485ZM327.346 134.736C327.346 132.672 328.978 131.088 330.994 131.088C333.01 131.088 334.642 132.672 334.642 134.736C334.642 136.752 333.01 138.384 330.994 138.384C328.978 138.384 327.346 136.752 327.346 134.736ZM352.047 145.584L357.663 132.24H363.375L355.839 145.584H352.047ZM356.127 115.152C356.127 113.088 357.759 111.504 359.775 111.504C361.791 111.504 363.423 113.088 363.423 115.152C363.423 117.168 361.791 118.8 359.775 118.8C357.759 118.8 356.127 117.168 356.127 115.152ZM384.908 134.736C384.908 132.672 386.54 131.088 388.556 131.088C390.572 131.088 392.204 132.672 392.204 134.736C392.204 136.752 390.572 138.384 388.556 138.384C386.54 138.384 384.908 136.752 384.908 134.736ZM384.908 115.344C384.908 113.28 386.54 111.696 388.556 111.696C390.572 111.696 392.204 113.28 392.204 115.344C392.204 117.36 390.572 118.992 388.556 118.992C386.54 118.992 384.908 117.36 384.908 115.344ZM413.69 134.736C413.69 132.672 415.322 131.088 417.338 131.088C419.354 131.088 420.986 132.672 420.986 134.736C420.986 136.752 419.354 138.384 417.338 138.384C415.322 138.384 413.69 136.752 413.69 134.736ZM415.706 126.912L415.034 104.4H419.642L418.97 126.912H415.706ZM442.471 134.736C442.471 132.672 444.103 131.088 446.119 131.088C448.135 131.088 449.767 132.672 449.767 134.736C449.767 136.752 448.135 138.384 446.119 138.384C444.103 138.384 442.471 136.752 442.471 134.736ZM444.151 126.912C444.151 118.08 451.687 117.504 451.687 112.416C451.687 109.728 449.623 107.472 446.311 107.472C442.999 107.472 440.599 109.728 440.407 112.416H436.375C436.375 107.904 440.407 103.92 446.263 103.92C452.023 103.92 455.767 107.712 455.767 112.224C455.767 118.896 447.703 119.856 447.703 126.912H444.151ZM479.076 128.112C481.764 128.112 483.924 125.328 483.924 121.872C483.924 118.704 482.148 116.4 479.7 116.4C477.012 116.4 474.804 119.184 474.804 122.64C474.804 125.808 476.628 128.112 479.076 128.112ZM483.444 128.256C482.1 130.128 480.228 131.28 478.02 131.28C474.084 131.28 471.156 127.632 471.156 122.736C471.156 117.36 474.564 113.184 478.98 113.184C481.332 113.184 483.156 114.384 484.26 116.448H484.452C484.644 111.648 481.668 108.432 477.012 108.432C470.388 108.432 465.348 114.768 465.348 123.024C465.348 131.04 470.148 136.752 476.916 136.752C479.748 136.752 482.388 135.744 484.02 134.064L486.18 136.224C483.876 138.624 480.564 139.92 476.82 139.92C468.132 139.92 461.892 132.864 461.892 123.072C461.892 112.992 468.42 105.36 476.964 105.36C483.732 105.36 488.004 110.112 487.62 117.216L486.9 130.944H483.492L483.636 128.256H483.444ZM507.473 117.504H500.897L499.889 124.896H506.465L507.473 117.504ZM497.441 117.504H491.777V114.192H497.921L499.265 104.4H502.769L501.377 114.192H507.953L509.345 104.4H512.801L511.409 114.192H516.641V117.504H510.977L509.921 124.896H515.585V128.208H509.441L508.097 138H504.641L505.985 128.208H499.409L498.065 138H494.561L495.953 128.208H490.721V124.896H496.385L497.441 117.504ZM534.287 123.12V135.12C537.647 134.496 539.903 132.144 539.903 128.976C539.903 126.048 537.983 124.128 534.287 123.12ZM531.215 118.704V107.376C528.047 107.856 525.983 110.016 525.983 113.136C525.983 115.968 527.711 117.84 531.215 118.704ZM534.287 144.24H531.215V138.624C525.551 138.096 521.423 134.448 521.279 129.552H524.975C525.263 132.528 527.759 134.736 531.215 135.168V122.448C525.263 121.2 522.239 118.128 522.239 113.328C522.239 108.144 525.839 104.448 531.215 103.968V98.16H534.287V104.016C539.231 104.688 542.927 108.048 543.215 112.368H539.519C539.183 109.92 537.071 108.048 534.287 107.472V119.376C540.479 120.768 543.647 123.888 543.647 128.784C543.647 134.112 539.903 137.952 534.287 138.576V144.24ZM563.884 131.04L556.588 122.784L556.492 122.832C553.516 124.992 551.932 127.44 551.932 130.032C551.932 133.008 553.948 135.12 556.876 135.12C559.324 135.12 561.772 133.632 563.884 131.04ZM556.588 117.072L557.26 117.84L558.556 116.928C560.812 115.296 562.06 113.424 562.06 111.456C562.06 109.104 560.38 107.472 558.028 107.472C555.676 107.472 553.996 109.152 553.996 111.552C553.996 113.328 554.908 115.152 556.588 117.072ZM575.02 138H569.98L566.236 133.776C563.452 136.896 560.092 138.672 556.54 138.672C551.548 138.672 547.948 135.12 547.948 130.272C547.948 126.576 550.108 123.072 554.188 120.048L553.612 119.376C551.26 116.736 550.012 114 550.012 111.408C550.012 107.088 553.324 103.92 557.932 103.92C562.54 103.92 565.9 107.088 565.9 111.312C565.9 114.48 564.076 117.456 560.668 119.856L559.66 120.576L566.044 127.776C567.052 125.856 567.964 123.6 568.684 121.104H572.62C571.66 124.8 570.268 128.016 568.588 130.704L575.02 138ZM577.305 138L598.665 104.4H602.697L581.385 138H577.305ZM583.017 118.944C579.129 118.944 576.297 115.776 576.297 111.408C576.297 107.088 579.129 103.92 583.017 103.92C586.905 103.92 589.689 107.088 589.689 111.408C589.689 115.776 586.905 118.944 583.017 118.944ZM583.017 115.728C584.985 115.728 586.233 114 586.233 111.408C586.233 108.864 584.985 107.136 583.017 107.136C581.001 107.136 579.801 108.864 579.801 111.408C579.801 114 581.001 115.728 583.017 115.728ZM597.081 138.48C593.193 138.48 590.361 135.312 590.361 130.944C590.361 126.624 593.193 123.456 597.081 123.456C600.921 123.456 603.753 126.624 603.753 130.944C603.753 135.312 600.921 138.48 597.081 138.48ZM597.081 135.264C599.049 135.264 600.249 133.536 600.249 130.944C600.249 128.4 599.049 126.672 597.081 126.672C595.065 126.672 593.817 128.4 593.817 130.944C593.817 133.536 595.065 135.264 597.081 135.264ZM621.494 112.176L611.894 100.56H617.798L625.766 112.176H621.494ZM635.924 126.672V125.088C635.924 120.576 638.564 117.648 642.596 117.648C648.644 117.648 649.028 124.176 652.82 124.176C654.548 124.176 655.556 122.784 655.652 120.048L655.7 118.608H659.252V120.192C659.252 124.704 656.612 127.632 652.58 127.632C646.58 127.632 646.1 121.056 642.356 121.056C640.628 121.056 639.668 122.496 639.572 125.232L639.523 126.672H635.924ZM666.001 119.808L674.113 104.4H678.625L686.737 119.808H682.657L676.369 107.904L670.081 119.808H666.001ZM694.734 118.32L703.422 121.104V112.032H706.878V121.104L715.566 118.32L716.67 121.632L707.982 124.464L713.31 131.808L710.526 133.872L705.15 126.528L699.774 133.872L696.99 131.808L702.318 124.464L693.63 121.632L694.734 118.32ZM18.672 193.68C12.528 187.872 8.976 179.376 8.976 170.64C8.976 161.904 12.528 153.408 18.672 147.6H23.28C16.656 154.032 13.104 162.048 13.104 170.64C13.104 179.232 16.656 187.248 23.28 193.68H18.672ZM38.9093 193.68H34.3013C40.9253 187.248 44.4773 179.232 44.4773 170.64C44.4773 162.048 40.9253 154.032 34.3013 147.6H38.9093C45.0533 153.408 48.6053 161.904 48.6053 170.64C48.6053 179.376 45.0533 187.872 38.9093 193.68ZM66.7785 193.68V147.6H80.9865V151.2H70.7145V190.08H80.9865V193.68H66.7785ZM105.928 147.6V193.68H91.7198V190.08H101.992V151.2H91.7198V147.6H105.928ZM118.869 172.512V168.768H121.365C125.205 168.768 127.461 166.176 127.269 162.048L126.981 156.72C126.693 150.96 129.957 147.6 135.909 147.6H139.269V151.2H136.053C132.645 151.2 130.821 153.072 130.965 156.432L131.253 161.952C131.445 166.368 129.189 170.016 125.781 170.64C129.189 171.264 131.445 174.912 131.253 179.328L130.965 184.848C130.821 188.208 132.645 190.08 136.053 190.08H139.413V193.68H135.909C129.957 193.68 126.693 190.32 126.981 184.56L127.269 179.232C127.461 175.104 125.205 172.512 121.365 172.512H118.869ZM168.962 168.768V172.512H166.466C162.626 172.512 160.37 175.104 160.562 179.232L160.85 184.56C161.138 190.32 157.874 193.68 151.922 193.68H148.418V190.08H151.778C155.186 190.08 157.01 188.208 156.866 184.848L156.578 179.328C156.386 174.912 158.642 171.264 162.05 170.64C158.642 170.016 156.386 166.368 156.578 161.952L156.866 156.432C157.01 153.072 155.186 151.2 151.778 151.2H148.562V147.6H151.922C157.874 147.6 161.138 150.96 160.85 156.72L160.562 162.048C160.37 166.176 162.626 168.768 166.466 168.768H168.962ZM176.048 191.808V188.208H198.128V191.808H176.048ZM205.597 176.976V173.52H226.141V176.976H205.597ZM205.597 167.76V164.256H226.141V167.76H205.597ZM235.338 172.416V168.816H253.962V172.416H235.338ZM271.511 181.872V172.416H262.199V168.816H271.511V159.408H275.399V168.816H284.663V172.416H275.399V181.872H271.511ZM292.085 172.848V168.432L311.381 158.496V162.576L295.733 170.64L311.381 178.704V182.784L292.085 172.848ZM341.122 168.432V172.848L321.826 182.784V178.704L337.474 170.64L321.826 162.576V158.496L341.122 168.432ZM348.159 193.68L367.455 147.6H371.439L352.143 193.68H348.159ZM380.876 147.6L400.172 193.68H396.236L376.892 147.6H380.876ZM415.514 193.68V147.6H419.162V193.68H415.514ZM444.487 163.392L443.623 148.56H448.615L447.751 163.392H444.487ZM468.516 163.392L467.652 148.56H472.644L471.78 163.392H468.516ZM478.02 163.392L477.156 148.56H482.148L481.284 163.392H478.02Z" fill="#111111"/>
</svg>
