<svg width="1000" height="200" viewBox="0 0 1000 200" fill="none" xmlns="http://www.w3.org/2000/svg">
<path d="M22.224 40H18.576C18.336 38.848 18.336 38.416 18.144 35.728C16.224 39.232 13.872 40.624 9.84 40.624C4.944 40.624 1.584 37.696 1.584 33.472C1.584 30.784 3.12 28.24 5.568 26.992C7.728 25.84 10.944 25.264 15.072 25.264C15.936 25.264 16.656 25.264 18.144 25.36V24.592C18.144 20.128 16.464 18.496 11.952 18.496C8.4 18.496 6.24 19.984 5.616 22.816L2.208 22.24C2.544 20.464 2.976 19.552 3.984 18.544C5.856 16.624 8.832 15.664 12.768 15.664C16.32 15.664 18.72 16.576 20.112 18.448C21.264 20.032 21.696 21.904 21.696 25.36V35.392C21.696 37.12 21.84 38.56 22.224 40ZM18.144 28.144C16.848 28.096 15.6 28.048 15.024 28.048C8.88 28.048 5.52 29.968 5.52 33.568C5.52 36.112 7.488 37.792 10.56 37.792C14.88 37.792 18.192 34.24 18.192 29.68C18.192 29.248 18.192 28.768 18.144 28.144ZM30.8783 40H29.1023V7.984H32.7983V20.272C34.7183 17.008 36.6863 15.712 39.7583 15.712C45.4703 15.712 49.3583 20.704 49.3583 28.048C49.3583 35.44 45.3263 40.624 39.6143 40.624C36.3983 40.624 34.0943 39.184 32.2223 36.064L30.8783 40ZM32.7983 25.408V30.736C33.0383 32.944 33.3743 33.952 34.2383 35.152C35.3903 36.64 37.3583 37.6 39.2303 37.6C43.0223 37.6 45.4703 34.048 45.4703 28.528C45.4703 25.6 44.7503 22.72 43.5503 20.944C42.6383 19.6 40.9583 18.736 39.2303 18.736C37.5023 18.736 35.9663 19.504 34.6703 20.944C33.5663 22.24 33.1343 23.296 32.7983 25.408ZM68.8515 31.696L72.1635 32.272C71.5875 35.152 70.9155 36.544 69.3795 38.08C67.6995 39.808 65.6355 40.624 62.9955 40.624C56.9475 40.624 53.0115 35.728 53.0115 28.192C53.0115 20.704 57.0435 15.712 63.1875 15.712C68.0355 15.712 71.2035 18.592 72.1635 23.968L68.8515 24.592C68.5635 22.768 68.2275 21.904 67.6035 20.992C66.5475 19.552 64.9635 18.736 63.1395 18.736C59.2515 18.736 56.8515 22.336 56.8515 28.096C56.8515 34.048 59.1555 37.6 63.0915 37.6C66.0675 37.6 68.0835 35.584 68.8515 31.696ZM95.6749 7.984V40H92.3149V35.968C90.3469 39.328 88.2349 40.672 84.8269 40.672C79.2589 40.672 75.3229 35.584 75.3229 28.384C75.3229 20.896 79.3069 15.712 85.0189 15.712C87.9949 15.712 89.8669 16.768 91.9789 19.552V7.984H95.6749ZM91.9789 30.4V25.456C91.7869 23.248 91.4989 22.24 90.5869 21.088C89.4829 19.6 87.4669 18.64 85.5949 18.64C81.8029 18.64 79.3549 22.288 79.3549 27.904C79.3549 34.048 81.6109 37.648 85.4509 37.648C87.2269 37.648 88.9549 36.736 90.2509 35.248C91.4029 33.856 91.7869 32.752 91.9789 30.4ZM118.671 32.944L122.079 33.664C120.543 38.032 116.847 40.624 112.047 40.624C105.567 40.624 101.199 35.68 101.199 28.288C101.199 20.848 105.711 15.712 112.191 15.712C116.175 15.712 119.439 17.728 121.119 21.184C122.079 23.248 122.463 25.216 122.511 28.48H105.279C105.279 31.264 105.519 32.512 106.239 34C107.295 36.16 109.743 37.6 112.287 37.6C114.207 37.6 116.031 36.832 117.231 35.44C117.759 34.864 118.143 34.192 118.671 32.944ZM105.471 25.744H118.479C118.431 23.536 118.095 22.432 117.135 21.04C115.935 19.36 114.351 18.544 112.239 18.544C110.175 18.544 108.447 19.408 107.151 20.992C106.095 22.336 105.711 23.488 105.471 25.744ZM137.379 16.336V19.216H131.619V40H128.211V19.216H124.035V16.336H128.211C128.307 13.408 128.451 12.448 128.979 11.056C129.795 8.752 132.195 7.312 135.267 7.312C136.275 7.312 137.139 7.408 138.771 7.648V10.624C137.763 10.336 137.283 10.288 136.563 10.288C134.115 10.288 132.579 11.056 132.051 12.544C131.619 13.552 131.619 13.744 131.619 16.336H137.379ZM160.992 12.64V15.568C157.824 15.52 156.816 16.144 156.48 18.256C157.968 19.984 158.736 21.904 158.736 23.968C158.736 28.576 154.944 31.84 149.664 31.84C149.04 31.84 148.512 31.792 148.032 31.696C147.264 31.552 146.688 31.456 146.496 31.456C145.248 31.456 144 32.56 144 33.712C144 34.48 144.384 35.056 145.2 35.44C146.016 35.824 146.976 35.92 151.344 36.064C156.24 36.208 157.824 36.448 159.312 37.456C160.992 38.512 161.904 40.192 161.904 42.16C161.904 46.624 157.872 48.928 150 48.928C142.944 48.928 139.2 46.768 139.2 42.688C139.2 40.384 140.304 38.944 142.8 37.984C141.072 36.736 140.496 35.776 140.496 34.144C140.496 32.224 141.36 31.12 143.76 29.968C141.552 28.048 140.688 26.272 140.688 23.68C140.688 19.072 144.528 15.616 149.712 15.616C151.488 15.616 153.024 15.952 154.56 16.72C154.8 15.328 155.232 14.416 156.048 13.648C156.864 12.832 157.824 12.592 160.032 12.592C160.32 12.592 160.512 12.592 160.992 12.64ZM149.808 18.544C146.688 18.544 144.48 20.704 144.48 23.824C144.48 26.944 146.592 29.008 149.76 29.008C152.832 29.008 155.04 26.896 155.04 23.92C155.04 20.848 152.832 18.544 149.808 18.544ZM145.344 39.04C143.376 40 142.752 40.816 142.752 42.304C142.752 43.072 143.088 43.888 143.616 44.32C144.912 45.424 147.504 46.096 150.288 46.096C152.208 46.096 154.272 45.76 155.904 45.232C157.536 44.704 158.4 43.648 158.4 42.304C158.4 41.248 157.872 40.528 156.768 40.048C155.616 39.52 155.184 39.472 151.056 39.376C148.656 39.328 146.448 39.184 145.344 39.04ZM183.85 40H180.154V25.648C180.154 23.2 180.058 22.336 179.674 21.376C179.05 19.792 177.37 18.736 175.546 18.736C173.914 18.736 172.138 19.6 170.938 20.992C169.546 22.576 168.97 24.448 168.97 27.232V40H165.274V7.984H168.97V20.704C170.89 17.104 172.954 15.664 176.218 15.664C178.81 15.664 181.066 16.768 182.41 18.784C183.61 20.512 183.85 21.712 183.85 25.648V40ZM194.844 16.336V40H191.148V16.336H194.844ZM194.988 7.984V12.064H191.004V7.984H194.988ZM205.344 16.048V40.768C205.344 45.712 202.992 48.208 198.432 48.208C197.472 48.208 196.656 48.064 195.072 47.728V44.8C196.272 45.088 196.896 45.184 197.76 45.184C200.544 45.184 201.648 43.888 201.648 40.768V16.048H205.344ZM205.536 7.984V12.064H201.36V7.984H205.536ZM232.249 40H228.409L221.497 26.8L216.361 32.704V40H212.665V7.984H216.361V28.48L227.353 16.336H231.289L223.897 24.688L232.249 40ZM239.986 40H236.29V7.984H239.986V40ZM279.08 40H275.48V25.312C275.48 22.72 275.336 22.048 274.712 20.992C273.944 19.696 272.408 18.88 270.92 18.88C269.432 18.88 267.896 19.648 266.696 20.944C265.352 22.48 264.872 24.016 264.872 26.656V40H261.32V24.448C261.32 22.576 260.984 21.424 260.216 20.464C259.304 19.36 258.008 18.736 256.664 18.736C253.4 18.736 250.856 21.856 250.856 25.84V40H247.352V16.336H250.52V20.896C252.2 17.488 254.696 15.712 257.816 15.712C261.128 15.712 263.528 17.776 264.44 21.376C266.024 17.68 268.664 15.712 271.928 15.712C274.424 15.712 276.728 17.008 277.976 19.072C278.84 20.464 279.08 21.904 279.08 25.312V40ZM305.118 40H301.662V24.784C301.662 20.944 299.934 18.88 296.766 18.88C292.926 18.88 290.142 22.336 290.142 26.992V40H286.446V16.336H289.854V20.704C292.302 16.96 294.174 15.712 297.438 15.712C300.414 15.712 302.91 17.248 304.254 19.84C304.878 21.04 305.118 22.816 305.118 26.32V40ZM321.294 15.712C327.726 15.712 331.854 20.704 331.854 28.432C331.854 35.536 327.294 40.624 320.91 40.624C314.718 40.624 310.59 35.632 310.59 28.096C310.59 20.752 314.958 15.712 321.294 15.712ZM321.15 18.736C319.278 18.736 317.358 19.744 316.254 21.328C315.198 22.864 314.622 25.168 314.622 28.048C314.622 34.144 317.022 37.6 321.198 37.6C325.326 37.6 327.822 34.096 327.822 28.24C327.822 25.024 327.294 22.912 326.142 21.28C324.942 19.696 323.07 18.736 321.15 18.736ZM341.048 48.016H337.352V16.336H340.664V20.944C342.536 17.296 344.792 15.712 348.104 15.712C353.72 15.712 357.512 20.752 357.512 28.144C357.512 35.584 353.672 40.624 348.056 40.624C344.984 40.624 343.064 39.472 341.048 36.4V48.016ZM341.048 24.784V31.408C341.624 35.008 344.312 37.6 347.336 37.6C348.92 37.6 350.696 36.688 351.704 35.392C352.904 33.856 353.48 31.552 353.48 28.384C353.48 22.432 351.176 18.928 347.336 18.928C344.408 18.928 342.008 21.136 341.048 24.784ZM381.329 16V48.016H377.633V35.68C376.049 38.992 373.745 40.624 370.481 40.624C364.865 40.624 361.121 35.728 361.121 28.336C361.121 20.8 365.057 15.664 370.865 15.664C374.129 15.664 375.857 16.72 378.017 20.224L379.457 16H381.329ZM377.633 29.488V26.32C377.345 23.392 376.913 22.096 375.713 20.752C374.561 19.504 372.881 18.736 371.297 18.736C367.601 18.736 365.153 22.528 365.153 28.192C365.153 33.856 367.505 37.456 371.249 37.456C373.409 37.456 375.281 36.256 376.433 34.144C377.201 32.8 377.441 31.792 377.633 29.488ZM392.423 40H388.727V16.336H391.943V21.856C393.095 19.504 393.527 18.784 394.391 17.728C395.447 16.48 397.223 15.664 399.047 15.664C399.335 15.664 399.863 15.712 400.391 15.76V19.264C395.927 18.88 392.519 22.432 392.423 27.472V40ZM401.73 33.856L405.234 33.136C405.618 34.48 406.002 35.2 406.77 35.824C408.114 36.928 410.37 37.6 412.578 37.6C415.89 37.6 418.146 36.064 418.146 33.76C418.146 31.84 416.754 30.64 414.066 30.112L409.074 29.2C405.042 28.432 402.69 26.032 402.69 22.672C402.69 18.496 406.242 15.712 411.618 15.712C416.562 15.712 419.778 17.776 420.93 21.712L417.57 22.432C416.466 19.888 414.546 18.736 411.522 18.736C408.45 18.736 406.434 20.128 406.434 22.24C406.434 24.016 407.634 25.072 410.13 25.552L414.786 26.368C419.634 27.232 421.986 29.536 421.986 33.376C421.986 37.696 418.098 40.624 412.242 40.624C408.882 40.624 406.194 39.76 404.178 37.984C402.93 36.928 402.306 35.92 401.73 33.856ZM437.916 37.456V40.384C436.284 40.624 435.516 40.672 434.412 40.672C429.948 40.672 427.644 38.224 427.644 33.472V19.216H423.468V16.336H427.644L427.788 10.384L431.244 10.096V16.336H436.572V19.216H431.244V34.048C431.244 36.496 432.54 37.744 435.084 37.744C435.948 37.744 436.62 37.696 437.916 37.456ZM459.711 40H456.399V35.488C454.719 38.848 452.175 40.624 448.863 40.624C444.063 40.624 441.087 37.168 441.087 31.456V16.336H444.783V31.456C444.783 33.616 445.167 35.008 445.983 35.968C446.847 37.024 448.143 37.6 449.439 37.6C453.087 37.6 456.015 34.048 456.015 29.68V16.336H459.711V40ZM484.055 16.336L475.895 40H472.055L463.607 16.336H467.687L474.263 35.584L480.791 16.336H484.055ZM515.601 16.336L508.785 40H505.809L500.529 22.432L495.681 40H492.657L485.553 16.336H489.249L494.385 33.952L499.329 16.336H502.017L507.297 34.048L512.625 16.336H515.601ZM536.676 40H532.404L526.404 30.4L520.26 40H516.66L524.628 27.712L517.428 16.336H521.652L526.74 24.4L531.876 16.336H535.428L528.516 26.944L536.676 40ZM557.483 16.336L547.979 42.784C547.163 45.04 546.155 46.528 544.715 47.536C543.851 48.16 542.699 48.448 541.019 48.448C540.059 48.448 539.483 48.352 538.235 48.064V45.136C539.387 45.376 539.963 45.472 540.683 45.472C542.363 45.472 543.562 44.848 544.427 43.456C544.907 42.688 545.339 41.68 546.011 39.568L537.803 16.336H541.547L547.883 34.144L554.363 16.336H557.483ZM576.492 37.168V40H559.068V37.168L571.644 19.216H560.028V16.336H576.492V18.352L563.484 37.168H576.492ZM25.536 88H21.408L18.192 78.64H6.336L3.504 88H0.144L10.512 55.984H15.12L25.536 88ZM17.328 75.616L12.432 60.256L7.488 75.616H17.328ZM29.9528 88V55.984H42.6248C45.3608 55.984 46.9928 56.416 48.6248 57.472C50.8328 58.96 52.0328 61.216 52.0328 63.808C52.0328 65.872 51.1688 67.936 49.7768 69.232C48.9128 70 48.0968 70.432 46.3688 71.008C48.5288 71.632 49.3928 72.064 50.4488 73.072C52.1288 74.752 52.9928 76.72 52.9928 79.12C52.9928 82.336 51.5528 84.976 48.9608 86.56C47.2808 87.568 45.4088 88 42.5768 88H29.9528ZM33.8408 84.496H42.4328C46.5128 84.496 48.9608 82.432 48.9608 78.928C48.9608 77.296 48.3368 75.664 47.2808 74.56C46.0808 73.264 44.5448 72.736 41.8568 72.736H33.8408V84.496ZM33.8408 69.712H40.8008C43.4408 69.712 44.9288 69.376 46.0808 68.512C47.2808 67.6 48.0488 65.968 48.0488 64.24C48.0488 61.072 45.7928 59.248 41.8088 59.248H33.8408V69.712ZM78.1215 77.248L81.7695 78.064C80.9055 81.376 80.1375 83.008 78.5535 84.88C76.4895 87.328 73.5615 88.624 69.9615 88.624C66.3135 88.624 63.3375 87.28 61.1775 84.736C58.4415 81.472 56.9535 76.864 56.9535 71.68C56.9535 61.792 62.1855 55.36 70.2495 55.36C76.2495 55.36 80.0895 58.768 81.7695 65.632L78.0255 66.352C76.4415 61.024 74.1375 58.768 70.2015 58.768C64.6335 58.768 61.3215 63.76 61.3215 72.112C61.3215 80.08 64.7295 85.216 70.0575 85.216C72.3615 85.216 74.6655 84.064 75.9615 82.288C76.9215 80.944 77.4015 79.84 78.1215 77.248ZM86.7653 88V55.984H97.4693C101.501 55.984 104.429 57.088 106.973 59.488C110.093 62.464 111.821 66.832 111.821 71.872C111.821 81.136 106.301 88 98.8133 88H86.7653ZM90.7493 84.592H97.2773C100.157 84.592 102.701 83.632 104.285 81.952C106.445 79.696 107.741 75.856 107.741 71.872C107.741 67.984 106.541 64.528 104.381 62.128C102.653 60.256 100.397 59.344 97.2293 59.344H90.7493V84.592ZM138.344 84.496V88H117.656V55.984H137.912V59.488H121.64V69.712H134.552V72.976H121.64V84.496H138.344ZM147.14 88H143.156V55.984H162.74V59.488H147.14V69.616H160.1V72.832H147.14V88ZM190.54 71.872V88.432H188.044L186.988 84.4C184.684 87.424 182.092 88.672 178.06 88.672C174.268 88.672 171.34 87.328 168.94 84.592C166.252 81.472 164.86 77.296 164.86 72.352C164.86 62.176 170.428 55.36 178.732 55.36C182.38 55.36 185.26 56.608 187.42 59.056C188.764 60.592 189.436 61.888 190.204 64.624L186.412 65.536C185.836 63.328 185.356 62.368 184.348 61.264C182.86 59.68 180.7 58.768 178.348 58.768C175.324 58.768 172.732 60.304 171.34 62.896C169.996 65.296 169.228 68.656 169.228 72.208C169.228 75.712 169.996 78.976 171.292 81.28C172.78 83.824 175.564 85.408 178.588 85.408C183.292 85.408 186.46 82.048 186.46 76.96C186.46 76.48 186.46 75.904 186.412 75.232H178.54V71.872H190.54ZM220.426 88H216.442V72.736H201.562V88H197.578V55.984H201.562V69.232H216.442V55.984H220.426V88ZM232.031 88H228.047V55.984H232.031V88ZM250.319 55.984V78.208C250.319 85.312 247.247 88.624 240.671 88.624C239.087 88.624 238.031 88.48 236.062 88V84.736C237.935 85.072 238.895 85.168 240.335 85.168C242.783 85.168 244.415 84.592 245.327 83.344C246.191 82.24 246.335 81.424 246.335 78.208V55.984H250.319ZM283.014 88H278.598L269.046 70.336L261.702 79.456V88H257.718V55.984H261.702V74.56L276.198 55.984H280.518L271.83 67.216L283.014 88ZM306.254 84.496V88H287.39V55.984H291.47V84.496H306.254ZM341.457 88H337.569V60.064L327.201 88H324.465L314.001 60.064V88H310.593V55.984H316.545L326.145 81.568L335.601 55.984H341.457V88ZM372.646 88H368.758L352.198 60.112L352.246 62.224C352.294 63.28 352.294 64 352.294 64.24V88H349.078V55.984H354.07L369.574 82.096L369.526 79.888C369.478 78.688 369.478 77.872 369.478 77.536V55.984H372.646V88ZM391.715 55.36C399.587 55.36 404.819 61.984 404.819 71.968C404.819 76.768 403.283 81.376 400.547 84.592C398.243 87.328 395.363 88.624 391.619 88.624C387.827 88.624 384.755 87.232 382.499 84.496C379.955 81.328 378.563 77.056 378.563 72.064C378.563 62.176 383.939 55.36 391.715 55.36ZM391.667 58.624C386.243 58.624 382.739 63.952 382.739 72.112C382.739 80.08 386.291 85.36 391.715 85.36C397.091 85.36 400.643 80.032 400.643 71.92C400.643 63.616 397.283 58.624 391.667 58.624ZM414.702 88H410.718V55.984H422.046C424.926 55.984 427.23 56.656 428.91 58C431.022 59.632 432.414 62.608 432.414 65.536C432.414 71.056 428.286 74.992 422.478 74.992H414.702V88ZM414.702 71.68H422.046C425.838 71.68 428.334 69.232 428.334 65.536C428.334 61.888 425.886 59.344 422.334 59.344H414.702V71.68ZM460.232 91.936V95.152C458.696 95.536 457.927 95.68 456.776 95.68C454.568 95.68 452.456 95.056 451.208 94C449.864 92.848 449.288 91.36 449.048 88.528C445.544 88.288 443.672 87.664 441.56 86.08C437.72 83.2 435.704 78.352 435.704 72.112C435.704 62.08 441.032 55.36 449 55.36C456.968 55.36 462.296 61.936 462.296 71.824C462.296 77.152 460.807 81.568 457.88 84.688C456.296 86.464 454.952 87.232 452.312 88V88.768C452.312 89.632 452.552 90.304 453.032 90.928C453.752 91.888 454.712 92.224 456.68 92.224C458.072 92.224 458.84 92.176 460.232 91.936ZM449.048 58.864C446.168 58.864 443.768 60.064 442.376 62.128C440.888 64.384 439.976 68.224 439.976 72.256C439.976 80.32 443.24 85.168 448.712 85.168C454.52 85.168 457.976 80.32 457.976 72.112C457.976 63.616 454.76 58.864 449.048 58.864ZM491.18 88H486.956L481.052 74.128H471.884V88H468.14V55.984H480.716C486.716 55.984 490.844 59.632 490.844 64.96C490.844 67.072 489.98 69.376 488.636 70.864C487.676 71.968 486.764 72.496 484.892 73.168L491.18 88ZM471.884 70.864H480.236C482.54 70.864 484.028 70.336 485.228 69.088C486.284 67.984 486.86 66.496 486.86 64.864C486.86 61.552 484.508 59.488 480.716 59.488H471.884V70.864ZM493.839 79.456L497.439 78.688C498.927 83.104 501.999 85.216 506.895 85.216C511.695 85.216 514.575 83.008 514.575 79.36C514.575 76.912 512.799 75.088 509.679 74.32L503.295 72.688C500.655 72.064 499.263 71.392 498.015 70.288C496.335 68.704 495.423 66.592 495.423 64.096C495.423 58.864 499.743 55.36 506.223 55.36C511.935 55.36 515.871 58.048 517.647 63.232L514.047 64.24C513.615 62.56 513.087 61.696 512.031 60.784C510.447 59.392 508.287 58.624 506.079 58.624C502.191 58.624 499.311 60.832 499.311 63.856C499.311 66.4 500.799 67.792 504.543 68.704L510.495 70.144C515.967 71.44 518.751 74.416 518.751 78.976C518.751 84.832 514.095 88.624 506.895 88.624C502.863 88.624 499.935 87.616 497.535 85.456C495.855 83.872 494.991 82.48 493.839 79.456ZM533.57 88H529.586V59.488H520.418V55.984H542.738V59.488H533.57V88ZM565.458 55.984H568.77V76.912C568.77 80.56 568.146 82.816 566.61 84.832C564.738 87.328 561.666 88.624 557.634 88.624C553.41 88.624 550.434 87.376 548.658 84.832C547.314 82.864 546.738 80.56 546.738 76.912V55.984H550.722V76.912C550.722 79.888 551.106 81.568 552.018 82.768C553.122 84.208 555.474 85.12 557.97 85.12C560.466 85.12 562.626 84.256 563.874 82.768C565.026 81.424 565.458 79.744 565.458 76.912V55.984ZM598.022 55.984L587.222 88H583.382L572.582 55.984H576.758L585.686 82.384L594.518 55.984H598.022ZM636.523 55.984L628.843 88H624.811L617.851 63.184L611.323 88H607.243L599.131 55.984H603.259L609.691 81.904L616.507 55.984H619.723L627.067 81.904L633.019 55.984H636.523ZM660.973 55.984L651.997 70.624L662.269 88H657.757L649.645 74.368L641.293 88H637.549L647.821 71.44L638.653 55.984H643.117L650.173 67.84L657.325 55.984H660.973ZM688.662 55.984L677.958 74.512V88H673.974V74.512L663.27 55.984H667.974L676.47 70.72L685.014 55.984H688.662ZM713.012 84.592V88H690.452V84.592L707.828 59.488H691.268V56.224H712.484V58.864L694.916 84.592H713.012ZM26.832 133.024V136H4.416V133.024H14.016V108.304C10.992 111.424 8.496 113.392 5.232 115.216V111.184C9.456 108.976 12.48 106.528 14.976 103.36H17.856V133.024H26.832ZM53.3719 132.688V136H30.6679V132.688C37.6759 127.456 37.6759 127.456 41.2279 124.48C47.4679 119.248 49.2919 116.704 49.2919 113.056C49.2919 109.36 46.1719 106.528 42.0919 106.528C39.6439 106.528 37.3879 107.68 35.9479 109.6C34.9879 110.848 34.6039 111.904 34.4119 113.872L30.6679 112.72C31.3879 109.84 32.0599 108.448 33.4999 106.912C35.5639 104.608 38.6359 103.36 42.1399 103.36C48.5239 103.36 53.2759 107.488 53.2759 113.008C53.2759 117.472 51.0679 120.688 44.1559 126.304C41.4199 128.56 38.9239 130.432 35.7079 132.688H53.3719ZM65.6558 120.976V117.76H69.3038C74.0558 117.76 76.7438 115.744 76.7438 112.144C76.7438 108.832 74.0078 106.528 70.0718 106.528C67.8638 106.528 65.7518 107.344 64.3598 108.736C63.5918 109.504 63.1598 110.176 62.5838 111.712L58.9358 110.704C59.9918 108.256 60.8558 107.056 62.5358 105.76C64.6478 104.176 67.3358 103.36 70.4078 103.36C76.4558 103.36 80.8238 106.96 80.8238 111.856C80.8238 115.552 78.5198 118.288 74.6798 119.152C79.3358 120.016 82.0718 122.944 82.0718 127.12C82.0718 132.784 77.1278 136.624 69.9278 136.624C66.5198 136.624 63.8318 135.76 61.4798 133.984C59.6078 132.544 58.7438 131.344 57.7838 128.848L61.5278 127.6C62.1998 129.568 62.7758 130.624 63.7838 131.488C65.1278 132.688 67.4318 133.36 70.0718 133.36C72.7598 133.36 74.8238 132.688 76.0718 131.44C77.2718 130.288 77.8958 128.8 77.8958 127.216C77.8958 123.328 74.6798 120.976 69.3038 120.976H65.6558ZM105.684 136H101.796V128.368H86.0036V125.68L100.644 103.312H105.684V125.2H110.868V128.368H105.684V136ZM101.796 125.2V110.08C101.796 108.736 101.796 108.112 101.892 106.528C101.076 108.016 100.74 108.592 100.164 109.552L90.1796 125.2H101.796ZM136.16 103.984L135.824 107.44H120.08L119.408 117.808C122.192 115.216 124.208 114.304 127.232 114.304C133.472 114.304 138.272 119.104 138.272 125.392C138.272 131.872 133.088 136.624 126.08 136.624C122.672 136.624 119.696 135.52 117.44 133.36C116.048 132.064 115.424 131.056 114.752 129.088L118.16 127.888C119.743 131.68 122.24 133.456 126.08 133.456C131.072 133.456 134.384 130.192 134.384 125.344C134.384 120.832 131.264 117.616 126.848 117.616C123.728 117.616 121.376 118.96 119.312 121.984L116.144 121.312L117.2 103.984H136.16ZM166.587 110.56L162.987 111.52C161.595 108.16 159.531 106.672 156.219 106.672C152.667 106.672 149.979 108.592 148.491 112.192C147.483 114.544 147.051 117.184 147.003 121.504C147.963 119.44 148.635 118.576 149.931 117.472C151.803 115.888 154.203 115.024 156.699 115.024C162.507 115.024 167.067 119.68 167.067 125.584C167.067 131.824 162.123 136.624 155.691 136.624C148.107 136.624 143.307 130.48 143.307 120.736C143.307 115.456 144.699 110.608 147.147 107.44C149.307 104.704 152.331 103.36 156.267 103.36C161.451 103.36 164.811 105.712 166.587 110.56ZM156.027 118.24C151.611 118.24 147.915 121.792 147.915 126.016C147.915 130.144 151.323 133.408 155.643 133.408C159.963 133.408 163.371 130.096 163.371 125.92C163.371 121.6 160.155 118.24 156.027 118.24ZM182.519 136H178.391V135.088C178.391 130.576 179.783 124.528 182.039 119.44C183.815 115.408 186.935 110.512 189.719 107.488H172.343L172.775 103.984H193.895V106.384C191.591 109.072 189.335 112.528 187.367 116.224C184.391 121.84 182.519 129.088 182.519 134.944V136ZM206.515 119.392C202.435 117.616 200.467 115.12 200.467 111.664C200.467 106.72 204.931 103.36 211.507 103.36C217.987 103.36 222.211 106.576 222.211 111.52C222.211 114.88 220.099 117.376 216.019 118.816C218.611 120.064 219.283 120.448 220.435 121.264C222.403 122.704 223.603 125.104 223.603 127.6C223.603 132.976 218.659 136.624 211.363 136.624C204.067 136.624 198.931 132.928 198.931 127.696C198.931 124.096 201.427 121.36 206.515 119.392ZM211.363 117.376C216.595 116.032 218.707 114.256 218.707 111.328C218.707 108.304 215.971 106.384 211.651 106.384C207.331 106.384 204.499 108.352 204.499 111.328C204.499 114.064 207.139 116.368 211.363 117.376ZM210.931 121.072C205.507 122.368 202.867 124.624 202.867 127.888C202.867 131.344 206.179 133.6 211.267 133.6C216.355 133.6 219.667 131.392 219.667 128.08C219.667 124.912 216.979 122.752 210.931 121.072ZM228.111 130.144L231.327 128.992C232.671 132.016 234.831 133.456 237.999 133.456C243.903 133.456 247.167 128.464 247.311 119.152C244.959 123.136 242.079 124.912 237.855 124.912C231.855 124.912 227.343 120.352 227.343 114.352C227.343 108.064 232.191 103.36 238.575 103.36C241.983 103.36 245.055 104.56 247.023 106.624C249.567 109.264 251.055 113.92 251.055 119.248C251.055 124 249.951 128.272 247.887 131.536C245.871 134.752 242.175 136.672 237.999 136.672C235.311 136.672 232.911 135.904 231.087 134.512C229.647 133.36 228.975 132.352 228.111 130.144ZM238.863 106.672C234.303 106.672 231.231 109.744 231.231 114.304C231.231 118.576 234.399 121.696 238.767 121.696C242.991 121.696 246.495 118.24 246.495 114.064C246.495 109.792 243.279 106.672 238.863 106.672ZM267.515 103.36C271.883 103.36 275.195 105.424 277.307 109.456C278.891 112.576 279.755 116.272 279.755 120.16C279.755 123.76 278.795 127.744 277.163 130.72C275.147 134.464 271.691 136.624 267.659 136.624C260.507 136.624 255.515 129.76 255.515 119.92C255.515 115.984 256.331 112.384 257.867 109.456C259.979 105.424 263.291 103.36 267.515 103.36ZM267.515 106.48C262.475 106.48 259.595 111.376 259.595 119.824C259.595 128.416 262.619 133.504 267.707 133.504C270.827 133.504 273.035 131.776 274.331 128.464C275.195 126.208 275.627 123.568 275.627 120.688C275.627 117.136 275.051 113.68 273.995 111.184C272.699 108.112 270.443 106.48 267.515 106.48ZM289.842 130.672V135.472L286.338 142H284.322L287.106 136H284.706V130.672H289.842ZM301.749 130.768V136H296.517V130.768H301.749ZM315.763 112.336V117.52H310.627V112.336H315.763ZM315.763 130.672V135.472L312.211 142H310.291L313.027 136H310.627V130.672H315.763ZM329.031 130.72V136H323.799V130.72H329.031ZM329.031 112.336V117.568H323.799V112.336H329.031ZM342.537 136H337.641V131.056H342.537V136ZM341.001 128.032H339.033L337.305 103.984H342.825L341.001 128.032ZM359.236 131.392V136H354.484V131.392H359.236ZM358.42 128.032H355.06V127.024C355.06 123.664 355.108 123.136 355.636 121.696C356.068 120.784 356.74 120.016 357.604 119.536C358.612 118.96 359.62 118.384 360.676 117.808C362.884 116.56 364.084 114.592 364.084 112.336C364.084 109.024 361.348 106.624 357.604 106.624C355.444 106.624 353.332 107.536 352.132 109.024C351.268 110.176 350.836 111.232 350.308 113.536L346.804 112.816C347.38 109.744 348.1 108.208 349.732 106.48C351.7 104.368 354.292 103.36 357.7 103.36C363.988 103.36 368.212 107.056 368.212 112.48C368.212 116.032 366.34 118.624 362.212 120.832C358.564 122.848 358.372 123.088 358.42 125.92V126.88V128.032ZM396.142 111.568L394.846 122.512C394.75 123.28 394.702 124.144 394.702 124.624C394.702 125.728 395.23 126.256 396.286 126.256C398.734 126.256 401.038 122.224 401.038 117.952C401.038 111.136 395.902 106.24 388.702 106.24C381.022 106.24 375.118 112.24 375.118 119.968C375.118 124.96 377.614 129.472 381.742 131.872C383.806 133.024 386.35 133.648 389.326 133.648C392.83 133.648 395.566 133.024 398.83 131.488C399.166 131.344 399.214 131.296 399.838 131.056L400.846 133.888C396.814 135.856 393.55 136.624 389.374 136.624C385.822 136.624 382.606 135.856 380.014 134.368C375.07 131.488 371.998 126.016 371.998 119.968C371.998 110.608 379.294 103.36 388.702 103.36C397.342 103.36 403.918 109.552 403.918 117.712C403.918 123.952 400.222 129.28 395.854 129.28C393.982 129.28 392.734 128.32 392.062 126.448C390.382 128.608 388.99 129.376 386.782 129.376C382.558 129.376 379.438 125.632 379.438 120.64C379.438 115.264 382.99 111.184 387.694 111.184C389.95 111.184 391.39 111.952 392.734 113.92L393.022 111.568H396.142ZM388.03 114.304C385.198 114.304 383.086 117.088 383.086 120.784C383.086 123.952 384.718 126.256 387.022 126.256C389.71 126.256 392.11 123.04 392.11 119.392C392.11 116.416 390.43 114.304 388.03 114.304ZM432.484 113.392L431.956 116.272H427.06L425.86 122.944H430.756L430.276 125.824H425.332L423.556 136H420.484L422.308 125.824H415.492L413.668 136H410.644L412.468 125.824H407.332L407.86 122.944H412.948L414.148 116.272H409.012L409.54 113.392H414.676L416.308 103.984H419.38L417.7 113.392H424.468L426.148 103.984H429.172L427.492 113.392H432.484ZM423.94 116.272H417.22L416.02 122.944H422.788L423.94 116.272ZM449.136 139.504H446.304V134.992C441.024 134.416 437.712 131.968 436.272 127.648L439.44 126.4C440.592 129.616 443.04 131.536 446.304 131.776V120.88C443.328 120.112 442.272 119.728 440.88 118.912C438.816 117.712 437.568 115.36 437.568 112.768C437.568 109.84 439.104 107.248 441.696 105.904C443.04 105.232 444.096 104.896 446.304 104.56V100.672H449.136V104.56C453.84 104.992 456.72 106.96 458.208 110.704L455.04 111.76C454.224 109.264 452.112 107.824 449.136 107.632V117.664C452.16 118.336 453.216 118.672 454.704 119.44C457.2 120.736 458.832 123.52 458.832 126.4C458.832 129.328 457.104 132.208 454.512 133.6C453.024 134.368 451.824 134.656 449.136 134.992V139.504ZM449.136 121.552V131.776C452.976 131.536 455.232 129.664 455.232 126.688C455.232 125.104 454.416 123.616 453.072 122.8C452.016 122.128 451.152 121.888 449.136 121.552ZM446.304 117.232V107.632C442.896 108.016 440.976 109.696 440.976 112.336C440.976 114.976 442.656 116.512 446.304 117.232ZM492.428 132.64V136C490.604 136.288 489.98 136.336 488.924 136.336C486.859 136.336 486.236 136 483.596 133.456C480.572 135.856 478.46 136.624 475.148 136.624C468.908 136.624 464.252 132.592 464.252 127.12C464.252 122.656 467.228 119.152 472.556 117.328C470.396 114.16 469.484 112.048 469.484 110.08C469.484 106.192 472.508 103.36 476.684 103.36C481.052 103.36 484.076 106.144 484.076 110.176C484.076 113.776 482.252 116.032 477.356 118.48L484.076 128.704C486.38 125.776 487.676 122.752 488.444 118.48L491.852 119.2C491.228 122.992 488.492 128.608 485.948 131.2C487.196 132.496 488.012 132.832 489.5 132.832C490.124 132.832 490.7 132.784 492.428 132.64ZM481.772 131.056L474.092 119.728C469.676 121.744 468.236 123.52 468.236 126.928C468.236 128.656 468.668 130.096 469.532 131.152C470.732 132.64 473.084 133.6 475.484 133.6C478.076 133.6 479.66 132.976 481.772 131.056ZM475.724 116.176C476.348 115.84 476.876 115.504 477.164 115.36C479.996 113.728 481.052 112.384 481.052 110.416C481.052 108.112 479.228 106.336 476.828 106.336C474.572 106.336 472.892 107.872 472.892 109.888C472.892 111.424 473.324 112.384 475.724 116.176ZM502.507 103.648C506.491 103.648 509.179 107.008 509.179 112.048C509.179 116.848 506.443 120.304 502.603 120.304C498.715 120.304 495.979 116.896 495.979 111.952C495.979 106.96 498.571 103.648 502.507 103.648ZM502.507 105.472C499.915 105.472 498.475 107.776 498.475 111.856C498.475 116.032 500.011 118.432 502.651 118.432C505.099 118.432 506.635 116.128 506.635 112.288C506.635 108.016 505.099 105.472 502.507 105.472ZM503.323 136H500.347L519.739 103.984H522.667L503.323 136ZM520.411 119.68C524.395 119.68 527.035 123.04 527.035 128.08C527.035 132.88 524.299 136.336 520.459 136.336C516.571 136.336 513.883 132.928 513.883 127.984C513.883 122.992 516.475 119.68 520.411 119.68ZM520.363 121.504C517.819 121.504 516.331 123.808 516.331 127.888C516.331 132.064 517.867 134.464 520.507 134.464C523.003 134.464 524.539 132.16 524.539 128.32C524.539 124 523.003 121.504 520.363 121.504ZM533.166 104.224L534.606 101.392L543.87 106.768L542.91 108.64L533.166 104.224ZM557.406 123.664L555.294 122.272C557.166 118.288 559.038 116.704 561.87 116.704C563.214 116.704 564.942 117.232 567.246 118.336C569.502 119.392 570.798 119.824 571.902 119.824C573.678 119.824 574.782 119.008 576.222 116.608L578.382 117.904C577.374 119.824 576.654 120.832 575.694 121.744C574.734 122.656 573.054 123.328 571.758 123.328C570.27 123.328 568.926 122.896 565.806 121.408C564.174 120.64 562.59 120.16 561.582 120.16C559.998 120.16 558.846 121.12 557.406 123.664ZM603.77 118.528H599.882L592.922 106.72L586.01 118.528H582.122L590.57 103.888H595.322L603.77 118.528ZM618.074 112.816L617.162 103.984H620.81L619.898 112.816L628.202 109.168L629.306 112.528L620.234 114.352L626.234 120.928L623.306 122.992L618.986 115.408L614.666 122.992L611.738 120.928L617.738 114.352L608.666 112.528L609.77 109.168L618.074 112.816ZM11.856 192.016H9.408C4.8 185.968 2.496 179.296 2.496 172C2.496 164.944 4.8 158.272 9.36 151.984H11.808C7.776 158.272 5.904 164.512 5.904 171.808C5.904 179.104 7.776 185.44 11.856 192.016ZM15.9893 151.984H18.4373C23.0453 158.032 25.3493 164.704 25.3493 172C25.3493 179.056 23.0453 185.728 18.4853 192.016H16.0373C20.0693 185.728 21.9413 179.488 21.9413 172.192C21.9413 164.896 20.0693 158.56 15.9893 151.984ZM39.9398 192.016H31.6358V151.984H39.9398V154.384H34.8518V189.472H39.9398V192.016ZM43.8743 151.984H52.1783V192.016H43.8743V189.616H48.9622V154.528H43.8743V151.984ZM64.7048 158.656V166.768C64.7048 169.696 63.9848 170.944 61.7288 172.048C63.9368 173.104 64.7048 174.544 64.7048 177.424V185.2C64.7048 188.608 65.5688 189.472 69.1208 189.52V192.016H68.1128C63.3128 192.016 61.4888 190.144 61.4888 185.152V177.472C61.4888 174.832 60.7688 173.632 58.7528 173.104V170.8C60.7208 170.272 61.4888 169.072 61.4888 166.576V158.272C61.4888 153.856 63.4568 151.984 68.1128 151.984H69.1208V154.48C65.6648 154.528 64.7048 155.44 64.7048 158.656ZM76.6729 185.344V177.232C76.6729 174.304 77.3929 173.056 79.6489 171.952C77.4409 170.896 76.6729 169.456 76.6729 166.576V158.8C76.6729 155.392 75.8089 154.528 72.2569 154.48V151.984H73.2649C78.0649 151.984 79.8889 153.856 79.8889 158.848V166.528C79.8889 169.168 80.6089 170.368 82.6249 170.896V173.2C80.6569 173.728 79.8889 174.928 79.8889 177.424V185.728C79.8889 190.144 77.9209 192.016 73.2649 192.016H72.2569V189.52C75.7129 189.472 76.6729 188.56 76.6729 185.344ZM85.3594 187.168H109.359V190.384H85.3594V187.168ZM112.239 162.208H134.655V165.424H112.239V162.208ZM112.239 169.792H134.655V173.008H112.239V169.792ZM148.859 170.56V173.44H138.251V170.56H148.859ZM152.411 166.336H161.867V156.496H165.371V166.336H174.827V169.6H165.371V179.44H161.867V169.6H152.411V166.336ZM201.703 156.832V160.384L184.759 168.16L201.703 175.888V179.488L180.919 169.696V166.576L201.703 156.832ZM210.051 179.488V175.888L226.995 168.16L210.051 160.384V156.832L230.835 166.576V169.696L210.051 179.488ZM234.911 192.016H231.791L251.087 151.984H254.255L234.911 192.016ZM276.724 192.016L257.428 151.984H260.548L279.892 192.016H276.724ZM287.865 151.984H291.465V192.016H287.865V151.984ZM307.161 164.368H304.857L304.137 151.984H307.881L307.161 164.368ZM315.833 164.368H313.529L312.809 151.984H316.553L315.833 164.368ZM322.312 164.368H319.961L319.289 151.984H323.033L322.312 164.368Z" fill="#111111"/>
</svg>
