<svg width="1000" height="200" viewBox="0 0 1000 200" fill="none" xmlns="http://www.w3.org/2000/svg">
<path d="M7.536 18.736L6.72 15.568C9.168 14.608 11.424 13.792 14.112 13.792C19.008 13.792 21.984 17.824 21.984 22.096V33.232C21.984 35.584 22.32 37.984 23.088 40.192L19.728 40.624L18.816 37.408C17.088 39.472 15.12 40.528 12.432 40.528C7.536 40.528 4.8 36.688 4.8 32.128C4.8 27.184 7.824 22.864 13.008 22.864C14.928 22.864 16.752 23.44 18.384 24.112V21.664C18.384 18.832 16.656 16.816 13.968 16.816C11.712 16.816 9.6 17.872 7.536 18.736ZM18.384 33.088V27.136C16.848 26.464 15.216 25.888 13.488 25.888C9.84 25.888 8.4 29.056 8.4 32.32C8.4 34.72 9.648 37.504 12.432 37.504C15.216 37.504 16.896 35.152 18.384 33.088ZM34.2533 4.384H37.8533V15.232C39.6773 14.272 41.2133 13.792 43.3253 13.792C47.4533 13.792 53.7893 17.152 53.7893 26.944C53.7893 37.024 47.9813 40.528 43.4693 40.528C40.4933 40.528 39.3413 39.52 37.1813 37.6L36.4133 40.48L33.0053 40.048C34.0613 37.024 34.2533 33.76 34.2533 30.496V4.384ZM37.8533 18.88V32.992C38.9573 35.344 40.4933 37.504 43.4213 37.504C45.7733 37.504 50.1893 35.488 50.1893 27.088C50.1893 19.936 46.5893 16.816 42.7493 16.816C40.9733 16.816 39.2933 17.728 37.8533 18.88ZM80.1225 33.28L82.5705 35.824C79.9785 38.608 77.3865 40.528 73.4025 40.528C68.6505 40.528 62.3145 37.6 62.3145 27.424C62.3145 17.152 68.1225 13.792 73.2585 13.792C77.4825 13.792 80.4585 16.096 82.7145 19.504L79.5945 21.568C78.2985 18.976 76.4265 16.816 73.2585 16.816C69.6105 16.816 65.9145 19.504 65.9145 27.088C65.9145 35.104 70.0425 37.504 73.3545 37.504C76.1865 37.504 78.3945 35.344 80.1225 33.28ZM110.824 40.096L107.416 40.528L106.648 37.648C104.488 39.568 103.336 40.528 100.36 40.528C95.8478 40.528 90.0878 37.072 90.0878 26.992C90.0878 17.2 96.3278 13.792 100.504 13.792C102.664 13.792 104.152 14.32 105.928 15.28V4.384H109.528V30.832C109.528 34 109.816 37.168 110.824 40.096ZM105.928 33.088V18.928C104.536 17.776 102.904 16.816 101.08 16.816C97.2398 16.816 93.6878 20.032 93.6878 27.136C93.6878 35.488 98.0558 37.504 100.456 37.504C103.24 37.504 104.968 35.44 105.928 33.088ZM139.989 28.096H122.901C123.093 35.152 126.261 37.504 130.197 37.504C133.029 37.504 135.861 36.208 138.213 34.768L139.749 37.984C136.533 39.424 133.461 40.528 129.909 40.528C122.325 40.528 119.301 34 119.301 27.328C119.301 20.608 122.421 13.792 130.101 13.792C138.645 13.792 139.989 23.344 139.989 26.128V28.096ZM122.853 25.072H136.389C136.245 20.848 133.845 16.816 129.813 16.816C125.781 16.816 123.813 19.888 122.853 25.072ZM169.586 6.544V10.192C167.57 9.328 165.266 7.792 163.058 7.792C159.89 7.792 158.498 9.76 158.498 13.072V15.952H166.754V18.976H158.498V40H154.898V18.976H148.514V15.952H154.898V13.504C154.898 7.408 159.026 4.768 162.818 4.768C165.17 4.768 167.474 5.584 169.586 6.544ZM193.76 13.792H197.168C196.304 16.912 196.064 20.128 196.064 23.392V37.504C196.064 45.52 190.208 47.824 186.512 47.824C183.488 47.824 180.368 46.096 178.352 43.888L180.896 41.68C182.336 43.552 184.544 44.8 186.944 44.8C190.736 44.8 192.464 41.344 192.464 37.696V35.68C190.496 36.976 188.864 37.84 186.32 37.84C180.032 37.84 177.008 31.84 177.008 26.272C177.008 20.176 179.696 13.792 186.799 13.792C189.248 13.792 191.12 14.608 193.088 16.048L193.76 13.792ZM192.464 31.456V19.984C191.312 18.256 189.056 16.816 186.848 16.816C182.096 16.816 180.608 21.904 180.608 25.84C180.608 30.832 183.008 34.816 186.512 34.816C188.72 34.816 191.36 33.328 192.464 31.456ZM207.133 40V4.384H210.733V18.016C212.557 15.568 215.293 13.792 218.461 13.792C221.533 13.792 225.085 14.752 225.085 25.264V40H221.485V24.976C221.485 22.624 221.485 16.816 218.221 16.816C215.533 16.816 213.133 19.216 212.029 21.472C210.637 24.352 210.733 27.232 210.733 30.448V40H207.133ZM243.498 40V17.344H236.202V14.32H247.098V40H243.498ZM245.178 4.768C246.858 4.768 248.202 6.064 248.202 7.792C248.202 9.52 246.858 10.816 245.178 10.816C243.498 10.816 242.154 9.52 242.154 7.792C242.154 6.064 243.498 4.768 245.178 4.768ZM262.535 37.504H266.135C266.135 42.256 267.095 44.8 270.647 44.8C273.959 44.8 275.255 41.152 275.255 39.664V17.344H267.815V14.32H278.855V39.472C278.855 45.184 274.295 47.824 270.695 47.824C265.175 47.824 262.535 43.744 262.535 37.504ZM276.791 4.768C278.471 4.768 279.767 6.064 279.767 7.792C279.767 9.52 278.471 10.816 276.791 10.816C275.063 10.816 273.719 9.52 273.719 7.792C273.719 6.064 275.111 4.768 276.791 4.768ZM307.781 14.32H312.341C307.253 20.224 305.765 22.24 301.973 26.08L314.597 40H309.845L299.765 28.192L298.133 29.824V40H294.533V4.384H298.133V25.552C301.541 22.048 305.045 18.448 307.781 14.32ZM329.458 40V7.408H322.162V4.384H333.058V40H329.458ZM348.639 40V22.288C348.639 18.784 348.159 16.48 347.583 13.792H351.183L351.711 16.096C353.247 14.752 354.591 13.792 356.751 13.792C359.103 13.792 359.727 14.368 361.119 16.144C362.607 14.8 363.951 13.792 366.063 13.792C369.519 13.792 371.727 16.048 371.727 19.504V40H368.127V19.504C368.127 17.776 367.215 16.816 365.775 16.816C364.143 16.816 362.751 18.16 361.983 19.504V40H358.383V19.744C358.383 18.4 357.999 16.816 356.367 16.816C354.639 16.816 352.911 18.352 352.239 19.936V40H348.639ZM383.084 29.296V40H379.484V27.088C379.484 22.768 379.292 18.4 378.332 14.32H381.788L382.604 19.024C384.428 16 387.74 13.792 391.34 13.792C395.42 13.792 397.532 17.536 397.532 21.904V40H393.932V22.96C393.932 20.512 393.932 16.816 390.764 16.816C387.356 16.816 383.084 20.272 383.084 29.296ZM417.338 40.528C412.874 40.528 407.162 37.552 407.162 27.184C407.162 17.248 412.442 13.792 417.338 13.792C426.41 13.792 427.562 23.008 427.562 27.184C427.562 37.12 422.282 40.528 417.338 40.528ZM417.338 37.504C422.954 37.504 423.962 31.6 423.962 27.184C423.962 22.768 422.954 16.816 417.338 16.816C411.722 16.816 410.762 22.768 410.762 27.184C410.762 31.6 411.722 37.504 417.338 37.504ZM439.399 13.84L440.119 16.672C442.279 14.752 443.431 13.792 446.407 13.792C450.919 13.792 456.727 17.248 456.727 27.328C456.727 37.072 450.391 40.528 446.263 40.528C444.151 40.528 442.615 40 440.791 39.04V49.84H437.191V23.776C437.191 20.512 436.999 17.392 435.991 14.272L439.399 13.84ZM440.791 21.28V35.392C442.231 36.544 443.911 37.504 445.687 37.504C449.911 37.504 453.127 33.856 453.127 27.184C453.127 18.784 448.711 16.816 446.359 16.816C443.431 16.816 441.895 18.928 440.791 21.28ZM483.684 49.84H480.084V39.04C478.308 40 476.82 40.528 474.66 40.528C470.484 40.528 464.196 37.12 464.196 27.328C464.196 17.248 470.004 13.792 474.516 13.792C477.492 13.792 478.644 14.752 480.804 16.672L481.524 13.84L484.932 14.272C483.972 17.296 483.684 20.32 483.684 23.488V49.84ZM480.084 35.392V21.04C478.836 18.736 477.444 16.816 474.612 16.816C472.212 16.816 467.796 18.784 467.796 27.184C467.796 33.856 471.012 37.504 475.236 37.504C477.06 37.504 478.692 36.544 480.084 35.392ZM500.417 29.296V40H496.817V25.264C496.817 20.992 496.481 17.536 495.809 14.32H499.313L500.129 19.216C502.097 16.192 504.257 13.792 508.097 13.792C512.897 13.792 514.049 18.496 514.049 22.384H510.449C510.353 20.464 510.641 16.816 507.905 16.816C505.265 16.816 500.417 20.848 500.417 29.296ZM540.335 16.768L538.751 19.696C536.735 18.256 534.479 16.816 531.887 16.816C529.727 16.816 527.711 18.4 527.711 20.704C527.711 23.2 530.687 24.448 532.655 25.168C536.687 26.656 540.911 28.336 540.911 33.424C540.911 37.648 537.071 40.528 533.087 40.528C529.199 40.528 525.359 38.608 522.527 36.064L524.495 33.184C526.511 35.344 529.823 37.504 532.847 37.504C535.247 37.504 537.311 36.16 537.311 33.568C537.311 30.208 534.623 29.296 531.983 28.288C528.335 26.896 524.111 25.168 524.111 20.56C524.111 16.816 527.567 13.792 532.031 13.792C535.247 13.792 537.791 14.944 540.335 16.768ZM569.02 14.32V17.344H559.852V31.984C559.852 34.48 559.9 37.504 563.164 37.504C565.9 37.504 567.58 35.248 568.588 32.992L572.044 33.856C570.316 37.552 567.388 40.528 563.068 40.528C558.892 40.528 556.252 38.512 556.252 30.832V17.344H550.732V14.32H556.252V6.448H559.852V14.32H569.02ZM595.545 24.832V14.32H599.145V26.752C599.145 31.216 599.241 35.632 600.249 40H596.841L596.025 35.056C594.345 37.888 590.889 40.528 587.577 40.528C583.017 40.528 581.097 36.64 581.097 32.176V14.32H584.697V31.12C584.697 33.52 584.697 37.504 587.865 37.504C591.417 37.504 595.545 33.52 595.545 24.832ZM624.998 14.32H628.742L620.774 40.336H616.694L608.726 14.32H612.47L618.71 34.24L624.998 14.32ZM639.38 40.336L634.868 14.32H638.9L641.828 33.568H641.924L645.62 20.608H649.124L652.82 33.568H652.916L655.844 14.32H659.876L655.364 40.336H651.524L647.348 26.416L643.22 40.336H639.38ZM686.305 14.32L678.337 26.128L688.465 40H683.905L676.321 28.912L668.833 40H664.273L674.353 26.272L666.193 14.32H670.369L676.369 23.344L682.225 14.32H686.305ZM712.11 14.32H715.95L706.446 38.416C705.006 42.112 702.702 47.824 697.998 47.824C694.686 47.824 692.382 45.28 691.47 42.256L694.494 40.672C695.07 42.208 696.078 44.8 697.998 44.8C700.014 44.8 701.214 42.016 701.886 40.48L703.566 36.592L695.31 14.32H699.198L705.438 31.792L712.11 14.32ZM743.339 14.32V17.008L728.603 36.976H743.915V40H723.947V37.36L738.779 17.344H726.059V14.32H743.339ZM14.448 50.56L26.688 88H22.8L19.728 77.824H9.216L6.144 88H2.256L14.448 50.56ZM14.448 60.832L10.08 74.8H18.864L14.448 60.832ZM43.8533 88H33.9653V53.44H41.2133C45.1973 53.44 52.0613 53.92 52.0613 62.176C52.0613 65.488 50.3333 68.032 47.5013 69.616C51.4373 71.536 53.5493 74.128 53.5493 78.592C53.5493 83.632 49.9013 88 43.8533 88ZM37.5653 56.464V68.512H41.7413C44.9573 68.512 48.4613 66.16 48.4613 62.032C48.4613 56.32 43.6613 56.464 41.4532 56.464H37.5653ZM37.5653 84.976H43.6133C46.7813 84.976 49.9493 83.104 49.9493 78.784C49.9493 74.944 47.5493 71.536 42.0773 71.536H37.5653V84.976ZM81.8025 60.928H78.2025C78.1545 58.048 76.0905 55.792 73.1625 55.792C65.8665 55.792 65.3865 65.68 65.3865 71.008C65.3865 76.048 65.9145 85.648 72.8265 85.648C76.4265 85.648 78.5865 82.96 78.6345 79.552H82.2345C81.8505 85.168 78.4425 88.672 72.6825 88.672C63.1785 88.672 61.7865 78.256 61.7865 70.912C61.7865 63.328 63.3705 52.768 73.1145 52.768C77.9145 52.768 81.5145 56.128 81.8025 60.928ZM91.7198 88V53.44H100.504C107.176 53.44 111.64 57.232 111.64 70.72C111.64 84.016 107.512 88 99.9758 88H91.7198ZM95.3198 56.464V84.976H99.7358C104.728 84.976 108.04 83.584 108.04 70.72C108.04 57.472 104.248 56.464 99.6398 56.464H95.3198ZM139.749 53.44V56.464H125.397V68.752H135.717V71.776H125.397V84.976H140.085V88H121.797V53.44H139.749ZM169.73 53.44V56.464H154.802V68.464H165.986V71.488H154.802V88H151.202V53.44H169.73ZM194.624 73.744H186.464V70.72H198.224V88.672H194.624V85.312C192.848 87.472 190.208 88.672 187.376 88.672C184.592 88.672 176.96 88.192 176.96 71.488C176.96 57.808 181.136 52.768 187.856 52.768C193.712 52.768 196.448 56.896 196.544 62.272H192.944C193.232 59.104 191.696 55.792 188.048 55.792C180.848 55.792 180.56 65.824 180.56 70.96C180.56 75.76 180.8 85.648 187.568 85.648C190.928 85.648 194.624 82.96 194.624 76.048V73.744ZM209.869 53.44V68.56H221.869V53.44H225.469V88H221.869V71.584H209.869V88H206.269V53.44H209.869ZM251.13 53.44V56.464H246.426V84.976H251.13V88H238.17V84.976H242.826V56.464H238.17V53.44H251.13ZM271.607 56.464V53.44H281.591V76.048C281.591 80.848 281.207 88.672 271.799 88.672C266.183 88.672 262.631 85.504 262.631 78.016V73.168H266.231V79.36C266.231 83.344 268.151 85.648 271.703 85.648C275.831 85.648 277.991 83.296 277.991 78.352V56.464H271.607ZM297.605 53.44V68.656C300.101 68.368 306.005 62.368 309.365 53.008L312.917 54.88L310.085 59.632C305.525 67.264 303.173 69.184 300.965 70.576L315.893 88H311.093L297.893 71.728H297.605V88H294.005V53.44H297.605ZM327.634 53.44V84.976H342.61V88H324.034V53.44H327.634ZM359.775 70.672L367.023 53.44H370.575V88H366.975V61.696H366.879L359.775 78.64L352.719 61.696L352.623 61.792V88H349.023V53.44H352.527L359.775 70.672ZM379.676 88V53.44H383.852L394.364 79.264H394.508V53.44H398.108V88.336H394.7L383.372 60.448L383.276 60.544V88H379.676ZM406.73 70.72C406.73 56.272 411.53 52.768 417.338 52.768C427.418 52.768 427.946 64.288 427.946 70.72C427.946 75.328 428.281 88.672 417.338 88.672C406.682 88.672 406.73 75.616 406.73 70.72ZM417.338 85.648C420.938 85.648 424.346 83.248 424.346 70.72C424.346 67.552 424.826 55.792 417.338 55.792C409.658 55.792 410.33 68.704 410.33 70.72C410.33 74.656 410.138 85.648 417.338 85.648ZM438.151 88V53.44H446.455C452.695 53.44 456.343 57.184 456.343 64C456.343 71.296 451.543 74.416 444.775 74.416H441.751V88H438.151ZM441.751 71.392H445.735C449.911 71.392 452.743 68.896 452.743 64.048C452.743 58.624 450.247 56.464 445.975 56.464H441.751V71.392ZM474.9 88.672C463.956 88.672 464.244 75.136 464.244 70.72C464.244 56.224 469.092 52.768 474.9 52.768C486.228 52.768 485.556 67.264 485.556 70.72C485.556 77.104 485.076 82.048 482.1 85.408L486.324 90.88H481.908L479.508 87.52C478.116 88.288 476.484 88.672 474.9 88.672ZM467.844 70.72C467.844 83.008 471.3 85.648 474.9 85.648C479.124 85.648 481.956 82.048 481.956 70.72C481.956 58.432 478.548 55.792 474.9 55.792C467.028 55.792 467.844 69.28 467.844 70.72ZM495.569 88V53.44H504.545C513.185 53.44 513.953 61.216 513.953 63.232C513.953 66.784 512.609 70.048 507.809 72.784L517.121 88H512.753L504.353 73.6C502.625 73.648 500.897 73.648 499.169 73.696V88H495.569ZM499.169 70.624H502.577C507.473 70.624 510.353 68.128 510.353 63.04C510.353 58.432 508.433 56.464 502.721 56.464H499.169V70.624ZM542.159 57.088L539.999 59.68C537.887 57.808 535.487 55.792 532.511 55.792C529.439 55.792 526.943 57.904 526.943 61.072C526.943 62.896 527.279 64.528 531.935 67.36L534.671 69.04C541.007 72.928 542.734 74.752 542.734 78.784C542.734 84.976 538.607 88.672 532.559 88.672C528.095 88.672 524.783 86.512 522.095 83.056L524.879 80.848C526.559 83.536 529.247 85.648 532.559 85.648C536.159 85.648 539.135 82.96 539.135 79.264C539.135 76.48 538.943 75.52 532.847 71.872L529.727 70C526.319 67.984 523.343 65.632 523.343 61.312C523.343 55.888 527.471 52.768 532.655 52.768C536.255 52.768 539.567 54.688 542.159 57.088ZM572.812 53.44V56.464H562.972V88H559.372V56.464H549.724V53.44H572.812ZM595.977 53.44H599.577V78.928C599.577 85.456 594.681 88.672 590.025 88.672C586.281 88.672 580.425 86.56 580.425 77.008V53.44H584.025V78.928C584.025 83.92 587.241 85.648 590.025 85.648C594.441 85.648 595.977 82.384 595.977 78.496V53.44ZM618.662 82.768L624.854 53.44H628.838L621.014 88.336H616.07L608.39 53.44H612.326L618.566 82.768H618.662ZM647.444 63.088L652.868 80.416H652.964L654.692 53.44H658.58L655.94 88.336H651.812L647.444 73.36L643.028 88.336H639.044L636.164 53.44H640.052L641.876 80.416H641.972L647.444 63.088ZM666.385 53.44H670.513L676.369 66.832L682.225 53.44H686.401L678.241 70.576L686.641 88H682.465L676.369 74.176L670.273 88H666.145L674.593 70.528L666.385 53.44ZM704.286 69.088L710.91 53.44H714.894L706.062 73.408V88H702.462V73.408L693.63 53.44H697.614L704.286 69.088ZM725.003 53.44H743.003V55.984L728.795 84.976H744.155V88H724.475V85.408L738.875 56.464H725.003V53.44ZM16.368 100.384V132.976H22.56V136H6.288V132.976H12.768V104.32L6 106.384V103.648L16.368 100.384ZM37.1813 132.976H52.9253V136H33.5813V134.464C33.5813 126.88 36.7013 123.52 42.1253 118.864C44.8613 116.56 49.2293 113.056 49.2293 109.168C49.2293 105.952 47.3573 103.792 44.0933 103.792C39.8693 103.792 38.0453 107.248 37.8533 110.992H34.2533C34.5893 105.136 37.9493 100.768 44.1413 100.768C49.2293 100.768 52.8293 103.888 52.8293 109.12C52.8293 114.304 48.6053 117.52 45.1013 120.688L42.6053 122.944C39.4853 125.776 37.3733 128.56 37.1813 132.976ZM69.4665 119.008V115.984C73.3545 116.176 77.0025 113.632 77.0025 109.504C77.0025 106.096 74.2185 103.792 71.0025 103.792C68.0265 103.792 65.5785 106.24 64.4265 108.784L61.4025 107.056C63.4185 103.168 66.9705 100.768 71.3865 100.768C76.4745 100.768 80.6025 104.704 80.6025 109.792C80.6025 113.056 78.7305 115.552 76.0425 117.232C79.8825 118.912 82.1865 122.032 82.1865 126.304C82.1865 132.688 77.4825 136.672 71.2425 136.672C66.3945 136.672 63.3225 134.08 60.9225 130.096L64.0905 128.224C65.5305 131.488 67.6425 133.648 71.3865 133.648C75.5625 133.648 78.5865 131.056 78.5865 126.784C78.5865 121.264 74.5545 118.528 69.4665 119.008ZM106.648 100.768V124.048H111.592V127.072H106.648V136H103.048V127.072H89.2718V124.72L101.992 100.768H106.648ZM103.048 124.048V105.664H102.952L93.3997 124.048H103.048ZM137.205 101.44V104.464H124.965L124.005 116.56C125.637 115.072 127.557 114.352 129.765 114.352C135.093 114.352 139.365 118.48 139.365 125.392C139.365 131.344 135.573 136.672 129.237 136.672C125.109 136.672 122.085 134.176 119.925 130.912L122.709 128.848C124.005 131.44 126.453 133.648 129.477 133.648C133.605 133.648 135.765 129.328 135.765 125.68C135.765 119.872 132.501 117.376 129.861 117.376C127.125 117.376 125.301 119.104 123.957 121.312L120.309 120.592L121.749 101.44H137.205ZM164.834 124.768C164.834 121.024 163.298 116.992 158.93 116.992C155.042 116.992 152.306 121.408 152.306 125.584C152.306 129.184 154.034 133.648 158.258 133.648C163.106 133.648 164.834 128.896 164.834 124.768ZM168.05 102.88L166.322 105.856C164.834 104.848 163.346 103.792 161.426 103.792C155.378 103.792 152.306 112.528 152.066 117.472C154.13 115.168 156.194 113.968 159.41 113.968C165.362 113.968 168.434 119.344 168.434 124.72C168.434 130.624 165.074 136.672 158.498 136.672C150.098 136.672 148.466 127.984 148.466 121.312C148.466 107.008 155.138 100.768 161.57 100.768C163.826 100.768 166.13 101.68 168.05 102.88ZM177.152 101.44H196.544L183.056 136H179.168L191.84 104.464H177.152V101.44ZM208.429 126.592C208.429 131.104 211.501 133.648 215.869 133.648C220.237 133.648 223.309 131.104 223.309 126.592C223.309 122.128 220.189 119.536 215.869 119.536C211.549 119.536 208.429 122.128 208.429 126.592ZM222.109 110.128C222.109 106.288 219.805 103.792 215.869 103.792C211.741 103.792 209.581 106.48 209.581 110.512C209.581 114.208 212.269 116.512 215.869 116.512C219.757 116.512 222.109 114.016 222.109 110.128ZM221.725 117.904C225.229 119.248 226.909 123.04 226.909 126.592C226.909 132.208 223.165 136.672 215.869 136.672C208.189 136.672 204.829 131.872 204.829 126.592C204.829 123.04 206.509 119.248 210.013 117.904C207.229 115.504 205.981 113.632 205.981 109.84C205.981 104.176 210.445 100.768 215.869 100.768C221.581 100.768 225.709 104.272 225.709 110.176C225.709 113.776 224.365 115.648 221.725 117.904ZM238.074 112.672C238.074 116.416 239.658 120.448 243.978 120.448C247.866 120.448 250.65 116.08 250.65 111.808C250.65 108.256 248.874 103.792 244.698 103.792C239.85 103.792 238.074 108.544 238.074 112.672ZM234.906 134.56L236.634 131.584C237.978 132.544 239.802 133.648 241.53 133.648C247.578 133.648 250.602 124.912 250.89 119.92C248.778 122.272 246.762 123.472 243.546 123.472C237.594 123.472 234.474 118.096 234.474 112.72C234.474 106.816 237.882 100.768 244.458 100.768C252.858 100.768 254.49 109.456 254.49 116.128C254.49 129.712 248.25 136.672 241.386 136.672C239.082 136.672 236.826 135.76 234.906 134.56ZM283.463 118.72C283.463 123.52 283.607 136.672 273.431 136.672C263.351 136.672 263.399 122.752 263.399 118.72C263.399 116.704 262.583 100.768 273.431 100.768C283.415 100.768 283.463 113.728 283.463 118.72ZM266.999 118.72C266.999 123.136 266.903 133.648 273.431 133.648C276.599 133.648 279.863 131.392 279.863 118.72C279.863 106.48 276.887 103.792 273.431 103.792C266.615 103.792 266.999 115.456 266.999 118.72ZM298.949 141.376V138.112C300.101 137.872 301.157 137.392 302.021 136.576C300.245 136.432 298.853 135.088 298.853 133.264C298.853 131.056 300.484 129.52 302.645 129.52C305.045 129.52 306.629 131.632 306.629 133.888C306.629 137.92 302.453 140.56 298.949 141.376ZM327.154 132.928C327.154 130.816 328.978 129.232 331.042 129.232C333.106 129.232 334.882 130.816 334.882 132.928C334.882 135.04 333.106 136.672 331.042 136.672C328.93 136.672 327.154 135.04 327.154 132.928ZM356.511 141.376V138.112C357.663 137.872 358.719 137.392 359.583 136.576C357.807 136.432 356.415 135.088 356.415 133.264C356.415 131.056 358.047 129.52 360.207 129.52C362.607 129.52 364.191 131.632 364.191 133.888C364.191 137.92 360.015 140.56 356.511 141.376ZM356.415 116.656C356.415 114.544 358.239 112.96 360.303 112.96C362.367 112.96 364.143 114.544 364.143 116.656C364.143 118.768 362.367 120.4 360.303 120.4C358.191 120.4 356.415 118.768 356.415 116.656ZM384.716 132.928C384.716 130.816 386.54 129.232 388.604 129.232C390.668 129.232 392.444 130.816 392.444 132.928C392.444 135.04 390.668 136.672 388.604 136.672C386.492 136.672 384.716 135.04 384.716 132.928ZM384.716 116.656C384.716 114.544 386.54 112.96 388.604 112.96C390.668 112.96 392.444 114.544 392.444 116.656C392.444 118.768 390.668 120.4 388.604 120.4C386.492 120.4 384.716 118.768 384.716 116.656ZM419.69 101.44L419.018 125.488H415.802L414.986 101.44H419.69ZM413.498 132.928C413.498 130.816 415.322 129.232 417.386 129.232C419.45 129.232 421.226 130.816 421.226 132.928C421.226 135.04 419.45 136.672 417.386 136.672C415.273 136.672 413.498 135.04 413.498 132.928ZM447.655 125.632H444.055V120.544C444.055 117.664 444.919 116.56 448.327 114.016C450.055 112.672 450.919 111.52 450.919 109.216C450.919 106.048 449.047 103.792 445.783 103.792C442.519 103.792 440.791 106.048 440.791 109.072H437.191C437.431 103.984 440.695 100.768 445.831 100.768C451.111 100.768 454.519 104.032 454.519 109.36C454.519 112.48 453.415 114.112 451.447 115.84C448.615 118.384 447.655 118.24 447.655 120.544V125.632ZM442.375 132.928C442.375 130.816 444.199 129.232 446.263 129.232C448.327 129.232 450.103 130.816 450.103 132.928C450.103 135.04 448.327 136.672 446.263 136.672C444.151 136.672 442.375 135.04 442.375 132.928ZM485.364 129.424L486.66 132.64C482.82 135.136 478.404 136.672 473.844 136.672C467.316 136.672 460.356 132.16 460.356 121.744C460.356 112.288 465.54 100.768 476.196 100.768C482.964 100.768 489.444 106.864 489.444 115.552C489.444 120.304 487.332 127.36 481.572 127.36C479.46 127.36 478.74 126.736 477.3 125.248C475.716 126.544 474.66 127.36 472.5 127.36C469.764 127.36 467.844 125.44 467.844 122.656C467.844 119.872 469.092 116.128 471.012 113.968C473.028 111.76 476.532 111.424 479.364 111.424H481.524L480.228 119.296C480.132 119.968 479.844 121.312 479.844 121.984C479.844 123.136 480.372 124.336 481.62 124.336C484.932 124.336 485.844 118.384 485.844 115.888C485.844 107.152 479.892 104.368 476.148 104.368C467.604 104.368 463.956 114.304 463.956 121.552C463.956 129.136 467.508 133.072 474.132 133.072C478.356 133.072 481.86 131.68 485.364 129.424ZM477.348 115.888L477.54 114.4C473.844 114.496 471.444 118.432 471.444 122.368C471.444 123.232 471.828 124.336 472.788 124.336C474.228 124.336 476.436 122.896 477.348 115.888ZM501.521 97.36H505.121L497.153 140.608H493.553L496.433 124.96H490.049L490.769 121.792H497.009L498.161 115.456H491.873L492.449 112.288H498.785L501.521 97.36ZM505.649 140.608H502.049L510.017 97.36H513.617L510.881 112.288H517.265L516.641 115.456H510.257L509.105 121.792H515.537L514.961 124.96H508.529L505.649 140.608ZM533.951 120.256V129.808C536.111 129.184 537.551 127.6 537.551 125.296C537.551 122.8 536.591 121.504 533.951 120.256ZM530.734 129.76V118.912C529.055 118.336 527.183 117.376 525.935 116.08C524.735 114.784 523.919 113.152 523.919 111.136C523.919 107.248 527.231 104.56 530.734 103.936V100.384H533.951V103.888C536.447 104.224 539.087 105.52 541.055 107.248L538.943 109.984C537.599 108.64 535.775 107.44 533.951 107.056V116.56C538.943 118.672 541.151 121.216 541.151 125.2C541.151 129.616 538.127 132.304 533.951 132.976V137.44H530.734V132.976C527.855 132.784 525.023 131.248 522.911 129.184L525.118 126.592C526.703 128.08 528.623 129.424 530.734 129.76ZM530.783 115.312V107.2C528.671 107.872 527.519 108.928 527.519 111.232C527.519 112.912 528.335 114.112 530.783 115.312ZM564.892 130.24L558.316 120.256C556.3 122.704 554.236 125.44 554.236 128.752C554.236 131.632 555.82 133.648 558.844 133.648C561.388 133.648 563.5 132.352 564.892 130.24ZM568.732 129.808L572.908 134.56L570.076 136.672L566.812 132.88C564.748 135.328 562.012 136.672 558.844 136.672C554.044 136.672 550.636 133.696 550.636 128.8C550.636 124.048 553.42 120.544 556.396 117.136C554.764 114.496 553.18 111.808 553.18 108.64C553.18 102.832 557.116 100.768 559.516 100.768C563.308 100.768 565.66 103.936 565.66 107.488C565.66 111.664 563.212 114.4 560.668 117.376L566.332 126.496C566.476 125.776 566.572 124.96 566.668 124.096C566.86 122.08 566.86 119.872 566.86 118.336H570.364C570.316 122.176 570.172 126.16 568.732 129.808ZM558.796 114.4C560.284 112.144 562.06 110.128 562.06 107.296C562.06 105.904 561.292 103.792 559.564 103.792C557.5 103.792 556.78 106.528 556.78 108.16C556.78 110.56 557.596 112.384 558.796 114.4ZM598.137 127.168C598.137 125.968 597.801 124.72 596.361 124.72C593.385 124.72 592.329 129.232 592.329 131.584C592.329 132.88 592.665 134.032 594.201 134.032C597.033 134.032 598.137 129.376 598.137 127.168ZM596.985 100.768H600.441L582.297 136.672H578.841L596.985 100.768ZM587.241 105.856C587.241 104.656 586.857 103.408 585.465 103.408C582.441 103.408 581.433 107.92 581.433 110.272C581.433 111.616 581.721 112.72 583.305 112.72C586.137 112.72 587.241 108.064 587.241 105.856ZM588.921 131.104C588.921 126.736 591.465 122.08 596.313 122.08C599.481 122.08 601.545 124 601.545 127.216C601.545 131.632 599.097 136.672 594.105 136.672C590.601 136.672 588.921 134.416 588.921 131.104ZM578.025 109.792C578.025 105.424 580.569 100.768 585.417 100.768C588.585 100.768 590.649 102.688 590.649 105.904C590.649 110.32 588.201 115.36 583.209 115.36C579.705 115.36 578.025 113.104 578.025 109.792ZM614.822 98.8L623.318 105.616L621.494 107.968L612.23 101.776L614.822 98.8ZM641.972 115.168C643.748 115.168 646.004 116.032 648.068 116.944C650.132 117.856 652.052 118.72 653.204 118.72C655.652 118.72 657.668 115.984 658.58 114.016L661.076 115.84C659.588 118.768 656.804 121.888 653.252 121.888C651.332 121.888 648.164 120.448 646.34 119.728C645.092 119.2 643.316 118.336 641.972 118.336C639.14 118.336 637.844 121.36 636.548 123.424L634.052 121.552C635.876 118.432 637.94 115.168 641.972 115.168ZM670.465 118.864H666.913L674.785 103.36H677.953L685.825 118.864H682.273L676.369 107.248L670.465 118.864ZM703.422 101.44H706.83V110.32L715.47 107.776L716.478 110.896L707.598 113.44L713.166 120.448L710.622 122.464L705.15 115.6L699.822 122.464L697.182 120.448L702.702 113.44L693.822 110.896L694.782 107.776L703.422 110.32V101.44ZM19.728 185.392L18 187.744C11.424 183.568 8.4 175.648 8.4 168.064C8.4 160.48 11.424 152.656 18 148.384L19.728 150.784C14.064 154.816 12 161.344 12 168.064C12 174.784 14.064 181.312 19.728 185.392ZM37.8533 150.784L39.5813 148.384C46.1573 152.656 49.1813 160.48 49.1813 168.064C49.1813 175.648 46.1573 183.52 39.5813 187.744L37.8533 185.392C43.5173 181.36 45.5813 174.784 45.5813 168.064C45.5813 161.392 43.5173 154.816 37.8533 150.784ZM79.6425 189.376H65.6265V148.384H79.6425V151.408H69.2265V186.352H79.6425V189.376ZM93.0158 189.376V186.352H103.432V151.408H93.0158V148.384H107.032V189.376H93.0158ZM138.549 148.384V149.728H136.965C132.261 149.728 130.869 151.552 130.869 154.144V162.784C130.869 165.232 130.917 167.152 128.469 168.496C130.917 169.792 130.869 171.712 130.869 174.16V182.8C130.869 185.392 132.261 187.216 136.965 187.216H138.549V188.56H135.909C129.093 188.56 127.269 186.352 127.269 181.072V172.96C127.269 169.072 124.389 169.408 121.557 168.496C124.389 167.536 127.269 167.872 127.269 163.984V155.872C127.269 150.592 129.093 148.384 135.909 148.384H138.549ZM149.378 149.728V148.384H152.018C158.834 148.384 160.658 150.592 160.658 155.872V163.984C160.658 167.872 163.538 167.536 166.37 168.496C163.538 169.408 160.658 169.072 160.658 172.96V181.072C160.658 186.352 158.834 188.56 152.018 188.56H149.378V187.216H150.962C155.666 187.216 157.058 185.392 157.058 182.8V174.16C157.058 171.712 157.01 169.792 159.458 168.496C157.01 167.152 157.058 165.232 157.058 162.784V154.144C157.058 151.552 155.666 149.728 150.962 149.728H149.378ZM201.488 190H172.688V187.6H201.488V190ZM229.069 162.304V165.472H202.669V162.304H229.069ZM229.069 167.968V171.136H202.669V167.968H229.069ZM250.89 168.304H238.41V165.28H250.89V168.304ZM286.631 165.136V168.304H275.111V179.68H271.751V168.304H260.231V165.136H271.751V153.76H275.111V165.136H286.631ZM310.613 149.44L312.629 151.936L296.645 166.72L312.629 181.504L310.613 184L291.749 166.72L310.613 149.44ZM320.53 151.936L322.546 149.44L341.41 166.72L322.546 184L320.53 181.504L336.514 166.72L320.53 151.936ZM354.351 185.296H350.751L365.199 148.144H368.799L354.351 185.296ZM393.98 185.296L379.532 148.144H383.132L397.58 185.296H393.98ZM415.754 197.824V145.984H418.922V197.824H415.754ZM442.807 149.44H449.431V155.68L447.415 161.92H444.823L442.807 155.68V149.44ZM465.924 149.44H472.548V155.68L470.532 161.872H467.94L465.924 155.68V149.44ZM477.252 149.44H483.876V155.68L481.86 161.872H479.268L477.252 155.68V149.44Z" fill="#111111"/>
</svg>
