<svg width="1000" height="200" viewBox="0 0 1000 200" fill="none" xmlns="http://www.w3.org/2000/svg">
<path d="M19.056 42C18.768 40.656 18.624 39.072 18.624 37.92C17.568 40.752 14.256 42.528 10.224 42.528C6 42.528 2.4 40.08 2.4 35.616C2.4 30.96 5.856 28.944 10.752 28.368L18.528 27.36V25.968C18.528 22.128 16.176 20.496 12.864 20.496C9.648 20.496 7.632 22.176 7.344 24.96H3.504C3.984 20.064 7.824 17.28 12.96 17.28C18.816 17.28 22.464 20.064 22.464 25.872V36.96C22.464 38.736 22.56 40.416 23.04 42H19.056ZM11.04 39.504C14.784 39.504 18.528 37.152 18.528 32.496V30.336L11.952 31.056C8.928 31.488 6.432 32.256 6.432 35.52C6.432 37.776 8.016 39.504 11.04 39.504ZM34.5964 37.776V42H30.7564V6.672H34.7404V22.128C35.8444 19.68 38.5804 17.28 42.7564 17.28C48.9004 17.28 53.5084 22.272 53.5084 29.952C53.5084 37.584 48.9004 42.576 42.7564 42.576C38.7724 42.576 35.7964 40.224 34.5964 37.776ZM34.5484 29.568V30.24C34.5484 35.712 37.2364 39.456 41.9404 39.456C46.6924 39.456 49.4764 35.568 49.4764 29.952C49.4764 24.288 46.6924 20.4 41.9404 20.4C37.2364 20.4 34.5484 24.096 34.5484 29.568ZM58.5585 29.952C58.5585 22.224 63.2145 17.28 69.9345 17.28C75.3105 17.28 78.8625 20.352 79.6305 25.488H75.8385C75.1665 22.272 73.1985 20.496 69.9345 20.496C65.1825 20.496 62.4945 24.288 62.4945 29.952C62.4945 35.616 65.1825 39.36 69.9345 39.36C73.1985 39.36 75.1665 37.584 75.8385 34.368H79.6305C78.8625 39.552 75.3105 42.576 69.9345 42.576C63.2145 42.576 58.5585 37.68 58.5585 29.952ZM103.346 42V37.776C102.146 40.224 99.1695 42.576 95.1855 42.576C89.0415 42.576 84.4335 37.584 84.4335 29.952C84.4335 22.272 89.0415 17.28 95.1855 17.28C99.3615 17.28 102.098 19.68 103.202 22.128V6.672H107.186V42H103.346ZM103.394 30.24V29.568C103.394 24.096 100.706 20.4 96.0015 20.4C91.2495 20.4 88.4655 24.288 88.4655 29.952C88.4655 35.568 91.2495 39.456 96.0015 39.456C100.706 39.456 103.394 35.712 103.394 30.24ZM135.565 34.896C134.461 40.032 130.285 42.576 125.581 42.576C118.765 42.576 113.965 37.824 113.965 30.048C113.965 22.176 118.909 17.28 125.341 17.28C132.493 17.28 135.709 22.992 135.709 29.184V30.768H117.853C118.045 36.336 120.973 39.408 125.581 39.408C128.845 39.408 130.813 37.824 131.821 34.896H135.565ZM125.341 20.496C121.549 20.496 118.669 22.944 117.997 27.888H131.821C131.725 23.712 129.661 20.496 125.341 20.496ZM143.084 20.88H139.58V17.856H143.084V13.344C143.084 8.832 145.964 6.528 150.092 6.528C150.956 6.528 152.06 6.624 152.78 6.768V9.936C152.156 9.84 151.196 9.792 150.332 9.792C148.604 9.792 147.02 10.656 147.02 13.392V17.856H152.204V20.88H147.02V42H143.084V20.88ZM174.262 40.464V36.912C173.158 39.264 170.47 41.568 166.246 41.568C160.054 41.568 155.542 36.912 155.542 29.376C155.542 22.128 160.054 17.28 166.246 17.28C170.47 17.28 173.254 19.776 174.406 22.08V17.856H178.294V40.176C178.294 47.856 173.302 51.12 166.87 51.12C161.062 51.12 157.126 48.768 156.166 44.064H160.198C161.014 47.088 163.558 48.048 166.822 48.048C171.574 48.048 174.262 45.504 174.262 40.464ZM174.55 29.952V28.8C174.55 23.808 171.43 20.4 166.966 20.4C162.262 20.4 159.478 24 159.478 29.376C159.478 34.704 162.262 38.4 166.966 38.4C171.43 38.4 174.55 34.944 174.55 29.952ZM190.834 22.272C191.986 19.2 194.866 17.28 198.562 17.28C203.986 17.28 207.202 20.688 207.202 26.448V42H203.218V27.312C203.218 22.848 201.25 20.544 197.458 20.544C193.762 20.544 190.834 22.896 190.834 28.704V42H186.85V6.672H190.834V22.272ZM215.203 12.816V7.968H219.715V12.816H215.203ZM215.491 42V17.856H219.475V42H215.491ZM227.718 12.816V7.968H232.23V12.816H227.718ZM225.51 50.832C224.79 50.832 224.166 50.784 223.446 50.64V47.472C223.878 47.568 224.262 47.616 224.742 47.616C226.998 47.616 228.006 46.896 228.006 44.304V17.856H231.99V44.16C231.99 48.672 229.974 50.832 225.51 50.832ZM256.794 42L247.626 30.624L244.506 33.648V42H240.522V6.672H244.506V29.424L256.41 17.856H261.162L250.506 28.08L261.594 42H256.794ZM271.272 42H267.288V6.672H271.272V42ZM298.619 22.464C300.107 19.2 303.179 17.28 306.731 17.28C312.299 17.28 315.035 20.784 315.035 26.448V42H311.003V27.312C311.003 22.8 309.371 20.544 305.771 20.544C302.171 20.544 299.435 23.136 299.435 28.704V42H295.403V27.312C295.403 22.8 293.819 20.544 290.171 20.544C286.523 20.544 283.787 23.136 283.787 28.704V42H279.803V17.856H283.643V22.272C284.795 19.2 287.771 17.28 291.275 17.28C295.355 17.28 297.563 19.248 298.619 22.464ZM327.143 17.856V22.272C328.295 19.296 331.319 17.28 335.015 17.28C340.439 17.28 343.655 20.688 343.655 26.448V42H339.671V27.312C339.671 22.848 337.703 20.544 333.911 20.544C330.215 20.544 327.287 22.896 327.287 28.704V42H323.303V17.856H327.143ZM373.112 29.952C373.112 37.728 368.312 42.576 361.64 42.576C354.968 42.576 350.168 37.728 350.168 29.952C350.168 22.176 354.968 17.28 361.64 17.28C368.312 17.28 373.112 22.176 373.112 29.952ZM354.104 29.952C354.104 35.76 356.936 39.36 361.64 39.36C366.344 39.36 369.176 35.76 369.176 29.952C369.176 24.144 366.344 20.496 361.64 20.496C356.936 20.496 354.104 24.144 354.104 29.952ZM383.865 37.776V50.544H379.881V17.856H383.721V22.272C384.825 19.824 387.705 17.28 391.881 17.28C398.025 17.28 402.633 22.272 402.633 29.952C402.633 37.584 398.025 42.576 391.881 42.576C387.897 42.576 385.065 40.224 383.865 37.776ZM383.673 29.568V30.24C383.673 35.712 386.361 39.456 391.065 39.456C395.817 39.456 398.601 35.568 398.601 29.952C398.601 24.288 395.817 20.4 391.065 20.4C386.361 20.4 383.673 24.096 383.673 29.568ZM426.452 50.544V37.776C425.252 40.224 422.42 42.576 418.436 42.576C412.292 42.576 407.684 37.584 407.684 29.952C407.684 22.272 412.292 17.28 418.436 17.28C422.612 17.28 425.492 19.824 426.596 22.272V17.856H430.436V50.544H426.452ZM426.644 30.24V29.568C426.644 24.096 423.956 20.4 419.252 20.4C414.5 20.4 411.716 24.288 411.716 29.952C411.716 35.568 414.5 39.456 419.252 39.456C423.956 39.456 426.644 35.712 426.644 30.24ZM452.383 17.52V21.168C451.807 21.024 450.943 20.976 450.319 20.976C446.479 20.976 442.975 24 442.975 30.096V42H438.991V17.856H442.831V23.568C443.887 19.584 446.959 17.328 450.511 17.328C451.135 17.328 451.807 17.376 452.383 17.52ZM455.396 34.848H459.236C459.523 38.16 462.596 39.552 465.859 39.552C469.172 39.552 471.572 38.016 471.572 35.424C471.572 33.648 470.42 32.496 467.348 31.92L463.076 31.056C459.188 30.336 456.355 28.752 456.355 24.528C456.355 20.448 460.004 17.28 465.332 17.28C470.9 17.28 474.308 19.68 474.788 24.24H471.092C470.804 21.792 468.644 20.352 465.332 20.352C462.116 20.352 460.052 21.936 460.052 24.288C460.052 26.352 461.492 27.216 464.276 27.744L469.076 28.656C473.012 29.424 475.316 31.344 475.316 35.232C475.316 39.456 471.332 42.576 465.908 42.576C460.148 42.576 455.828 40.032 455.396 34.848ZM493.442 38.448V41.712C491.666 42.24 490.273 42.384 489.218 42.384C484.802 42.384 482.546 40.272 482.546 35.808V20.88H478.994V17.856H482.546V11.712H486.482V17.856H492.818V20.88H486.434V35.616C486.434 38.16 487.73 39.024 489.938 39.024C490.85 39.024 491.906 38.928 493.442 38.448ZM519.8 42H515.912V37.632C514.76 40.656 511.88 42.576 508.232 42.576C502.76 42.576 499.688 39.264 499.688 33.408V17.856H503.72V32.64C503.72 37.104 505.592 39.456 509.384 39.456C513.032 39.456 515.768 36.96 515.768 31.152V17.856H519.8V42ZM535.055 42L525.407 17.856H529.487L537.263 38.064H537.359L544.799 17.856H548.783L539.519 42H535.055ZM570.62 17.856L576.092 37.68H576.188L581.756 17.856H585.596L578.3 42H574.172L568.604 22.464H568.46L562.988 42H558.812L551.516 17.856H555.452L561.068 37.68H561.212L566.588 17.856H570.62ZM592.971 42H588.699L597.867 29.568L589.179 17.856H593.883L600.315 26.736L606.699 17.856H611.019L602.475 29.376L611.787 42H607.131L599.979 32.304L592.971 42ZM624.587 42.192L614.891 17.856H619.067L626.747 37.584H626.843L634.091 17.856H638.219L628.475 42.72C626.267 48.48 624.347 50.88 619.931 50.928C619.259 50.928 618.347 50.832 617.579 50.688V47.424C618.347 47.616 618.875 47.616 619.499 47.616C621.899 47.616 623.003 46.272 624.587 42.192ZM661.403 20.784L647.003 38.928H661.931V42H642.059V39.408L656.555 20.928H642.635V17.856H661.403V20.784ZM28.944 90L25.152 80.448H8.736L4.944 90H0.816L14.688 55.728H19.344L33.264 90H28.944ZM16.896 59.856L10.08 77.04H23.808L17.04 59.856H16.896ZM52.1261 90H38.5421V55.728H50.5901C58.2221 55.728 62.6381 58.896 62.6381 64.896C62.6381 68.064 60.2381 71.328 57.3101 72.192C61.5341 73.248 64.1741 76.368 64.1741 80.4C64.1741 86.688 59.7101 90 52.1261 90ZM42.6221 70.848H50.8301C55.9181 70.848 58.4621 68.688 58.4621 64.944C58.4621 61.152 55.9661 59.088 50.8781 59.088H42.6221V70.848ZM42.6221 74.064V86.64H51.9341C57.1661 86.64 60.0461 84.336 60.0461 80.4C60.0461 76.464 57.0701 74.064 51.8381 74.064H42.6221ZM73.2803 72.816C73.2803 81.36 77.3603 87.072 84.4163 87.072C90.1763 87.072 92.6723 83.856 93.4403 80.016H97.4723C96.3683 86.256 91.9043 90.576 84.4163 90.576C75.5843 90.576 69.0563 83.616 69.0563 72.816C69.0563 62.064 75.5843 55.152 84.4163 55.152C91.9043 55.152 96.3683 59.472 97.4723 65.712H93.4403C92.6723 61.872 90.1763 58.656 84.4163 58.656C77.3603 58.656 73.2803 64.272 73.2803 72.816ZM116.171 55.728C126.107 55.728 132.875 62.592 132.875 72.864C132.875 83.184 126.107 90 116.171 90H104.027V55.728H116.171ZM116.171 59.184H108.107V86.544H116.171C124.139 86.544 128.603 81.168 128.603 72.864C128.603 64.608 124.139 59.184 116.171 59.184ZM162.929 90H139.745V55.728H162.881V59.184H143.825V71.136H160.769V74.64H143.825V86.544H162.929V90ZM170.542 90V55.728H192.478V59.184H174.67V71.712H190.846V75.168H174.67V90H170.542ZM197.4 72.816C197.4 62.064 204.168 55.152 213.24 55.152C220.872 55.152 225.432 59.376 226.632 65.712H222.504C221.592 61.44 218.472 58.656 213.24 58.656C205.944 58.656 201.624 64.272 201.624 72.816C201.624 81.36 205.848 87.072 213.096 87.072C218.856 87.072 223.128 83.52 223.128 77.952V76.176H215.016V72.912H227.16V90H223.896L223.512 84.288C222.216 87.984 217.608 90.576 213.048 90.576C203.976 90.576 197.4 83.616 197.4 72.816ZM235.277 90V55.728H239.405V70.848H259.469V55.728H263.597V90H259.469V74.304H239.405V90H235.277ZM272.542 90V55.728H276.67V90H272.542ZM300.451 77.904V55.728H304.579V77.856C304.579 85.584 300.259 90.576 293.011 90.576C286.819 90.576 281.971 86.88 281.779 80.112H285.763C286.003 84.96 289.027 87.312 293.011 87.312C298.195 87.312 300.451 83.616 300.451 77.904ZM336.083 90L322.355 73.68L317.123 79.008V90H312.995V55.728H317.123V74.352L335.171 55.728H340.163L325.235 70.8L341.075 90H336.083ZM346.98 90V55.728H351.108V86.544H369.54V90H346.98ZM395.32 90H391.96L380.824 59.952H380.728V90H376.792V55.728H383.176L393.736 84.624H393.832L404.392 55.728H410.536V90H406.552V59.952H406.456L395.32 90ZM424.536 55.728L442.824 83.088H442.92V55.728H446.904V90H443.064L423.576 60.768H423.48V90H419.448V55.728H424.536ZM485.006 72.864C485.006 83.184 478.91 90.576 469.406 90.576C459.902 90.576 453.806 83.184 453.806 72.864C453.806 62.592 459.902 55.152 469.406 55.152C478.91 55.152 485.006 62.592 485.006 72.864ZM480.734 72.864C480.734 64.608 476.894 58.656 469.406 58.656C461.87 58.656 458.03 64.608 458.03 72.864C458.03 81.168 461.87 87.072 469.406 87.072C476.894 87.072 480.734 81.168 480.734 72.864ZM504.59 76.224H495.95V90H491.87V55.728H504.542C512.174 55.728 516.59 59.232 516.59 65.952C516.59 72.72 512.174 76.224 504.59 76.224ZM495.95 72.768H504.446C509.63 72.768 512.462 70.608 512.462 65.952C512.462 61.296 509.63 59.184 504.446 59.184H495.95V72.768ZM550.35 90.336L548.046 92.448L544.446 88.608C542.286 89.904 539.694 90.576 536.766 90.576C527.262 90.576 521.166 83.184 521.166 72.864C521.166 62.592 527.262 55.152 536.766 55.152C546.27 55.152 552.366 62.592 552.366 72.864C552.366 78.672 550.398 83.568 546.99 86.736L550.35 90.336ZM525.39 72.864C525.39 81.168 529.23 87.072 536.766 87.072C538.734 87.072 540.462 86.64 541.902 85.92L537.87 81.6L540.222 79.44L544.446 84C546.894 81.456 548.094 77.568 548.094 72.864C548.094 64.608 544.254 58.656 536.766 58.656C529.23 58.656 525.39 64.608 525.39 72.864ZM563.31 90H559.23V55.728H572.43C580.11 55.728 584.478 59.328 584.478 65.904C584.478 71.472 580.59 74.592 576.558 75.504L585.966 90H581.31L572.43 76.128H563.31V90ZM563.31 72.672H572.19C577.374 72.672 580.302 70.368 580.302 65.904C580.302 61.584 577.374 59.184 572.19 59.184H563.31V72.672ZM590.115 79.872H594.099C594.627 85.392 599.139 87.264 604.227 87.264C609.123 87.264 612.723 84.912 612.723 80.784C612.723 77.904 611.139 76.032 606.483 75.168L599.955 73.872C595.347 73.008 591.219 70.896 591.219 64.992C591.219 59.376 596.067 55.152 603.171 55.152C610.515 55.152 615.363 58.32 616.035 64.512H612.051C611.475 60.672 608.115 58.464 603.219 58.464C598.227 58.464 595.251 61.248 595.251 64.848C595.251 68.256 597.171 69.456 601.347 70.272L608.067 71.664C613.347 72.72 616.707 75.168 616.707 80.592C616.707 86.448 611.523 90.576 604.275 90.576C596.835 90.576 590.595 87.36 590.115 79.872ZM632.688 90V59.184H619.92V55.728H649.632V59.184H636.816V90H632.688ZM683.243 76.032C683.243 85.392 678.203 90.576 669.371 90.576C660.635 90.576 655.499 85.392 655.499 75.936V55.728H659.627V76.272C659.627 83.568 663.371 87.072 669.371 87.072C675.419 87.072 679.115 83.568 679.115 76.272V55.728H683.243V76.032ZM701.874 90L688.05 55.728H692.37L704.274 85.776H704.37L716.274 55.728H720.498L706.578 90H701.874ZM752.417 90L744.689 61.2H744.593L736.817 90H732.161L722.513 55.728H726.881L734.753 84.864H734.849L742.577 55.728H746.945L754.721 84.864H754.817L762.641 55.728H766.769L757.121 90H752.417ZM796.033 90L784.561 74.88L773.233 90H768.769L782.353 72L770.065 55.728H774.913L784.753 68.88L794.593 55.728H799.057L786.961 71.712L800.833 90H796.033ZM819.516 90H815.388V75.792L802.332 55.728H806.892L817.596 72.096H817.692L828.06 55.728H832.62L819.516 75.792V90ZM862.527 58.992L841.215 86.544H862.671V90H835.935V87.072L857.343 59.184H836.655V55.728H862.527V58.992ZM1.2 111.552V108.768C7.056 108.768 9.168 107.136 9.984 103.584H12.528V138H8.4V111.552H1.2ZM42.6353 113.136C42.6353 119.568 37.3073 122.448 32.1713 125.76C27.9953 128.544 23.8672 131.424 23.8672 134.544H42.9713V138H19.4513V136.128C19.4513 130.032 25.3553 125.76 30.4433 122.592C35.0033 119.664 38.6993 117.12 38.6993 113.136C38.6993 109.872 36.8273 106.608 31.7393 106.608C27.0353 106.608 24.2993 110.16 24.0113 114.288H20.1233C20.4593 108.24 24.5872 103.152 31.7873 103.152C38.9873 103.152 42.6353 108.048 42.6353 113.136ZM71.544 128.688C71.544 134.016 67.272 138.576 59.592 138.576C52.248 138.576 47.496 134.448 47.016 127.968H51.048C51.336 132.24 54.36 135.216 59.592 135.216C64.584 135.216 67.656 132.672 67.656 128.544C67.656 124.56 64.68 122.304 60.168 122.304H56.424V118.944H60.024C63.624 118.944 66.744 117.36 66.744 112.944C66.744 109.44 64.44 106.512 59.736 106.512C54.84 106.512 52.104 109.92 51.864 114H47.976C48.36 108.048 52.344 103.152 59.736 103.152C67.08 103.152 70.728 107.808 70.728 112.896C70.728 117.12 67.944 120.048 64.584 120.528C68.664 121.152 71.544 124.416 71.544 128.688ZM96.9563 103.728V125.28H104.3V128.592H96.9563V138H92.9243V128.592H75.9323V125.232L92.3003 103.728H96.9563ZM92.9243 108L79.9163 125.28H92.9243V108ZM120.627 118.56C117.027 118.56 114.627 120.336 113.331 122.4H109.635L111.555 103.728H130.851V107.232H114.531L113.379 118.56C114.819 116.736 117.795 115.2 120.963 115.2C128.115 115.2 132.579 120.384 132.579 126.864C132.579 133.392 128.115 138.576 120.627 138.576C113.715 138.576 108.771 134.448 108.243 127.824H112.323C112.659 132.192 115.827 135.216 120.675 135.216C126.051 135.216 128.595 131.232 128.595 126.864C128.595 122.496 126.051 118.56 120.627 118.56ZM151.08 106.608C144.744 106.608 141.432 113.184 141.432 122.064C142.536 118.512 145.896 115.104 151.128 115.104C157.896 115.104 162.456 120.096 162.456 126.672C162.456 133.584 157.752 138.576 150.6 138.576C143.016 138.576 137.592 131.952 137.592 121.44C137.592 110.592 143.256 103.152 151.128 103.152C157.224 103.152 161.352 106.752 162.12 112.512H158.328C157.512 108.624 155.16 106.608 151.08 106.608ZM150.6 135.216C155.496 135.216 158.568 131.616 158.568 126.816C158.568 121.968 155.496 118.464 150.6 118.464C145.8 118.464 142.536 121.968 142.536 126.816C142.536 131.616 145.8 135.216 150.6 135.216ZM185.88 107.232H166.296V103.728H190.392V106.656C182.232 116.544 179.352 126.336 179.208 138H174.888C175.032 125.856 179.4 115.488 185.88 107.232ZM207.5 103.152C213.932 103.152 218.828 106.704 218.828 112.608C218.828 116.496 216.572 119.28 213.164 120.624C216.812 121.296 220.364 124.608 220.364 128.64C220.364 134.544 215.372 138.576 207.5 138.576C199.724 138.576 194.684 134.544 194.684 128.64C194.684 124.608 198.236 121.296 201.884 120.624C198.523 119.28 196.22 116.496 196.22 112.608C196.22 106.704 201.116 103.152 207.5 103.152ZM207.5 118.848C211.628 118.848 215.036 116.832 215.036 112.608C215.036 108.432 211.628 106.416 207.5 106.416C203.42 106.416 200.012 108.432 200.012 112.608C200.012 116.832 203.42 118.848 207.5 118.848ZM207.5 135.264C212.972 135.264 216.236 132.672 216.236 128.64C216.236 124.656 212.972 122.16 207.5 122.16C202.124 122.16 198.812 124.656 198.812 128.64C198.812 132.672 202.124 135.264 207.5 135.264ZM236.811 135.12C243.147 135.12 246.459 128.544 246.459 119.664C245.355 123.216 241.995 126.624 236.763 126.624C229.995 126.624 225.435 121.632 225.435 115.056C225.435 108.144 230.139 103.152 237.291 103.152C244.875 103.152 250.299 109.776 250.299 120.288C250.299 131.136 244.635 138.576 236.763 138.576C230.667 138.576 226.539 134.976 225.771 129.216H229.563C230.379 133.104 232.731 135.12 236.811 135.12ZM237.291 106.512C232.395 106.512 229.323 110.112 229.323 114.912C229.323 119.76 232.395 123.264 237.291 123.264C242.091 123.264 245.355 119.76 245.355 114.912C245.355 110.112 242.091 106.512 237.291 106.512ZM255.483 120.864C255.483 110.592 260.811 103.152 269.115 103.152C277.467 103.152 282.747 110.592 282.747 120.864C282.747 131.136 277.467 138.576 269.115 138.576C260.811 138.576 255.483 131.136 255.483 120.864ZM259.707 120.864C259.707 129.264 262.875 135.024 269.115 135.024C275.403 135.024 278.571 129.264 278.571 120.864C278.571 112.464 275.403 106.704 269.115 106.704C262.875 106.704 259.707 112.464 259.707 120.864ZM288.018 137.952V132.768H293.25V138.816C293.25 142.8 290.85 145.536 286.482 145.536V143.088C288.93 143.088 290.322 141.984 290.322 138.816V137.952H288.018ZM302.736 138V132.768H307.968V138H302.736ZM321.487 132.96C321.199 134.08 320.831 135.296 320.383 136.608C319.935 137.92 319.439 139.216 318.895 140.496C318.383 141.808 317.871 143.04 317.359 144.192H314.191C314.415 143.296 314.639 142.336 314.863 141.312C315.119 140.288 315.359 139.248 315.583 138.192C315.807 137.168 315.999 136.16 316.159 135.168C316.351 134.176 316.511 133.264 316.639 132.432H321.151L321.487 132.96ZM316.063 114.864C316.063 113.648 316.351 112.8 316.927 112.32C317.503 111.84 318.191 111.6 318.991 111.6C319.823 111.6 320.527 111.84 321.103 112.32C321.711 112.8 322.015 113.648 322.015 114.864C322.015 116.016 321.711 116.848 321.103 117.36C320.527 117.872 319.823 118.128 318.991 118.128C318.191 118.128 317.503 117.872 316.927 117.36C316.351 116.848 316.063 116.016 316.063 114.864ZM329.003 135.408C329.003 134.224 329.291 133.392 329.867 132.912C330.443 132.432 331.131 132.192 331.931 132.192C332.763 132.192 333.467 132.432 334.043 132.912C334.651 133.392 334.955 134.224 334.955 135.408C334.955 136.56 334.651 137.392 334.043 137.904C333.467 138.416 332.763 138.672 331.931 138.672C331.131 138.672 330.443 138.416 329.867 137.904C329.291 137.392 329.003 136.56 329.003 135.408ZM329.003 114.864C329.003 113.648 329.291 112.8 329.867 112.32C330.443 111.84 331.131 111.6 331.931 111.6C332.763 111.6 333.467 111.84 334.043 112.32C334.651 112.8 334.955 113.648 334.955 114.864C334.955 116.016 334.651 116.848 334.043 117.36C333.467 117.872 332.763 118.128 331.931 118.128C331.131 118.128 330.443 117.872 329.867 117.36C329.291 116.848 329.003 116.016 329.003 114.864ZM346.215 128.352H343.479L342.279 103.728H347.415L346.215 128.352ZM341.847 135.408C341.847 134.224 342.135 133.392 342.711 132.912C343.287 132.432 343.991 132.192 344.823 132.192C345.623 132.192 346.311 132.432 346.887 132.912C347.495 133.392 347.799 134.224 347.799 135.408C347.799 136.56 347.495 137.392 346.887 137.904C346.311 138.416 345.623 138.672 344.823 138.672C343.991 138.672 343.287 138.416 342.711 137.904C342.135 137.392 341.847 136.56 341.847 135.408ZM358.001 127.056C358.001 125.84 358.113 124.8 358.337 123.936C358.593 123.04 359.009 122.192 359.585 121.392C360.193 120.592 361.009 119.76 362.033 118.896C363.281 117.84 364.241 116.96 364.913 116.256C365.617 115.552 366.113 114.864 366.401 114.192C366.689 113.52 366.833 112.704 366.833 111.744C366.833 110.208 366.337 109.024 365.345 108.192C364.353 107.36 362.913 106.944 361.025 106.944C359.457 106.944 358.065 107.152 356.849 107.568C355.633 107.952 354.465 108.416 353.345 108.96L351.857 105.6C353.137 104.928 354.545 104.368 356.081 103.92C357.649 103.472 359.393 103.248 361.313 103.248C364.353 103.248 366.705 104 368.369 105.504C370.033 107.008 370.865 109.056 370.865 111.648C370.865 113.088 370.625 114.32 370.145 115.344C369.697 116.336 369.041 117.264 368.177 118.128C367.345 118.96 366.353 119.856 365.201 120.816C364.145 121.712 363.329 122.496 362.753 123.168C362.209 123.84 361.841 124.512 361.649 125.184C361.457 125.824 361.361 126.608 361.361 127.536V128.352H358.001V127.056ZM356.897 135.408C356.897 134.224 357.169 133.392 357.713 132.912C358.289 132.432 359.009 132.192 359.873 132.192C360.673 132.192 361.361 132.432 361.937 132.912C362.513 133.392 362.801 134.224 362.801 135.408C362.801 136.56 362.513 137.392 361.937 137.904C361.361 138.416 360.673 138.672 359.873 138.672C359.009 138.672 358.289 138.416 357.713 137.904C357.169 137.392 356.897 136.56 356.897 135.408ZM412.462 120.864C412.462 122.336 412.286 123.776 411.934 125.184C411.614 126.592 411.102 127.872 410.398 129.024C409.694 130.144 408.83 131.056 407.806 131.76C406.782 132.432 405.566 132.768 404.158 132.768C402.686 132.768 401.518 132.352 400.654 131.52C399.822 130.656 399.31 129.68 399.118 128.592H398.878C398.302 129.776 397.454 130.768 396.334 131.568C395.214 132.368 393.806 132.768 392.11 132.768C389.678 132.768 387.79 131.952 386.446 130.32C385.134 128.688 384.478 126.528 384.478 123.84C384.478 121.728 384.894 119.872 385.726 118.272C386.558 116.64 387.726 115.36 389.23 114.432C390.766 113.504 392.574 113.04 394.654 113.04C396.062 113.04 397.438 113.168 398.782 113.424C400.158 113.648 401.23 113.904 401.998 114.192L401.518 123.936C401.486 124.512 401.47 124.928 401.47 125.184C401.47 125.408 401.47 125.568 401.47 125.664C401.47 127.328 401.758 128.432 402.334 128.976C402.942 129.52 403.646 129.792 404.446 129.792C405.438 129.792 406.27 129.392 406.942 128.592C407.646 127.76 408.174 126.672 408.526 125.328C408.91 123.952 409.102 122.448 409.102 120.816C409.102 117.84 408.494 115.328 407.278 113.28C406.094 111.2 404.446 109.616 402.334 108.528C400.254 107.44 397.886 106.896 395.23 106.896C392.51 106.896 390.094 107.328 387.982 108.192C385.87 109.056 384.094 110.272 382.654 111.84C381.246 113.408 380.174 115.264 379.438 117.408C378.702 119.52 378.334 121.856 378.334 124.416C378.334 127.552 378.894 130.224 380.014 132.432C381.134 134.608 382.766 136.272 384.91 137.424C387.086 138.544 389.742 139.104 392.878 139.104C394.83 139.104 396.686 138.88 398.446 138.432C400.238 138.016 401.822 137.552 403.198 137.04V140.304C401.822 140.88 400.27 141.344 398.542 141.696C396.846 142.08 394.958 142.272 392.878 142.272C389.102 142.272 385.87 141.568 383.182 140.16C380.494 138.752 378.43 136.736 376.99 134.112C375.582 131.456 374.878 128.272 374.878 124.56C374.878 121.584 375.342 118.832 376.27 116.304C377.198 113.744 378.542 111.536 380.302 109.68C382.062 107.792 384.19 106.336 386.686 105.312C389.214 104.256 392.062 103.728 395.23 103.728C397.726 103.728 400.014 104.128 402.094 104.928C404.206 105.696 406.03 106.832 407.566 108.336C409.134 109.808 410.334 111.6 411.166 113.712C412.03 115.824 412.462 118.208 412.462 120.864ZM388.222 123.936C388.222 125.984 388.622 127.472 389.422 128.4C390.254 129.328 391.358 129.792 392.734 129.792C394.526 129.792 395.806 129.12 396.574 127.776C397.374 126.432 397.838 124.688 397.966 122.544L398.254 116.544C397.838 116.416 397.31 116.304 396.67 116.208C396.03 116.112 395.374 116.064 394.702 116.064C393.134 116.064 391.87 116.448 390.91 117.216C389.95 117.984 389.262 118.976 388.846 120.192C388.43 121.376 388.222 122.624 388.222 123.936ZM438.306 117.072L436.818 124.752H443.394V127.968H436.194L434.226 138H430.818L432.786 127.968H425.922L424.05 138H420.69L422.514 127.968H416.466V124.752H423.138L424.674 117.072H418.242V113.904H425.25L427.17 103.728H430.626L428.706 113.904H435.618L437.538 103.728H440.85L438.93 113.904H445.026V117.072H438.306ZM426.546 124.752H433.41L434.898 117.072H428.034L426.546 124.752ZM458.441 135.648C456.681 135.616 454.969 135.472 453.305 135.216C451.641 134.928 450.297 134.544 449.273 134.064V129.984C450.361 130.496 451.753 130.944 453.449 131.328C455.145 131.712 456.809 131.92 458.441 131.952V122.256C456.873 121.808 455.497 121.328 454.313 120.816C453.161 120.272 452.217 119.664 451.481 118.992C450.745 118.32 450.185 117.552 449.801 116.688C449.449 115.792 449.273 114.768 449.273 113.616C449.273 112.048 449.641 110.704 450.377 109.584C451.145 108.464 452.217 107.584 453.593 106.944C454.969 106.272 456.585 105.888 458.441 105.792V101.568H461.513V105.744C463.209 105.776 464.745 105.968 466.121 106.32C467.529 106.64 468.809 107.04 469.961 107.52L468.665 111.072C467.641 110.656 466.505 110.304 465.257 110.016C464.041 109.696 462.793 109.488 461.513 109.392V119.04C463.625 119.648 465.385 120.304 466.793 121.008C468.201 121.68 469.257 122.528 469.961 123.552C470.697 124.544 471.065 125.84 471.065 127.44C471.065 129.68 470.233 131.504 468.569 132.912C466.905 134.288 464.553 135.136 461.513 135.456V140.784H458.441V135.648ZM461.513 131.712C463.401 131.52 464.777 131.088 465.641 130.416C466.505 129.712 466.937 128.816 466.937 127.728C466.937 126.928 466.777 126.272 466.457 125.76C466.137 125.216 465.577 124.752 464.777 124.368C464.009 123.984 462.921 123.616 461.513 123.264V131.712ZM458.441 109.488C457.289 109.552 456.345 109.76 455.609 110.112C454.873 110.432 454.313 110.864 453.929 111.408C453.577 111.952 453.401 112.576 453.401 113.28C453.401 114.112 453.545 114.832 453.833 115.44C454.153 116.016 454.681 116.512 455.417 116.928C456.153 117.312 457.161 117.664 458.441 117.984V109.488ZM488.358 103.2C490.086 103.2 491.558 103.504 492.774 104.112C494.022 104.688 494.982 105.52 495.654 106.608C496.326 107.696 496.662 109.024 496.662 110.592C496.662 112.608 496.006 114.32 494.694 115.728C493.414 117.136 491.782 118.416 489.798 119.568L499.062 128.496C499.894 127.504 500.566 126.368 501.078 125.088C501.622 123.776 502.07 122.368 502.422 120.864H506.694C506.182 122.912 505.542 124.816 504.774 126.576C504.006 128.336 503.014 129.872 501.798 131.184L508.806 138H503.094L498.918 133.968C498.15 134.64 497.35 135.264 496.518 135.84C495.718 136.384 494.838 136.848 493.878 137.232C492.918 137.616 491.878 137.92 490.758 138.144C489.67 138.368 488.454 138.48 487.11 138.48C484.902 138.48 482.982 138.128 481.35 137.424C479.75 136.688 478.502 135.616 477.606 134.208C476.742 132.8 476.31 131.088 476.31 129.072C476.31 127.44 476.598 126.032 477.174 124.848C477.782 123.664 478.646 122.608 479.766 121.68C480.886 120.752 482.198 119.856 483.702 118.992C483.03 118.224 482.374 117.424 481.734 116.592C481.094 115.76 480.566 114.864 480.15 113.904C479.734 112.912 479.526 111.84 479.526 110.688C479.526 109.12 479.878 107.776 480.582 106.656C481.286 105.536 482.294 104.688 483.606 104.112C484.95 103.504 486.534 103.2 488.358 103.2ZM486.246 121.632C485.094 122.304 484.102 122.992 483.27 123.696C482.47 124.368 481.846 125.12 481.398 125.952C480.95 126.784 480.726 127.776 480.726 128.928C480.726 130.688 481.318 132.096 482.502 133.152C483.686 134.208 485.27 134.736 487.254 134.736C489.302 134.736 491.062 134.4 492.534 133.728C494.006 133.056 495.238 132.256 496.23 131.328L486.246 121.632ZM488.214 106.656C486.87 106.656 485.766 107.008 484.902 107.712C484.07 108.416 483.654 109.392 483.654 110.64C483.654 111.792 483.958 112.864 484.566 113.856C485.174 114.816 486.054 115.888 487.206 117.072C489.094 115.984 490.438 114.96 491.238 114C492.07 113.008 492.486 111.872 492.486 110.592C492.486 109.44 492.102 108.496 491.334 107.76C490.566 107.024 489.526 106.656 488.214 106.656ZM518.282 103.248C520.65 103.248 522.442 104.192 523.658 106.08C524.874 107.936 525.482 110.56 525.482 113.952C525.482 117.344 524.89 120 523.706 121.92C522.554 123.808 520.746 124.752 518.282 124.752C516.778 124.752 515.498 124.32 514.442 123.456C513.386 122.592 512.586 121.36 512.042 119.76C511.53 118.128 511.274 116.192 511.274 113.952C511.274 110.56 511.834 107.936 512.954 106.08C514.074 104.192 515.85 103.248 518.282 103.248ZM518.282 106.224C517.066 106.224 516.17 106.88 515.594 108.192C515.05 109.472 514.778 111.392 514.778 113.952C514.778 116.512 515.05 118.448 515.594 119.76C516.17 121.072 517.066 121.728 518.282 121.728C519.53 121.728 520.458 121.088 521.066 119.808C521.674 118.496 521.978 116.544 521.978 113.952C521.978 111.392 521.674 109.472 521.066 108.192C520.458 106.88 519.53 106.224 518.282 106.224ZM540.218 103.728L521.21 138H517.514L536.522 103.728H540.218ZM539.258 116.976C540.826 116.976 542.138 117.408 543.194 118.272C544.25 119.104 545.05 120.32 545.594 121.92C546.17 123.488 546.458 125.408 546.458 127.68C546.458 131.072 545.866 133.728 544.682 135.648C543.53 137.536 541.722 138.48 539.258 138.48C537.754 138.48 536.474 138.048 535.418 137.184C534.362 136.32 533.562 135.088 533.018 133.488C532.506 131.856 532.25 129.92 532.25 127.68C532.25 124.288 532.81 121.664 533.93 119.808C535.05 117.92 536.826 116.976 539.258 116.976ZM539.258 120C538.042 120 537.146 120.64 536.57 121.92C536.026 123.2 535.754 125.12 535.754 127.68C535.754 130.272 536.026 132.224 536.57 133.536C537.146 134.816 538.042 135.456 539.258 135.456C540.506 135.456 541.434 134.816 542.042 133.536C542.65 132.256 542.954 130.304 542.954 127.68C542.954 125.12 542.65 123.2 542.042 121.92C541.434 120.64 540.506 120 539.258 120ZM555.773 101.232C556.125 101.936 556.557 102.736 557.069 103.632C557.613 104.496 558.173 105.344 558.749 106.176C559.357 107.008 559.901 107.728 560.381 108.336V108.912H557.549C557.005 108.464 556.397 107.936 555.725 107.328C555.053 106.688 554.381 106.032 553.709 105.36C553.069 104.656 552.477 103.984 551.933 103.344C551.421 102.704 551.021 102.16 550.733 101.712V101.232H555.773ZM575.225 122.688C574.073 122.176 573.113 121.84 572.345 121.68C571.609 121.488 570.889 121.392 570.185 121.392C569.289 121.392 568.345 121.664 567.353 122.208C566.361 122.752 565.481 123.424 564.713 124.224V120.48C565.481 119.648 566.345 119.024 567.305 118.608C568.265 118.16 569.321 117.936 570.473 117.936C571.401 117.936 572.313 118.032 573.209 118.224C574.137 118.416 575.337 118.832 576.809 119.472C577.961 119.984 578.905 120.336 579.641 120.528C580.409 120.688 581.129 120.768 581.801 120.768C582.729 120.768 583.689 120.496 584.681 119.952C585.673 119.408 586.553 118.736 587.321 117.936V121.632C586.553 122.464 585.689 123.104 584.729 123.552C583.769 124 582.713 124.224 581.561 124.224C580.665 124.224 579.737 124.128 578.777 123.936C577.849 123.712 576.665 123.296 575.225 122.688ZM591.605 125.184L601.781 103.488H604.181L615.413 125.184H611.669L603.029 107.952L595.349 125.184H591.605ZM632.706 101.52L631.746 110.736L640.962 108.144L641.634 112.56L632.802 113.28L638.514 120.864L634.386 123.12L630.306 114.72L626.61 123.12L622.338 120.864L627.954 113.28L619.218 112.56L619.89 108.144L629.01 110.736L628.002 101.52H632.706ZM1.92 172.848C1.92 170.224 2.16 167.664 2.64 165.168C3.152 162.672 3.936 160.288 4.992 158.016C6.048 155.744 7.376 153.648 8.976 151.728H12.96C11.488 153.712 10.24 155.856 9.216 158.16C8.224 160.464 7.472 162.848 6.96 165.312C6.448 167.776 6.192 170.272 6.192 172.8C6.192 175.264 6.448 177.712 6.96 180.144C7.472 182.576 8.224 184.912 9.216 187.152C10.208 189.424 11.44 191.568 12.912 193.584H8.976C7.376 191.696 6.048 189.632 4.992 187.392C3.936 185.184 3.152 182.848 2.64 180.384C2.16 177.92 1.92 175.408 1.92 172.848ZM26.8706 172.848C26.8706 175.408 26.6146 177.92 26.1026 180.384C25.6226 182.848 24.8546 185.184 23.7986 187.392C22.7746 189.632 21.4466 191.696 19.8146 193.584H15.8786C17.3506 191.568 18.5826 189.424 19.5746 187.152C20.5666 184.912 21.3186 182.576 21.8306 180.144C22.3426 177.712 22.5986 175.264 22.5986 172.8C22.5986 170.272 22.3426 167.776 21.8306 165.312C21.3186 162.848 20.5666 160.464 19.5746 158.16C18.5826 155.856 17.3346 153.712 15.8306 151.728H19.8146C21.4466 153.648 22.7746 155.744 23.7986 158.016C24.8546 160.288 25.6226 162.672 26.1026 165.168C26.6146 167.664 26.8706 170.224 26.8706 172.848ZM43.3733 193.584H32.6213V151.728H43.3733V155.184H36.7493V190.128H43.3733V193.584ZM45.7781 190.128H52.4021V155.184H45.7781V151.728H56.5301V193.584H45.7781V190.128ZM77.079 193.584C75.127 193.552 73.431 193.264 71.991 192.72C70.583 192.176 69.495 191.328 68.727 190.176C67.959 189.056 67.575 187.648 67.575 185.952V178.896C67.575 177.808 67.351 176.944 66.903 176.304C66.455 175.632 65.799 175.152 64.935 174.864C64.071 174.544 62.999 174.384 61.719 174.384V170.88C62.999 170.848 64.071 170.688 64.935 170.4C65.799 170.112 66.455 169.648 66.903 169.008C67.351 168.336 67.575 167.472 67.575 166.416V159.312C67.575 158.032 67.799 156.928 68.247 156C68.727 155.04 69.383 154.256 70.215 153.648C71.079 153.008 72.087 152.528 73.239 152.208C74.391 151.888 75.671 151.728 77.079 151.728V155.184C75.991 155.216 75.047 155.392 74.247 155.712C73.447 156.032 72.823 156.512 72.375 157.152C71.959 157.792 71.751 158.64 71.751 159.696V166.608C71.751 168.24 71.319 169.552 70.455 170.544C69.591 171.504 68.279 172.144 66.519 172.464V172.752C68.311 173.072 69.623 173.728 70.455 174.72C71.319 175.68 71.751 176.976 71.751 178.608V185.664C71.751 186.688 71.959 187.52 72.375 188.16C72.791 188.832 73.399 189.312 74.199 189.6C74.999 189.92 75.959 190.096 77.079 190.128V193.584ZM80.1454 190.128C81.2654 190.096 82.2094 189.92 82.9774 189.6C83.7774 189.28 84.3854 188.784 84.8014 188.112C85.2494 187.472 85.4734 186.64 85.4734 185.616V178.656C85.4734 177.024 85.9054 175.728 86.7694 174.768C87.6334 173.776 88.9454 173.12 90.7054 172.8V172.512C88.9454 172.192 87.6334 171.552 86.7694 170.592C85.9054 169.6 85.4734 168.288 85.4734 166.656V159.648C85.4734 158.592 85.2654 157.744 84.8494 157.104C84.4334 156.464 83.8254 155.984 83.0254 155.664C82.2574 155.344 81.2974 155.184 80.1454 155.184V151.728C81.6174 151.728 82.9294 151.888 84.0814 152.208C85.2654 152.528 86.2734 153.008 87.1054 153.648C87.9374 154.256 88.5614 155.04 88.9774 156C89.4254 156.96 89.6494 158.08 89.6494 159.36V166.368C89.6494 167.456 89.8734 168.336 90.3214 169.008C90.7694 169.648 91.4254 170.128 92.2894 170.448C93.1854 170.736 94.2574 170.88 95.5054 170.88V174.384C94.2574 174.384 93.1854 174.544 92.2894 174.864C91.4254 175.152 90.7694 175.616 90.3214 176.256C89.8734 176.896 89.6494 177.76 89.6494 178.848V186C89.6494 187.696 89.2494 189.104 88.4494 190.224C87.6494 191.344 86.5294 192.176 85.0894 192.72C83.6814 193.296 82.0334 193.584 80.1454 193.584V190.128ZM118.252 193.392H96.7477V190.32H118.252V193.392ZM120.86 166.032V162.624H142.844V166.032H120.86ZM120.86 175.584V172.176H142.844V175.584H120.86ZM149.817 174.288V170.784H163.113V174.288H149.817ZM182.705 167.376H192.257V170.784H182.705V180.672H179.249V170.784H169.697V167.376H179.249V157.44H182.705V167.376ZM219.774 180.432L197.166 170.496V168.096L219.774 156.816V160.56L201.678 169.104L219.774 176.688V180.432ZM224.634 176.688L242.73 169.152L224.634 160.56V156.816L247.242 168.096V170.496L224.634 180.432V176.688ZM267.079 151.728L254.311 186H250.183L262.951 151.728H267.079ZM272.171 151.728L284.987 186H280.811L268.043 151.728H272.171ZM296.894 149.52H300.398V197.568H296.894V149.52ZM319.539 151.728L318.579 164.112H315.939L314.979 151.728H319.539ZM330.321 151.728L329.361 164.112H326.721L325.761 151.728H330.321ZM339.105 151.728L338.145 164.112H335.505L334.545 151.728H339.105Z" fill="#111111"/>
</svg>
