<?xml version="1.0" encoding="UTF-8"?>
<svg xmlns="http://www.w3.org/2000/svg" viewBox="0 0 512 512">
    <rect fill="#aaa" width="512" height="512"/>
    <path fill="#111" d="m228.57,325.98c-6.08,44.57-44.16,76.17-90.75,76.17-63.61,0-107.77-59.56-107.77-145.86s43.76-145.86,107.37-145.86c45.38,0,81.84,29.98,88.32,71.71h-34.03c-5.67-23.9-27.15-40.11-53.48-40.11-44.57,0-73.33,45.38-73.33,114.66s28.77,113.85,73.33,113.85c27.95,0,50.64-17.83,56.32-44.57h34.03Z"/>
    <path fill="#111" d="m304.01,398.1h-32.41V114.49h49.43l53.89,179.89h1.62l53.89-179.89h49.83v283.61h-32.82v-243.09h-1.62l-54.29,181.1h-31.6l-54.29-181.1h-1.62v243.09Z"/> 
</svg>