<svg width="713" height="51" viewBox="0 0 713 51" fill="none" xmlns="http://www.w3.org/2000/svg">
<path d="M16.776 29.92V26.224C16.008 26.752 14.952 27.136 13.752 27.376L10.344 28C6.84 28.672 4.968 30.352 4.968 32.944C4.968 35.536 6.84 37.216 9.768 37.216C13.752 37.216 16.776 34.048 16.776 29.92ZM16.872 35.872C15.384 38.752 12.6 40.48 9.048 40.48C4.248 40.48 0.936 37.408 0.936 33.04C0.936 28.72 4.152 25.84 9.768 25.024L13.32 24.496C15.624 24.16 16.776 23.104 16.776 21.28C16.776 18.688 14.616 16.96 11.352 16.96C8.28 16.96 5.928 18.496 5.688 20.656H1.656C1.848 16.624 5.976 13.6 11.352 13.6C16.824 13.6 20.712 16.816 20.712 21.328V30.736C20.712 34.768 21.048 37.792 21.672 40H17.928C17.544 38.896 17.256 37.552 17.064 35.872H16.872ZM41.1413 36.928C45.3653 36.928 48.2933 32.896 48.2933 27.04C48.2933 21.184 45.3653 17.152 41.1413 17.152C36.8693 17.152 33.8453 21.232 33.8453 27.04C33.8453 32.848 36.8693 36.928 41.1413 36.928ZM33.7013 40H30.0053V4.48H33.9413V18.4H34.1813C35.7653 15.328 38.4053 13.6 41.7653 13.6C47.8613 13.6 52.2773 19.216 52.2773 27.04C52.2773 34.864 47.8613 40.48 41.7653 40.48C38.2133 40.48 35.5253 38.56 33.9413 35.152H33.7013V40ZM75.7305 33.376H79.7625C78.8985 37.6 74.9145 40.48 70.1145 40.48C63.2985 40.48 58.4025 34.72 58.4025 26.992C58.4025 19.216 63.2505 13.6 69.9705 13.6C74.8185 13.6 78.7065 16.48 79.4265 20.656H75.4425C74.7705 18.496 72.6105 17.152 69.9225 17.152C65.3625 17.152 62.3385 21.088 62.3385 26.944C62.3385 32.896 65.4585 36.928 70.1145 36.928C72.8025 36.928 75.0105 35.584 75.7305 33.376ZM97.0238 36.928C101.2 36.928 104.08 32.896 104.08 27.04C104.08 21.184 101.2 17.152 97.0238 17.152C92.7518 17.152 89.6797 21.328 89.6797 27.04C89.6797 32.752 92.7518 36.928 97.0238 36.928ZM104.128 35.344H103.888C102.304 38.608 99.6158 40.48 96.1598 40.48C90.1118 40.48 85.6478 34.816 85.6478 27.04C85.6478 19.264 90.1118 13.6 96.1598 13.6C99.5198 13.6 102.16 15.328 103.744 18.448H103.984V4.48H107.968V31.36C107.968 33.808 108.064 36.976 108.304 40H104.512C104.32 38.368 104.176 36.88 104.128 35.344ZM120.333 24.688H133.917C133.629 20.128 130.941 17.056 127.245 17.056C123.597 17.056 120.909 20.08 120.333 24.688ZM137.805 26.32V27.856H120.237C120.573 33.328 123.597 36.976 127.917 36.976C130.653 36.976 133.005 35.536 133.677 33.376H137.565C136.701 37.552 132.717 40.48 127.917 40.48C121.149 40.48 116.253 34.72 116.253 26.752C116.253 19.072 120.813 13.6 127.197 13.6C133.437 13.6 137.805 18.784 137.805 26.32ZM152.138 40V17.632H144.794V14.08H152.138V13.12C152.138 7.168 155.018 4 160.586 4C162.506 4 164.186 4.384 165.578 5.104V8.416C164.138 7.696 162.65 7.312 161.114 7.312C157.754 7.312 156.074 9.232 156.074 13.12V14.08H165.098V17.632H156.074V40H152.138ZM183.608 27.76C186.68 27.76 188.84 25.552 188.84 22.432C188.84 19.264 186.68 17.104 183.608 17.104C180.488 17.104 178.328 19.264 178.328 22.432C178.328 25.552 180.488 27.76 183.608 27.76ZM186.68 38.752H180.536C178.136 38.752 176.312 40.384 176.312 42.448C176.312 45.04 179.336 46.768 183.799 46.768C188.456 46.768 191.576 44.944 191.576 42.16C191.576 40 189.752 38.752 186.68 38.752ZM176.888 37.12C175.544 36.304 174.728 34.96 174.728 33.28C174.728 31.456 175.784 29.92 177.512 29.008C175.64 27.424 174.488 25.072 174.488 22.288C174.488 17.248 178.28 13.6 183.608 13.6C184.712 13.6 185.768 13.744 186.776 14.08H195.224V17.392H191.24C192.2 18.736 192.728 20.416 192.728 22.288C192.728 27.376 188.84 31.12 183.608 31.12C182.264 31.12 181.016 30.88 179.912 30.448C178.856 30.928 178.184 31.792 178.184 32.896C178.184 34.144 179.096 35.056 180.44 35.056H186.92C192.152 35.056 195.512 37.648 195.512 41.728C195.512 46.624 190.616 50.08 183.752 50.08C177.272 50.08 172.712 47.056 172.712 42.832C172.712 40.288 174.344 38.176 176.888 37.12ZM201.637 40V6.4H205.765V20.752H219.973V6.4H224.101V40H219.973V24.496H205.765V40H201.637ZM231.666 40V36.352H239.586V10.048H231.762V6.4H251.586V10.048H243.714V36.352H251.682V40H231.666ZM258.863 31.456H262.799C263.039 34.672 265.679 36.832 269.279 36.832C273.215 36.832 275.759 34.24 275.759 30.208V10.048H262.655V6.4H279.887V30.448C279.887 36.448 275.567 40.48 269.279 40.48C263.231 40.48 258.863 36.736 258.863 31.456ZM313.325 40H308.573L297.533 23.056L292.397 28.72V40H288.317V6.4H292.397V23.152L307.661 6.4H312.701L300.365 19.984L313.325 40ZM318.586 40V6.4H322.714V36.352H338.074V40H318.586ZM343.479 40V6.4H348.951L355.719 27.28H355.911L362.679 6.4H368.199V40H364.311V17.776C364.311 15.712 364.311 13.84 364.503 11.632L364.311 11.584L357.591 32.272H354.039L347.319 11.584L347.127 11.632C347.319 13.84 347.319 15.712 347.319 17.776V40H343.479ZM394.1 27.856V6.4H397.94V40H392.852L378.932 10.672L378.74 10.72C378.884 12.4 378.932 13.888 378.932 16.864V40H375.14V6.4H380.9L394.1 34.048L394.292 34C394.148 32.32 394.1 30.88 394.1 27.856ZM414.338 40.48C406.898 40.48 401.666 33.376 401.666 23.2C401.666 13.024 406.898 5.92 414.338 5.92C421.778 5.92 427.01 13.024 427.01 23.2C427.01 33.376 421.778 40.48 414.338 40.48ZM414.338 36.736C419.522 36.736 422.882 31.36 422.882 23.2C422.882 15.04 419.522 9.664 414.338 9.664C409.154 9.664 405.794 15.04 405.794 23.2C405.794 31.36 409.154 36.736 414.338 36.736ZM438.271 47.584L443.887 34.24H449.599L442.063 47.584H438.271ZM468.252 36.736C468.252 34.72 469.884 33.088 471.9 33.088C473.916 33.088 475.548 34.72 475.548 36.736C475.548 38.752 473.916 40.384 471.9 40.384C469.884 40.384 468.252 38.752 468.252 36.736ZM488.489 24.976V21.376H507.113V24.976H488.489ZM529.463 40.48C522.311 40.48 518.087 34.048 518.087 23.2C518.087 12.352 522.311 5.92 529.463 5.92C536.615 5.92 540.887 12.352 540.887 23.2C540.887 34.048 536.615 40.48 529.463 40.48ZM522.791 30.16L534.887 12.928C533.591 10.672 531.767 9.52 529.463 9.52C524.711 9.52 522.023 14.464 522.023 23.2C522.023 25.888 522.263 28.192 522.791 30.16ZM529.463 36.88C534.215 36.88 536.903 31.936 536.903 23.2C536.903 20.368 536.663 18.064 536.135 16.192L524.039 33.424C525.335 35.728 527.159 36.88 529.463 36.88ZM547.876 40V36.4H556.852V15.568L548.308 15.52V12.352C555.124 12.352 556.9 11.248 557.86 6.4H560.98V36.4H569.572V40H547.876ZM598.017 40H576.561V36.064L588.369 22.816C591.201 19.648 592.497 17.296 592.497 14.992C592.497 11.824 590.049 9.568 586.497 9.568C583.185 9.568 580.545 11.584 580.257 14.416H576.129C576.321 9.568 580.737 5.92 586.449 5.92C592.305 5.92 596.577 9.712 596.577 14.656C596.577 17.776 594.897 21.088 591.345 25.072L581.265 36.4H598.017V40ZM609.422 14.416H605.582C605.582 9.472 609.71 5.92 615.422 5.92C621.278 5.92 625.502 9.664 625.502 14.848C625.502 18.304 623.63 20.848 620.51 22C624.398 23.248 626.75 26.272 626.75 30.448C626.75 36.256 622.094 40.48 615.566 40.48C609.374 40.48 604.718 36.64 604.718 31.456H608.654C608.798 34.576 611.726 36.88 615.614 36.88C619.79 36.88 622.814 34.192 622.814 30.448C622.814 26.752 619.982 24.112 615.998 24.112H613.022V20.368H615.71C619.118 20.368 621.566 18.208 621.566 15.04C621.566 11.824 618.974 9.52 615.422 9.52C612.062 9.52 609.518 11.584 609.422 14.416ZM653.468 46.24H648.86C642.716 40.384 639.164 31.936 639.164 23.2C639.164 14.464 642.716 6.016 648.86 0.159998H653.468C646.844 6.544 643.292 14.608 643.292 23.2C643.292 31.792 646.844 39.856 653.468 46.24ZM668.185 46.24V0.159998H682.393V3.76H672.121V42.64H682.393V46.24H668.185ZM691.782 25.072V21.328H693.99C697.83 21.328 700.086 18.736 699.894 14.608L699.606 9.28C699.318 3.52 702.582 0.159998 708.534 0.159998H711.894V3.76H708.678C705.27 3.76 703.446 5.632 703.59 8.992L703.878 14.512C704.07 18.928 701.814 22.576 698.406 23.2C701.814 23.824 704.07 27.472 703.878 31.888L703.59 37.408C703.446 40.768 705.222 42.64 708.678 42.64H712.038V46.24H708.534C702.582 46.24 699.318 42.88 699.606 37.12L699.894 31.792C700.086 27.664 697.83 25.072 693.99 25.072H691.782Z" fill="#111111"/>
</svg>
