<svg width="745" height="190" viewBox="0 0 745 190" fill="none" xmlns="http://www.w3.org/2000/svg">
<path d="M18.776 27.92V24.224C18.008 24.752 16.952 25.136 15.752 25.376L12.344 26C8.84 26.672 6.968 28.352 6.968 30.944C6.968 33.536 8.84 35.216 11.768 35.216C15.752 35.216 18.776 32.048 18.776 27.92ZM18.872 33.872C17.384 36.752 14.6 38.48 11.048 38.48C6.248 38.48 2.936 35.408 2.936 31.04C2.936 26.72 6.152 23.84 11.768 23.024L15.32 22.496C17.624 22.16 18.776 21.104 18.776 19.28C18.776 16.688 16.616 14.96 13.352 14.96C10.28 14.96 7.928 16.496 7.688 18.656H3.656C3.848 14.624 7.976 11.6 13.352 11.6C18.824 11.6 22.712 14.816 22.712 19.328V28.736C22.712 32.768 23.048 35.792 23.672 38H19.928C19.544 36.896 19.256 35.552 19.064 33.872H18.872ZM43.1413 34.928C47.3653 34.928 50.2933 30.896 50.2933 25.04C50.2933 19.184 47.3653 15.152 43.1413 15.152C38.8693 15.152 35.8453 19.232 35.8453 25.04C35.8453 30.848 38.8693 34.928 43.1413 34.928ZM35.7013 38H32.0053V2.48H35.9413V16.4H36.1813C37.7653 13.328 40.4053 11.6 43.7653 11.6C49.8613 11.6 54.2773 17.216 54.2773 25.04C54.2773 32.864 49.8613 38.48 43.7653 38.48C40.2133 38.48 37.5253 36.56 35.9413 33.152H35.7013V38ZM77.7305 31.376H81.7625C80.8985 35.6 76.9145 38.48 72.1145 38.48C65.2985 38.48 60.4025 32.72 60.4025 24.992C60.4025 17.216 65.2505 11.6 71.9705 11.6C76.8185 11.6 80.7065 14.48 81.4265 18.656H77.4425C76.7705 16.496 74.6105 15.152 71.9225 15.152C67.3625 15.152 64.3385 19.088 64.3385 24.944C64.3385 30.896 67.4585 34.928 72.1145 34.928C74.8025 34.928 77.0105 33.584 77.7305 31.376ZM99.0238 34.928C103.2 34.928 106.08 30.896 106.08 25.04C106.08 19.184 103.2 15.152 99.0238 15.152C94.7518 15.152 91.6797 19.328 91.6797 25.04C91.6797 30.752 94.7518 34.928 99.0238 34.928ZM106.128 33.344H105.888C104.304 36.608 101.616 38.48 98.1598 38.48C92.1118 38.48 87.6478 32.816 87.6478 25.04C87.6478 17.264 92.1118 11.6 98.1598 11.6C101.52 11.6 104.16 13.328 105.744 16.448H105.984V2.48H109.968V29.36C109.968 31.808 110.064 34.976 110.304 38H106.512C106.32 36.368 106.176 34.88 106.128 33.344ZM122.333 22.688H135.917C135.629 18.128 132.941 15.056 129.245 15.056C125.597 15.056 122.909 18.08 122.333 22.688ZM139.805 24.32V25.856H122.237C122.573 31.328 125.597 34.976 129.917 34.976C132.653 34.976 135.005 33.536 135.677 31.376H139.565C138.701 35.552 134.717 38.48 129.917 38.48C123.149 38.48 118.253 32.72 118.253 24.752C118.253 17.072 122.813 11.6 129.197 11.6C135.437 11.6 139.805 16.784 139.805 24.32ZM154.138 38V15.632H146.794V12.08H154.138V11.12C154.138 5.168 157.018 2 162.586 2C164.506 2 166.186 2.384 167.578 3.104V6.416C166.138 5.696 164.65 5.312 163.114 5.312C159.754 5.312 158.074 7.232 158.074 11.12V12.08H167.098V15.632H158.074V38H154.138ZM185.608 25.76C188.68 25.76 190.84 23.552 190.84 20.432C190.84 17.264 188.68 15.104 185.608 15.104C182.488 15.104 180.328 17.264 180.328 20.432C180.328 23.552 182.488 25.76 185.608 25.76ZM188.68 36.752H182.536C180.136 36.752 178.312 38.384 178.312 40.448C178.312 43.04 181.336 44.768 185.799 44.768C190.456 44.768 193.576 42.944 193.576 40.16C193.576 38 191.752 36.752 188.68 36.752ZM178.888 35.12C177.544 34.304 176.728 32.96 176.728 31.28C176.728 29.456 177.784 27.92 179.512 27.008C177.64 25.424 176.488 23.072 176.488 20.288C176.488 15.248 180.28 11.6 185.608 11.6C186.712 11.6 187.768 11.744 188.776 12.08H197.224V15.392H193.24C194.2 16.736 194.728 18.416 194.728 20.288C194.728 25.376 190.84 29.12 185.608 29.12C184.264 29.12 183.016 28.88 181.912 28.448C180.856 28.928 180.184 29.792 180.184 30.896C180.184 32.144 181.096 33.056 182.44 33.056H188.92C194.152 33.056 197.512 35.648 197.512 39.728C197.512 44.624 192.616 48.08 185.752 48.08C179.272 48.08 174.712 45.056 174.712 40.832C174.712 38.288 176.344 36.176 178.888 35.12ZM210.069 38H206.133V2.48H210.069V15.824H210.261C211.701 13.136 214.149 11.6 217.317 11.6C222.021 11.6 225.237 15.152 225.237 20.48V38H221.253V20.816C221.253 17.264 219.333 14.96 216.309 14.96C212.709 14.96 210.069 18.368 210.069 23.024V38ZM235.058 38V34.448H242.882V15.632H235.298V12.08H246.818V34.448H254.642V38H235.058ZM240.722 3.728C240.722 1.808 242.306 0.223997 244.226 0.223997C246.194 0.223997 247.73 1.808 247.73 3.728C247.73 5.696 246.194 7.232 244.226 7.232C242.306 7.232 240.722 5.696 240.722 3.728ZM276.991 38.96C276.991 44.912 274.111 48.08 268.543 48.08C266.623 48.08 264.895 47.696 263.551 46.976V43.664C264.991 44.384 266.431 44.768 267.967 44.768C271.375 44.768 273.055 42.848 273.055 38.96V15.632H263.791V12.08H276.991V38.96ZM271.039 3.728C271.039 1.808 272.623 0.223997 274.543 0.223997C276.511 0.223997 278.047 1.808 278.047 3.728C278.047 5.696 276.511 7.232 274.543 7.232C272.623 7.232 271.039 5.696 271.039 3.728ZM313.357 38H308.653L300.013 25.472L295.357 30.512V38H291.421V2.48H295.357V25.28L307.453 12.08H312.493L302.701 22.64L313.357 38ZM329.466 29.312C329.466 33.248 331.146 35.12 334.602 35.12C336.042 35.12 337.482 34.784 338.922 34.064V37.376C337.578 38.096 335.85 38.48 333.93 38.48C328.41 38.48 325.482 35.312 325.482 29.312V6.032H317.946V2.48H329.466V29.312ZM350.039 38H346.151V12.08H349.703V14.864H349.895C350.615 12.848 352.343 11.6 354.503 11.6C356.807 11.6 358.631 13.04 359.255 15.44H359.447C360.407 12.944 362.231 11.6 364.775 11.6C368.423 11.6 370.631 14.288 370.631 18.56V38H366.791V19.088C366.791 16.496 365.687 14.912 363.863 14.912C361.799 14.912 360.359 16.976 360.359 19.952V38H356.471V19.088C356.471 16.448 355.415 14.912 353.639 14.912C351.527 14.912 350.039 17.024 350.039 20.048V38ZM383.236 38H379.3V12.08H382.996V16.064H383.188C384.58 13.232 387.124 11.6 390.388 11.6C395.188 11.6 398.404 15.152 398.404 20.48V38H394.42V20.816C394.42 17.216 392.5 14.96 389.524 14.96C385.828 14.96 383.236 18.32 383.236 23.024V38ZM416.338 38.48C409.762 38.48 405.058 32.816 405.058 25.04C405.058 17.264 409.762 11.6 416.338 11.6C422.914 11.6 427.666 17.264 427.666 25.04C427.666 32.816 422.914 38.48 416.338 38.48ZM416.338 34.88C420.658 34.88 423.634 30.848 423.634 25.04C423.634 19.232 420.658 15.2 416.338 15.2C412.018 15.2 409.042 19.232 409.042 25.04C409.042 30.848 412.018 34.88 416.338 34.88ZM446.079 15.152C441.807 15.152 438.783 19.232 438.783 25.04C438.783 30.848 441.807 34.928 446.079 34.928C450.303 34.928 453.231 30.896 453.231 25.04C453.231 19.184 450.303 15.152 446.079 15.152ZM434.943 47.6V12.08H438.639V16.928H438.831C440.415 13.52 443.151 11.6 446.703 11.6C452.799 11.6 457.215 17.216 457.215 25.04C457.215 32.864 452.799 38.48 446.703 38.48C443.343 38.48 440.703 36.752 439.119 33.68H438.879V47.6H434.943ZM473.42 15.152C469.196 15.152 466.268 19.184 466.268 25.04C466.268 30.896 469.196 34.928 473.42 34.928C477.692 34.928 480.716 30.848 480.716 25.04C480.716 19.232 477.692 15.152 473.42 15.152ZM484.556 12.08V47.6H480.62V33.68H480.38C478.796 36.752 476.156 38.48 472.796 38.48C466.7 38.48 462.284 32.864 462.284 25.04C462.284 17.216 466.7 11.6 472.796 11.6C476.348 11.6 479.084 13.52 480.668 16.928H480.86V12.08H484.556ZM498.889 23.264V38H494.953V12.08H498.649V16.256H498.841C500.281 13.424 502.873 11.744 506.089 11.744C510.169 11.744 513.145 14.432 513.625 18.656H509.449C508.969 16.544 507.289 15.2 505.033 15.2C501.433 15.2 498.889 18.56 498.889 23.264ZM521.767 31.376H525.655C525.991 33.584 528.583 35.216 531.751 35.216C535.015 35.216 537.271 33.44 537.271 30.752C537.271 28.64 535.831 27.536 532.279 26.96L531.127 26.816C525.319 25.952 522.679 23.696 522.679 19.616C522.679 14.864 526.327 11.6 531.607 11.6C536.647 11.6 540.631 14.624 540.919 18.656H537.127C536.791 16.544 534.487 15.008 531.607 15.008C528.631 15.008 526.615 16.688 526.615 19.28C526.615 21.392 528.007 22.496 531.367 23.024L532.567 23.168C538.471 24.08 541.207 26.336 541.207 30.416C541.207 35.264 537.271 38.672 531.559 38.672C526.135 38.672 521.911 35.552 521.767 31.376ZM560.532 29.312C560.532 33.248 562.212 35.12 565.668 35.12C567.108 35.12 568.596 34.784 570.036 34.064V37.376C568.644 38.096 566.964 38.48 565.044 38.48C559.476 38.48 556.596 35.312 556.596 29.312V15.632H549.252V12.08H556.596V4.592L560.532 3.92V12.08H569.556V15.632H560.532V29.312ZM597.809 12.08V29.36C597.809 31.808 597.953 34.976 598.145 38H594.401C594.209 36.656 594.113 35.408 594.065 34.16H593.873C592.433 36.896 589.937 38.48 586.673 38.48C581.873 38.48 578.705 34.928 578.705 29.6V12.08H582.689V29.264C582.689 32.864 584.561 35.12 587.585 35.12C591.281 35.12 593.873 31.76 593.873 27.056V12.08H597.809ZM614.35 38L605.95 12.08H609.982L616.894 33.824H617.086L623.806 12.08H627.742L619.534 38H614.35ZM636.556 38L632.956 12.08H636.652L639.436 33.632H639.628L644.668 14.96H648.508L653.596 33.68H653.788L656.572 12.08H660.22L656.62 38H651.676L646.684 19.568H646.492L641.548 38H636.556ZM664.953 38L673.641 24.656L665.721 12.08H670.329L676.329 21.776L682.377 12.08H686.841L678.921 24.56L687.705 38H683.049L676.281 27.392L669.513 38H664.953ZM692.918 47.312V43.952C693.974 44.24 694.886 44.432 695.894 44.432C698.87 44.432 700.454 42.992 701.894 39.104L702.278 38.048L692.822 12.08H696.95L704.198 32.672H704.39L711.59 12.08H715.574L705.446 40.208C703.574 45.488 700.79 47.84 696.422 47.84C695.27 47.84 694.214 47.696 692.918 47.312ZM722.947 38V34.832L737.443 15.536H723.427V12.08H742.291V15.248L727.747 34.544H743.107V38H722.947ZM13.256 56.192L8.408 72.416H18.296L13.448 56.192H13.256ZM10.472 52.4H16.328L26.456 86H22.328L19.352 76.064H7.352L4.376 86H0.344L10.472 52.4ZM36.2293 70.4V82.352H44.2453C47.4133 82.352 49.6213 79.904 49.6213 76.4C49.6213 72.848 47.4133 70.4 44.2453 70.4H36.2293ZM36.2293 56.048V66.752H43.6693C46.5973 66.752 48.6133 64.496 48.6133 61.28C48.6133 58.16 46.6453 56.048 43.6693 56.048H36.2293ZM44.0533 86H32.1013V52.4H43.4293C48.8053 52.4 52.6453 56 52.6453 60.992C52.6453 64.4 50.8693 67.088 48.0373 68.432C51.5413 69.68 53.7493 72.752 53.7493 76.736C53.7493 82.112 49.6693 86 44.0533 86ZM78.8825 77.456H82.9145C82.1945 82.736 77.6825 86.48 72.1625 86.48C64.5785 86.48 59.3945 79.424 59.3945 69.2C59.3945 58.976 64.5785 51.92 72.1625 51.92C77.4905 51.92 81.8105 55.424 82.5785 60.416H78.5465C77.8745 57.584 75.3305 55.664 72.2105 55.664C66.9305 55.664 63.5225 61.04 63.5225 69.248C63.5225 77.456 66.9305 82.736 72.2105 82.736C75.5225 82.736 78.2105 80.624 78.8825 77.456ZM89.2318 86V52.4H98.7358C106.848 52.4 112.368 59.216 112.368 69.2C112.368 79.184 106.848 86 98.7358 86H89.2318ZM93.3118 82.352H98.7358C104.496 82.352 108.24 77.168 108.24 69.2C108.24 61.232 104.496 56.048 98.7358 56.048H93.3118V82.352ZM119.645 86V52.4H139.613V56.048H123.773V66.752H137.453V70.4H123.773V82.352H139.613V86H119.645ZM149.002 86V52.4H168.97V56.048H153.082V67.376H166.81V71.024H153.082V86H149.002ZM193.528 71.6H185.944V67.952H197.512V86H193.768V80.96H193.528C191.8 84.416 188.872 86.48 185.272 86.48C178.552 86.48 173.704 79.328 173.704 69.392C173.704 59.024 178.936 51.92 186.568 51.92C191.992 51.92 196.408 55.472 197.272 60.416H193.192C192.472 57.584 189.832 55.664 186.664 55.664C181.288 55.664 177.832 61.04 177.832 69.296C177.832 77.36 181.096 82.832 185.944 82.832C190.408 82.832 193.528 78.224 193.528 71.6ZM203.637 86V52.4H207.765V66.752H221.973V52.4H226.101V86H221.973V70.496H207.765V86H203.637ZM233.666 86V82.352H241.586V56.048H233.762V52.4H253.586V56.048H245.714V82.352H253.682V86H233.666ZM260.863 77.456H264.799C265.039 80.672 267.679 82.832 271.279 82.832C275.215 82.832 277.759 80.24 277.759 76.208V56.048H264.655V52.4H281.887V76.448C281.887 82.448 277.567 86.48 271.279 86.48C265.231 86.48 260.863 82.736 260.863 77.456ZM315.325 86H310.573L299.533 69.056L294.397 74.72V86H290.317V52.4H294.397V69.152L309.661 52.4H314.701L302.365 65.984L315.325 86ZM320.586 86V52.4H324.714V82.352H340.074V86H320.586ZM345.479 86V52.4H350.951L357.719 73.28H357.911L364.679 52.4H370.199V86H366.311V63.776C366.311 61.712 366.311 59.84 366.503 57.632L366.311 57.584L359.591 78.272H356.039L349.319 57.584L349.127 57.632C349.319 59.84 349.319 61.712 349.319 63.776V86H345.479ZM396.1 73.856V52.4H399.94V86H394.852L380.932 56.672L380.74 56.72C380.884 58.4 380.932 59.888 380.932 62.864V86H377.14V52.4H382.9L396.1 80.048L396.292 80C396.148 78.32 396.1 76.88 396.1 73.856ZM417.298 86.48C409.858 86.48 404.626 79.376 404.626 69.2C404.626 59.024 409.858 51.92 417.298 51.92C424.738 51.92 429.97 59.024 429.97 69.2C429.97 79.376 424.738 86.48 417.298 86.48ZM417.298 82.736C422.482 82.736 425.842 77.36 425.842 69.2C425.842 61.04 422.482 55.664 417.298 55.664C412.114 55.664 408.754 61.04 408.754 69.2C408.754 77.36 412.114 82.736 417.298 82.736ZM439.695 56.048V68.048H448.095C451.455 68.048 453.663 65.648 453.663 62.048C453.663 58.448 451.455 56.048 448.095 56.048H439.695ZM439.695 86H435.567V52.4H447.855C453.615 52.4 457.647 56.384 457.647 62.048C457.647 67.712 453.615 71.696 447.855 71.696H439.695V86ZM473.9 82.736C475.58 82.736 477.068 82.16 478.316 81.104L472.172 74.912L474.332 72.752L480.284 78.704C481.676 76.4 482.444 73.088 482.444 69.2C482.444 61.04 479.084 55.664 473.9 55.664C468.716 55.664 465.356 61.04 465.356 69.2C465.356 77.36 468.716 82.736 473.9 82.736ZM473.9 86.48C466.46 86.48 461.228 79.376 461.228 69.2C461.228 59.024 466.46 51.92 473.9 51.92C481.34 51.92 486.572 59.024 486.572 69.2C486.572 74.24 485.276 78.512 483.116 81.536L488.492 86.912L486.284 89.072L481.052 83.84C479.084 85.52 476.636 86.48 473.9 86.48ZM496.873 56.048V67.376H505.129C508.345 67.376 510.457 65.12 510.457 61.712C510.457 58.352 508.345 56.048 505.129 56.048H496.873ZM496.873 86H492.745V52.4H504.889C510.505 52.4 514.441 56.24 514.441 61.712C514.441 66.32 511.753 69.728 507.577 70.736L515.401 86H510.889L503.257 71.072H496.873V86ZM520.183 77.456H524.167C524.503 80.72 527.575 83.024 531.607 83.024C535.783 83.024 538.663 80.528 538.663 76.928C538.663 73.808 536.551 71.888 532.231 71.024L530.311 70.592C524.215 69.392 521.143 66.32 521.143 61.472C521.143 55.808 525.319 51.92 531.463 51.92C537.367 51.92 542.023 55.52 542.311 60.416H538.327C537.943 57.584 535.063 55.568 531.463 55.568C527.671 55.568 525.175 57.824 525.175 61.232C525.175 64.16 527.047 65.936 530.839 66.752L532.807 67.136C539.383 68.48 542.695 71.648 542.695 76.688C542.695 82.592 538.183 86.672 531.607 86.672C525.223 86.672 520.375 82.784 520.183 77.456ZM558.18 86V56.048H548.052V52.4H572.436V56.048H562.308V86H558.18ZM600.257 52.4V75.44C600.257 81.92 595.601 86.48 589.025 86.48C582.449 86.48 577.793 81.92 577.793 75.44V52.4H581.921V75.44C581.921 79.808 584.753 82.736 589.025 82.736C593.297 82.736 596.129 79.808 596.129 75.44V52.4H600.257ZM614.11 86L603.694 52.4H607.918L616.798 81.44H616.99L625.87 52.4H629.998L619.582 86H614.11ZM635.548 86L631.995 52.4H635.74L638.572 80.624H638.764L644.859 57.488H648.364L654.412 80.624H654.604L657.436 52.4H661.18L657.628 86H652.54L646.684 63.68H646.492L640.636 86H635.548ZM662.457 86L673.785 68.528L663.225 52.4H667.929L676.329 65.216L684.729 52.4H689.337L678.825 68.48L690.201 86H685.497L676.281 71.84L667.065 86H662.457ZM702.086 86V71.888L690.758 52.4H695.318L704.198 67.76L713.126 52.4H717.542L706.214 71.888V86H702.086ZM721.219 86V82.592L738.883 56.048H721.699V52.4H743.827V55.808L726.211 82.352H744.643V86H721.219ZM3.032 134V130.4H12.008V109.568L3.464 109.52V106.352C10.28 106.352 12.056 105.248 13.016 100.4H16.136V130.4H24.728V134H3.032ZM53.1733 134H31.7173V130.064L43.5253 116.816C46.3573 113.648 47.6533 111.296 47.6533 108.992C47.6533 105.824 45.2053 103.568 41.6533 103.568C38.3413 103.568 35.7013 105.584 35.4133 108.416H31.2853C31.4773 103.568 35.8933 99.92 41.6053 99.92C47.4613 99.92 51.7333 103.712 51.7333 108.656C51.7333 111.776 50.0533 115.088 46.5013 119.072L36.4213 130.4H53.1733V134ZM64.5785 108.416H60.7385C60.7385 103.472 64.8665 99.92 70.5785 99.92C76.4345 99.92 80.6585 103.664 80.6585 108.848C80.6585 112.304 78.7865 114.848 75.6665 116C79.5545 117.248 81.9065 120.272 81.9065 124.448C81.9065 130.256 77.2505 134.48 70.7225 134.48C64.5305 134.48 59.8745 130.64 59.8745 125.456H63.8105C63.9545 128.576 66.8825 130.88 70.7705 130.88C74.9465 130.88 77.9705 128.192 77.9705 124.448C77.9705 120.752 75.1385 118.112 71.1545 118.112H68.1785V114.368H70.8665C74.2745 114.368 76.7225 112.208 76.7225 109.04C76.7225 105.824 74.1305 103.52 70.5785 103.52C67.2185 103.52 64.6745 105.584 64.5785 108.416ZM102.768 104.048L102.576 104L91.0078 122.384H102.576V110.192C102.576 108.128 102.576 106.256 102.768 104.048ZM102.576 126.032H87.2638V122.048L101.04 100.4H106.512V122.384H112.512V126.032H106.512V134H102.576V126.032ZM117.821 125.456H121.853C122.237 128.672 124.973 130.88 128.429 130.88C132.557 130.88 135.485 127.808 135.485 123.488C135.485 119.216 132.557 116.144 128.429 116.144C125.837 116.144 123.629 117.344 122.525 119.408L118.925 118.736L120.893 100.4H137.933V104H124.397L123.197 114.896C124.733 113.456 126.941 112.688 129.341 112.688C135.245 112.688 139.613 117.248 139.613 123.44C139.613 129.824 134.957 134.48 128.477 134.48C122.669 134.48 118.253 130.784 117.821 125.456ZM157.354 130.88C161.29 130.88 164.266 127.76 164.266 123.632C164.266 119.552 161.29 116.432 157.354 116.432C153.466 116.432 150.442 119.552 150.442 123.68C150.442 127.76 153.418 130.88 157.354 130.88ZM163.114 100.208L152.746 114.704C154.522 113.552 156.298 113.024 158.266 113.024C163.978 113.024 168.394 117.584 168.394 123.536C168.394 129.728 163.594 134.48 157.258 134.48C150.874 134.48 146.266 129.728 146.266 123.152C146.266 119.312 147.85 115.136 150.874 110.864L158.41 100.208H163.114ZM179.704 134L192.52 104.048H174.855V100.4H196.84V103.808L183.928 134H179.704ZM214.869 118.112C210.885 118.112 207.909 120.8 207.909 124.448C207.909 128.096 210.885 130.88 214.869 130.88C218.853 130.88 221.829 128.096 221.829 124.448C221.829 120.8 218.853 118.112 214.869 118.112ZM214.869 103.472C211.509 103.472 209.013 105.824 209.013 108.992C209.013 112.16 211.509 114.512 214.869 114.512C218.229 114.512 220.725 112.16 220.725 108.992C220.725 105.824 218.229 103.472 214.869 103.472ZM214.869 134.48C208.581 134.48 203.733 130.256 203.733 124.784C203.733 120.8 206.325 117.536 210.213 116.144C207.045 114.848 204.981 112.112 204.981 108.704C204.981 103.712 209.253 99.92 214.869 99.92C220.485 99.92 224.757 103.712 224.757 108.704C224.757 112.112 222.693 114.848 219.525 116.144C223.413 117.536 226.005 120.8 226.005 124.784C226.005 130.256 221.157 134.48 214.869 134.48ZM243.602 103.328C239.666 103.328 236.69 106.448 236.69 110.576C236.69 114.656 239.666 117.776 243.602 117.776C247.49 117.776 250.514 114.656 250.514 110.528C250.514 106.448 247.538 103.328 243.602 103.328ZM237.89 134L248.21 119.504C246.434 120.656 244.658 121.184 242.69 121.184C236.978 121.184 232.562 116.624 232.562 110.672C232.562 104.48 237.362 99.728 243.746 99.728C250.082 99.728 254.69 104.48 254.69 111.056C254.69 114.896 253.106 119.072 250.13 123.344L242.546 134H237.89ZM272.431 134.48C265.279 134.48 261.055 128.048 261.055 117.2C261.055 106.352 265.279 99.92 272.431 99.92C279.583 99.92 283.855 106.352 283.855 117.2C283.855 128.048 279.583 134.48 272.431 134.48ZM265.759 124.16L277.855 106.928C276.559 104.672 274.735 103.52 272.431 103.52C267.679 103.52 264.991 108.464 264.991 117.2C264.991 119.888 265.231 122.192 265.759 124.16ZM272.431 130.88C277.183 130.88 279.871 125.936 279.871 117.2C279.871 114.368 279.631 112.064 279.103 110.192L267.007 127.424C268.303 129.728 270.127 130.88 272.431 130.88ZM293.485 141.584L299.101 128.24H304.813L297.277 141.584H293.485ZM326.346 130.736C326.346 128.72 327.978 127.088 329.994 127.088C332.01 127.088 333.642 128.72 333.642 130.736C333.642 132.752 332.01 134.384 329.994 134.384C327.978 134.384 326.346 132.752 326.346 130.736ZM351.047 141.584L356.663 128.24H362.375L354.839 141.584H351.047ZM355.127 111.152C355.127 109.136 356.759 107.504 358.775 107.504C360.791 107.504 362.423 109.136 362.423 111.152C362.423 113.168 360.791 114.8 358.775 114.8C356.759 114.8 355.127 113.168 355.127 111.152ZM383.908 130.736C383.908 128.72 385.54 127.088 387.556 127.088C389.572 127.088 391.204 128.72 391.204 130.736C391.204 132.752 389.572 134.384 387.556 134.384C385.54 134.384 383.908 132.752 383.908 130.736ZM383.908 111.344C383.908 109.328 385.54 107.696 387.556 107.696C389.572 107.696 391.204 109.328 391.204 111.344C391.204 113.36 389.572 114.992 387.556 114.992C385.54 114.992 383.908 113.36 383.908 111.344ZM412.69 130.736C412.69 128.72 414.322 127.088 416.338 127.088C418.354 127.088 419.986 128.72 419.986 130.736C419.986 132.752 418.354 134.384 416.338 134.384C414.322 134.384 412.69 132.752 412.69 130.736ZM414.706 122.912L414.034 100.4H418.642L417.97 122.912H414.706ZM441.471 130.736C441.471 128.72 443.103 127.088 445.119 127.088C447.135 127.088 448.767 128.72 448.767 130.736C448.767 132.752 447.135 134.384 445.119 134.384C443.103 134.384 441.471 132.752 441.471 130.736ZM446.703 122.912H443.151C443.151 114.08 450.687 113.504 450.687 108.416C450.687 105.728 448.623 103.472 445.311 103.472C441.999 103.472 439.599 105.728 439.407 108.416H435.375C435.375 103.904 439.407 99.92 445.263 99.92C451.023 99.92 454.767 103.712 454.767 108.224C454.767 114.896 446.703 115.856 446.703 122.912ZM478.076 122.672C480.764 122.672 482.924 119.888 482.924 116.432C482.924 113.264 481.148 110.96 478.7 110.96C475.964 110.96 473.804 113.744 473.804 117.2C473.804 120.32 475.628 122.672 478.076 122.672ZM482.492 125.504L482.636 122.816H482.444C481.148 124.688 479.228 125.84 477.02 125.84C473.036 125.84 470.156 122.24 470.156 117.296C470.156 111.92 473.564 107.744 477.98 107.744C480.332 107.744 482.156 108.944 483.26 111.008H483.452C483.644 106.16 480.716 102.992 476.012 102.992C469.388 102.992 464.348 109.328 464.348 117.584C464.348 125.6 469.148 131.312 475.916 131.312C478.748 131.312 481.388 130.304 483.02 128.624L485.18 130.784C482.876 133.184 479.564 134.48 475.82 134.48C467.132 134.48 460.892 127.472 460.892 117.632C460.892 107.552 467.372 99.92 475.964 99.92C482.732 99.92 487.004 104.672 486.62 111.776L485.9 125.504H482.492ZM506.473 113.504H499.897L498.889 120.896H505.465L506.473 113.504ZM496.441 113.504H490.777V110.192H496.921L498.265 100.4H501.769L500.377 110.192H506.953L508.345 100.4H511.801L510.409 110.192H515.641V113.504H509.977L508.921 120.896H514.585V124.208H508.441L507.097 134H503.641L504.985 124.208H498.409L497.065 134H493.561L494.953 124.208H489.721V120.896H495.385L496.441 113.504ZM533.287 119.12V131.12C536.647 130.496 538.903 128.144 538.903 124.976C538.903 122.048 537.031 120.128 533.287 119.12ZM530.215 114.704V103.376C527.047 103.856 524.983 106.016 524.983 109.136C524.983 112.016 526.759 113.84 530.215 114.704ZM533.287 140.24H530.215V134.624C524.551 134.096 520.423 130.448 520.279 125.552H523.975C524.263 128.528 526.759 130.736 530.215 131.168V118.448C524.263 117.2 521.239 114.128 521.239 109.328C521.239 104.144 524.839 100.448 530.215 99.968V94.16H533.287V100.016C538.231 100.688 541.927 104 542.215 108.368H538.519C538.183 105.92 536.071 104.048 533.287 103.472V115.376C539.479 116.768 542.647 119.936 542.647 124.784C542.647 130.112 538.903 133.952 533.287 134.576V140.24ZM562.884 127.04L555.588 118.784L555.54 118.832C552.516 120.992 550.932 123.44 550.932 126.08C550.932 129.008 552.948 131.12 555.876 131.12C558.324 131.12 560.772 129.632 562.884 127.04ZM555.588 113.072L556.26 113.84L557.556 112.928C559.86 111.296 561.06 109.424 561.06 107.456C561.06 105.152 559.38 103.472 557.028 103.472C554.676 103.472 552.996 105.2 552.996 107.552C552.996 109.328 553.908 111.152 555.588 113.072ZM574.02 134H568.98L565.236 129.776C562.452 132.896 559.092 134.672 555.54 134.672C550.548 134.672 546.948 131.12 546.948 126.32C546.948 122.576 549.108 119.024 553.188 116.048L552.612 115.376C550.26 112.736 549.012 110 549.012 107.408C549.012 103.088 552.324 99.92 556.98 99.92C561.588 99.92 564.9 103.04 564.9 107.312C564.9 110.48 563.076 113.408 559.668 115.856L558.66 116.576L565.044 123.776C566.052 121.856 566.964 119.6 567.684 117.104H571.62C570.66 120.8 569.268 124.016 567.588 126.704L574.02 134ZM576.305 134L597.665 100.4H601.697L580.385 134H576.305ZM582.017 114.944C578.129 114.944 575.297 111.776 575.297 107.408C575.297 103.088 578.129 99.92 582.017 99.92C585.857 99.92 588.689 103.088 588.689 107.408C588.689 111.776 585.857 114.944 582.017 114.944ZM582.017 111.728C584.033 111.728 585.233 110 585.233 107.408C585.233 104.864 584.033 103.136 582.017 103.136C580.001 103.136 578.801 104.864 578.801 107.408C578.801 110 580.001 111.728 582.017 111.728ZM596.081 134.48C592.193 134.48 589.361 131.312 589.361 126.944C589.361 122.624 592.193 119.456 596.081 119.456C599.921 119.456 602.753 122.624 602.753 126.944C602.753 131.312 599.921 134.48 596.081 134.48ZM596.033 131.264C598.049 131.264 599.249 129.536 599.249 126.944C599.249 124.4 598.049 122.672 596.033 122.672C594.017 122.672 592.817 124.4 592.817 126.944C592.817 129.536 594.017 131.264 596.033 131.264ZM620.494 108.176L610.894 96.56H616.798L624.766 108.176H620.494ZM634.924 122.672V121.088C634.924 116.576 637.564 113.648 641.596 113.648C647.644 113.648 648.028 120.176 651.82 120.176C653.548 120.176 654.556 118.784 654.652 116.048L654.7 114.608H658.252V116.192C658.252 120.704 655.612 123.632 651.58 123.632C645.58 123.632 645.1 117.056 641.356 117.056C639.58 117.056 638.62 118.496 638.572 121.232L638.523 122.672H634.924ZM669.081 115.808H665.001L673.113 100.4H677.625L685.737 115.808H681.657L675.369 103.904L669.081 115.808ZM695.99 127.856L701.318 120.464L692.63 117.632L693.734 114.32L702.422 117.152V108.032H705.878V117.152L714.566 114.32L715.67 117.632L706.982 120.464L712.31 127.856L709.526 129.872L704.15 122.528L698.774 129.872L695.99 127.856ZM22.28 189.68H17.672C11.528 183.824 7.976 175.376 7.976 166.64C7.976 157.904 11.528 149.456 17.672 143.6H22.28C15.656 149.984 12.104 158.048 12.104 166.64C12.104 175.232 15.656 183.296 22.28 189.68ZM37.9093 189.68H33.3013C39.9253 183.296 43.4773 175.232 43.4773 166.64C43.4773 158.048 39.9253 149.984 33.3013 143.6H37.9093C44.0533 149.456 47.6053 157.904 47.6053 166.64C47.6053 175.376 44.0533 183.824 37.9093 189.68ZM65.7785 189.68V143.6H79.9865V147.2H69.7145V186.08H79.9865V189.68H65.7785ZM104.928 143.6V189.68H90.7198V186.08H100.992V147.2H90.7198V143.6H104.928ZM118.157 168.512V164.768H120.365C124.205 164.768 126.461 162.176 126.269 158.048L125.981 152.72C125.693 146.96 128.957 143.6 134.909 143.6H138.269V147.2H135.053C131.645 147.2 129.821 149.072 129.965 152.432L130.253 157.952C130.445 162.368 128.189 166.016 124.781 166.64C128.189 167.264 130.445 170.912 130.253 175.328L129.965 180.848C129.821 184.208 131.597 186.08 135.053 186.08H138.413V189.68H134.909C128.957 189.68 125.693 186.32 125.981 180.56L126.269 175.232C126.461 171.104 124.205 168.512 120.365 168.512H118.157ZM167.674 164.768V168.512H165.466C161.626 168.512 159.37 171.104 159.562 175.232L159.85 180.56C160.138 186.32 156.874 189.68 150.922 189.68H147.418V186.08H150.778C154.234 186.08 156.01 184.208 155.866 180.848L155.578 175.328C155.386 170.912 157.642 167.264 161.05 166.64C157.642 166.016 155.386 162.368 155.578 157.952L155.866 152.432C156.01 149.072 154.186 147.2 150.778 147.2H147.562V143.6H150.922C156.874 143.6 160.138 146.96 159.85 152.72L159.562 158.048C159.37 162.176 161.626 164.768 165.466 164.768H167.674ZM175.048 187.808V184.208H197.128V187.808H175.048ZM204.597 171.536V168.128H225.141V171.536H204.597ZM204.597 162.272V158.816H225.141V162.272H204.597ZM234.338 166.976V163.376H252.962V166.976H234.338ZM270.511 176.432V166.976H261.199V163.376H270.511V153.968H274.399V163.376H283.663V166.976H274.399V176.432H270.511ZM310.381 176.432L291.085 167.504V162.896L310.381 153.968V157.904L294.733 165.2L310.381 172.448V176.432ZM340.122 167.504L320.826 176.432V172.448L336.474 165.2L320.826 157.904V153.968L340.122 162.896V167.504ZM347.159 188.24L366.455 142.16H370.439L351.143 188.24H347.159ZM379.876 142.16L399.172 188.24H395.236L375.892 142.16H379.876ZM414.514 188.24V142.16H418.162V188.24H414.514ZM443.487 159.392L442.623 144.56H447.615L446.751 159.392H443.487ZM467.516 159.392L466.652 144.56H471.644L470.78 159.392H467.516ZM477.02 159.392L476.156 144.56H481.148L480.284 159.392H477.02Z" fill="#111111"/>
</svg>
