<svg width="728" height="53" viewBox="0 0 728 53" fill="none" xmlns="http://www.w3.org/2000/svg">
<path d="M20.5077 36.3385C20.5077 37.3723 20.68 38.1272 21.0246 38.6031C21.3692 39.079 21.9026 39.4318 22.6246 39.6615L21.6154 42.5662C20.4995 42.4185 19.5231 42.0656 18.6862 41.5077C17.8492 40.9333 17.2421 40.0718 16.8646 38.9231C15.9292 40.121 14.7641 41.0318 13.3692 41.6554C11.9744 42.2626 10.4318 42.5662 8.74154 42.5662C6.14872 42.5662 4.10564 41.8359 2.61231 40.3754C1.11897 38.9149 0.372307 36.9785 0.372307 34.5662C0.372307 31.8913 1.41436 29.84 3.49846 28.4123C5.58256 26.9846 8.59385 26.2708 12.5323 26.2708H16.3477V24.1046C16.3477 22.2338 15.7979 20.9128 14.6985 20.1415C13.6154 19.3538 12.1056 18.96 10.1692 18.96C9.3159 18.96 8.31487 19.0667 7.16615 19.28C6.01744 19.4769 4.77026 19.8133 3.42462 20.2892L2.34154 17.1631C3.93333 16.5723 5.42667 16.1538 6.82154 15.9077C8.21641 15.6615 9.54564 15.5385 10.8092 15.5385C14.0421 15.5385 16.4626 16.2933 18.0708 17.8031C19.6954 19.2964 20.5077 21.3313 20.5077 23.9077V36.3385ZM9.8 39.4154C11.08 39.4154 12.3026 39.0954 13.4677 38.4554C14.6328 37.799 15.5928 36.8964 16.3477 35.7477V29.0769H12.6062C9.75077 29.0769 7.73231 29.5692 6.55077 30.5538C5.38564 31.5385 4.80308 32.8595 4.80308 34.5169C4.80308 36.1251 5.21333 37.3477 6.03385 38.1846C6.87077 39.0051 8.12615 39.4154 9.8 39.4154ZM35.6143 19.4523C36.5661 18.2051 37.6574 17.2451 38.8882 16.5723C40.1354 15.8831 41.5056 15.5385 42.9989 15.5385C45.3128 15.5385 47.1836 16.0964 48.6112 17.2123C50.0389 18.3282 51.081 19.9036 51.7374 21.9385C52.3938 23.9569 52.722 26.32 52.722 29.0277C52.722 31.6369 52.3282 33.9672 51.5405 36.0185C50.7528 38.0533 49.5959 39.6533 48.0697 40.8185C46.56 41.9836 44.6892 42.5662 42.4574 42.5662C39.4543 42.5662 37.0995 41.4831 35.3928 39.3169L35.0974 42H31.4789V5.64308L35.6143 5.12615V19.4523ZM41.4728 39.2185C43.6389 39.2185 45.3046 38.3815 46.4697 36.7077C47.6348 35.0338 48.2174 32.4656 48.2174 29.0031C48.2174 26.7385 47.9877 24.8595 47.5282 23.3662C47.0687 21.8564 46.3795 20.7323 45.4605 19.9938C44.5579 19.239 43.442 18.8615 42.1128 18.8615C40.6687 18.8615 39.3969 19.2964 38.2974 20.1662C37.2143 21.0195 36.32 21.9713 35.6143 23.0215V35.8708C36.2871 36.8882 37.1323 37.7005 38.1497 38.3077C39.1836 38.9149 40.2912 39.2185 41.4728 39.2185ZM72.7271 38.9969C74.0235 38.9969 75.2297 38.7836 76.3456 38.3569C77.4779 37.9303 78.5199 37.3887 79.4717 36.7323L81.4902 39.44C80.3579 40.4082 78.9958 41.1713 77.404 41.7292C75.8122 42.2872 74.2533 42.5662 72.7271 42.5662C70.1507 42.5662 67.9517 42.0164 66.1302 40.9169C64.3251 39.801 62.9466 38.2421 61.9948 36.24C61.043 34.2215 60.5671 31.8585 60.5671 29.1508C60.5671 26.5579 61.043 24.2359 61.9948 22.1846C62.963 20.1169 64.3497 18.4923 66.1548 17.3108C67.9763 16.1292 70.1835 15.5385 72.7763 15.5385C74.4338 15.5385 75.9846 15.7928 77.4287 16.3015C78.8892 16.7938 80.2266 17.5405 81.441 18.5415L79.4225 21.2985C78.323 20.5272 77.2153 19.9528 76.0994 19.5754C74.9999 19.1815 73.8758 18.9846 72.7271 18.9846C70.4953 18.9846 68.6574 19.8215 67.2133 21.4954C65.7692 23.1692 65.0471 25.721 65.0471 29.1508C65.0471 31.4482 65.3753 33.3272 66.0317 34.7877C66.7046 36.2318 67.6153 37.2985 68.764 37.9877C69.9292 38.6605 71.2502 38.9969 72.7271 38.9969ZM106.049 5.12615L110.185 5.64308V42H106.566L106.172 38.5785C105.204 39.9569 104.088 40.9662 102.825 41.6062C101.577 42.2462 100.24 42.5662 98.8122 42.5662C96.564 42.5662 94.7096 42 93.2491 40.8677C91.7886 39.7354 90.7055 38.16 89.9999 36.1415C89.2943 34.1067 88.9414 31.7518 88.9414 29.0769C88.9414 26.4841 89.3435 24.1703 90.1476 22.1354C90.9517 20.0841 92.1086 18.4759 93.6184 17.3108C95.1445 16.1292 96.9743 15.5385 99.1076 15.5385C100.601 15.5385 101.914 15.801 103.046 16.3262C104.178 16.8349 105.179 17.5897 106.049 18.5908V5.12615ZM100.191 18.8615C98.0245 18.8615 96.3589 19.7067 95.1937 21.3969C94.0286 23.0872 93.4461 25.6472 93.4461 29.0769C93.4461 31.3087 93.684 33.1795 94.1599 34.6892C94.6358 36.199 95.3332 37.3313 96.2522 38.0862C97.1876 38.841 98.3281 39.2185 99.6737 39.2185C101.151 39.2185 102.406 38.8 103.44 37.9631C104.49 37.1262 105.36 36.1826 106.049 35.1323V22.1846C105.343 21.1344 104.49 20.3221 103.489 19.7477C102.488 19.1569 101.389 18.8615 100.191 18.8615ZM123.322 30.5046C123.404 32.5067 123.79 34.1477 124.479 35.4277C125.168 36.6913 126.079 37.6267 127.211 38.2338C128.343 38.8246 129.574 39.12 130.903 39.12C132.233 39.12 133.431 38.9231 134.497 38.5292C135.58 38.1354 136.688 37.5528 137.82 36.7815L139.765 39.5138C138.551 40.4656 137.164 41.2123 135.605 41.7538C134.062 42.2954 132.479 42.5662 130.854 42.5662C128.343 42.5662 126.202 42 124.43 40.8677C122.657 39.7354 121.303 38.16 120.368 36.1415C119.449 34.1067 118.99 31.7518 118.99 29.0769C118.99 26.4513 119.457 24.121 120.393 22.0862C121.328 20.0513 122.641 18.4513 124.331 17.2862C126.021 16.121 128.015 15.5385 130.313 15.5385C132.495 15.5385 134.374 16.0554 135.95 17.0892C137.525 18.1067 138.731 19.5672 139.568 21.4708C140.421 23.3579 140.848 25.6144 140.848 28.24C140.848 28.6831 140.84 29.1015 140.823 29.4954C140.807 29.8728 140.782 30.2092 140.75 30.5046H123.322ZM130.362 18.9354C128.442 18.9354 126.834 19.6164 125.537 20.9785C124.257 22.3405 123.527 24.4492 123.347 27.3046H136.86C136.811 24.5313 136.204 22.4472 135.039 21.0523C133.874 19.641 132.315 18.9354 130.362 18.9354ZM164.915 5.12615C166.31 5.12615 167.573 5.24923 168.705 5.49539C169.838 5.74154 170.913 6.08615 171.93 6.52923L170.601 9.60616C169.764 9.24513 168.878 8.97436 167.942 8.79385C167.007 8.61333 166.039 8.52308 165.038 8.52308C163.233 8.52308 161.871 8.8759 160.952 9.58154C160.049 10.2872 159.598 11.3703 159.598 12.8308V18.0985H168.385L167.942 21.3477H159.598V42H155.462V21.3477H149.284V18.0985H155.462V12.9292C155.462 11.321 155.873 9.93436 156.693 8.76923C157.53 7.6041 158.662 6.70974 160.09 6.08615C161.518 5.44615 163.126 5.12615 164.915 5.12615ZM200.206 13.3231L201.486 17.2123C200.386 17.5569 199.213 17.7703 197.966 17.8523C196.719 17.9344 195.365 17.9754 193.904 17.9754C195.398 18.6646 196.522 19.559 197.277 20.6585C198.032 21.7415 198.409 23.0215 198.409 24.4985C198.409 26.2051 198.023 27.7231 197.252 29.0523C196.481 30.3815 195.365 31.4236 193.904 32.1785C192.46 32.9333 190.713 33.3108 188.661 33.3108C187.792 33.3108 187.061 33.2697 186.471 33.1877C185.896 33.1056 185.338 32.9826 184.797 32.8185C184.403 33.081 184.075 33.4421 183.812 33.9015C183.566 34.361 183.443 34.8369 183.443 35.3292C183.443 35.9528 183.689 36.4697 184.181 36.88C184.674 37.2903 185.584 37.4954 186.914 37.4954H191.591C193.33 37.4954 194.889 37.8072 196.267 38.4308C197.662 39.0544 198.754 39.8913 199.541 40.9415C200.345 41.9918 200.748 43.1897 200.748 44.5354C200.748 47.079 199.664 49.0318 197.498 50.3938C195.349 51.7559 192.304 52.4369 188.366 52.4369C185.609 52.4369 183.435 52.1497 181.843 51.5754C180.251 51.0174 179.111 50.1559 178.421 48.9908C177.749 47.8421 177.412 46.3897 177.412 44.6338H181.154C181.154 45.6349 181.351 46.4636 181.744 47.12C182.138 47.7764 182.852 48.2605 183.886 48.5723C184.92 48.9005 186.405 49.0646 188.341 49.0646C190.245 49.0646 191.796 48.9005 192.994 48.5723C194.208 48.2605 195.102 47.7846 195.677 47.1446C196.267 46.521 196.563 45.7415 196.563 44.8062C196.563 43.5754 196.005 42.6482 194.889 42.0246C193.773 41.401 192.378 41.0892 190.704 41.0892H186.077C183.845 41.0892 182.196 40.5969 181.129 39.6123C180.079 38.6277 179.554 37.4954 179.554 36.2154C179.554 35.3785 179.792 34.5662 180.267 33.7785C180.76 32.9908 181.474 32.2933 182.409 31.6862C180.916 30.8985 179.816 29.9221 179.111 28.7569C178.405 27.5918 178.052 26.1805 178.052 24.5231C178.052 22.7672 178.487 21.2164 179.357 19.8708C180.226 18.5087 181.441 17.4421 183 16.6708C184.559 15.8995 186.356 15.5138 188.391 15.5138C190.573 15.4974 192.345 15.4072 193.707 15.2431C195.07 15.0626 196.235 14.8082 197.203 14.48C198.187 14.1518 199.189 13.7662 200.206 13.3231ZM188.391 18.5415C186.306 18.5415 184.764 19.1077 183.763 20.24C182.778 21.3559 182.286 22.7836 182.286 24.5231C182.286 26.279 182.795 27.7231 183.812 28.8554C184.83 29.9877 186.389 30.5538 188.489 30.5538C190.327 30.5538 191.722 30.0205 192.674 28.9538C193.642 27.8872 194.126 26.4021 194.126 24.4985C194.126 22.5456 193.642 21.0687 192.674 20.0677C191.722 19.0503 190.294 18.5415 188.391 18.5415ZM224.888 42V25.9262H212.088V42H207.83V8.10462H212.088V22.4308H224.888V8.10462H229.146V42H224.888ZM257.718 8.10462V11.5262H250.185V38.5785H257.718V42H238.321V38.5785H245.853V11.5262H238.321V8.10462H257.718ZM287.224 8.10462V30.7508C287.224 32.1621 287.036 33.5733 286.658 34.9846C286.297 36.3795 285.674 37.6513 284.787 38.8C283.918 39.9323 282.736 40.8431 281.243 41.5323C279.749 42.2215 277.887 42.5662 275.655 42.5662C273.998 42.5662 272.365 42.3036 270.757 41.7785C269.165 41.2533 267.696 40.4903 266.35 39.4892L268.246 36.6585C269.723 37.5774 271.068 38.201 272.283 38.5292C273.497 38.841 274.605 38.9969 275.606 38.9969C277.969 38.9969 279.782 38.2421 281.046 36.7323C282.326 35.2226 282.966 33.1467 282.966 30.5046V11.6H272.923V8.10462H287.224ZM301.74 42H297.482V8.10462H301.74V42ZM301.986 23.9077L315.328 8.10462H320.251L307.008 23.6369L321.186 42H315.869L301.986 23.9077ZM328.515 42V8.10462H332.798V38.1846H348.256L347.764 42H328.515ZM377.492 8.10462L379.412 42H375.301L374.243 24.3015C374.193 23.1036 374.144 21.8892 374.095 20.6585C374.046 19.4277 374.013 18.2462 373.997 17.1138C373.98 15.9815 373.972 14.9723 373.972 14.0862C373.972 13.2 373.972 12.5108 373.972 12.0185L368.261 35.92H363.978L357.849 12.0185C357.865 12.4944 357.882 13.2 357.898 14.1354C357.914 15.0544 357.923 16.0964 357.923 17.2615C357.939 18.4267 357.931 19.6246 357.898 20.8554C357.882 22.0697 357.849 23.2021 357.8 24.2523L356.889 42H352.877L354.797 8.10462H360.753L366.243 31.3169L371.486 8.10462H377.492ZM400.352 42L388.414 12.1908C388.43 12.5682 388.463 13.2 388.512 14.0862C388.578 14.9559 388.644 15.9979 388.709 17.2123C388.791 18.4103 388.857 19.6821 388.906 21.0277C388.955 22.3733 388.98 23.7026 388.98 25.0154V42H385.017V8.10462H390.802L402.937 38.0369C402.921 37.561 402.863 36.6913 402.765 35.4277C402.666 34.1477 402.576 32.6051 402.494 30.8C402.412 28.9949 402.371 27.0831 402.371 25.0646V8.10462H406.334V42H400.352ZM437.687 25.0892C437.687 28.5026 437.219 31.5303 436.284 34.1723C435.365 36.7979 433.978 38.8574 432.124 40.3508C430.269 41.8277 427.964 42.5662 425.207 42.5662C422.466 42.5662 420.161 41.8441 418.29 40.4C416.435 38.9395 415.041 36.9046 414.105 34.2954C413.186 31.6862 412.727 28.6338 412.727 25.1385C412.727 21.7087 413.186 18.6728 414.105 16.0308C415.041 13.3887 416.435 11.321 418.29 9.82769C420.161 8.31795 422.466 7.56308 425.207 7.56308C427.964 7.56308 430.269 8.29333 432.124 9.75385C433.978 11.2144 435.365 13.2574 436.284 15.8831C437.219 18.5087 437.687 21.5774 437.687 25.0892ZM433.207 25.0892C433.207 20.5764 432.583 17.1221 431.336 14.7262C430.105 12.3303 428.062 11.1323 425.207 11.1323C422.351 11.1323 420.3 12.3385 419.053 14.7508C417.822 17.1631 417.207 20.6256 417.207 25.1385C417.207 29.6513 417.847 33.0892 419.127 35.4523C420.407 37.799 422.433 38.9723 425.207 38.9723C428.062 38.9723 430.105 37.7908 431.336 35.4277C432.583 33.0482 433.207 29.6021 433.207 25.0892ZM454.738 33.9015C455.87 33.9015 456.814 34.2872 457.569 35.0585C458.34 35.8297 458.726 36.7569 458.726 37.84C458.726 38.4308 458.652 39.0297 458.504 39.6369C458.373 40.2441 458.127 40.9333 457.766 41.7046L453.778 50.8369H450.036L452.4 41.1138C451.907 40.7528 451.513 40.2851 451.218 39.7108C450.939 39.12 450.8 38.4964 450.8 37.84C450.8 36.7405 451.177 35.8133 451.932 35.0585C452.687 34.2872 453.622 33.9015 454.738 33.9015ZM479.912 38.2092C479.912 37.4051 480.101 36.6831 480.478 36.0431C480.856 35.3867 481.365 34.8697 482.005 34.4923C482.661 34.0985 483.399 33.9015 484.22 33.9015C485.057 33.9015 485.804 34.0985 486.46 34.4923C487.116 34.8697 487.633 35.3867 488.011 36.0431C488.388 36.6831 488.577 37.4051 488.577 38.2092C488.577 39.0133 488.388 39.7518 488.011 40.4246C487.633 41.081 487.116 41.6062 486.46 42C485.804 42.3774 485.057 42.5662 484.22 42.5662C483.399 42.5662 482.661 42.3774 482.005 42C481.365 41.6062 480.856 41.081 480.478 40.4246C480.101 39.7518 479.912 39.0133 479.912 38.2092ZM503.93 28.3877V24.7938H523.671V28.3877H503.93ZM543.332 7.56308C546.991 7.56308 549.756 9.07282 551.627 12.0923C553.498 15.1118 554.433 19.4277 554.433 25.04C554.433 30.6687 553.498 35.001 551.627 38.0369C549.756 41.0564 546.991 42.5662 543.332 42.5662C539.689 42.5662 536.924 41.0564 535.036 38.0369C533.166 35.001 532.23 30.6687 532.23 25.04C532.23 19.4277 533.166 15.1118 535.036 12.0923C536.924 9.07282 539.689 7.56308 543.332 7.56308ZM543.332 10.8862C541.248 10.8862 539.607 11.9938 538.409 14.2092C537.211 16.4082 536.612 20.0185 536.612 25.04C536.612 27.5836 536.743 29.7579 537.006 31.5631C537.268 33.3682 537.67 34.8369 538.212 35.9692C538.77 37.0851 539.467 37.9056 540.304 38.4308C541.157 38.9559 542.167 39.2185 543.332 39.2185C544.743 39.2185 545.949 38.7344 546.95 37.7662C547.968 36.7979 548.739 35.2718 549.264 33.1877C549.806 31.0872 550.076 28.3713 550.076 25.04C550.076 21.6595 549.838 18.9272 549.362 16.8431C548.903 14.759 548.173 13.2492 547.172 12.3138C546.187 11.3621 544.907 10.8862 543.332 10.8862ZM548.329 12.0923L549.412 15.7108L538.63 37.5446L537.104 34.6646L548.329 12.0923ZM576.481 8.10462V41.0154H572.346V12.5846L564.568 17.3108L562.771 14.3569L572.863 8.10462H576.481ZM583.571 38.6277V42H564.001V38.6277H583.571ZM600.893 7.56308C603.026 7.56308 604.848 7.97333 606.357 8.79385C607.883 9.61436 609.057 10.7385 609.877 12.1662C610.698 13.5938 611.108 15.2103 611.108 17.0154C611.108 18.5744 610.837 20.1005 610.296 21.5938C609.754 23.0708 608.884 24.6297 607.687 26.2708C606.505 27.8954 604.946 29.7005 603.01 31.6862C601.09 33.6718 598.727 35.9364 595.92 38.48H611.896L611.379 42H591.219V38.6277C593.779 36.1826 595.953 34.041 597.742 32.2031C599.547 30.3651 601.032 28.7569 602.197 27.3785C603.379 25.9836 604.298 24.72 604.954 23.5877C605.627 22.4554 606.095 21.3805 606.357 20.3631C606.62 19.3292 606.751 18.2626 606.751 17.1631C606.751 15.2595 606.21 13.7579 605.127 12.6585C604.06 11.559 602.583 11.0092 600.696 11.0092C599.022 11.0092 597.652 11.2964 596.585 11.8708C595.518 12.4451 594.452 13.3641 593.385 14.6277L590.53 12.4123C591.875 10.7713 593.369 9.55692 595.01 8.76923C596.651 7.96513 598.612 7.56308 600.893 7.56308ZM630.375 7.56308C632.508 7.56308 634.346 7.94872 635.889 8.72C637.448 9.47487 638.654 10.5005 639.507 11.7969C640.36 13.0769 640.787 14.4882 640.787 16.0308C640.787 17.3928 640.483 18.6318 639.876 19.7477C639.269 20.8636 638.465 21.7826 637.464 22.5046C636.463 23.2267 635.363 23.7026 634.165 23.9323C635.495 24.0308 636.742 24.4082 637.907 25.0646C639.072 25.7046 640.024 26.6236 640.762 27.8215C641.501 29.0031 641.87 30.4718 641.87 32.2277C641.87 34.1805 641.378 35.9446 640.393 37.52C639.409 39.079 638.03 40.3097 636.258 41.2123C634.502 42.1149 632.451 42.5662 630.104 42.5662C628.217 42.5662 626.33 42.2051 624.442 41.4831C622.572 40.761 620.988 39.6123 619.692 38.0369L622.473 35.7723C623.441 36.9046 624.59 37.7497 625.919 38.3077C627.265 38.8656 628.627 39.1446 630.005 39.1446C632.369 39.1446 634.215 38.5292 635.544 37.2985C636.873 36.0513 637.538 34.361 637.538 32.2277C637.538 30.6195 637.226 29.3477 636.602 28.4123C635.995 27.4769 635.167 26.8123 634.116 26.4185C633.066 26.0082 631.868 25.8031 630.522 25.8031H627.667L628.184 22.5292H630.178C631.277 22.5292 632.311 22.3241 633.279 21.9138C634.264 21.4872 635.068 20.8308 635.692 19.9446C636.315 19.0585 636.627 17.9508 636.627 16.6215C636.627 14.7508 636.003 13.3231 634.756 12.3385C633.509 11.3538 631.999 10.8615 630.227 10.8615C628.75 10.8615 627.462 11.1241 626.362 11.6492C625.263 12.1579 624.155 12.9374 623.039 13.9877L620.75 11.4523C622.194 10.0903 623.729 9.10564 625.353 8.49846C626.978 7.87487 628.652 7.56308 630.375 7.56308ZM657.149 24.7692C657.149 27.3292 657.371 29.6267 657.814 31.6615C658.257 33.68 658.913 35.5344 659.783 37.2246C660.653 38.8985 661.744 40.4903 663.057 42C664.386 43.5262 665.929 45.0687 667.684 46.6277L665.518 48.8923C662.86 46.7097 660.579 44.4779 658.675 42.1969C656.788 39.9159 655.336 37.3723 654.318 34.5662C653.317 31.76 652.817 28.4944 652.817 24.7692C652.817 21.0277 653.317 17.7538 654.318 14.9477C655.336 12.1415 656.788 9.59795 658.675 7.31692C660.579 5.0359 662.86 2.81231 665.518 0.646156L667.684 2.91077C665.912 4.48615 664.361 6.03692 663.032 7.56308C661.719 9.07282 660.628 10.6646 659.758 12.3385C658.889 13.9959 658.232 15.8421 657.789 17.8769C657.362 19.8954 657.149 22.1928 657.149 24.7692ZM685.277 47.6862V1.85231H697.61V5.42154H689.191V44.1662H697.61V47.6862H685.277ZM727.978 0.867694V4.11692C726.78 4.11692 725.688 4.24 724.704 4.48616C723.736 4.7159 722.981 5.11795 722.439 5.69231C721.914 6.26667 721.693 7.05436 721.775 8.05538L722.808 18.1477C722.956 19.5262 722.874 20.6667 722.562 21.5692C722.251 22.4718 721.725 23.1774 720.987 23.6862C720.265 24.1949 719.338 24.5559 718.205 24.7692C719.354 24.9662 720.298 25.3108 721.036 25.8031C721.775 26.279 722.292 26.9682 722.587 27.8708C722.882 28.7569 722.956 29.9303 722.808 31.3908L721.775 41.4831C721.693 42.5005 721.914 43.2964 722.439 43.8708C722.964 44.4451 723.719 44.8472 724.704 45.0769C725.688 45.3067 726.78 45.4215 727.978 45.4215V48.6708C726.599 48.6708 725.278 48.5477 724.015 48.3015C722.751 48.0718 721.635 47.6697 720.667 47.0954C719.699 46.521 718.968 45.7333 718.476 44.7323C717.984 43.7477 717.82 42.5005 717.984 40.9908L718.968 31.6369C719.1 30.5046 718.993 29.5528 718.648 28.7815C718.32 28.0103 717.598 27.4277 716.482 27.0338C715.383 26.6236 713.734 26.4185 711.535 26.4185V23.12C713.734 23.12 715.383 22.9231 716.482 22.5292C717.598 22.1354 718.32 21.5528 718.648 20.7815C718.993 20.0103 719.1 19.0667 718.968 17.9508L717.984 8.54769C717.82 7.03795 717.984 5.79077 718.476 4.80616C718.968 3.80513 719.691 3.01744 720.642 2.44308C721.611 1.86872 722.726 1.46667 723.99 1.23692C725.27 0.99077 726.599 0.867694 727.978 0.867694Z" fill="#111111"/>
</svg>
