<svg width="764" height="192" viewBox="0 0 764 192" fill="none" xmlns="http://www.w3.org/2000/svg">
<path d="M22.5077 33.3385C22.5077 34.3723 22.68 35.1272 23.0246 35.6031C23.3692 36.079 23.9026 36.4318 24.6246 36.6615L23.6154 39.5662C22.4995 39.4185 21.5231 39.0656 20.6862 38.5077C19.8492 37.9333 19.2421 37.0718 18.8646 35.9231C17.9292 37.121 16.7641 38.0318 15.3692 38.6554C13.9744 39.2626 12.4318 39.5662 10.7415 39.5662C8.14872 39.5662 6.10564 38.8359 4.61231 37.3754C3.11897 35.9149 2.37231 33.9785 2.37231 31.5662C2.37231 28.8913 3.41436 26.84 5.49846 25.4123C7.58256 23.9846 10.5938 23.2708 14.5323 23.2708H18.3477V21.1046C18.3477 19.2338 17.7979 17.9128 16.6985 17.1415C15.6154 16.3538 14.1056 15.96 12.1692 15.96C11.3159 15.96 10.3149 16.0667 9.16615 16.28C8.01744 16.4769 6.77026 16.8133 5.42462 17.2892L4.34154 14.1631C5.93333 13.5723 7.42667 13.1538 8.82154 12.9077C10.2164 12.6615 11.5456 12.5385 12.8092 12.5385C16.0421 12.5385 18.4626 13.2933 20.0708 14.8031C21.6954 16.2964 22.5077 18.3313 22.5077 20.9077V33.3385ZM11.8 36.4154C13.08 36.4154 14.3026 36.0954 15.4677 35.4554C16.6328 34.799 17.5928 33.8964 18.3477 32.7477V26.0769H14.6062C11.7508 26.0769 9.73231 26.5692 8.55077 27.5538C7.38564 28.5385 6.80308 29.8595 6.80308 31.5169C6.80308 33.1251 7.21333 34.3477 8.03385 35.1846C8.87077 36.0051 10.1262 36.4154 11.8 36.4154ZM37.6143 16.4523C38.5661 15.2051 39.6574 14.2451 40.8882 13.5723C42.1354 12.8831 43.5056 12.5385 44.9989 12.5385C47.3128 12.5385 49.1836 13.0964 50.6112 14.2123C52.0389 15.3282 53.081 16.9036 53.7374 18.9385C54.3938 20.9569 54.722 23.32 54.722 26.0277C54.722 28.6369 54.3282 30.9672 53.5405 33.0185C52.7528 35.0533 51.5959 36.6533 50.0697 37.8185C48.56 38.9836 46.6892 39.5662 44.4574 39.5662C41.4543 39.5662 39.0995 38.4831 37.3928 36.3169L37.0974 39H33.4789V2.64308L37.6143 2.12615V16.4523ZM43.4728 36.2185C45.6389 36.2185 47.3046 35.3815 48.4697 33.7077C49.6348 32.0338 50.2174 29.4656 50.2174 26.0031C50.2174 23.7385 49.9877 21.8595 49.5282 20.3662C49.0687 18.8564 48.3795 17.7323 47.4605 16.9938C46.5579 16.239 45.442 15.8615 44.1128 15.8615C42.6687 15.8615 41.3969 16.2964 40.2974 17.1662C39.2143 18.0195 38.32 18.9713 37.6143 20.0215V32.8708C38.2871 33.8882 39.1323 34.7005 40.1497 35.3077C41.1836 35.9149 42.2912 36.2185 43.4728 36.2185ZM74.7271 35.9969C76.0235 35.9969 77.2297 35.7836 78.3456 35.3569C79.4779 34.9303 80.5199 34.3887 81.4717 33.7323L83.4902 36.44C82.3579 37.4082 80.9958 38.1713 79.404 38.7292C77.8122 39.2872 76.2533 39.5662 74.7271 39.5662C72.1507 39.5662 69.9517 39.0164 68.1302 37.9169C66.3251 36.801 64.9466 35.2421 63.9948 33.24C63.043 31.2215 62.5671 28.8585 62.5671 26.1508C62.5671 23.5579 63.043 21.2359 63.9948 19.1846C64.963 17.1169 66.3497 15.4923 68.1548 14.3108C69.9763 13.1292 72.1835 12.5385 74.7763 12.5385C76.4338 12.5385 77.9846 12.7928 79.4287 13.3015C80.8892 13.7938 82.2266 14.5405 83.441 15.5415L81.4225 18.2985C80.323 17.5272 79.2153 16.9528 78.0994 16.5754C76.9999 16.1815 75.8758 15.9846 74.7271 15.9846C72.4953 15.9846 70.6574 16.8215 69.2133 18.4954C67.7692 20.1692 67.0471 22.721 67.0471 26.1508C67.0471 28.4482 67.3753 30.3272 68.0317 31.7877C68.7046 33.2318 69.6153 34.2985 70.764 34.9877C71.9292 35.6605 73.2502 35.9969 74.7271 35.9969ZM108.049 2.12615L112.185 2.64308V39H108.566L108.172 35.5785C107.204 36.9569 106.088 37.9662 104.825 38.6062C103.577 39.2462 102.24 39.5662 100.812 39.5662C98.564 39.5662 96.7096 39 95.2491 37.8677C93.7886 36.7354 92.7055 35.16 91.9999 33.1415C91.2943 31.1067 90.9414 28.7518 90.9414 26.0769C90.9414 23.4841 91.3435 21.1703 92.1476 19.1354C92.9517 17.0841 94.1086 15.4759 95.6184 14.3108C97.1445 13.1292 98.9743 12.5385 101.108 12.5385C102.601 12.5385 103.914 12.801 105.046 13.3262C106.178 13.8349 107.179 14.5897 108.049 15.5908V2.12615ZM102.191 15.8615C100.025 15.8615 98.3589 16.7067 97.1937 18.3969C96.0286 20.0872 95.4461 22.6472 95.4461 26.0769C95.4461 28.3087 95.684 30.1795 96.1599 31.6892C96.6358 33.199 97.3332 34.3313 98.2522 35.0862C99.1876 35.841 100.328 36.2185 101.674 36.2185C103.151 36.2185 104.406 35.8 105.44 34.9631C106.49 34.1262 107.36 33.1826 108.049 32.1323V19.1846C107.343 18.1344 106.49 17.3221 105.489 16.7477C104.488 16.1569 103.389 15.8615 102.191 15.8615ZM125.322 27.5046C125.404 29.5067 125.79 31.1477 126.479 32.4277C127.168 33.6913 128.079 34.6267 129.211 35.2338C130.343 35.8246 131.574 36.12 132.903 36.12C134.233 36.12 135.431 35.9231 136.497 35.5292C137.58 35.1354 138.688 34.5528 139.82 33.7815L141.765 36.5138C140.551 37.4656 139.164 38.2123 137.605 38.7538C136.062 39.2954 134.479 39.5662 132.854 39.5662C130.343 39.5662 128.202 39 126.43 37.8677C124.657 36.7354 123.303 35.16 122.368 33.1415C121.449 31.1067 120.99 28.7518 120.99 26.0769C120.99 23.4513 121.457 21.121 122.393 19.0862C123.328 17.0513 124.641 15.4513 126.331 14.2862C128.021 13.121 130.015 12.5385 132.313 12.5385C134.495 12.5385 136.374 13.0554 137.95 14.0892C139.525 15.1067 140.731 16.5672 141.568 18.4708C142.421 20.3579 142.848 22.6144 142.848 25.24C142.848 25.6831 142.84 26.1015 142.823 26.4954C142.807 26.8728 142.782 27.2092 142.75 27.5046H125.322ZM132.362 15.9354C130.442 15.9354 128.834 16.6164 127.537 17.9785C126.257 19.3405 125.527 21.4492 125.347 24.3046H138.86C138.811 21.5313 138.204 19.4472 137.039 18.0523C135.874 16.641 134.315 15.9354 132.362 15.9354ZM166.915 2.12615C168.31 2.12615 169.573 2.24923 170.705 2.49539C171.838 2.74154 172.913 3.08615 173.93 3.52923L172.601 6.60616C171.764 6.24513 170.878 5.97436 169.942 5.79385C169.007 5.61333 168.039 5.52308 167.038 5.52308C165.233 5.52308 163.871 5.8759 162.952 6.58154C162.049 7.28718 161.598 8.37026 161.598 9.83077V15.0985H170.385L169.942 18.3477H161.598V39H157.462V18.3477H151.284V15.0985H157.462V9.92923C157.462 8.32103 157.873 6.93436 158.693 5.76923C159.53 4.6041 160.662 3.70974 162.09 3.08615C163.518 2.44615 165.126 2.12615 166.915 2.12615ZM202.206 10.3231L203.486 14.2123C202.386 14.5569 201.213 14.7703 199.966 14.8523C198.719 14.9344 197.365 14.9754 195.904 14.9754C197.398 15.6646 198.522 16.559 199.277 17.6585C200.032 18.7415 200.409 20.0215 200.409 21.4985C200.409 23.2051 200.023 24.7231 199.252 26.0523C198.481 27.3815 197.365 28.4236 195.904 29.1785C194.46 29.9333 192.713 30.3108 190.661 30.3108C189.792 30.3108 189.061 30.2697 188.471 30.1877C187.896 30.1056 187.338 29.9826 186.797 29.8185C186.403 30.081 186.075 30.4421 185.812 30.9015C185.566 31.361 185.443 31.8369 185.443 32.3292C185.443 32.9528 185.689 33.4697 186.181 33.88C186.674 34.2903 187.584 34.4954 188.914 34.4954H193.591C195.33 34.4954 196.889 34.8072 198.267 35.4308C199.662 36.0544 200.754 36.8913 201.541 37.9415C202.345 38.9918 202.748 40.1897 202.748 41.5354C202.748 44.079 201.664 46.0318 199.498 47.3938C197.349 48.7559 194.304 49.4369 190.366 49.4369C187.609 49.4369 185.435 49.1497 183.843 48.5754C182.251 48.0174 181.111 47.1559 180.421 45.9908C179.749 44.8421 179.412 43.3897 179.412 41.6338H183.154C183.154 42.6349 183.351 43.4636 183.744 44.12C184.138 44.7764 184.852 45.2605 185.886 45.5723C186.92 45.9005 188.405 46.0646 190.341 46.0646C192.245 46.0646 193.796 45.9005 194.994 45.5723C196.208 45.2605 197.102 44.7846 197.677 44.1446C198.267 43.521 198.563 42.7415 198.563 41.8062C198.563 40.5754 198.005 39.6482 196.889 39.0246C195.773 38.401 194.378 38.0892 192.704 38.0892H188.077C185.845 38.0892 184.196 37.5969 183.129 36.6123C182.079 35.6277 181.554 34.4954 181.554 33.2154C181.554 32.3785 181.792 31.5662 182.267 30.7785C182.76 29.9908 183.474 29.2933 184.409 28.6862C182.916 27.8985 181.816 26.9221 181.111 25.7569C180.405 24.5918 180.052 23.1805 180.052 21.5231C180.052 19.7672 180.487 18.2164 181.357 16.8708C182.226 15.5087 183.441 14.4421 185 13.6708C186.559 12.8995 188.356 12.5138 190.391 12.5138C192.573 12.4974 194.345 12.4072 195.707 12.2431C197.07 12.0626 198.235 11.8082 199.203 11.48C200.187 11.1518 201.189 10.7662 202.206 10.3231ZM190.391 15.5415C188.306 15.5415 186.764 16.1077 185.763 17.24C184.778 18.3559 184.286 19.7836 184.286 21.5231C184.286 23.279 184.795 24.7231 185.812 25.8554C186.83 26.9877 188.389 27.5538 190.489 27.5538C192.327 27.5538 193.722 27.0205 194.674 25.9538C195.642 24.8872 196.126 23.4021 196.126 21.4985C196.126 19.5456 195.642 18.0687 194.674 17.0677C193.722 16.0503 192.294 15.5415 190.391 15.5415ZM214.802 2.24923V16.6246C215.819 15.2626 217.066 14.2451 218.543 13.5723C220.037 12.8831 221.546 12.5385 223.073 12.5385C225.6 12.5385 227.446 13.2113 228.611 14.5569C229.776 15.9026 230.359 17.7733 230.359 20.1692V39H226.223V20.2677C226.223 18.7087 225.862 17.5764 225.14 16.8708C224.418 16.1487 223.286 15.7877 221.743 15.7877C220.759 15.7877 219.823 16.0092 218.937 16.4523C218.051 16.8954 217.255 17.4451 216.55 18.1015C215.844 18.7579 215.261 19.4308 214.802 20.12V39H210.666V2.69231L214.802 2.24923ZM253.318 13.08V35.7262H260.628V39H241.182V35.7262H249.182V16.3538H241.428V13.08H253.318ZM250.019 0.944615C250.938 0.944615 251.668 1.22359 252.21 1.78154C252.768 2.33949 253.047 3.02051 253.047 3.82462C253.047 4.66154 252.768 5.36718 252.21 5.94154C251.668 6.49949 250.938 6.77846 250.019 6.77846C249.149 6.77846 248.436 6.49949 247.878 5.94154C247.32 5.36718 247.041 4.66154 247.041 3.82462C247.041 3.02051 247.32 2.33949 247.878 1.78154C248.436 1.22359 249.149 0.944615 250.019 0.944615ZM286.689 13.08V34.84C286.689 37.7282 286.041 40.1405 284.744 42.0769C283.448 44.0297 281.569 45.5969 279.107 46.7785C276.646 47.96 273.667 48.8462 270.172 49.4369L269.483 46.2369C272.043 45.8103 274.307 45.1703 276.277 44.3169C278.246 43.4636 279.78 42.2903 280.88 40.7969C281.996 39.32 282.554 37.4246 282.554 35.1108V16.3538H271.772V13.08H286.689ZM282.824 0.944615C283.743 0.944615 284.482 1.22359 285.04 1.78154C285.598 2.33949 285.877 3.02051 285.877 3.82462C285.877 4.66154 285.598 5.36718 285.04 5.94154C284.482 6.49949 283.743 6.77846 282.824 6.77846C281.938 6.77846 281.224 6.49949 280.683 5.94154C280.141 5.36718 279.87 4.66154 279.87 3.82462C279.87 3.02051 280.141 2.33949 280.683 1.78154C281.224 1.22359 281.938 0.944615 282.824 0.944615ZM320.971 13.08L309.303 24.7477L322.325 39H316.885L304.134 24.8462L315.605 13.08H320.971ZM303.666 2.12615V39H299.531V2.64308L303.666 2.12615ZM338.884 2.64308V32.6C338.884 33.88 339.278 34.7908 340.065 35.3323C340.869 35.8574 341.903 36.12 343.167 36.12C343.955 36.12 344.701 36.0379 345.407 35.8738C346.112 35.7097 346.818 35.4882 347.524 35.2092L348.631 38.2369C347.926 38.5815 347.048 38.8851 345.998 39.1477C344.964 39.4267 343.79 39.5662 342.478 39.5662C340.18 39.5662 338.318 38.9344 336.89 37.6708C335.462 36.3908 334.748 34.6267 334.748 32.3785V5.91692H326.798V2.64308H338.884ZM375.406 12.5385C376.243 12.5385 377.039 12.719 377.793 13.08C378.565 13.441 379.197 14.1385 379.689 15.1723C380.181 16.2062 380.427 17.7159 380.427 19.7015V39H376.587V20.3662C376.587 18.7415 376.489 17.5682 376.292 16.8462C376.095 16.1241 375.529 15.7631 374.593 15.7631C373.822 15.7631 373.051 16.0092 372.28 16.5015C371.525 16.9774 370.786 17.7651 370.064 18.8646V39H366.2V20.3662C366.2 18.7415 366.101 17.5682 365.904 16.8462C365.707 16.1241 365.141 15.7631 364.206 15.7631C363.402 15.7631 362.622 16.0092 361.867 16.5015C361.129 16.9774 360.399 17.7651 359.677 18.8646V39H355.861V13.08H359.11L359.357 16.0831C360.062 15.0821 360.85 14.2451 361.72 13.5723C362.606 12.8831 363.697 12.5385 364.993 12.5385C365.978 12.5385 366.905 12.7764 367.775 13.2523C368.645 13.7118 369.285 14.6144 369.695 15.96C370.401 14.9426 371.197 14.1221 372.083 13.4985C372.969 12.8585 374.077 12.5385 375.406 12.5385ZM387.854 39V13.08H391.374L391.694 16.6738C392.744 15.3446 394.057 14.3272 395.632 13.6215C397.224 12.8995 398.767 12.5385 400.26 12.5385C402.804 12.5385 404.65 13.2113 405.799 14.5569C406.964 15.9026 407.546 17.7733 407.546 20.1692V39H403.411V23.2215C403.411 21.4492 403.312 20.0215 403.115 18.9385C402.919 17.839 402.508 17.0431 401.885 16.5508C401.261 16.0421 400.293 15.7877 398.98 15.7877C397.963 15.7877 397.003 16.0092 396.1 16.4523C395.214 16.8954 394.418 17.4533 393.712 18.1262C393.023 18.7826 392.449 19.4472 391.989 20.12V39H387.854ZM427.256 12.5385C429.701 12.5385 431.744 13.0964 433.385 14.2123C435.043 15.3118 436.282 16.8708 437.102 18.8892C437.939 20.9077 438.357 23.2872 438.357 26.0277C438.357 28.6697 437.931 31.0082 437.077 33.0431C436.224 35.0779 434.969 36.6779 433.311 37.8431C431.67 38.9918 429.635 39.5662 427.207 39.5662C424.778 39.5662 422.735 39.0082 421.077 37.8923C419.42 36.7764 418.165 35.2092 417.311 33.1908C416.474 31.1559 416.056 28.7846 416.056 26.0769C416.056 23.4021 416.483 21.0472 417.336 19.0123C418.189 16.9774 419.445 15.3938 421.102 14.2615C422.776 13.1128 424.827 12.5385 427.256 12.5385ZM427.256 15.9108C425.024 15.9108 423.334 16.7395 422.185 18.3969C421.053 20.0379 420.487 22.5979 420.487 26.0769C420.487 29.4903 421.045 32.0256 422.161 33.6831C423.293 35.3405 424.975 36.1692 427.207 36.1692C429.439 36.1692 431.112 35.3405 432.228 33.6831C433.361 32.0256 433.927 29.4738 433.927 26.0277C433.927 22.5815 433.369 20.0379 432.253 18.3969C431.137 16.7395 429.471 15.9108 427.256 15.9108ZM458.51 12.5385C460.808 12.5385 462.637 13.0964 464 14.2123C465.378 15.3282 466.371 16.9036 466.978 18.9385C467.585 20.9569 467.889 23.32 467.889 26.0277C467.889 28.6369 467.52 30.9672 466.781 33.0185C466.059 35.0533 464.96 36.6533 463.483 37.8185C462.006 38.9836 460.143 39.5662 457.895 39.5662C455.056 39.5662 452.775 38.5651 451.052 36.5631V48.92L446.916 49.4369V13.08H450.436L450.781 16.6985C451.733 15.3692 452.865 14.3436 454.178 13.6215C455.507 12.8995 456.951 12.5385 458.51 12.5385ZM457.526 15.8615C456.098 15.8615 454.834 16.2964 453.735 17.1662C452.652 18.0195 451.757 18.9713 451.052 20.0215V32.8708C451.725 33.8718 452.57 34.6677 453.587 35.2585C454.621 35.8328 455.753 36.12 456.984 36.12C459.134 36.12 460.75 35.2995 461.833 33.6585C462.916 32.0174 463.458 29.4656 463.458 26.0031C463.458 23.7385 463.245 21.8595 462.818 20.3662C462.391 18.8564 461.743 17.7323 460.873 16.9938C460.004 16.239 458.888 15.8615 457.526 15.8615ZM484.989 12.5385C486.548 12.5385 487.918 12.8256 489.1 13.4C490.298 13.9744 491.34 14.8113 492.226 15.9108L492.571 13.08H496.091V49.4369L491.955 48.92V35.7262C491.02 37.0554 489.921 38.0318 488.657 38.6554C487.41 39.2626 486.081 39.5662 484.669 39.5662C482.355 39.5662 480.493 39.0082 479.082 37.8923C477.687 36.7764 476.677 35.2092 476.054 33.1908C475.43 31.1559 475.118 28.7846 475.118 26.0769C475.118 23.4841 475.488 21.1703 476.226 19.1354C476.981 17.0841 478.097 15.4759 479.574 14.3108C481.051 13.1292 482.856 12.5385 484.989 12.5385ZM486.023 15.8615C483.873 15.8615 482.257 16.7067 481.174 18.3969C480.091 20.0872 479.549 22.6472 479.549 26.0769C479.549 28.3087 479.771 30.1713 480.214 31.6646C480.657 33.1579 481.313 34.2738 482.183 35.0123C483.069 35.7508 484.185 36.12 485.531 36.12C486.975 36.12 488.23 35.7179 489.297 34.9138C490.364 34.1097 491.25 33.1826 491.955 32.1323V19.1846C491.283 18.1344 490.429 17.3221 489.395 16.7477C488.378 16.1569 487.254 15.8615 486.023 15.8615ZM506.225 39V35.8246H510.262V16.2554H506.225V13.08H513.413L514.176 19.2092C515.177 17.0759 516.391 15.4267 517.819 14.2615C519.247 13.0964 521.134 12.5138 523.48 12.5138C524.203 12.5138 524.843 12.5713 525.4 12.6862C525.975 12.7846 526.557 12.9159 527.148 13.08L525.942 16.7723C525.4 16.6246 524.908 16.5179 524.465 16.4523C524.022 16.3703 523.513 16.3292 522.939 16.3292C520.953 16.3292 519.247 17.0349 517.819 18.4462C516.391 19.8574 515.251 21.9908 514.397 24.8462V35.8246H519.665V39H506.225ZM523.16 21.8431V16.2062L523.579 13.08H527.148L526.557 21.8431H523.16ZM544.322 36.1446C546.308 36.1446 547.875 35.7754 549.024 35.0369C550.189 34.2821 550.772 33.281 550.772 32.0338C550.772 31.2462 550.624 30.5651 550.329 29.9908C550.05 29.4164 549.467 28.8995 548.581 28.44C547.695 27.9805 546.333 27.521 544.495 27.0615C542.706 26.6185 541.147 26.1097 539.818 25.5354C538.505 24.9446 537.479 24.1815 536.741 23.2462C536.019 22.3108 535.658 21.0964 535.658 19.6031C535.658 18.1426 536.068 16.8872 536.889 15.8369C537.726 14.7703 538.882 13.958 540.359 13.4C541.836 12.8256 543.551 12.5385 545.504 12.5385C547.588 12.5385 549.401 12.8174 550.944 13.3754C552.503 13.9169 553.824 14.5897 554.907 15.3938L553.086 18.2C552.101 17.5272 551.018 16.9774 549.836 16.5508C548.655 16.1077 547.227 15.8862 545.553 15.8862C543.518 15.8862 542.074 16.2062 541.221 16.8462C540.368 17.4697 539.941 18.2821 539.941 19.2831C539.941 20.0379 540.146 20.6697 540.556 21.1785C540.983 21.6708 541.697 22.1221 542.698 22.5323C543.699 22.9262 545.077 23.361 546.833 23.8369C548.524 24.28 549.992 24.8133 551.239 25.4369C552.503 26.0605 553.488 26.881 554.193 27.8985C554.899 28.9159 555.252 30.2287 555.252 31.8369C555.252 33.6749 554.727 35.1682 553.676 36.3169C552.626 37.4492 551.264 38.2779 549.59 38.8031C547.933 39.3118 546.177 39.5662 544.322 39.5662C541.976 39.5662 539.974 39.2297 538.316 38.5569C536.675 37.8677 535.297 37.039 534.181 36.0708L536.544 33.3385C537.561 34.1754 538.727 34.8564 540.039 35.3815C541.369 35.8903 542.796 36.1446 544.322 36.1446ZM585.62 37.6954C584.734 38.2862 583.659 38.7456 582.395 39.0738C581.132 39.4021 579.893 39.5662 578.678 39.5662C575.889 39.5662 573.739 38.8359 572.229 37.3754C570.719 35.9149 569.965 34.0359 569.965 31.7385V16.28H564.008V13.08H569.965V7.19692L574.1 6.70462V13.08H583.06L582.568 16.28H574.1V31.6892C574.1 33.1333 574.477 34.2328 575.232 34.9877C576.003 35.7426 577.275 36.12 579.048 36.12C580.016 36.12 580.91 36.0051 581.731 35.7754C582.551 35.5456 583.314 35.2503 584.02 34.8892L585.62 37.6954ZM598.708 13.08V31.4431C598.708 33.1497 599.061 34.3805 599.767 35.1354C600.472 35.8903 601.572 36.2677 603.065 36.2677C604.493 36.2677 605.838 35.8656 607.102 35.0615C608.382 34.241 609.375 33.2728 610.08 32.1569V13.08H614.216V39H610.696L610.351 35.5046C609.334 36.8174 608.078 37.8267 606.585 38.5323C605.092 39.2215 603.582 39.5662 602.056 39.5662C599.545 39.5662 597.666 38.9015 596.419 37.5723C595.188 36.2267 594.573 34.3477 594.573 31.9354V13.08H598.708ZM645.716 13.08L636.289 39H631.489L622.135 13.08H626.516L634.024 35.2338L641.433 13.08H645.716ZM672.835 39H666.977L663.629 19.9723L659.986 39H654.275L649.549 13.08H653.783L657.081 36.44L661.217 16.3785H666.115L670.029 36.44L673.327 13.08H677.364L672.835 39ZM685.677 39H680.951L690.526 25.3138L682.133 13.08H687.031L693.037 22.7292L699.117 13.08H703.843L695.474 25.1415L705.025 39H699.954L692.865 27.8738L685.677 39ZM734.261 13.08L725.153 39.1723C724.546 40.9282 723.775 42.5364 722.839 43.9969C721.92 45.4574 720.714 46.6636 719.221 47.6154C717.744 48.5836 715.865 49.1826 713.584 49.4123L712.944 46.1138C714.733 45.8185 716.144 45.3672 717.178 44.76C718.212 44.1528 719.024 43.3733 719.615 42.4215C720.222 41.4697 720.755 40.3292 721.215 39H719.836L710.778 13.08H715.208L722.642 35.8492L729.978 13.08H734.261ZM747.398 35.48H761.823L761.281 39H742.327V35.8738L756.703 16.6738H743.46V13.08H761.675V16.28L747.398 35.48ZM20.3415 78.36H6.92615L4.21846 87H0.00923076L11.0369 53.1046H16.5015L27.5292 87H23.0492L20.3415 78.36ZM8.03385 74.8154H19.2338L13.6708 56.6985L8.03385 74.8154ZM50.5866 77.4738C50.5866 75.7672 50.2502 74.4544 49.5774 73.5354C48.921 72.6 48.043 71.9518 46.9436 71.5908C45.8441 71.2297 44.6379 71.0492 43.3251 71.0492H37.5405V83.48H43.1282C43.9651 83.48 44.8184 83.3979 45.6882 83.2338C46.5579 83.0697 47.362 82.7744 48.1005 82.3477C48.8554 81.921 49.4543 81.3221 49.8974 80.5508C50.3569 79.7631 50.5866 78.7374 50.5866 77.4738ZM49.2328 61.8677C49.2328 59.9477 48.6338 58.5856 47.4359 57.7815C46.2543 56.961 44.6379 56.5508 42.5866 56.5508H37.5405V67.5292H43.0051C45.0071 67.5292 46.5415 67.0862 47.6082 66.2C48.6912 65.2974 49.2328 63.8533 49.2328 61.8677ZM55.0913 77.3262C55.0913 79.1641 54.722 80.7067 53.9836 81.9538C53.2615 83.201 52.2851 84.1938 51.0543 84.9323C49.84 85.6708 48.4779 86.2041 46.9682 86.5323C45.4748 86.8441 43.9487 87 42.3897 87H33.282V53.1046H41.6266C43.12 53.1046 44.5723 53.2441 45.9836 53.5231C47.4112 53.7856 48.6912 54.2451 49.8236 54.9015C50.9723 55.5415 51.8912 56.4113 52.5805 57.5108C53.2697 58.6103 53.6143 59.9887 53.6143 61.6462C53.6143 63.1067 53.3107 64.3456 52.7036 65.3631C52.1128 66.3641 51.3333 67.1682 50.3651 67.7754C49.4133 68.3826 48.3959 68.8092 47.3128 69.0554C48.5764 69.2523 49.7989 69.6379 50.9805 70.2123C52.1784 70.7703 53.163 71.6236 53.9343 72.7723C54.7056 73.9046 55.0913 75.4226 55.0913 77.3262ZM75.6871 52.5631C77.9025 52.5631 79.7569 52.8421 81.2502 53.4C82.7435 53.9579 84.163 54.7785 85.5087 55.8615L83.121 58.6431C82.0543 57.7405 80.922 57.1005 79.724 56.7231C78.5425 56.3292 77.3035 56.1323 76.0071 56.1323C74.1528 56.1323 72.4379 56.5754 70.8625 57.4615C69.2871 58.3313 68.0153 59.7836 67.0471 61.8185C66.0953 63.8369 65.6194 66.5774 65.6194 70.04C65.6194 73.4041 66.0707 76.1036 66.9733 78.1385C67.8922 80.1733 69.1312 81.6421 70.6902 82.5446C72.2492 83.4472 73.9887 83.8985 75.9087 83.8985C77.8122 83.8985 79.3712 83.6113 80.5856 83.0369C81.8163 82.4626 82.883 81.8062 83.7856 81.0677L86.001 83.8738C84.9671 84.8749 83.6215 85.7446 81.964 86.4831C80.3066 87.2051 78.2717 87.5662 75.8594 87.5662C73.1189 87.5662 70.6328 86.8933 68.401 85.5477C66.1856 84.2021 64.4297 82.2328 63.1333 79.64C61.8369 77.0308 61.1887 73.8308 61.1887 70.04C61.1887 66.2328 61.8451 63.0328 63.1579 60.44C64.4871 57.8472 66.2512 55.8862 68.4502 54.5569C70.6656 53.2277 73.0779 52.5631 75.6871 52.5631ZM110.24 69.8923C110.24 66.9385 109.928 64.5754 109.305 62.8031C108.681 61.0308 107.86 59.7015 106.843 58.8154C105.826 57.9292 104.71 57.3385 103.495 57.0431C102.297 56.7477 101.116 56.6 99.9507 56.6H95.963V83.5785H99.9999C101.214 83.5785 102.42 83.3897 103.618 83.0123C104.833 82.6185 105.94 81.9292 106.941 80.9446C107.942 79.9436 108.738 78.5569 109.329 76.7846C109.936 74.9959 110.24 72.6985 110.24 69.8923ZM114.794 69.8923C114.794 72.7149 114.49 75.1272 113.883 77.1292C113.292 79.1149 112.48 80.7559 111.446 82.0523C110.412 83.3487 109.231 84.3579 107.901 85.08C106.589 85.7856 105.202 86.2862 103.741 86.5815C102.297 86.8605 100.878 87 99.483 87H91.7045V53.1046H98.9414C100.927 53.1046 102.855 53.3262 104.726 53.7692C106.613 54.2123 108.312 55.0328 109.821 56.2308C111.348 57.4123 112.554 59.1026 113.44 61.3015C114.342 63.5005 114.794 66.3641 114.794 69.8923ZM127.587 56.6V68.0215H140.14V71.5415H127.587V83.5785H142.996V87H123.303V53.1046H142.553L142.06 56.6H127.587ZM157.709 56.6V68.4646H171.001V71.9108H157.709V87H153.475V53.1046H173.438L172.921 56.6H157.709ZM191.621 87.5662C188.946 87.5662 186.616 86.9179 184.631 85.6215C182.661 84.3251 181.135 82.3805 180.052 79.7877C178.969 77.1949 178.427 73.9456 178.427 70.04C178.427 67.119 178.813 64.5672 179.584 62.3846C180.372 60.2021 181.431 58.3805 182.76 56.92C184.105 55.4595 185.623 54.3682 187.314 53.6462C189.02 52.9241 190.784 52.5631 192.606 52.5631C194.821 52.5631 196.659 52.8831 198.12 53.5231C199.58 54.1467 200.975 55.0656 202.304 56.28L199.72 58.9631C198.686 57.9949 197.595 57.281 196.446 56.8215C195.314 56.3621 194.042 56.1323 192.631 56.1323C191.4 56.1323 190.21 56.3703 189.061 56.8462C187.913 57.3221 186.879 58.1015 185.96 59.1846C185.057 60.2513 184.335 61.6708 183.794 63.4431C183.269 65.2154 183.006 67.4144 183.006 70.04C183.006 73.3056 183.342 75.9641 184.015 78.0154C184.704 80.0667 185.714 81.5764 187.043 82.5446C188.389 83.4964 190.046 83.9723 192.015 83.9723C193.197 83.9723 194.313 83.8328 195.363 83.5538C196.43 83.2749 197.463 82.8728 198.464 82.3477V72.0092H191.794L191.277 68.4646H202.698V84.6123C201.172 85.4328 199.547 86.1303 197.824 86.7046C196.101 87.279 194.034 87.5662 191.621 87.5662ZM226.888 87V70.9262H214.088V87H209.83V53.1046H214.088V67.4308H226.888V53.1046H231.146V87H226.888ZM259.718 53.1046V56.5262H252.185V83.5785H259.718V87H240.321V83.5785H247.853V56.5262H240.321V53.1046H259.718ZM289.224 53.1046V75.7508C289.224 77.1621 289.036 78.5733 288.658 79.9846C288.297 81.3795 287.674 82.6513 286.787 83.8C285.918 84.9323 284.736 85.8431 283.243 86.5323C281.749 87.2215 279.887 87.5662 277.655 87.5662C275.998 87.5662 274.365 87.3036 272.757 86.7785C271.165 86.2533 269.696 85.4903 268.35 84.4892L270.246 81.6585C271.723 82.5774 273.068 83.201 274.283 83.5292C275.497 83.841 276.605 83.9969 277.606 83.9969C279.969 83.9969 281.782 83.2421 283.046 81.7323C284.326 80.2226 284.966 78.1467 284.966 75.5046V56.6H274.923V53.1046H289.224ZM303.74 87H299.482V53.1046H303.74V87ZM303.986 68.9077L317.328 53.1046H322.251L309.008 68.6369L323.186 87H317.869L303.986 68.9077ZM330.515 87V53.1046H334.798V83.1846H350.256L349.764 87H330.515ZM379.492 53.1046L381.412 87H377.301L376.243 69.3015C376.193 68.1036 376.144 66.8892 376.095 65.6585C376.046 64.4277 376.013 63.2462 375.997 62.1138C375.98 60.9815 375.972 59.9723 375.972 59.0862C375.972 58.2 375.972 57.5108 375.972 57.0185L370.261 80.92H365.978L359.849 57.0185C359.865 57.4944 359.882 58.2 359.898 59.1354C359.914 60.0544 359.923 61.0964 359.923 62.2615C359.939 63.4267 359.931 64.6246 359.898 65.8554C359.882 67.0697 359.849 68.2021 359.8 69.2523L358.889 87H354.877L356.797 53.1046H362.753L368.243 76.3169L373.486 53.1046H379.492ZM402.352 87L390.414 57.1908C390.43 57.5682 390.463 58.2 390.512 59.0862C390.578 59.9559 390.644 60.9979 390.709 62.2123C390.791 63.4103 390.857 64.6821 390.906 66.0277C390.955 67.3733 390.98 68.7026 390.98 70.0154V87H387.017V53.1046H392.802L404.937 83.0369C404.921 82.561 404.863 81.6913 404.765 80.4277C404.666 79.1477 404.576 77.6051 404.494 75.8C404.412 73.9949 404.371 72.0831 404.371 70.0646V53.1046H408.334V87H402.352ZM439.687 70.0892C439.687 73.5026 439.219 76.5303 438.284 79.1723C437.365 81.7979 435.978 83.8574 434.124 85.3508C432.269 86.8277 429.964 87.5662 427.207 87.5662C424.466 87.5662 422.161 86.8441 420.29 85.4C418.435 83.9395 417.041 81.9046 416.105 79.2954C415.186 76.6862 414.727 73.6338 414.727 70.1385C414.727 66.7087 415.186 63.6728 416.105 61.0308C417.041 58.3887 418.435 56.321 420.29 54.8277C422.161 53.3179 424.466 52.5631 427.207 52.5631C429.964 52.5631 432.269 53.2933 434.124 54.7538C435.978 56.2144 437.365 58.2574 438.284 60.8831C439.219 63.5087 439.687 66.5774 439.687 70.0892ZM435.207 70.0892C435.207 65.5764 434.583 62.1221 433.336 59.7262C432.105 57.3303 430.062 56.1323 427.207 56.1323C424.351 56.1323 422.3 57.3385 421.053 59.7508C419.822 62.1631 419.207 65.6256 419.207 70.1385C419.207 74.6513 419.847 78.0892 421.127 80.4523C422.407 82.799 424.433 83.9723 427.207 83.9723C430.062 83.9723 432.105 82.7908 433.336 80.4277C434.583 78.0482 435.207 74.6021 435.207 70.0892ZM464.812 63.5662C464.812 61.8103 464.467 60.4236 463.778 59.4062C463.089 58.3723 462.145 57.6338 460.947 57.1908C459.749 56.7313 458.379 56.5015 456.836 56.5015H451.938V70.9754H456.664C458.256 70.9754 459.659 70.7621 460.873 70.3354C462.088 69.8923 463.048 69.1374 463.753 68.0708C464.459 66.9877 464.812 65.4862 464.812 63.5662ZM469.39 63.5169C469.39 66.159 468.824 68.2759 467.692 69.8677C466.576 71.4595 465.033 72.6164 463.064 73.3385C461.095 74.0605 458.83 74.4215 456.27 74.4215H451.938V87H447.655V53.1046H456.32C460.356 53.1046 463.54 53.958 465.87 55.6646C468.217 57.3549 469.39 59.9723 469.39 63.5169ZM498.749 70.0892C498.749 72.4851 498.528 74.6841 498.085 76.6862C497.642 78.6882 496.903 80.4523 495.869 81.9785C494.852 83.5046 493.473 84.7436 491.734 85.6954C493.326 86.0072 494.679 86.4749 495.795 87.0985C496.928 87.7221 497.879 88.5672 498.651 89.6338C499.438 90.7169 500.111 92.0872 500.669 93.7446L496.165 95.5169C495.492 93.7774 494.721 92.3087 493.851 91.1108C492.997 89.9128 491.923 89.0021 490.626 88.3785C489.346 87.7713 487.73 87.4677 485.777 87.4677C483.184 87.4677 480.985 86.7538 479.18 85.3262C477.391 83.8821 476.037 81.8636 475.118 79.2708C474.199 76.6779 473.74 73.6338 473.74 70.1385C473.74 66.7087 474.208 63.6728 475.143 61.0308C476.095 58.3887 477.498 56.321 479.352 54.8277C481.207 53.3179 483.504 52.5631 486.245 52.5631C489.002 52.5631 491.307 53.2933 493.162 54.7538C495.016 56.2144 496.411 58.2574 497.346 60.8831C498.282 63.5087 498.749 66.5774 498.749 70.0892ZM494.318 70.0892C494.318 65.56 493.687 62.1056 492.423 59.7262C491.176 57.3303 489.116 56.1323 486.245 56.1323C483.389 56.1323 481.33 57.3385 480.066 59.7508C478.803 62.1467 478.171 65.6092 478.171 70.1385C478.171 74.6513 478.819 78.0892 480.115 80.4523C481.428 82.799 483.471 83.9723 486.245 83.9723C489.1 83.9723 491.159 82.7908 492.423 80.4277C493.687 78.0482 494.318 74.6021 494.318 70.0892ZM527.493 62.6062C527.493 64.2964 527.124 65.7733 526.385 67.0369C525.663 68.3005 524.678 69.3426 523.431 70.1631C522.184 70.9836 520.781 71.5826 519.222 71.96L529.265 87H524.145L514.89 72.4523H510.311V87H506.028V53.1046H514.742C518.927 53.1046 522.094 53.9087 524.244 55.5169C526.41 57.1087 527.493 59.4718 527.493 62.6062ZM522.914 62.6062C522.914 60.4236 522.291 58.8646 521.044 57.9292C519.796 56.9774 517.86 56.5015 515.234 56.5015H510.311V69.1046H515.234C517.663 69.1046 519.55 68.6123 520.896 67.6277C522.242 66.6267 522.914 64.9528 522.914 62.6062ZM556.975 77.6215C556.975 79.5579 556.491 81.281 555.522 82.7908C554.554 84.2841 553.151 85.4574 551.313 86.3108C549.475 87.1477 547.235 87.5662 544.593 87.5662C542.115 87.5662 539.867 87.1887 537.849 86.4338C535.847 85.679 534.132 84.6123 532.704 83.2338L535.239 80.3785C536.421 81.4779 537.775 82.3559 539.301 83.0123C540.827 83.6523 542.616 83.9723 544.667 83.9723C546.046 83.9723 547.334 83.7508 548.532 83.3077C549.73 82.8482 550.698 82.159 551.436 81.24C552.175 80.3046 552.544 79.1231 552.544 77.6954C552.544 76.5959 552.331 75.6605 551.904 74.8892C551.477 74.1179 550.722 73.4369 549.639 72.8462C548.556 72.239 547.047 71.6482 545.11 71.0738C542.878 70.4174 540.942 69.679 539.301 68.8585C537.676 68.0215 536.413 66.9959 535.51 65.7815C534.624 64.5672 534.181 63.0656 534.181 61.2769C534.181 59.5867 534.649 58.0851 535.584 56.7723C536.519 55.4595 537.808 54.4338 539.449 53.6954C541.106 52.9405 543.01 52.5631 545.159 52.5631C547.506 52.5631 549.541 52.8995 551.264 53.5723C553.004 54.2287 554.579 55.1805 555.99 56.4277L553.479 59.2092C552.265 58.1262 550.96 57.3467 549.566 56.8708C548.171 56.3785 546.751 56.1323 545.307 56.1323C544.076 56.1323 542.944 56.321 541.91 56.6985C540.893 57.0595 540.072 57.6092 539.449 58.3477C538.841 59.0697 538.538 59.9969 538.538 61.1292C538.538 62.0974 538.8 62.9344 539.326 63.64C539.851 64.3456 540.737 64.9938 541.984 65.5846C543.231 66.159 544.93 66.7662 547.079 67.4062C548.835 67.9149 550.46 68.5549 551.953 69.3262C553.463 70.081 554.677 71.1149 555.596 72.4277C556.515 73.7241 556.975 75.4554 556.975 77.6215ZM576.906 56.7723V87H572.648V56.7723H562.063V53.1046H587.638L587.195 56.7723H576.906ZM615.594 53.1046V76.0215C615.594 78.3026 615.127 80.3128 614.191 82.0523C613.272 83.7918 611.968 85.1456 610.277 86.1138C608.603 87.0821 606.626 87.5662 604.345 87.5662C602.015 87.5662 600.013 87.0821 598.339 86.1138C596.681 85.1292 595.41 83.7672 594.523 82.0277C593.637 80.2882 593.194 78.2862 593.194 76.0215V53.1046H597.428V76.1692C597.428 78.7456 598.027 80.6738 599.225 81.9538C600.439 83.2338 602.146 83.8738 604.345 83.8738C606.56 83.8738 608.267 83.2338 609.465 81.9538C610.679 80.6738 611.287 78.7456 611.287 76.1692V53.1046H615.594ZM634.024 82.1508L643.181 53.1046H647.489L636.141 87H631.71L620.362 53.1046H624.965L634.024 82.1508ZM678.004 53.1046L672.835 87H667.223L663.334 61.4246L659.42 87H653.684L648.909 53.1046H653.192L656.811 82.2985L660.872 57.0431H666.115L669.98 82.2985L674.041 53.1046H678.004ZM680.656 53.1046H685.554L692.988 66.1262L700.446 53.1046H705.074L695.45 68.7108L706.231 87H701.333L692.89 71.6892L684.348 87H679.745L690.379 68.9323L680.656 53.1046ZM724.685 73.9292V87H720.353V73.9785L708.907 53.1046H713.633L722.618 70.0892L731.701 53.1046H736.132L724.685 73.9292ZM745.503 83.3077H763.25L762.734 87H740.801V83.5292L758.721 56.7477H742.574V53.1046H763.3V56.6L745.503 83.3077ZM17.3877 101.105V134.015H13.2523V105.585L5.47385 110.311L3.67692 107.357L13.7692 101.105H17.3877ZM24.4769 131.628V135H4.90769V131.628H24.4769ZM41.7989 100.563C43.9323 100.563 45.7538 100.973 47.2636 101.794C48.7897 102.614 49.963 103.738 50.7836 105.166C51.6041 106.594 52.0143 108.21 52.0143 110.015C52.0143 111.574 51.7436 113.101 51.202 114.594C50.6605 116.071 49.7907 117.63 48.5928 119.271C47.4112 120.895 45.8523 122.701 43.9159 124.686C41.9959 126.672 39.6328 128.936 36.8266 131.48H52.802L52.2851 135H32.1251V131.628C34.6851 129.183 36.8595 127.041 38.6482 125.203C40.4533 123.365 41.9384 121.757 43.1036 120.378C44.2851 118.984 45.2041 117.72 45.8605 116.588C46.5333 115.455 47.001 114.381 47.2636 113.363C47.5261 112.329 47.6574 111.263 47.6574 110.163C47.6574 108.259 47.1159 106.758 46.0328 105.658C44.9661 104.559 43.4892 104.009 41.602 104.009C39.9282 104.009 38.5579 104.296 37.4912 104.871C36.4246 105.445 35.3579 106.364 34.2912 107.628L31.4359 105.412C32.7815 103.771 34.2748 102.557 35.9159 101.769C37.5569 100.965 39.5179 100.563 41.7989 100.563ZM71.281 100.563C73.4143 100.563 75.2522 100.949 76.7948 101.72C78.3538 102.475 79.5599 103.501 80.4133 104.797C81.2666 106.077 81.6933 107.488 81.6933 109.031C81.6933 110.393 81.3897 111.632 80.7825 112.748C80.1753 113.864 79.3712 114.783 78.3702 115.505C77.3692 116.227 76.2697 116.703 75.0717 116.932C76.401 117.031 77.6481 117.408 78.8133 118.065C79.9784 118.705 80.9302 119.624 81.6687 120.822C82.4071 122.003 82.7763 123.472 82.7763 125.228C82.7763 127.181 82.284 128.945 81.2994 130.52C80.3148 132.079 78.9363 133.31 77.164 134.212C75.4081 135.115 73.3569 135.566 71.0102 135.566C69.123 135.566 67.2358 135.205 65.3487 134.483C63.4779 133.761 61.8943 132.612 60.5979 131.037L63.3794 128.772C64.3476 129.905 65.4963 130.75 66.8256 131.308C68.1712 131.866 69.5333 132.145 70.9117 132.145C73.2748 132.145 75.121 131.529 76.4502 130.298C77.7794 129.051 78.444 127.361 78.444 125.228C78.444 123.619 78.1322 122.348 77.5087 121.412C76.9015 120.477 76.0728 119.812 75.0225 119.418C73.9722 119.008 72.7743 118.803 71.4287 118.803H68.5733L69.0902 115.529H71.084C72.1835 115.529 73.2174 115.324 74.1856 114.914C75.1702 114.487 75.9743 113.831 76.5979 112.945C77.2215 112.058 77.5333 110.951 77.5333 109.622C77.5333 107.751 76.9097 106.323 75.6625 105.338C74.4153 104.354 72.9056 103.862 71.1333 103.862C69.6563 103.862 68.3681 104.124 67.2687 104.649C66.1692 105.158 65.0615 105.937 63.9456 106.988L61.6563 104.452C63.1004 103.09 64.6348 102.106 66.2594 101.498C67.884 100.875 69.5579 100.563 71.281 100.563ZM101.083 100.563L104.529 102.015L95.5199 123.455H113.612V126.754H91.1384V123.751L101.083 100.563ZM109.231 113.831V135H105.243L105.218 124.243L105.785 113.831H109.231ZM141.1 101.105L140.485 104.403H127.094V115.086C128.128 114.528 129.104 114.151 130.023 113.954C130.959 113.741 131.935 113.634 132.953 113.634C134.791 113.634 136.407 114.052 137.802 114.889C139.197 115.71 140.28 116.916 141.051 118.508C141.822 120.099 142.208 122.019 142.208 124.268C142.208 126.516 141.732 128.493 140.78 130.2C139.845 131.907 138.524 133.228 136.817 134.163C135.111 135.098 133.084 135.566 130.737 135.566C128.702 135.566 126.881 135.205 125.273 134.483C123.681 133.761 122.229 132.76 120.916 131.48L123.476 129.018C124.51 130.069 125.617 130.856 126.799 131.382C127.997 131.89 129.326 132.145 130.787 132.145C133.018 132.145 134.758 131.472 136.005 130.126C137.252 128.764 137.876 126.77 137.876 124.145C137.876 122.323 137.605 120.887 137.063 119.837C136.522 118.787 135.783 118.04 134.848 117.597C133.929 117.137 132.903 116.908 131.771 116.908C130.77 116.908 129.884 117.006 129.113 117.203C128.341 117.384 127.463 117.663 126.479 118.04H123.156V101.105H141.1ZM163.173 100.563C164.486 100.563 165.692 100.735 166.792 101.08C167.891 101.408 168.917 101.892 169.869 102.532L168.244 105.338C167.473 104.863 166.652 104.51 165.782 104.28C164.929 104.034 164.035 103.911 163.099 103.911C161.294 103.911 159.76 104.518 158.496 105.732C157.233 106.93 156.281 108.629 155.641 110.828C155.001 113.01 154.689 115.578 154.705 118.532L154.755 120.132C154.755 124.301 155.304 127.361 156.404 129.314C157.503 131.25 159.3 132.218 161.795 132.218C163.944 132.218 165.553 131.455 166.619 129.929C167.702 128.403 168.244 126.327 168.244 123.702C168.244 121.847 167.99 120.387 167.481 119.32C166.989 118.237 166.291 117.466 165.389 117.006C164.486 116.547 163.436 116.317 162.238 116.317C160.482 116.317 158.931 116.842 157.585 117.892C156.24 118.943 155.149 120.288 154.312 121.929L154.213 118.286C155.329 116.383 156.601 115.012 158.029 114.175C159.456 113.338 161.073 112.92 162.878 112.92C164.634 112.92 166.234 113.306 167.678 114.077C169.122 114.848 170.279 116.03 171.149 117.622C172.035 119.197 172.478 121.191 172.478 123.603C172.478 126.097 172.002 128.239 171.05 130.028C170.098 131.8 168.81 133.17 167.185 134.138C165.561 135.09 163.772 135.566 161.819 135.566C159.752 135.566 158.004 135.181 156.576 134.409C155.149 133.622 153.992 132.506 153.105 131.062C152.219 129.601 151.571 127.853 151.161 125.818C150.767 123.767 150.57 121.486 150.57 118.975C150.57 115.234 151.062 111.985 152.047 109.228C153.048 106.471 154.484 104.337 156.355 102.828C158.242 101.318 160.515 100.563 163.173 100.563ZM187.535 135.468L183.671 134.286L196.889 104.551H180.987V101.105H201.049V104.28L187.535 135.468ZM230.654 109.178C230.654 110.819 230.145 112.247 229.128 113.462C228.111 114.659 226.658 115.775 224.771 116.809C226.986 117.728 228.751 118.951 230.063 120.477C231.376 122.003 232.033 123.816 232.033 125.917C232.033 127.755 231.557 129.404 230.605 130.865C229.653 132.325 228.307 133.474 226.568 134.311C224.845 135.148 222.785 135.566 220.39 135.566C217.977 135.566 215.91 135.148 214.186 134.311C212.48 133.457 211.175 132.309 210.273 130.865C209.386 129.421 208.943 127.796 208.943 125.991C208.943 123.907 209.559 122.151 210.79 120.723C212.037 119.279 213.686 118.089 215.737 117.154C213.948 116.301 212.595 115.267 211.676 114.052C210.773 112.838 210.322 111.287 210.322 109.4C210.322 107.841 210.634 106.512 211.257 105.412C211.897 104.296 212.718 103.377 213.719 102.655C214.736 101.933 215.836 101.408 217.017 101.08C218.215 100.735 219.372 100.563 220.488 100.563C221.719 100.563 222.933 100.735 224.131 101.08C225.345 101.408 226.445 101.925 227.43 102.631C228.414 103.32 229.194 104.206 229.768 105.289C230.359 106.372 230.654 107.669 230.654 109.178ZM227.676 125.966C227.676 124.44 227.29 123.234 226.519 122.348C225.747 121.462 224.681 120.723 223.319 120.132C221.957 119.542 220.381 118.943 218.593 118.335C217.657 118.762 216.787 119.304 215.983 119.96C215.179 120.616 214.531 121.437 214.039 122.422C213.546 123.39 213.3 124.588 213.3 126.015C213.3 127.935 213.891 129.453 215.073 130.569C216.271 131.669 218.035 132.218 220.365 132.218C222.728 132.218 224.533 131.628 225.78 130.446C227.044 129.248 227.676 127.755 227.676 125.966ZM214.408 109.449C214.408 110.746 214.703 111.763 215.294 112.502C215.901 113.24 216.763 113.847 217.879 114.323C218.995 114.783 220.316 115.267 221.842 115.775C223.417 114.873 224.599 113.962 225.386 113.043C226.174 112.108 226.568 110.869 226.568 109.326C226.568 107.619 226.035 106.266 224.968 105.265C223.918 104.264 222.424 103.763 220.488 103.763C218.568 103.763 217.075 104.264 216.008 105.265C214.941 106.266 214.408 107.661 214.408 109.449ZM249.502 100.612C251.964 100.612 254.015 101.178 255.656 102.311C257.297 103.443 258.52 105.043 259.324 107.111C260.144 109.178 260.555 111.632 260.555 114.471C260.555 117.884 260.202 120.781 259.496 123.16C258.807 125.523 257.732 127.501 256.272 129.092C254.811 130.684 252.94 132.022 250.659 133.105C248.378 134.188 245.654 135.164 242.487 136.034L241.527 132.883C244.743 131.981 247.418 130.914 249.552 129.683C251.685 128.436 253.301 126.869 254.401 124.982C255.5 123.078 256.091 120.715 256.173 117.892L256.247 115.529C256.263 112.707 256.025 110.45 255.533 108.76C255.057 107.053 254.319 105.831 253.318 105.092C252.333 104.337 251.061 103.96 249.502 103.96C247.303 103.96 245.638 104.633 244.505 105.978C243.373 107.324 242.807 109.293 242.807 111.886C242.807 114.463 243.348 116.342 244.432 117.523C245.531 118.688 247.049 119.271 248.985 119.271C250.676 119.271 252.136 118.795 253.367 117.843C254.598 116.891 255.763 115.611 256.862 114.003L256.838 117.597C255.837 119.041 254.631 120.231 253.219 121.166C251.808 122.102 250.142 122.569 248.222 122.569C246.335 122.569 244.661 122.134 243.201 121.265C241.74 120.395 240.592 119.156 239.755 117.548C238.934 115.939 238.524 114.003 238.524 111.738C238.524 109.326 239.016 107.291 240.001 105.634C240.985 103.976 242.306 102.729 243.964 101.892C245.621 101.039 247.467 100.612 249.502 100.612ZM279.55 100.563C283.21 100.563 285.975 102.073 287.846 105.092C289.717 108.112 290.652 112.428 290.652 118.04C290.652 123.669 289.717 128.001 287.846 131.037C285.975 134.056 283.21 135.566 279.55 135.566C275.907 135.566 273.142 134.056 271.255 131.037C269.384 128.001 268.449 123.669 268.449 118.04C268.449 112.428 269.384 108.112 271.255 105.092C273.142 102.073 275.907 100.563 279.55 100.563ZM279.55 103.886C277.466 103.886 275.825 104.994 274.627 107.209C273.429 109.408 272.83 113.018 272.83 118.04C272.83 120.584 272.962 122.758 273.224 124.563C273.487 126.368 273.889 127.837 274.43 128.969C274.988 130.085 275.686 130.906 276.523 131.431C277.376 131.956 278.385 132.218 279.55 132.218C280.962 132.218 282.168 131.734 283.169 130.766C284.186 129.798 284.958 128.272 285.483 126.188C286.024 124.087 286.295 121.371 286.295 118.04C286.295 114.659 286.057 111.927 285.581 109.843C285.122 107.759 284.392 106.249 283.39 105.314C282.406 104.362 281.126 103.886 279.55 103.886ZM284.547 105.092L285.63 108.711L274.849 130.545L273.323 127.665L284.547 105.092ZM309.082 126.902C310.214 126.902 311.158 127.287 311.912 128.058C312.684 128.83 313.069 129.757 313.069 130.84C313.069 131.431 312.996 132.03 312.848 132.637C312.717 133.244 312.47 133.933 312.109 134.705L308.122 143.837H304.38L306.743 134.114C306.251 133.753 305.857 133.285 305.562 132.711C305.283 132.12 305.143 131.496 305.143 130.84C305.143 129.741 305.521 128.813 306.276 128.058C307.03 127.287 307.966 126.902 309.082 126.902ZM334.256 131.209C334.256 130.405 334.445 129.683 334.822 129.043C335.2 128.387 335.708 127.87 336.348 127.492C337.005 127.098 337.743 126.902 338.564 126.902C339.401 126.902 340.147 127.098 340.804 127.492C341.46 127.87 341.977 128.387 342.355 129.043C342.732 129.683 342.921 130.405 342.921 131.209C342.921 132.013 342.732 132.752 342.355 133.425C341.977 134.081 341.46 134.606 340.804 135C340.147 135.377 339.401 135.566 338.564 135.566C337.743 135.566 337.005 135.377 336.348 135C335.708 134.606 335.2 134.081 334.822 133.425C334.445 132.752 334.256 132.013 334.256 131.209ZM368.095 126.852C369.244 126.852 370.196 127.246 370.95 128.034C371.722 128.805 372.107 129.724 372.107 130.791C372.107 131.398 372.033 132.005 371.886 132.612C371.754 133.219 371.5 133.917 371.123 134.705L367.135 143.862H363.393L365.757 134.089C364.673 133.334 364.132 132.243 364.132 130.815C364.132 129.716 364.509 128.781 365.264 128.009C366.036 127.238 366.979 126.852 368.095 126.852ZM368.095 109.843C369.244 109.843 370.196 110.229 370.95 111C371.722 111.771 372.107 112.707 372.107 113.806C372.107 114.889 371.722 115.833 370.95 116.637C370.196 117.425 369.244 117.818 368.095 117.818C366.979 117.818 366.036 117.425 365.264 116.637C364.509 115.833 364.132 114.889 364.132 113.806C364.132 113.051 364.304 112.378 364.649 111.788C364.993 111.197 365.469 110.729 366.077 110.385C366.684 110.024 367.357 109.843 368.095 109.843ZM393.663 131.554C393.663 130.487 394.041 129.56 394.795 128.772C395.567 127.985 396.51 127.591 397.626 127.591C398.775 127.591 399.727 127.985 400.482 128.772C401.253 129.56 401.639 130.487 401.639 131.554C401.639 132.67 401.253 133.622 400.482 134.409C399.727 135.181 398.775 135.566 397.626 135.566C396.51 135.566 395.567 135.181 394.795 134.409C394.041 133.622 393.663 132.67 393.663 131.554ZM393.663 113.806C393.663 113.051 393.835 112.378 394.18 111.788C394.525 111.197 395.001 110.729 395.608 110.385C396.215 110.024 396.888 109.843 397.626 109.843C398.775 109.843 399.727 110.229 400.482 111C401.253 111.771 401.639 112.707 401.639 113.806C401.639 114.889 401.253 115.833 400.482 116.637C399.727 117.425 398.775 117.818 397.626 117.818C396.51 117.818 395.567 117.425 394.795 116.637C394.041 115.833 393.663 114.889 393.663 113.806ZM429.397 101.105L428.979 123.825H425.262L424.77 101.105H429.397ZM427.157 128.969C428.109 128.969 428.897 129.289 429.521 129.929C430.161 130.569 430.481 131.341 430.481 132.243C430.481 133.162 430.161 133.95 429.521 134.606C428.897 135.246 428.109 135.566 427.157 135.566C426.222 135.566 425.443 135.246 424.819 134.606C424.195 133.95 423.884 133.162 423.884 132.243C423.884 131.341 424.195 130.569 424.819 129.929C425.443 129.289 426.222 128.969 427.157 128.969ZM456.713 100.563C458.732 100.563 460.463 100.924 461.907 101.646C463.368 102.368 464.484 103.312 465.255 104.477C466.026 105.626 466.412 106.848 466.412 108.145C466.412 109.72 466.116 111.008 465.526 112.009C464.935 112.994 464.196 113.831 463.31 114.52C462.441 115.193 461.563 115.857 460.676 116.514C459.79 117.154 459.044 117.909 458.436 118.778C457.846 119.648 457.55 120.764 457.55 122.126V123.825H453.39V121.88C453.39 120.288 453.677 118.967 454.252 117.917C454.843 116.867 455.573 115.972 456.443 115.234C457.312 114.495 458.182 113.814 459.052 113.191C459.922 112.551 460.652 111.862 461.243 111.123C461.833 110.385 462.129 109.474 462.129 108.391C462.129 106.996 461.571 105.921 460.455 105.166C459.339 104.395 457.952 104.009 456.295 104.009C455.13 104.009 453.932 104.296 452.701 104.871C451.47 105.429 450.346 106.339 449.329 107.603L446.375 105.437C447.819 103.747 449.403 102.516 451.126 101.745C452.865 100.957 454.728 100.563 456.713 100.563ZM455.581 128.969C456.533 128.969 457.329 129.289 457.969 129.929C458.609 130.569 458.929 131.341 458.929 132.243C458.929 133.162 458.609 133.95 457.969 134.606C457.329 135.246 456.533 135.566 455.581 135.566C454.662 135.566 453.891 135.246 453.267 134.606C452.644 133.95 452.332 133.162 452.332 132.243C452.332 131.341 452.644 130.569 453.267 129.929C453.891 129.289 454.662 128.969 455.581 128.969ZM485.457 100.563C488.001 100.563 490.142 100.949 491.882 101.72C493.637 102.475 495.065 103.517 496.165 104.846C497.281 106.175 498.134 107.718 498.725 109.474C499.332 111.213 499.75 113.068 499.98 115.037C500.21 116.99 500.325 118.975 500.325 120.994C500.325 125.129 500.128 128.567 499.734 131.308C499.356 134.032 498.651 136.067 497.617 137.412C496.583 138.774 495.073 139.455 493.088 139.455C492.07 139.455 491.192 139.209 490.454 138.717C489.715 138.225 489.108 137.601 488.632 136.846C488.156 136.108 487.812 135.345 487.598 134.557C487.385 133.753 487.287 133.055 487.303 132.465H487.106C486.811 133.219 486.384 133.966 485.826 134.705C485.285 135.427 484.571 136.026 483.685 136.502C482.798 136.994 481.699 137.24 480.386 137.24C478.597 137.24 477.153 136.756 476.054 135.788C474.971 134.819 474.183 133.482 473.691 131.775C473.198 130.069 472.952 128.132 472.952 125.966C472.952 121.683 473.806 118.499 475.512 116.415C477.219 114.315 479.582 113.265 482.602 113.265C483.75 113.265 484.85 113.388 485.9 113.634C486.95 113.88 488.165 114.372 489.543 115.111V129.658C489.543 131.431 489.699 132.785 490.011 133.72C490.323 134.639 490.741 135.271 491.266 135.615C491.791 135.96 492.374 136.132 493.014 136.132C493.785 136.132 494.384 135.747 494.811 134.975C495.237 134.204 495.541 133.129 495.722 131.751C495.902 130.372 496.009 128.772 496.042 126.951C496.074 125.113 496.091 123.144 496.091 121.043C496.091 118.696 495.959 116.506 495.697 114.471C495.434 112.419 494.934 110.623 494.195 109.08C493.457 107.537 492.39 106.331 490.995 105.462C489.601 104.592 487.771 104.157 485.506 104.157C483.914 104.157 482.175 104.452 480.288 105.043C478.417 105.617 476.431 106.832 474.331 108.686L471.968 105.929C474.167 104.009 476.415 102.639 478.712 101.818C481.026 100.982 483.274 100.563 485.457 100.563ZM482.798 116.317C480.55 116.317 479.016 117.129 478.195 118.754C477.375 120.378 476.965 122.783 476.965 125.966C476.965 127.574 477.079 128.994 477.309 130.225C477.555 131.439 477.966 132.399 478.54 133.105C479.114 133.794 479.894 134.138 480.878 134.138C482.027 134.138 482.93 133.876 483.586 133.351C484.259 132.826 484.768 132.227 485.112 131.554C485.473 130.865 485.752 130.282 485.949 129.806V117.055C485.441 116.793 484.932 116.604 484.423 116.489C483.931 116.374 483.389 116.317 482.798 116.317ZM523.604 112.551L522.151 123.455H526.139V126.655H521.684L520.65 135H517.105L518.213 126.655H511.05L509.967 135H506.422L507.53 126.655H503.64V123.455H507.948L509.45 112.551H505.462V109.326H509.868L510.951 101.105H514.496L513.314 109.326H520.551L521.634 101.105H525.179L524.022 109.326H527.96V112.551H523.604ZM511.468 123.455H518.631L520.133 112.551H512.92L511.468 123.455ZM547.572 93.2277V100.637C549.541 100.85 551.289 101.326 552.815 102.065C554.341 102.803 555.613 103.648 556.63 104.6L554.095 107.209C553.143 106.323 552.126 105.617 551.042 105.092C549.959 104.551 548.802 104.206 547.572 104.058V115.283C549.229 115.825 550.772 116.522 552.199 117.375C553.644 118.229 554.809 119.32 555.695 120.649C556.581 121.978 557.024 123.652 557.024 125.671C557.024 127.23 556.671 128.698 555.966 130.077C555.26 131.439 554.201 132.596 552.79 133.548C551.395 134.483 549.656 135.09 547.572 135.369V142.532H544.249V135.517C541.918 135.369 539.892 134.828 538.169 133.892C536.462 132.957 535.059 131.956 533.959 130.889L536.421 128.157C537.455 129.207 538.612 130.085 539.892 130.791C541.188 131.48 542.64 131.89 544.249 132.022V118.385C541.377 117.433 539.153 116.21 537.578 114.717C536.019 113.207 535.239 111.312 535.239 109.031C535.239 107.702 535.568 106.438 536.224 105.24C536.897 104.026 537.898 103 539.227 102.163C540.573 101.326 542.247 100.817 544.249 100.637V93.2277H547.572ZM547.572 119.542V131.8C550.903 131.127 552.569 129.101 552.569 125.72C552.569 124.342 552.199 123.16 551.461 122.175C550.739 121.191 549.442 120.313 547.572 119.542ZM544.249 104.157C542.903 104.387 541.795 104.904 540.926 105.708C540.072 106.495 539.646 107.578 539.646 108.957C539.646 110.106 539.957 111.082 540.581 111.886C541.221 112.69 542.444 113.462 544.249 114.2V104.157ZM573.829 100.612C575.306 100.612 576.709 100.85 578.038 101.326C579.368 101.802 580.705 102.778 582.051 104.255L579.565 106.52C578.728 105.568 577.858 104.863 576.955 104.403C576.069 103.944 575.011 103.714 573.78 103.714C572.057 103.714 570.76 104.182 569.891 105.117C569.021 106.036 568.586 107.226 568.586 108.686C568.586 109.687 568.857 110.623 569.398 111.492C569.94 112.346 570.67 113.035 571.589 113.56C572.508 114.085 573.526 114.348 574.641 114.348H588.328V117.597H583.921V130.988C583.429 131.628 582.748 132.301 581.878 133.006C581.025 133.712 579.926 134.319 578.58 134.828C577.234 135.32 575.61 135.566 573.706 135.566C571.146 135.566 569.054 135.074 567.429 134.089C565.821 133.105 564.631 131.841 563.86 130.298C563.105 128.739 562.728 127.115 562.728 125.425C562.728 122.881 563.392 120.797 564.721 119.172C566.067 117.548 567.979 116.481 570.457 115.972V115.825C568.963 115.48 567.782 114.947 566.912 114.225C566.059 113.486 565.443 112.641 565.066 111.689C564.705 110.721 564.525 109.728 564.525 108.711C564.525 107.25 564.902 105.913 565.657 104.698C566.412 103.468 567.487 102.483 568.881 101.745C570.276 100.99 571.926 100.612 573.829 100.612ZM580.155 117.597H574.051C572.344 117.597 570.957 117.999 569.891 118.803C568.824 119.591 568.036 120.575 567.528 121.757C567.035 122.922 566.789 124.095 566.789 125.277C566.789 126.458 567.027 127.583 567.503 128.649C567.995 129.716 568.75 130.577 569.768 131.234C570.801 131.89 572.147 132.218 573.805 132.218C575.183 132.218 576.414 131.997 577.497 131.554C578.596 131.094 579.482 130.446 580.155 129.609V117.597ZM614.462 100.194L617.12 101.917L593.81 135.985L591.225 134.262L614.462 100.194ZM611.09 122.422C610.121 122.422 609.301 122.815 608.628 123.603C607.955 124.374 607.619 125.622 607.619 127.345C607.619 128.936 607.947 130.175 608.603 131.062C609.26 131.948 610.089 132.391 611.09 132.391C612.074 132.391 612.887 131.989 613.527 131.185C614.183 130.381 614.511 129.101 614.511 127.345C614.511 125.572 614.183 124.309 613.527 123.554C612.887 122.799 612.074 122.422 611.09 122.422ZM597.797 103.517C596.829 103.517 596.009 103.919 595.336 104.723C594.663 105.527 594.327 106.766 594.327 108.44C594.327 110.048 594.655 111.295 595.311 112.182C595.968 113.051 596.796 113.486 597.797 113.486C598.782 113.486 599.594 113.084 600.234 112.28C600.891 111.476 601.219 110.196 601.219 108.44C601.219 106.668 600.891 105.404 600.234 104.649C599.594 103.894 598.782 103.517 597.797 103.517ZM597.797 100.563C599.34 100.563 600.644 100.924 601.711 101.646C602.778 102.368 603.59 103.328 604.148 104.526C604.722 105.724 605.01 107.029 605.01 108.44C605.01 109.818 604.722 111.115 604.148 112.329C603.59 113.544 602.778 114.528 601.711 115.283C600.644 116.022 599.34 116.391 597.797 116.391C596.271 116.391 594.967 116.022 593.883 115.283C592.8 114.528 591.972 113.544 591.397 112.329C590.823 111.115 590.536 109.818 590.536 108.44C590.536 107.012 590.823 105.708 591.397 104.526C591.972 103.328 592.8 102.368 593.883 101.646C594.967 100.924 596.271 100.563 597.797 100.563ZM611.09 119.443C612.632 119.443 613.937 119.812 615.003 120.551C616.07 121.273 616.882 122.233 617.44 123.431C618.015 124.629 618.302 125.933 618.302 127.345C618.302 128.739 618.015 130.044 617.44 131.258C616.882 132.456 616.07 133.433 615.003 134.188C613.937 134.926 612.632 135.295 611.09 135.295C609.563 135.295 608.259 134.926 607.176 134.188C606.093 133.433 605.264 132.456 604.69 131.258C604.115 130.044 603.828 128.739 603.828 127.345C603.828 125.917 604.115 124.604 604.69 123.406C605.264 122.208 606.093 121.248 607.176 120.526C608.259 119.804 609.563 119.443 611.09 119.443ZM638.184 104.378L628.239 99.8L630.455 96.28L639.538 102.089L638.184 104.378ZM658.804 115.283C660.035 115.283 661.077 115.529 661.931 116.022C662.8 116.514 663.572 117.088 664.244 117.745C664.917 118.401 665.565 118.975 666.189 119.468C666.813 119.96 667.502 120.206 668.257 120.206C669.274 120.206 670.185 119.804 670.989 119C671.793 118.196 672.507 117.203 673.131 116.022L676.084 117.548C675.609 118.483 675.026 119.435 674.337 120.403C673.647 121.355 672.802 122.159 671.801 122.815C670.8 123.455 669.57 123.775 668.109 123.775C666.96 123.775 665.959 123.529 665.106 123.037C664.269 122.545 663.506 121.97 662.817 121.314C662.144 120.657 661.471 120.083 660.798 119.591C660.142 119.098 659.428 118.852 658.657 118.852C657.59 118.852 656.671 119.254 655.9 120.058C655.129 120.846 654.423 121.831 653.783 123.012L650.829 121.56C651.321 120.592 651.904 119.624 652.577 118.655C653.25 117.687 654.086 116.883 655.087 116.243C656.105 115.603 657.344 115.283 658.804 115.283ZM694.834 93.6708L704.139 109.055H699.634L692.939 97.3877L686.268 109.055H681.837L691.142 93.6708H694.834ZM720.427 106.52H724.612L724.292 116.489L733.645 113.166L734.901 117.055L725.375 119.862L731.455 127.738L728.156 130.151L722.519 121.929L716.882 130.151L713.584 127.738L719.664 119.862L710.138 117.055L711.393 113.166L720.747 116.489L720.427 106.52ZM9.46154 165.769C9.46154 168.329 9.68308 170.627 10.1262 172.662C10.5692 174.68 11.2256 176.534 12.0954 178.225C12.9651 179.898 14.0564 181.49 15.3692 183C16.6985 184.526 18.241 186.069 19.9969 187.628L17.8308 189.892C15.1723 187.71 12.8913 185.478 10.9877 183.197C9.10051 180.916 7.6482 178.372 6.63077 175.566C5.62974 172.76 5.12923 169.494 5.12923 165.769C5.12923 162.028 5.62974 158.754 6.63077 155.948C7.6482 153.142 9.10051 150.598 10.9877 148.317C12.8913 146.036 15.1723 143.812 17.8308 141.646L19.9969 143.911C18.2246 145.486 16.6738 147.037 15.3446 148.563C14.0318 150.073 12.9405 151.665 12.0708 153.338C11.201 154.996 10.5446 156.842 10.1015 158.877C9.67487 160.895 9.46154 163.193 9.46154 165.769ZM47.6082 165.769C47.6082 163.193 47.3866 160.895 46.9436 158.877C46.5169 156.842 45.8687 154.996 44.9989 153.338C44.1292 151.665 43.0297 150.073 41.7005 148.563C40.3877 147.037 38.8451 145.486 37.0728 143.911L39.2389 141.646C41.9138 143.812 44.1948 146.036 46.082 148.317C47.9692 150.598 49.4133 153.142 50.4143 155.948C51.4318 158.754 51.9405 162.028 51.9405 165.769C51.9405 169.494 51.4318 172.76 50.4143 175.566C49.4133 178.372 47.9692 180.916 46.082 183.197C44.1948 185.478 41.9138 187.71 39.2389 189.892L37.0728 187.628C38.8287 186.069 40.363 184.526 41.6759 183C43.0051 181.49 44.1046 179.898 44.9743 178.225C45.8441 176.534 46.5005 174.68 46.9436 172.662C47.3866 170.627 47.6082 168.329 47.6082 165.769ZM67.121 188.686V142.852H79.4533V146.422H71.0348V185.166H79.4533V188.686H67.121ZM108.074 142.852V188.686H95.7414V185.191H104.16V146.422H95.7414V142.852H108.074ZM139.353 141.868V145.117C138.155 145.117 137.063 145.24 136.079 145.486C135.111 145.716 134.356 146.118 133.814 146.692C133.289 147.267 133.068 148.054 133.15 149.055L134.183 159.148C134.331 160.526 134.249 161.667 133.937 162.569C133.626 163.472 133.1 164.177 132.362 164.686C131.64 165.195 130.713 165.556 129.58 165.769C130.729 165.966 131.673 166.311 132.411 166.803C133.15 167.279 133.667 167.968 133.962 168.871C134.257 169.757 134.331 170.93 134.183 172.391L133.15 182.483C133.068 183.501 133.289 184.296 133.814 184.871C134.339 185.445 135.094 185.847 136.079 186.077C137.063 186.307 138.155 186.422 139.353 186.422V189.671C137.974 189.671 136.653 189.548 135.39 189.302C134.126 189.072 133.01 188.67 132.042 188.095C131.074 187.521 130.343 186.733 129.851 185.732C129.359 184.748 129.195 183.501 129.359 181.991L130.343 172.637C130.475 171.505 130.368 170.553 130.023 169.782C129.695 169.01 128.973 168.428 127.857 168.034C126.758 167.624 125.109 167.418 122.91 167.418V164.12C125.109 164.12 126.758 163.923 127.857 163.529C128.973 163.135 129.695 162.553 130.023 161.782C130.368 161.01 130.475 160.067 130.343 158.951L129.359 149.548C129.195 148.038 129.359 146.791 129.851 145.806C130.343 144.805 131.066 144.017 132.017 143.443C132.986 142.869 134.101 142.467 135.365 142.237C136.645 141.991 137.974 141.868 139.353 141.868ZM153.967 141.868C155.345 141.868 156.667 141.991 157.93 142.237C159.194 142.467 160.31 142.869 161.278 143.443C162.246 144.017 162.976 144.805 163.469 145.806C163.977 146.791 164.141 148.038 163.961 149.548L162.976 158.951C162.845 160.067 162.984 161.01 163.395 161.782C163.821 162.553 164.593 163.135 165.709 163.529C166.824 163.923 168.392 164.12 170.41 164.12V167.418C168.408 167.418 166.841 167.624 165.709 168.034C164.593 168.428 163.821 169.01 163.395 169.782C162.984 170.553 162.845 171.505 162.976 172.637L163.961 181.991C164.125 183.501 163.961 184.748 163.469 185.732C162.976 186.733 162.246 187.521 161.278 188.095C160.326 188.67 159.21 189.072 157.93 189.302C156.667 189.548 155.345 189.671 153.967 189.671V186.422C155.165 186.422 156.248 186.307 157.216 186.077C158.201 185.847 158.964 185.445 159.505 184.871C160.047 184.296 160.269 183.501 160.17 182.483L159.136 172.391C158.989 170.93 159.071 169.757 159.382 168.871C159.694 167.968 160.252 167.279 161.056 166.803C161.877 166.327 162.952 165.999 164.281 165.818C163.001 165.605 161.951 165.236 161.13 164.711C160.326 164.186 159.76 163.472 159.432 162.569C159.103 161.667 159.005 160.526 159.136 159.148L160.17 149.055C160.269 148.054 160.047 147.267 159.505 146.692C158.964 146.118 158.209 145.716 157.241 145.486C156.273 145.24 155.181 145.117 153.967 145.117V141.868ZM178.649 191.935V188.317H203.264V191.935H178.649ZM230.063 161.24V164.809H210.913V161.24H230.063ZM230.063 170.569V174.163H210.913V170.569H230.063ZM240.148 169.388V165.794H259.89V169.388H240.148ZM281.421 156.145V165.966H291.095V169.437H281.421V179.185H277.557V169.437H268.006V165.966H277.557V156.145H281.421ZM323.844 151.369L346.638 165.449V169.683L323.844 183.911L301.099 169.683V165.449L323.844 151.369ZM323.844 179.505L343.093 167.591L323.844 155.775L304.644 167.591L323.844 179.505ZM359.307 188.071L355.96 186.594L377.03 143.148L380.329 144.772L359.307 188.071ZM385.491 144.772L388.789 143.148L409.86 186.594L406.512 188.071L385.491 144.772ZM429.028 143.271V188.022H425.336V143.271H429.028ZM454.916 159.443L454.153 146.643H459.323L458.56 159.443H454.916ZM480.337 159.443L479.549 146.643H484.743L483.98 159.443H480.337ZM488.558 159.443L487.82 146.643H492.989L492.202 159.443H488.558Z" fill="#111111"/>
</svg>
