<svg width="565" height="42" viewBox="0 0 565 42" fill="none" xmlns="http://www.w3.org/2000/svg">
<path d="M21.224 33H17.576C17.336 31.848 17.336 31.416 17.144 28.728C15.224 32.232 12.872 33.624 8.84 33.624C3.944 33.624 0.584 30.696 0.584 26.472C0.584 23.784 2.12 21.24 4.568 19.992C6.728 18.84 9.944 18.264 14.072 18.264C14.936 18.264 15.656 18.264 17.144 18.36V17.592C17.144 13.128 15.464 11.496 10.952 11.496C7.4 11.496 5.24 12.984 4.616 15.816L1.208 15.24C1.544 13.464 1.976 12.552 2.984 11.544C4.856 9.624 7.832 8.664 11.768 8.664C15.32 8.664 17.72 9.576 19.112 11.448C20.264 13.032 20.696 14.904 20.696 18.36V28.392C20.696 30.12 20.84 31.56 21.224 33ZM17.144 21.144C15.848 21.096 14.6 21.048 14.024 21.048C7.88 21.048 4.52 22.968 4.52 26.568C4.52 29.112 6.488 30.792 9.56 30.792C13.88 30.792 17.192 27.24 17.192 22.68C17.192 22.248 17.192 21.768 17.144 21.144ZM29.8783 33H28.1023V0.983997H31.7983V13.272C33.7183 10.008 35.6863 8.712 38.7583 8.712C44.4703 8.712 48.3583 13.704 48.3583 21.048C48.3583 28.44 44.3263 33.624 38.6143 33.624C35.3983 33.624 33.0943 32.184 31.2223 29.064L29.8783 33ZM31.7983 18.408V23.736C32.0383 25.944 32.3743 26.952 33.2383 28.152C34.3903 29.64 36.3583 30.6 38.2303 30.6C42.0223 30.6 44.4703 27.048 44.4703 21.528C44.4703 18.6 43.7503 15.72 42.5503 13.944C41.6383 12.6 39.9583 11.736 38.2303 11.736C36.5023 11.736 34.9663 12.504 33.6703 13.944C32.5663 15.24 32.1343 16.296 31.7983 18.408ZM67.8515 24.696L71.1635 25.272C70.5875 28.152 69.9155 29.544 68.3795 31.08C66.6995 32.808 64.6355 33.624 61.9955 33.624C55.9475 33.624 52.0115 28.728 52.0115 21.192C52.0115 13.704 56.0435 8.712 62.1875 8.712C67.0355 8.712 70.2035 11.592 71.1635 16.968L67.8515 17.592C67.5635 15.768 67.2275 14.904 66.6035 13.992C65.5475 12.552 63.9635 11.736 62.1395 11.736C58.2515 11.736 55.8515 15.336 55.8515 21.096C55.8515 27.048 58.1555 30.6 62.0915 30.6C65.0675 30.6 67.0835 28.584 67.8515 24.696ZM94.6749 0.983997V33H91.3149V28.968C89.3469 32.328 87.2349 33.672 83.8269 33.672C78.2589 33.672 74.3229 28.584 74.3229 21.384C74.3229 13.896 78.3069 8.712 84.0189 8.712C86.9949 8.712 88.8669 9.768 90.9789 12.552V0.983997H94.6749ZM90.9789 23.4V18.456C90.7869 16.248 90.4989 15.24 89.5869 14.088C88.4829 12.6 86.4669 11.64 84.5949 11.64C80.8029 11.64 78.3549 15.288 78.3549 20.904C78.3549 27.048 80.6109 30.648 84.4509 30.648C86.2269 30.648 87.9549 29.736 89.2509 28.248C90.4029 26.856 90.7869 25.752 90.9789 23.4ZM117.671 25.944L121.079 26.664C119.543 31.032 115.847 33.624 111.047 33.624C104.567 33.624 100.199 28.68 100.199 21.288C100.199 13.848 104.711 8.712 111.191 8.712C115.175 8.712 118.439 10.728 120.119 14.184C121.079 16.248 121.463 18.216 121.511 21.48H104.279C104.279 24.264 104.519 25.512 105.239 27C106.295 29.16 108.743 30.6 111.287 30.6C113.207 30.6 115.031 29.832 116.231 28.44C116.759 27.864 117.143 27.192 117.671 25.944ZM104.471 18.744H117.479C117.431 16.536 117.095 15.432 116.135 14.04C114.935 12.36 113.351 11.544 111.239 11.544C109.175 11.544 107.447 12.408 106.151 13.992C105.095 15.336 104.711 16.488 104.471 18.744ZM136.379 9.336V12.216H130.619V33H127.211V12.216H123.035V9.336H127.211C127.307 6.408 127.451 5.448 127.979 4.056C128.795 1.752 131.195 0.311997 134.267 0.311997C135.275 0.311997 136.139 0.407999 137.771 0.647999V3.624C136.763 3.336 136.283 3.288 135.563 3.288C133.115 3.288 131.579 4.056 131.051 5.544C130.619 6.552 130.619 6.744 130.619 9.336H136.379ZM159.992 5.64V8.568C156.824 8.52 155.816 9.144 155.48 11.256C156.968 12.984 157.736 14.904 157.736 16.968C157.736 21.576 153.944 24.84 148.664 24.84C148.04 24.84 147.512 24.792 147.032 24.696C146.264 24.552 145.688 24.456 145.496 24.456C144.248 24.456 143 25.56 143 26.712C143 27.48 143.384 28.056 144.2 28.44C145.016 28.824 145.976 28.92 150.344 29.064C155.24 29.208 156.824 29.448 158.312 30.456C159.992 31.512 160.904 33.192 160.904 35.16C160.904 39.624 156.872 41.928 149 41.928C141.944 41.928 138.2 39.768 138.2 35.688C138.2 33.384 139.304 31.944 141.8 30.984C140.072 29.736 139.496 28.776 139.496 27.144C139.496 25.224 140.36 24.12 142.76 22.968C140.552 21.048 139.688 19.272 139.688 16.68C139.688 12.072 143.528 8.616 148.712 8.616C150.488 8.616 152.024 8.952 153.56 9.72C153.8 8.328 154.232 7.416 155.048 6.648C155.864 5.832 156.824 5.592 159.032 5.592C159.32 5.592 159.512 5.592 159.992 5.64ZM148.808 11.544C145.688 11.544 143.48 13.704 143.48 16.824C143.48 19.944 145.592 22.008 148.76 22.008C151.832 22.008 154.04 19.896 154.04 16.92C154.04 13.848 151.832 11.544 148.808 11.544ZM144.344 32.04C142.376 33 141.752 33.816 141.752 35.304C141.752 36.072 142.088 36.888 142.616 37.32C143.912 38.424 146.504 39.096 149.288 39.096C151.208 39.096 153.272 38.76 154.904 38.232C156.536 37.704 157.4 36.648 157.4 35.304C157.4 34.248 156.872 33.528 155.768 33.048C154.616 32.52 154.184 32.472 150.056 32.376C147.656 32.328 145.448 32.184 144.344 32.04ZM187.41 33H183.426V17.736H168.546V33H164.562V0.983997H168.546V14.232H183.426V0.983997H187.41V33ZM199.015 33H195.031V0.983997H199.015V33ZM217.303 0.983997V23.208C217.303 30.312 214.231 33.624 207.655 33.624C206.071 33.624 205.015 33.48 203.047 33V29.736C204.919 30.072 205.879 30.168 207.319 30.168C209.767 30.168 211.399 29.592 212.311 28.344C213.175 27.24 213.319 26.424 213.319 23.208V0.983997H217.303ZM249.999 33H245.583L236.031 15.336L228.687 24.456V33H224.703V0.983997H228.687V19.56L243.183 0.983997H247.503L238.815 12.216L249.999 33ZM273.239 29.496V33H254.375V0.983997H258.455V29.496H273.239ZM308.442 33H304.554V5.064L294.186 33H291.45L280.986 5.064V33H277.578V0.983997H283.53L293.13 26.568L302.586 0.983997H308.442V33ZM339.63 33H335.742L319.182 5.112L319.23 7.224C319.278 8.28 319.278 9 319.278 9.24V33H316.062V0.983997H321.054L336.558 27.096L336.51 24.888C336.462 23.688 336.462 22.872 336.462 22.536V0.983997H339.63V33ZM358.699 0.36C366.571 0.36 371.803 6.984 371.803 16.968C371.803 21.768 370.267 26.376 367.531 29.592C365.227 32.328 362.347 33.624 358.603 33.624C354.811 33.624 351.739 32.232 349.483 29.496C346.939 26.328 345.547 22.056 345.547 17.064C345.547 7.176 350.923 0.36 358.699 0.36ZM358.651 3.624C353.227 3.624 349.723 8.952 349.723 17.112C349.723 25.08 353.275 30.36 358.699 30.36C364.075 30.36 367.627 25.032 367.627 16.92C367.627 8.616 364.267 3.624 358.651 3.624ZM381.655 27.672V32.472L378.151 39H376.135L378.919 33H376.519V27.672H381.655ZM393.562 27.768V33H388.33V27.768H393.562ZM408.859 19.56V22.44H398.251V19.56H408.859ZM423.499 0.36C427.867 0.36 431.179 2.424 433.291 6.456C434.875 9.576 435.739 13.272 435.739 17.16C435.739 20.76 434.779 24.744 433.147 27.72C431.131 31.464 427.675 33.624 423.643 33.624C416.491 33.624 411.499 26.76 411.499 16.92C411.499 12.984 412.315 9.384 413.851 6.456C415.963 2.424 419.275 0.36 423.499 0.36ZM423.499 3.48C418.459 3.48 415.579 8.376 415.579 16.824C415.579 25.416 418.603 30.504 423.691 30.504C426.811 30.504 429.019 28.776 430.315 25.464C431.179 23.208 431.611 20.568 431.611 17.688C431.611 14.136 431.035 10.68 429.979 8.184C428.683 5.112 426.427 3.48 423.499 3.48ZM464.535 30.024V33H442.119V30.024H451.719V5.304C448.695 8.424 446.199 10.392 442.935 12.216V8.184C447.159 5.976 450.183 3.528 452.679 0.36H455.559V30.024H464.535ZM491.075 29.688V33H468.371V29.688C475.379 24.456 475.379 24.456 478.931 21.48C485.171 16.248 486.995 13.704 486.995 10.056C486.995 6.36 483.875 3.528 479.795 3.528C477.347 3.528 475.091 4.68 473.651 6.6C472.691 7.848 472.307 8.904 472.115 10.872L468.371 9.72C469.091 6.84 469.763 5.448 471.203 3.912C473.267 1.608 476.339 0.36 479.843 0.36C486.227 0.36 490.979 4.488 490.979 10.008C490.979 14.472 488.771 17.688 481.859 23.304C479.123 25.56 476.627 27.432 473.411 29.688H491.075ZM503.359 17.976V14.76H507.007C511.759 14.76 514.447 12.744 514.447 9.144C514.447 5.832 511.711 3.528 507.775 3.528C505.567 3.528 503.455 4.344 502.063 5.736C501.295 6.504 500.863 7.176 500.287 8.712L496.639 7.704C497.695 5.256 498.559 4.056 500.239 2.76C502.351 1.176 505.039 0.36 508.111 0.36C514.159 0.36 518.527 3.96 518.527 8.856C518.527 12.552 516.223 15.288 512.383 16.152C517.039 17.016 519.775 19.944 519.775 24.12C519.775 29.784 514.831 33.624 507.631 33.624C504.223 33.624 501.535 32.76 499.183 30.984C497.311 29.544 496.447 28.344 495.487 25.848L499.231 24.6C499.903 26.568 500.479 27.624 501.487 28.488C502.831 29.688 505.135 30.36 507.775 30.36C510.463 30.36 512.527 29.688 513.775 28.44C514.975 27.288 515.599 25.8 515.599 24.216C515.599 20.328 512.383 17.976 507.007 17.976H503.359ZM534.075 41.016H531.627C527.019 34.968 524.715 28.296 524.715 21C524.715 13.944 527.019 7.272 531.579 0.983997H534.027C529.995 7.272 528.123 13.512 528.123 20.808C528.123 28.104 529.995 34.44 534.075 41.016ZM549.315 41.016H541.011V0.983997H549.315V3.384H544.227V38.472H549.315V41.016ZM560.205 7.656V15.768C560.205 18.696 559.485 19.944 557.229 21.048C559.437 22.104 560.205 23.544 560.205 26.424V34.2C560.205 37.608 561.069 38.472 564.621 38.52V41.016H563.613C558.813 41.016 556.989 39.144 556.989 34.152V26.472C556.989 23.832 556.269 22.632 554.253 22.104V19.8C556.221 19.272 556.989 18.072 556.989 15.576V7.272C556.989 2.856 558.957 0.983997 563.613 0.983997H564.621V3.48C561.165 3.528 560.205 4.44 560.205 7.656Z" fill="#111111"/>
</svg>
