<svg width="743" height="194" viewBox="0 0 743 194" fill="none" xmlns="http://www.w3.org/2000/svg">
<path d="M5.536 14.736L4.72 11.568C7.168 10.608 9.424 9.792 12.112 9.792C17.008 9.792 19.984 13.824 19.984 18.096V29.232C19.984 31.584 20.32 33.984 21.088 36.192L17.728 36.624L16.816 33.408C15.088 35.472 13.12 36.528 10.432 36.528C5.536 36.528 2.8 32.688 2.8 28.128C2.8 23.184 5.824 18.864 11.008 18.864C12.928 18.864 14.752 19.44 16.384 20.112V17.664C16.384 14.832 14.656 12.816 11.968 12.816C9.712 12.816 7.6 13.872 5.536 14.736ZM16.384 29.088V23.136C14.848 22.464 13.216 21.888 11.488 21.888C7.84 21.888 6.4 25.056 6.4 28.32C6.4 30.72 7.648 33.504 10.432 33.504C13.216 33.504 14.896 31.152 16.384 29.088ZM32.2533 0.383998H35.8533V11.232C37.6773 10.272 39.2133 9.792 41.3253 9.792C45.4533 9.792 51.7893 13.152 51.7893 22.944C51.7893 33.024 45.9813 36.528 41.4693 36.528C38.4933 36.528 37.3413 35.52 35.1813 33.6L34.4133 36.48L31.0053 36.048C32.0613 33.024 32.2533 29.76 32.2533 26.496V0.383998ZM35.8533 14.88V28.992C36.9573 31.344 38.4933 33.504 41.4213 33.504C43.7733 33.504 48.1893 31.488 48.1893 23.088C48.1893 15.936 44.5893 12.816 40.7493 12.816C38.9733 12.816 37.2933 13.728 35.8533 14.88ZM78.1225 29.28L80.5705 31.824C77.9785 34.608 75.3865 36.528 71.4025 36.528C66.6505 36.528 60.3145 33.6 60.3145 23.424C60.3145 13.152 66.1225 9.792 71.2585 9.792C75.4825 9.792 78.4585 12.096 80.7145 15.504L77.5945 17.568C76.2985 14.976 74.4265 12.816 71.2585 12.816C67.6105 12.816 63.9145 15.504 63.9145 23.088C63.9145 31.104 68.0425 33.504 71.3545 33.504C74.1865 33.504 76.3945 31.344 78.1225 29.28ZM108.824 36.096L105.416 36.528L104.648 33.648C102.488 35.568 101.336 36.528 98.3598 36.528C93.8478 36.528 88.0878 33.072 88.0878 22.992C88.0878 13.2 94.3278 9.792 98.5038 9.792C100.664 9.792 102.152 10.32 103.928 11.28V0.383998H107.528V26.832C107.528 30 107.816 33.168 108.824 36.096ZM103.928 29.088V14.928C102.536 13.776 100.904 12.816 99.0798 12.816C95.2398 12.816 91.6878 16.032 91.6878 23.136C91.6878 31.488 96.0558 33.504 98.4557 33.504C101.24 33.504 102.968 31.44 103.928 29.088ZM137.989 24.096H120.901C121.093 31.152 124.261 33.504 128.197 33.504C131.029 33.504 133.861 32.208 136.213 30.768L137.749 33.984C134.533 35.424 131.461 36.528 127.909 36.528C120.325 36.528 117.301 30 117.301 23.328C117.301 16.608 120.421 9.792 128.101 9.792C136.645 9.792 137.989 19.344 137.989 22.128V24.096ZM120.853 21.072H134.389C134.245 16.848 131.845 12.816 127.813 12.816C123.781 12.816 121.813 15.888 120.853 21.072ZM167.586 2.544V6.192C165.57 5.328 163.266 3.792 161.058 3.792C157.89 3.792 156.498 5.76 156.498 9.072V11.952H164.754V14.976H156.498V36H152.898V14.976H146.514V11.952H152.898V9.504C152.898 3.408 157.026 0.767999 160.818 0.767999C163.17 0.767999 165.474 1.584 167.586 2.544ZM191.76 9.792H195.168C194.304 12.912 194.064 16.128 194.064 19.392V33.504C194.064 41.52 188.208 43.824 184.512 43.824C181.488 43.824 178.368 42.096 176.352 39.888L178.896 37.68C180.336 39.552 182.544 40.8 184.944 40.8C188.736 40.8 190.464 37.344 190.464 33.696V31.68C188.496 32.976 186.864 33.84 184.32 33.84C178.032 33.84 175.008 27.84 175.008 22.272C175.008 16.176 177.696 9.792 184.799 9.792C187.248 9.792 189.12 10.608 191.088 12.048L191.76 9.792ZM190.464 27.456V15.984C189.312 14.256 187.056 12.816 184.848 12.816C180.096 12.816 178.608 17.904 178.608 21.84C178.608 26.832 181.008 30.816 184.512 30.816C186.72 30.816 189.36 29.328 190.464 27.456ZM205.133 36V0.383998H208.733V14.016C210.557 11.568 213.293 9.792 216.461 9.792C219.533 9.792 223.085 10.752 223.085 21.264V36H219.485V20.976C219.485 18.624 219.485 12.816 216.221 12.816C213.533 12.816 211.133 15.216 210.029 17.472C208.637 20.352 208.733 23.232 208.733 26.448V36H205.133ZM241.498 36V13.344H234.202V10.32H245.098V36H241.498ZM243.178 0.767999C244.858 0.767999 246.202 2.064 246.202 3.792C246.202 5.52 244.858 6.816 243.178 6.816C241.498 6.816 240.154 5.52 240.154 3.792C240.154 2.064 241.498 0.767999 243.178 0.767999ZM260.535 33.504H264.135C264.135 38.256 265.095 40.8 268.647 40.8C271.959 40.8 273.255 37.152 273.255 35.664V13.344H265.815V10.32H276.855V35.472C276.855 41.184 272.295 43.824 268.695 43.824C263.175 43.824 260.535 39.744 260.535 33.504ZM274.791 0.767999C276.471 0.767999 277.767 2.064 277.767 3.792C277.767 5.52 276.471 6.816 274.791 6.816C273.063 6.816 271.719 5.52 271.719 3.792C271.719 2.064 273.111 0.767999 274.791 0.767999ZM305.781 10.32H310.341C305.253 16.224 303.765 18.24 299.973 22.08L312.597 36H307.845L297.765 24.192L296.133 25.824V36H292.533V0.383998H296.133V21.552C299.541 18.048 303.045 14.448 305.781 10.32ZM327.458 36V3.408H320.162V0.383998H331.058V36H327.458ZM346.639 36V18.288C346.639 14.784 346.159 12.48 345.583 9.792H349.183L349.711 12.096C351.247 10.752 352.591 9.792 354.751 9.792C357.103 9.792 357.727 10.368 359.119 12.144C360.607 10.8 361.951 9.792 364.063 9.792C367.519 9.792 369.727 12.048 369.727 15.504V36H366.127V15.504C366.127 13.776 365.215 12.816 363.775 12.816C362.143 12.816 360.751 14.16 359.983 15.504V36H356.383V15.744C356.383 14.4 355.999 12.816 354.367 12.816C352.639 12.816 350.911 14.352 350.239 15.936V36H346.639ZM381.084 25.296V36H377.484V23.088C377.484 18.768 377.292 14.4 376.332 10.32H379.788L380.604 15.024C382.428 12 385.74 9.792 389.34 9.792C393.42 9.792 395.532 13.536 395.532 17.904V36H391.932V18.96C391.932 16.512 391.932 12.816 388.764 12.816C385.356 12.816 381.084 16.272 381.084 25.296ZM415.338 36.528C410.874 36.528 405.162 33.552 405.162 23.184C405.162 13.248 410.442 9.792 415.338 9.792C424.41 9.792 425.562 19.008 425.562 23.184C425.562 33.12 420.282 36.528 415.338 36.528ZM415.338 33.504C420.954 33.504 421.962 27.6 421.962 23.184C421.962 18.768 420.954 12.816 415.338 12.816C409.722 12.816 408.762 18.768 408.762 23.184C408.762 27.6 409.722 33.504 415.338 33.504ZM437.399 9.84L438.119 12.672C440.279 10.752 441.431 9.792 444.407 9.792C448.919 9.792 454.727 13.248 454.727 23.328C454.727 33.072 448.391 36.528 444.263 36.528C442.151 36.528 440.615 36 438.791 35.04V45.84H435.191V19.776C435.191 16.512 434.999 13.392 433.991 10.272L437.399 9.84ZM438.791 17.28V31.392C440.231 32.544 441.911 33.504 443.687 33.504C447.911 33.504 451.127 29.856 451.127 23.184C451.127 14.784 446.711 12.816 444.359 12.816C441.431 12.816 439.895 14.928 438.791 17.28ZM481.684 45.84H478.084V35.04C476.308 36 474.82 36.528 472.66 36.528C468.484 36.528 462.196 33.12 462.196 23.328C462.196 13.248 468.004 9.792 472.516 9.792C475.492 9.792 476.644 10.752 478.804 12.672L479.524 9.84L482.932 10.272C481.972 13.296 481.684 16.32 481.684 19.488V45.84ZM478.084 31.392V17.04C476.836 14.736 475.444 12.816 472.612 12.816C470.212 12.816 465.796 14.784 465.796 23.184C465.796 29.856 469.012 33.504 473.236 33.504C475.06 33.504 476.692 32.544 478.084 31.392ZM498.417 25.296V36H494.817V21.264C494.817 16.992 494.481 13.536 493.809 10.32H497.313L498.129 15.216C500.097 12.192 502.257 9.792 506.097 9.792C510.897 9.792 512.049 14.496 512.049 18.384H508.449C508.353 16.464 508.641 12.816 505.905 12.816C503.265 12.816 498.417 16.848 498.417 25.296ZM538.335 12.768L536.751 15.696C534.735 14.256 532.479 12.816 529.887 12.816C527.727 12.816 525.711 14.4 525.711 16.704C525.711 19.2 528.687 20.448 530.655 21.168C534.687 22.656 538.911 24.336 538.911 29.424C538.911 33.648 535.071 36.528 531.087 36.528C527.199 36.528 523.359 34.608 520.527 32.064L522.495 29.184C524.511 31.344 527.823 33.504 530.847 33.504C533.247 33.504 535.311 32.16 535.311 29.568C535.311 26.208 532.623 25.296 529.983 24.288C526.335 22.896 522.111 21.168 522.111 16.56C522.111 12.816 525.567 9.792 530.031 9.792C533.247 9.792 535.791 10.944 538.335 12.768ZM567.02 10.32V13.344H557.852V27.984C557.852 30.48 557.9 33.504 561.164 33.504C563.9 33.504 565.58 31.248 566.588 28.992L570.044 29.856C568.316 33.552 565.388 36.528 561.068 36.528C556.892 36.528 554.252 34.512 554.252 26.832V13.344H548.732V10.32H554.252V2.448H557.852V10.32H567.02ZM593.545 20.832V10.32H597.145V22.752C597.145 27.216 597.241 31.632 598.249 36H594.841L594.025 31.056C592.345 33.888 588.889 36.528 585.577 36.528C581.017 36.528 579.097 32.64 579.097 28.176V10.32H582.697V27.12C582.697 29.52 582.697 33.504 585.865 33.504C589.417 33.504 593.545 29.52 593.545 20.832ZM622.998 10.32H626.742L618.774 36.336H614.694L606.726 10.32H610.47L616.71 30.24L622.998 10.32ZM637.38 36.336L632.868 10.32H636.9L639.828 29.568H639.924L643.62 16.608H647.124L650.82 29.568H650.916L653.844 10.32H657.876L653.364 36.336H649.524L645.348 22.416L641.22 36.336H637.38ZM684.305 10.32L676.337 22.128L686.465 36H681.905L674.321 24.912L666.833 36H662.273L672.353 22.272L664.193 10.32H668.369L674.369 19.344L680.225 10.32H684.305ZM710.11 10.32H713.95L704.446 34.416C703.006 38.112 700.702 43.824 695.998 43.824C692.686 43.824 690.382 41.28 689.47 38.256L692.494 36.672C693.07 38.208 694.078 40.8 695.998 40.8C698.014 40.8 699.214 38.016 699.886 36.48L701.566 32.592L693.31 10.32H697.198L703.438 27.792L710.11 10.32ZM741.339 10.32V13.008L726.603 32.976H741.915V36H721.947V33.36L736.779 13.344H724.059V10.32H741.339ZM12.448 46.56L24.688 84H20.8L17.728 73.824H7.216L4.144 84H0.256L12.448 46.56ZM12.448 56.832L8.08 70.8H16.864L12.448 56.832ZM41.8533 84H31.9653V49.44H39.2133C43.1973 49.44 50.0613 49.92 50.0613 58.176C50.0613 61.488 48.3333 64.032 45.5013 65.616C49.4373 67.536 51.5493 70.128 51.5493 74.592C51.5493 79.632 47.9013 84 41.8533 84ZM35.5653 52.464V64.512H39.7413C42.9573 64.512 46.4613 62.16 46.4613 58.032C46.4613 52.32 41.6613 52.464 39.4532 52.464H35.5653ZM35.5653 80.976H41.6133C44.7813 80.976 47.9493 79.104 47.9493 74.784C47.9493 70.944 45.5493 67.536 40.0773 67.536H35.5653V80.976ZM79.8025 56.928H76.2025C76.1545 54.048 74.0905 51.792 71.1625 51.792C63.8665 51.792 63.3865 61.68 63.3865 67.008C63.3865 72.048 63.9145 81.648 70.8265 81.648C74.4265 81.648 76.5865 78.96 76.6345 75.552H80.2345C79.8505 81.168 76.4425 84.672 70.6825 84.672C61.1785 84.672 59.7865 74.256 59.7865 66.912C59.7865 59.328 61.3705 48.768 71.1145 48.768C75.9145 48.768 79.5145 52.128 79.8025 56.928ZM89.7198 84V49.44H98.5038C105.176 49.44 109.64 53.232 109.64 66.72C109.64 80.016 105.512 84 97.9758 84H89.7198ZM93.3198 52.464V80.976H97.7358C102.728 80.976 106.04 79.584 106.04 66.72C106.04 53.472 102.248 52.464 97.6398 52.464H93.3198ZM137.749 49.44V52.464H123.397V64.752H133.717V67.776H123.397V80.976H138.085V84H119.797V49.44H137.749ZM167.73 49.44V52.464H152.802V64.464H163.986V67.488H152.802V84H149.202V49.44H167.73ZM192.624 69.744H184.464V66.72H196.224V84.672H192.624V81.312C190.848 83.472 188.208 84.672 185.376 84.672C182.592 84.672 174.96 84.192 174.96 67.488C174.96 53.808 179.136 48.768 185.856 48.768C191.712 48.768 194.448 52.896 194.544 58.272H190.944C191.232 55.104 189.696 51.792 186.048 51.792C178.848 51.792 178.56 61.824 178.56 66.96C178.56 71.76 178.8 81.648 185.568 81.648C188.928 81.648 192.624 78.96 192.624 72.048V69.744ZM207.869 49.44V64.56H219.869V49.44H223.469V84H219.869V67.584H207.869V84H204.269V49.44H207.869ZM249.13 49.44V52.464H244.426V80.976H249.13V84H236.17V80.976H240.826V52.464H236.17V49.44H249.13ZM269.607 52.464V49.44H279.591V72.048C279.591 76.848 279.207 84.672 269.799 84.672C264.183 84.672 260.631 81.504 260.631 74.016V69.168H264.231V75.36C264.231 79.344 266.151 81.648 269.703 81.648C273.831 81.648 275.991 79.296 275.991 74.352V52.464H269.607ZM295.605 49.44V64.656C298.101 64.368 304.005 58.368 307.365 49.008L310.917 50.88L308.085 55.632C303.525 63.264 301.173 65.184 298.965 66.576L313.893 84H309.093L295.893 67.728H295.605V84H292.005V49.44H295.605ZM325.634 49.44V80.976H340.61V84H322.034V49.44H325.634ZM357.775 66.672L365.023 49.44H368.575V84H364.975V57.696H364.879L357.775 74.64L350.719 57.696L350.623 57.792V84H347.023V49.44H350.527L357.775 66.672ZM377.676 84V49.44H381.852L392.364 75.264H392.508V49.44H396.108V84.336H392.7L381.372 56.448L381.276 56.544V84H377.676ZM404.73 66.72C404.73 52.272 409.53 48.768 415.338 48.768C425.418 48.768 425.946 60.288 425.946 66.72C425.946 71.328 426.281 84.672 415.338 84.672C404.682 84.672 404.73 71.616 404.73 66.72ZM415.338 81.648C418.938 81.648 422.346 79.248 422.346 66.72C422.346 63.552 422.826 51.792 415.338 51.792C407.658 51.792 408.33 64.704 408.33 66.72C408.33 70.656 408.138 81.648 415.338 81.648ZM436.151 84V49.44H444.455C450.695 49.44 454.343 53.184 454.343 60C454.343 67.296 449.543 70.416 442.775 70.416H439.751V84H436.151ZM439.751 67.392H443.735C447.911 67.392 450.743 64.896 450.743 60.048C450.743 54.624 448.247 52.464 443.975 52.464H439.751V67.392ZM472.9 84.672C461.956 84.672 462.244 71.136 462.244 66.72C462.244 52.224 467.092 48.768 472.9 48.768C484.228 48.768 483.556 63.264 483.556 66.72C483.556 73.104 483.076 78.048 480.1 81.408L484.324 86.88H479.908L477.508 83.52C476.116 84.288 474.484 84.672 472.9 84.672ZM465.844 66.72C465.844 79.008 469.3 81.648 472.9 81.648C477.124 81.648 479.956 78.048 479.956 66.72C479.956 54.432 476.548 51.792 472.9 51.792C465.028 51.792 465.844 65.28 465.844 66.72ZM493.569 84V49.44H502.545C511.185 49.44 511.953 57.216 511.953 59.232C511.953 62.784 510.609 66.048 505.809 68.784L515.121 84H510.753L502.353 69.6C500.625 69.648 498.897 69.648 497.169 69.696V84H493.569ZM497.169 66.624H500.577C505.473 66.624 508.353 64.128 508.353 59.04C508.353 54.432 506.433 52.464 500.721 52.464H497.169V66.624ZM540.159 53.088L537.999 55.68C535.887 53.808 533.487 51.792 530.511 51.792C527.439 51.792 524.943 53.904 524.943 57.072C524.943 58.896 525.279 60.528 529.935 63.36L532.671 65.04C539.007 68.928 540.734 70.752 540.734 74.784C540.734 80.976 536.607 84.672 530.559 84.672C526.095 84.672 522.783 82.512 520.095 79.056L522.879 76.848C524.559 79.536 527.247 81.648 530.559 81.648C534.159 81.648 537.135 78.96 537.135 75.264C537.135 72.48 536.943 71.52 530.847 67.872L527.727 66C524.319 63.984 521.343 61.632 521.343 57.312C521.343 51.888 525.471 48.768 530.655 48.768C534.255 48.768 537.567 50.688 540.159 53.088ZM570.812 49.44V52.464H560.972V84H557.372V52.464H547.724V49.44H570.812ZM593.977 49.44H597.577V74.928C597.577 81.456 592.681 84.672 588.025 84.672C584.281 84.672 578.425 82.56 578.425 73.008V49.44H582.025V74.928C582.025 79.92 585.241 81.648 588.025 81.648C592.441 81.648 593.977 78.384 593.977 74.496V49.44ZM616.662 78.768L622.854 49.44H626.838L619.014 84.336H614.07L606.39 49.44H610.326L616.566 78.768H616.662ZM645.444 59.088L650.868 76.416H650.964L652.692 49.44H656.58L653.94 84.336H649.812L645.444 69.36L641.028 84.336H637.044L634.164 49.44H638.052L639.876 76.416H639.972L645.444 59.088ZM664.385 49.44H668.513L674.369 62.832L680.225 49.44H684.401L676.241 66.576L684.641 84H680.465L674.369 70.176L668.273 84H664.145L672.593 66.528L664.385 49.44ZM702.286 65.088L708.91 49.44H712.894L704.062 69.408V84H700.462V69.408L691.63 49.44H695.614L702.286 65.088ZM723.003 49.44H741.003V51.984L726.795 80.976H742.155V84H722.475V81.408L736.875 52.464H723.003V49.44ZM14.368 96.384V128.976H20.56V132H4.288V128.976H10.768V100.32L4 102.384V99.648L14.368 96.384ZM35.1813 128.976H50.9253V132H31.5813V130.464C31.5813 122.88 34.7013 119.52 40.1253 114.864C42.8613 112.56 47.2293 109.056 47.2293 105.168C47.2293 101.952 45.3573 99.792 42.0933 99.792C37.8693 99.792 36.0453 103.248 35.8533 106.992H32.2533C32.5893 101.136 35.9493 96.768 42.1413 96.768C47.2293 96.768 50.8293 99.888 50.8293 105.12C50.8293 110.304 46.6053 113.52 43.1013 116.688L40.6053 118.944C37.4853 121.776 35.3733 124.56 35.1813 128.976ZM67.4665 115.008V111.984C71.3545 112.176 75.0025 109.632 75.0025 105.504C75.0025 102.096 72.2185 99.792 69.0025 99.792C66.0265 99.792 63.5785 102.24 62.4265 104.784L59.4025 103.056C61.4185 99.168 64.9705 96.768 69.3865 96.768C74.4745 96.768 78.6025 100.704 78.6025 105.792C78.6025 109.056 76.7305 111.552 74.0425 113.232C77.8825 114.912 80.1865 118.032 80.1865 122.304C80.1865 128.688 75.4825 132.672 69.2425 132.672C64.3945 132.672 61.3225 130.08 58.9225 126.096L62.0905 124.224C63.5305 127.488 65.6425 129.648 69.3865 129.648C73.5625 129.648 76.5865 127.056 76.5865 122.784C76.5865 117.264 72.5545 114.528 67.4665 115.008ZM104.648 96.768V120.048H109.592V123.072H104.648V132H101.048V123.072H87.2718V120.72L99.9918 96.768H104.648ZM101.048 120.048V101.664H100.952L91.3997 120.048H101.048ZM135.205 97.44V100.464H122.965L122.005 112.56C123.637 111.072 125.557 110.352 127.765 110.352C133.093 110.352 137.365 114.48 137.365 121.392C137.365 127.344 133.573 132.672 127.237 132.672C123.109 132.672 120.085 130.176 117.925 126.912L120.709 124.848C122.005 127.44 124.453 129.648 127.477 129.648C131.605 129.648 133.765 125.328 133.765 121.68C133.765 115.872 130.501 113.376 127.861 113.376C125.125 113.376 123.301 115.104 121.957 117.312L118.309 116.592L119.749 97.44H135.205ZM162.834 120.768C162.834 117.024 161.298 112.992 156.93 112.992C153.042 112.992 150.306 117.408 150.306 121.584C150.306 125.184 152.034 129.648 156.258 129.648C161.106 129.648 162.834 124.896 162.834 120.768ZM166.05 98.88L164.322 101.856C162.834 100.848 161.346 99.792 159.426 99.792C153.378 99.792 150.306 108.528 150.066 113.472C152.13 111.168 154.194 109.968 157.41 109.968C163.362 109.968 166.434 115.344 166.434 120.72C166.434 126.624 163.074 132.672 156.498 132.672C148.098 132.672 146.466 123.984 146.466 117.312C146.466 103.008 153.138 96.768 159.57 96.768C161.826 96.768 164.13 97.68 166.05 98.88ZM175.152 97.44H194.544L181.056 132H177.168L189.84 100.464H175.152V97.44ZM206.429 122.592C206.429 127.104 209.501 129.648 213.869 129.648C218.237 129.648 221.309 127.104 221.309 122.592C221.309 118.128 218.189 115.536 213.869 115.536C209.549 115.536 206.429 118.128 206.429 122.592ZM220.109 106.128C220.109 102.288 217.805 99.792 213.869 99.792C209.741 99.792 207.581 102.48 207.581 106.512C207.581 110.208 210.269 112.512 213.869 112.512C217.757 112.512 220.109 110.016 220.109 106.128ZM219.725 113.904C223.229 115.248 224.909 119.04 224.909 122.592C224.909 128.208 221.165 132.672 213.869 132.672C206.189 132.672 202.829 127.872 202.829 122.592C202.829 119.04 204.509 115.248 208.013 113.904C205.229 111.504 203.981 109.632 203.981 105.84C203.981 100.176 208.445 96.768 213.869 96.768C219.581 96.768 223.709 100.272 223.709 106.176C223.709 109.776 222.365 111.648 219.725 113.904ZM236.074 108.672C236.074 112.416 237.658 116.448 241.978 116.448C245.866 116.448 248.65 112.08 248.65 107.808C248.65 104.256 246.874 99.792 242.698 99.792C237.85 99.792 236.074 104.544 236.074 108.672ZM232.906 130.56L234.634 127.584C235.978 128.544 237.802 129.648 239.53 129.648C245.578 129.648 248.602 120.912 248.89 115.92C246.778 118.272 244.762 119.472 241.546 119.472C235.594 119.472 232.474 114.096 232.474 108.72C232.474 102.816 235.882 96.768 242.458 96.768C250.858 96.768 252.49 105.456 252.49 112.128C252.49 125.712 246.25 132.672 239.386 132.672C237.082 132.672 234.826 131.76 232.906 130.56ZM281.463 114.72C281.463 119.52 281.607 132.672 271.431 132.672C261.351 132.672 261.399 118.752 261.399 114.72C261.399 112.704 260.583 96.768 271.431 96.768C281.415 96.768 281.463 109.728 281.463 114.72ZM264.999 114.72C264.999 119.136 264.903 129.648 271.431 129.648C274.599 129.648 277.863 127.392 277.863 114.72C277.863 102.48 274.887 99.792 271.431 99.792C264.615 99.792 264.999 111.456 264.999 114.72ZM296.949 137.376V134.112C298.101 133.872 299.157 133.392 300.021 132.576C298.245 132.432 296.853 131.088 296.853 129.264C296.853 127.056 298.484 125.52 300.645 125.52C303.045 125.52 304.629 127.632 304.629 129.888C304.629 133.92 300.453 136.56 296.949 137.376ZM325.154 128.928C325.154 126.816 326.978 125.232 329.042 125.232C331.106 125.232 332.882 126.816 332.882 128.928C332.882 131.04 331.106 132.672 329.042 132.672C326.93 132.672 325.154 131.04 325.154 128.928ZM354.511 137.376V134.112C355.663 133.872 356.719 133.392 357.583 132.576C355.807 132.432 354.415 131.088 354.415 129.264C354.415 127.056 356.047 125.52 358.207 125.52C360.607 125.52 362.191 127.632 362.191 129.888C362.191 133.92 358.015 136.56 354.511 137.376ZM354.415 112.656C354.415 110.544 356.239 108.96 358.303 108.96C360.367 108.96 362.143 110.544 362.143 112.656C362.143 114.768 360.367 116.4 358.303 116.4C356.191 116.4 354.415 114.768 354.415 112.656ZM382.716 128.928C382.716 126.816 384.54 125.232 386.604 125.232C388.668 125.232 390.444 126.816 390.444 128.928C390.444 131.04 388.668 132.672 386.604 132.672C384.492 132.672 382.716 131.04 382.716 128.928ZM382.716 112.656C382.716 110.544 384.54 108.96 386.604 108.96C388.668 108.96 390.444 110.544 390.444 112.656C390.444 114.768 388.668 116.4 386.604 116.4C384.492 116.4 382.716 114.768 382.716 112.656ZM417.69 97.44L417.018 121.488H413.802L412.986 97.44H417.69ZM411.498 128.928C411.498 126.816 413.322 125.232 415.386 125.232C417.45 125.232 419.226 126.816 419.226 128.928C419.226 131.04 417.45 132.672 415.386 132.672C413.273 132.672 411.498 131.04 411.498 128.928ZM445.655 121.632H442.055V116.544C442.055 113.664 442.919 112.56 446.327 110.016C448.055 108.672 448.919 107.52 448.919 105.216C448.919 102.048 447.047 99.792 443.783 99.792C440.519 99.792 438.791 102.048 438.791 105.072H435.191C435.431 99.984 438.695 96.768 443.831 96.768C449.111 96.768 452.519 100.032 452.519 105.36C452.519 108.48 451.415 110.112 449.447 111.84C446.615 114.384 445.655 114.24 445.655 116.544V121.632ZM440.375 128.928C440.375 126.816 442.199 125.232 444.263 125.232C446.327 125.232 448.103 126.816 448.103 128.928C448.103 131.04 446.327 132.672 444.263 132.672C442.151 132.672 440.375 131.04 440.375 128.928ZM483.364 125.424L484.66 128.64C480.82 131.136 476.404 132.672 471.844 132.672C465.316 132.672 458.356 128.16 458.356 117.744C458.356 108.288 463.54 96.768 474.196 96.768C480.964 96.768 487.444 102.864 487.444 111.552C487.444 116.304 485.332 123.36 479.572 123.36C477.46 123.36 476.74 122.736 475.3 121.248C473.716 122.544 472.66 123.36 470.5 123.36C467.764 123.36 465.844 121.44 465.844 118.656C465.844 115.872 467.092 112.128 469.012 109.968C471.028 107.76 474.532 107.424 477.364 107.424H479.524L478.228 115.296C478.132 115.968 477.844 117.312 477.844 117.984C477.844 119.136 478.372 120.336 479.62 120.336C482.932 120.336 483.844 114.384 483.844 111.888C483.844 103.152 477.892 100.368 474.148 100.368C465.604 100.368 461.956 110.304 461.956 117.552C461.956 125.136 465.508 129.072 472.132 129.072C476.356 129.072 479.86 127.68 483.364 125.424ZM475.348 111.888L475.54 110.4C471.844 110.496 469.444 114.432 469.444 118.368C469.444 119.232 469.828 120.336 470.788 120.336C472.228 120.336 474.436 118.896 475.348 111.888ZM499.521 93.36H503.121L495.153 136.608H491.553L494.433 120.96H488.049L488.769 117.792H495.009L496.161 111.456H489.873L490.449 108.288H496.785L499.521 93.36ZM503.649 136.608H500.049L508.017 93.36H511.617L508.881 108.288H515.265L514.641 111.456H508.257L507.105 117.792H513.537L512.961 120.96H506.529L503.649 136.608ZM531.951 116.256V125.808C534.111 125.184 535.551 123.6 535.551 121.296C535.551 118.8 534.591 117.504 531.951 116.256ZM528.734 125.76V114.912C527.055 114.336 525.183 113.376 523.935 112.08C522.735 110.784 521.919 109.152 521.919 107.136C521.919 103.248 525.231 100.56 528.734 99.936V96.384H531.951V99.888C534.447 100.224 537.087 101.52 539.055 103.248L536.943 105.984C535.599 104.64 533.775 103.44 531.951 103.056V112.56C536.943 114.672 539.151 117.216 539.151 121.2C539.151 125.616 536.127 128.304 531.951 128.976V133.44H528.734V128.976C525.855 128.784 523.023 127.248 520.911 125.184L523.118 122.592C524.703 124.08 526.623 125.424 528.734 125.76ZM528.783 111.312V103.2C526.671 103.872 525.519 104.928 525.519 107.232C525.519 108.912 526.335 110.112 528.783 111.312ZM562.892 126.24L556.316 116.256C554.3 118.704 552.236 121.44 552.236 124.752C552.236 127.632 553.82 129.648 556.844 129.648C559.388 129.648 561.5 128.352 562.892 126.24ZM566.732 125.808L570.908 130.56L568.076 132.672L564.812 128.88C562.748 131.328 560.012 132.672 556.844 132.672C552.044 132.672 548.636 129.696 548.636 124.8C548.636 120.048 551.42 116.544 554.396 113.136C552.764 110.496 551.18 107.808 551.18 104.64C551.18 98.832 555.116 96.768 557.516 96.768C561.308 96.768 563.66 99.936 563.66 103.488C563.66 107.664 561.212 110.4 558.668 113.376L564.332 122.496C564.476 121.776 564.572 120.96 564.668 120.096C564.86 118.08 564.86 115.872 564.86 114.336H568.364C568.316 118.176 568.172 122.16 566.732 125.808ZM556.796 110.4C558.284 108.144 560.06 106.128 560.06 103.296C560.06 101.904 559.292 99.792 557.564 99.792C555.5 99.792 554.78 102.528 554.78 104.16C554.78 106.56 555.596 108.384 556.796 110.4ZM596.137 123.168C596.137 121.968 595.801 120.72 594.361 120.72C591.385 120.72 590.329 125.232 590.329 127.584C590.329 128.88 590.665 130.032 592.201 130.032C595.033 130.032 596.137 125.376 596.137 123.168ZM594.985 96.768H598.441L580.297 132.672H576.841L594.985 96.768ZM585.241 101.856C585.241 100.656 584.857 99.408 583.465 99.408C580.441 99.408 579.433 103.92 579.433 106.272C579.433 107.616 579.721 108.72 581.305 108.72C584.137 108.72 585.241 104.064 585.241 101.856ZM586.921 127.104C586.921 122.736 589.465 118.08 594.313 118.08C597.481 118.08 599.545 120 599.545 123.216C599.545 127.632 597.097 132.672 592.105 132.672C588.601 132.672 586.921 130.416 586.921 127.104ZM576.025 105.792C576.025 101.424 578.569 96.768 583.417 96.768C586.585 96.768 588.649 98.688 588.649 101.904C588.649 106.32 586.201 111.36 581.209 111.36C577.705 111.36 576.025 109.104 576.025 105.792ZM612.822 94.8L621.318 101.616L619.494 103.968L610.23 97.776L612.822 94.8ZM639.972 111.168C641.748 111.168 644.004 112.032 646.068 112.944C648.132 113.856 650.052 114.72 651.204 114.72C653.652 114.72 655.668 111.984 656.58 110.016L659.076 111.84C657.588 114.768 654.804 117.888 651.252 117.888C649.332 117.888 646.164 116.448 644.34 115.728C643.092 115.2 641.316 114.336 639.972 114.336C637.14 114.336 635.844 117.36 634.548 119.424L632.052 117.552C633.876 114.432 635.94 111.168 639.972 111.168ZM668.465 114.864H664.913L672.785 99.36H675.953L683.825 114.864H680.273L674.369 103.248L668.465 114.864ZM701.422 97.44H704.83V106.32L713.47 103.776L714.478 106.896L705.598 109.44L711.166 116.448L708.622 118.464L703.15 111.6L697.822 118.464L695.182 116.448L700.702 109.44L691.822 106.896L692.782 103.776L701.422 106.32V97.44ZM17.728 181.392L16 183.744C9.424 179.568 6.4 171.648 6.4 164.064C6.4 156.48 9.424 148.656 16 144.384L17.728 146.784C12.064 150.816 10 157.344 10 164.064C10 170.784 12.064 177.312 17.728 181.392ZM35.8533 146.784L37.5813 144.384C44.1573 148.656 47.1813 156.48 47.1813 164.064C47.1813 171.648 44.1573 179.52 37.5813 183.744L35.8533 181.392C41.5173 177.36 43.5813 170.784 43.5813 164.064C43.5813 157.392 41.5173 150.816 35.8533 146.784ZM77.6425 185.376H63.6265V144.384H77.6425V147.408H67.2265V182.352H77.6425V185.376ZM91.0158 185.376V182.352H101.432V147.408H91.0158V144.384H105.032V185.376H91.0158ZM136.549 144.384V145.728H134.965C130.261 145.728 128.869 147.552 128.869 150.144V158.784C128.869 161.232 128.917 163.152 126.469 164.496C128.917 165.792 128.869 167.712 128.869 170.16V178.8C128.869 181.392 130.261 183.216 134.965 183.216H136.549V184.56H133.909C127.093 184.56 125.269 182.352 125.269 177.072V168.96C125.269 165.072 122.389 165.408 119.557 164.496C122.389 163.536 125.269 163.872 125.269 159.984V151.872C125.269 146.592 127.093 144.384 133.909 144.384H136.549ZM147.378 145.728V144.384H150.018C156.834 144.384 158.658 146.592 158.658 151.872V159.984C158.658 163.872 161.538 163.536 164.37 164.496C161.538 165.408 158.658 165.072 158.658 168.96V177.072C158.658 182.352 156.834 184.56 150.018 184.56H147.378V183.216H148.962C153.666 183.216 155.058 181.392 155.058 178.8V170.16C155.058 167.712 155.01 165.792 157.458 164.496C155.01 163.152 155.058 161.232 155.058 158.784V150.144C155.058 147.552 153.666 145.728 148.962 145.728H147.378ZM199.488 186H170.688V183.6H199.488V186ZM227.069 158.304V161.472H200.669V158.304H227.069ZM227.069 163.968V167.136H200.669V163.968H227.069ZM248.89 164.304H236.41V161.28H248.89V164.304ZM284.631 161.136V164.304H273.111V175.68H269.751V164.304H258.231V161.136H269.751V149.76H273.111V161.136H284.631ZM308.613 145.44L310.629 147.936L294.645 162.72L310.629 177.504L308.613 180L289.749 162.72L308.613 145.44ZM318.53 147.936L320.546 145.44L339.41 162.72L320.546 180L318.53 177.504L334.514 162.72L318.53 147.936ZM352.351 181.296H348.751L363.199 144.144H366.799L352.351 181.296ZM391.98 181.296L377.532 144.144H381.132L395.58 181.296H391.98ZM413.754 193.824V141.984H416.922V193.824H413.754ZM440.807 145.44H447.431V151.68L445.415 157.92H442.823L440.807 151.68V145.44ZM463.924 145.44H470.548V151.68L468.532 157.872H465.94L463.924 151.68V145.44ZM475.252 145.44H481.876V151.68L479.86 157.872H477.268L475.252 151.68V145.44Z" fill="#111111"/>
</svg>
