<svg width="711" height="44" viewBox="0 0 711 44" fill="none" xmlns="http://www.w3.org/2000/svg">
<path d="M3.536 14.736L2.72 11.568C5.168 10.608 7.424 9.792 10.112 9.792C15.008 9.792 17.984 13.824 17.984 18.096V29.232C17.984 31.584 18.32 33.984 19.088 36.192L15.728 36.624L14.816 33.408C13.088 35.472 11.12 36.528 8.432 36.528C3.536 36.528 0.8 32.688 0.8 28.128C0.8 23.184 3.824 18.864 9.008 18.864C10.928 18.864 12.752 19.44 14.384 20.112V17.664C14.384 14.832 12.656 12.816 9.968 12.816C7.712 12.816 5.6 13.872 3.536 14.736ZM14.384 29.088V23.136C12.848 22.464 11.216 21.888 9.488 21.888C5.84 21.888 4.4 25.056 4.4 28.32C4.4 30.72 5.648 33.504 8.432 33.504C11.216 33.504 12.896 31.152 14.384 29.088ZM30.2533 0.383998H33.8533V11.232C35.6773 10.272 37.2133 9.792 39.3253 9.792C43.4533 9.792 49.7893 13.152 49.7893 22.944C49.7893 33.024 43.9813 36.528 39.4693 36.528C36.4933 36.528 35.3413 35.52 33.1813 33.6L32.4133 36.48L29.0053 36.048C30.0613 33.024 30.2533 29.76 30.2533 26.496V0.383998ZM33.8533 14.88V28.992C34.9573 31.344 36.4933 33.504 39.4213 33.504C41.7733 33.504 46.1893 31.488 46.1893 23.088C46.1893 15.936 42.5893 12.816 38.7493 12.816C36.9733 12.816 35.2933 13.728 33.8533 14.88ZM76.1225 29.28L78.5705 31.824C75.9785 34.608 73.3865 36.528 69.4025 36.528C64.6505 36.528 58.3145 33.6 58.3145 23.424C58.3145 13.152 64.1225 9.792 69.2585 9.792C73.4825 9.792 76.4585 12.096 78.7145 15.504L75.5945 17.568C74.2985 14.976 72.4265 12.816 69.2585 12.816C65.6105 12.816 61.9145 15.504 61.9145 23.088C61.9145 31.104 66.0425 33.504 69.3545 33.504C72.1865 33.504 74.3945 31.344 76.1225 29.28ZM106.824 36.096L103.416 36.528L102.648 33.648C100.488 35.568 99.3358 36.528 96.3598 36.528C91.8478 36.528 86.0878 33.072 86.0878 22.992C86.0878 13.2 92.3278 9.792 96.5038 9.792C98.6638 9.792 100.152 10.32 101.928 11.28V0.383998H105.528V26.832C105.528 30 105.816 33.168 106.824 36.096ZM101.928 29.088V14.928C100.536 13.776 98.9038 12.816 97.0798 12.816C93.2398 12.816 89.6878 16.032 89.6878 23.136C89.6878 31.488 94.0558 33.504 96.4557 33.504C99.2398 33.504 100.968 31.44 101.928 29.088ZM135.989 24.096H118.901C119.093 31.152 122.261 33.504 126.197 33.504C129.029 33.504 131.861 32.208 134.213 30.768L135.749 33.984C132.533 35.424 129.461 36.528 125.909 36.528C118.325 36.528 115.301 30 115.301 23.328C115.301 16.608 118.421 9.792 126.101 9.792C134.645 9.792 135.989 19.344 135.989 22.128V24.096ZM118.853 21.072H132.389C132.245 16.848 129.845 12.816 125.813 12.816C121.781 12.816 119.813 15.888 118.853 21.072ZM165.586 2.544V6.192C163.57 5.328 161.266 3.792 159.058 3.792C155.89 3.792 154.498 5.76 154.498 9.072V11.952H162.754V14.976H154.498V36H150.898V14.976H144.514V11.952H150.898V9.504C150.898 3.408 155.026 0.767999 158.818 0.767999C161.17 0.767999 163.474 1.584 165.586 2.544ZM189.76 9.792H193.168C192.304 12.912 192.064 16.128 192.064 19.392V33.504C192.064 41.52 186.208 43.824 182.512 43.824C179.488 43.824 176.368 42.096 174.352 39.888L176.896 37.68C178.336 39.552 180.544 40.8 182.944 40.8C186.736 40.8 188.464 37.344 188.464 33.696V31.68C186.496 32.976 184.864 33.84 182.32 33.84C176.032 33.84 173.008 27.84 173.008 22.272C173.008 16.176 175.696 9.792 182.799 9.792C185.248 9.792 187.12 10.608 189.088 12.048L189.76 9.792ZM188.464 27.456V15.984C187.312 14.256 185.056 12.816 182.848 12.816C178.096 12.816 176.608 17.904 176.608 21.84C176.608 26.832 179.008 30.816 182.512 30.816C184.72 30.816 187.36 29.328 188.464 27.456ZM205.869 1.44V16.56H217.869V1.44H221.469V36H217.869V19.584H205.869V36H202.269V1.44H205.869ZM247.13 1.44V4.464H242.426V32.976H247.13V36H234.17V32.976H238.826V4.464H234.17V1.44H247.13ZM267.607 4.464V1.44H277.591V24.048C277.591 28.848 277.207 36.672 267.799 36.672C262.183 36.672 258.631 33.504 258.631 26.016V21.168H262.231V27.36C262.231 31.344 264.151 33.648 267.703 33.648C271.831 33.648 273.991 31.296 273.991 26.352V4.464H267.607ZM293.605 1.44V16.656C296.101 16.368 302.005 10.368 305.365 1.008L308.917 2.88L306.085 7.632C301.525 15.264 299.173 17.184 296.965 18.576L311.893 36H307.093L293.893 19.728H293.605V36H290.005V1.44H293.605ZM323.634 1.44V32.976H338.61V36H320.034V1.44H323.634ZM355.775 18.672L363.023 1.44H366.575V36H362.975V9.696H362.879L355.775 26.64L348.719 9.696L348.623 9.792V36H345.023V1.44H348.527L355.775 18.672ZM375.676 36V1.44H379.852L390.364 27.264H390.508V1.44H394.108V36.336H390.7L379.372 8.448L379.276 8.544V36H375.676ZM402.73 18.72C402.73 4.272 407.53 0.767999 413.338 0.767999C423.418 0.767999 423.946 12.288 423.946 18.72C423.946 23.328 424.281 36.672 413.338 36.672C402.682 36.672 402.73 23.616 402.73 18.72ZM413.338 33.648C416.938 33.648 420.346 31.248 420.346 18.72C420.346 15.552 420.826 3.792 413.338 3.792C405.658 3.792 406.33 16.704 406.33 18.72C406.33 22.656 406.138 33.648 413.338 33.648ZM438.855 41.376V38.112C440.007 37.872 441.063 37.392 441.927 36.576C440.151 36.432 438.759 35.088 438.759 33.264C438.759 31.056 440.391 29.52 442.551 29.52C444.951 29.52 446.535 31.632 446.535 33.888C446.535 37.92 442.359 40.56 438.855 41.376ZM467.06 32.928C467.06 30.816 468.884 29.232 470.948 29.232C473.012 29.232 474.788 30.816 474.788 32.928C474.788 35.04 473.012 36.672 470.948 36.672C468.836 36.672 467.06 35.04 467.06 32.928ZM505.921 20.304H493.441V17.28H505.921V20.304ZM538.495 18.72C538.495 23.52 538.639 36.672 528.463 36.672C518.383 36.672 518.431 22.752 518.431 18.72C518.431 16.704 517.615 0.767999 528.463 0.767999C538.447 0.767999 538.495 13.728 538.495 18.72ZM522.031 18.72C522.031 23.136 521.935 33.648 528.463 33.648C531.631 33.648 534.895 31.392 534.895 18.72C534.895 6.48 531.919 3.792 528.463 3.792C521.647 3.792 522.031 15.456 522.031 18.72ZM559.212 0.383998V32.976H565.404V36H549.132V32.976H555.612V4.32L548.844 6.384V3.648L559.212 0.383998ZM580.025 32.976H595.769V36H576.425V34.464C576.425 26.88 579.545 23.52 584.969 18.864C587.705 16.56 592.073 13.056 592.073 9.168C592.073 5.952 590.201 3.792 586.937 3.792C582.713 3.792 580.889 7.248 580.697 10.992H577.097C577.433 5.136 580.793 0.767999 586.985 0.767999C592.073 0.767999 595.673 3.888 595.673 9.12C595.673 14.304 591.449 17.52 587.945 20.688L585.449 22.944C582.329 25.776 580.217 28.56 580.025 32.976ZM612.31 19.008V15.984C616.198 16.176 619.846 13.632 619.846 9.504C619.846 6.096 617.062 3.792 613.846 3.792C610.87 3.792 608.422 6.24 607.27 8.784L604.246 7.056C606.262 3.168 609.814 0.767999 614.23 0.767999C619.318 0.767999 623.446 4.704 623.446 9.792C623.446 13.056 621.574 15.552 618.886 17.232C622.726 18.912 625.03 22.032 625.03 26.304C625.03 32.688 620.326 36.672 614.086 36.672C609.238 36.672 606.166 34.08 603.766 30.096L606.934 28.224C608.374 31.488 610.486 33.648 614.23 33.648C618.406 33.648 621.43 31.056 621.43 26.784C621.43 21.264 617.398 18.528 612.31 19.008ZM648.916 37.392L647.188 39.744C640.612 35.568 637.588 27.648 637.588 20.064C637.588 12.48 640.612 4.656 647.188 0.383998L648.916 2.784C643.252 6.816 641.188 13.344 641.188 20.064C641.188 26.784 643.252 33.312 648.916 37.392ZM680.049 41.376H666.033V0.383998H680.049V3.408H669.633V38.352H680.049V41.376ZM710.174 0.383998V1.728H708.59C703.886 1.728 702.494 3.552 702.494 6.144V14.784C702.494 17.232 702.542 19.152 700.094 20.496C702.542 21.792 702.494 23.712 702.494 26.16V34.8C702.494 37.392 703.886 39.216 708.59 39.216H710.174V40.56H707.534C700.718 40.56 698.894 38.352 698.894 33.072V24.96C698.894 21.072 696.014 21.408 693.182 20.496C696.014 19.536 698.894 19.872 698.894 15.984V7.872C698.894 2.592 700.718 0.383998 707.534 0.383998H710.174Z" fill="#111111"/>
</svg>
