<svg width="641" height="46" viewBox="0 0 641 46" fill="none" xmlns="http://www.w3.org/2000/svg">
<path d="M17.056 36C16.768 34.656 16.624 33.072 16.624 31.92C15.568 34.752 12.256 36.528 8.224 36.528C4 36.528 0.4 34.08 0.4 29.616C0.4 24.96 3.856 22.944 8.752 22.368L16.528 21.36V19.968C16.528 16.128 14.176 14.496 10.864 14.496C7.648 14.496 5.632 16.176 5.344 18.96H1.504C1.984 14.064 5.824 11.28 10.96 11.28C16.816 11.28 20.464 14.064 20.464 19.872V30.96C20.464 32.736 20.56 34.416 21.04 36H17.056ZM9.04 33.504C12.784 33.504 16.528 31.152 16.528 26.496V24.336L9.952 25.056C6.928 25.488 4.432 26.256 4.432 29.52C4.432 31.776 6.016 33.504 9.04 33.504ZM32.5964 31.776V36H28.7564V0.671997H32.7404V16.128C33.8444 13.68 36.5804 11.28 40.7564 11.28C46.9004 11.28 51.5084 16.272 51.5084 23.952C51.5084 31.584 46.9004 36.576 40.7564 36.576C36.7724 36.576 33.7964 34.224 32.5964 31.776ZM32.5484 23.568V24.24C32.5484 29.712 35.2364 33.456 39.9404 33.456C44.6924 33.456 47.4764 29.568 47.4764 23.952C47.4764 18.288 44.6924 14.4 39.9404 14.4C35.2364 14.4 32.5484 18.096 32.5484 23.568ZM56.5585 23.952C56.5585 16.224 61.2145 11.28 67.9345 11.28C73.3105 11.28 76.8625 14.352 77.6305 19.488H73.8385C73.1665 16.272 71.1985 14.496 67.9345 14.496C63.1825 14.496 60.4945 18.288 60.4945 23.952C60.4945 29.616 63.1825 33.36 67.9345 33.36C71.1985 33.36 73.1665 31.584 73.8385 28.368H77.6305C76.8625 33.552 73.3105 36.576 67.9345 36.576C61.2145 36.576 56.5585 31.68 56.5585 23.952ZM101.346 36V31.776C100.146 34.224 97.1695 36.576 93.1855 36.576C87.0415 36.576 82.4335 31.584 82.4335 23.952C82.4335 16.272 87.0415 11.28 93.1855 11.28C97.3615 11.28 100.098 13.68 101.202 16.128V0.671997H105.186V36H101.346ZM101.394 24.24V23.568C101.394 18.096 98.7055 14.4 94.0015 14.4C89.2495 14.4 86.4655 18.288 86.4655 23.952C86.4655 29.568 89.2495 33.456 94.0015 33.456C98.7055 33.456 101.394 29.712 101.394 24.24ZM133.565 28.896C132.461 34.032 128.285 36.576 123.581 36.576C116.765 36.576 111.965 31.824 111.965 24.048C111.965 16.176 116.909 11.28 123.341 11.28C130.493 11.28 133.709 16.992 133.709 23.184V24.768H115.853C116.045 30.336 118.973 33.408 123.581 33.408C126.845 33.408 128.813 31.824 129.821 28.896H133.565ZM123.341 14.496C119.549 14.496 116.669 16.944 115.997 21.888H129.821C129.725 17.712 127.661 14.496 123.341 14.496ZM141.084 14.88H137.58V11.856H141.084V7.344C141.084 2.832 143.964 0.527999 148.092 0.527999C148.956 0.527999 150.06 0.623998 150.78 0.767999V3.936C150.156 3.84 149.196 3.792 148.332 3.792C146.604 3.792 145.02 4.656 145.02 7.392V11.856H150.204V14.88H145.02V36H141.084V14.88ZM172.262 34.464V30.912C171.158 33.264 168.47 35.568 164.246 35.568C158.054 35.568 153.542 30.912 153.542 23.376C153.542 16.128 158.054 11.28 164.246 11.28C168.47 11.28 171.254 13.776 172.406 16.08V11.856H176.294V34.176C176.294 41.856 171.302 45.12 164.87 45.12C159.062 45.12 155.126 42.768 154.166 38.064H158.198C159.014 41.088 161.558 42.048 164.822 42.048C169.574 42.048 172.262 39.504 172.262 34.464ZM172.55 23.952V22.8C172.55 17.808 169.43 14.4 164.966 14.4C160.262 14.4 157.478 18 157.478 23.376C157.478 28.704 160.262 32.4 164.966 32.4C169.43 32.4 172.55 28.944 172.55 23.952ZM185.042 36V1.728H189.17V16.848H209.234V1.728H213.362V36H209.234V20.304H189.17V36H185.042ZM222.308 36V1.728H226.436V36H222.308ZM250.217 23.904V1.728H254.345V23.856C254.345 31.584 250.025 36.576 242.777 36.576C236.585 36.576 231.737 32.88 231.545 26.112H235.529C235.769 30.96 238.793 33.312 242.777 33.312C247.961 33.312 250.217 29.616 250.217 23.904ZM285.849 36L272.121 19.68L266.889 25.008V36H262.761V1.728H266.889V20.352L284.937 1.728H289.929L275.001 16.8L290.841 36H285.849ZM296.745 36V1.728H300.873V32.544H319.305V36H296.745ZM345.086 36H341.726L330.59 5.952H330.494V36H326.558V1.728H332.942L343.502 30.624H343.598L354.158 1.728H360.302V36H356.318V5.952H356.222L345.086 36ZM374.302 1.728L392.59 29.088H392.686V1.728H396.67V36H392.83L373.342 6.768H373.246V36H369.214V1.728H374.302ZM434.772 18.864C434.772 29.184 428.676 36.576 419.172 36.576C409.668 36.576 403.572 29.184 403.572 18.864C403.572 8.592 409.668 1.152 419.172 1.152C428.676 1.152 434.772 8.592 434.772 18.864ZM430.5 18.864C430.5 10.608 426.66 4.656 419.172 4.656C411.636 4.656 407.796 10.608 407.796 18.864C407.796 27.168 411.636 33.072 419.172 33.072C426.66 33.072 430.5 27.168 430.5 18.864ZM440.611 35.952V30.768H445.843V36.816C445.843 40.8 443.443 43.536 439.075 43.536V41.088C441.523 41.088 442.915 39.984 442.915 36.816V35.952H440.611ZM455.33 36V30.768H460.562V36H455.33ZM469.473 24.288V20.784H482.769V24.288H469.473ZM489.545 18.864C489.545 8.592 494.873 1.152 503.177 1.152C511.529 1.152 516.809 8.592 516.809 18.864C516.809 29.136 511.529 36.576 503.177 36.576C494.873 36.576 489.545 29.136 489.545 18.864ZM493.769 18.864C493.769 27.264 496.937 33.024 503.177 33.024C509.465 33.024 512.633 27.264 512.633 18.864C512.633 10.464 509.465 4.704 503.177 4.704C496.937 4.704 493.769 10.464 493.769 18.864ZM520.638 9.552V6.768C526.493 6.768 528.606 5.136 529.422 1.584H531.966V36H527.838V9.552H520.638ZM562.073 11.136C562.073 17.568 556.745 20.448 551.609 23.76C547.433 26.544 543.305 29.424 543.305 32.544H562.409V36H538.889V34.128C538.889 28.032 544.793 23.76 549.881 20.592C554.441 17.664 558.137 15.12 558.137 11.136C558.137 7.872 556.265 4.608 551.177 4.608C546.473 4.608 543.737 8.16 543.449 12.288H539.561C539.897 6.24 544.025 1.152 551.225 1.152C558.425 1.152 562.073 6.048 562.073 11.136ZM590.982 26.688C590.982 32.016 586.71 36.576 579.03 36.576C571.686 36.576 566.934 32.448 566.454 25.968H570.486C570.773 30.24 573.798 33.216 579.03 33.216C584.022 33.216 587.094 30.672 587.094 26.544C587.094 22.56 584.118 20.304 579.606 20.304H575.862V16.944H579.462C583.062 16.944 586.182 15.36 586.182 10.944C586.182 7.44 583.878 4.512 579.174 4.512C574.278 4.512 571.542 7.92 571.302 12H567.414C567.798 6.048 571.782 1.152 579.174 1.152C586.518 1.152 590.166 5.808 590.166 10.896C590.166 15.12 587.382 18.048 584.022 18.528C588.102 19.152 590.982 22.416 590.982 26.688ZM595.514 22.848C595.514 20.224 595.754 17.664 596.234 15.168C596.746 12.672 597.53 10.288 598.586 8.016C599.642 5.744 600.97 3.648 602.57 1.728H606.554C605.082 3.712 603.834 5.856 602.81 8.16C601.818 10.464 601.066 12.848 600.554 15.312C600.042 17.776 599.786 20.272 599.786 22.8C599.786 25.264 600.042 27.712 600.554 30.144C601.066 32.576 601.818 34.912 602.81 37.152C603.802 39.424 605.034 41.568 606.506 43.584H602.57C600.97 41.696 599.642 39.632 598.586 37.392C597.53 35.184 596.746 32.848 596.234 30.384C595.754 27.92 595.514 25.408 595.514 22.848ZM622.576 43.584H611.824V1.728H622.576V5.184H615.952V40.128H622.576V43.584ZM640.485 43.584C638.533 43.552 636.837 43.264 635.397 42.72C633.989 42.176 632.901 41.328 632.133 40.176C631.365 39.056 630.981 37.648 630.981 35.952V28.896C630.981 27.808 630.757 26.944 630.309 26.304C629.861 25.632 629.205 25.152 628.341 24.864C627.477 24.544 626.405 24.384 625.125 24.384V20.88C626.405 20.848 627.477 20.688 628.341 20.4C629.205 20.112 629.861 19.648 630.309 19.008C630.757 18.336 630.981 17.472 630.981 16.416V9.312C630.981 8.032 631.205 6.928 631.653 6C632.133 5.04 632.789 4.256 633.621 3.648C634.485 3.008 635.493 2.528 636.645 2.208C637.797 1.888 639.077 1.728 640.485 1.728V5.184C639.397 5.216 638.453 5.392 637.653 5.712C636.853 6.032 636.229 6.512 635.781 7.152C635.365 7.792 635.157 8.64 635.157 9.696V16.608C635.157 18.24 634.725 19.552 633.861 20.544C632.997 21.504 631.685 22.144 629.925 22.464V22.752C631.717 23.072 633.029 23.728 633.861 24.72C634.725 25.68 635.157 26.976 635.157 28.608V35.664C635.157 36.688 635.365 37.52 635.781 38.16C636.197 38.832 636.805 39.312 637.605 39.6C638.405 39.92 639.365 40.096 640.485 40.128V43.584Z" fill="#111111"/>
</svg>
